<?xml version="1.0" standalone="no"?>
<!DOCTYPE svg PUBLIC "-//W3C//DTD SVG 1.1//EN" "http://www.w3.org/Graphics/SVG/1.1/DTD/svg11.dtd" >
<svg xmlns="http://www.w3.org/2000/svg" xmlns:xlink="http://www.w3.org/1999/xlink" version="1.1">
<metadata>
Created by FontForge 20170731 at Tue May 26 20:03:18 2015
 By Aleksey,,,
Copyright (c) 2015 by Typejockeys. All rights reserved.
</metadata>
<defs>
<font id="Vito-Light" horiz-adv-x="0" >
  <font-face 
    font-family="Vito Light"
    font-weight="300"
    font-stretch="normal"
    units-per-em="1000"
    panose-1="0 0 4 0 0 0 0 0 0 0"
    ascent="750"
    descent="-250"
    x-height="476"
    cap-height="675"
    bbox="-387 -258 2646 922"
    underline-thickness="50"
    underline-position="-200"
    unicode-range="U+0020-F8FF"
  />
<missing-glyph horiz-adv-x="451" 
d="M369 706v-901h-285v901h285zM300 646h-149v-30h59v-33h-60v-30h150v30h-59v33h59v30zM241 529h-91v-93h150v30h-59v63zM210 499v-33h-30v33h30zM300 411h-150v-29h60v-34h-60v-29h91v63h59v29zM300 357h-30v-59h-120v-31h150v90zM300 247h-90v-50h31v21h29v-43h-90v72
h-30v-101h150v101zM300 92h-150v-102h150v102zM270 62v-43h-90v43h90zM300 -31h-150v-30h64l-64 -42v-30h150v30h-92l63 42h29v30z" />
    <glyph glyph-name="arrowleft" unicode="&#x3c;&#x2d;" horiz-adv-x="764" 
d="M699 305v-42h-578l167 -159l-31 -29l-216 209l216 209l31 -29l-167 -159h578z" />
    <glyph glyph-name="arrowright" unicode="&#x2d;&#x3e;" horiz-adv-x="764" 
d="M502 493l216 -209l-216 -209l-31 29l166 159h-576v42h576l-166 159z" />
    <glyph glyph-name="arrowboth" unicode="&#x3c;&#x2d;&#x3e;" horiz-adv-x="768" 
d="M506 494l215 -209l-215 -210l-31 30l167 159h-517l167 -159l-31 -30l-215 210l215 209l31 -29l-167 -160h517l-167 160z" />
    <glyph glyph-name=".notdef" horiz-adv-x="451" 
d="M369 706v-901h-285v901h285zM300 646h-149v-30h59v-33h-60v-30h150v30h-59v33h59v30zM241 529h-91v-93h150v30h-59v63zM210 499v-33h-30v33h30zM300 411h-150v-29h60v-34h-60v-29h91v63h59v29zM300 357h-30v-59h-120v-31h150v90zM300 247h-90v-50h31v21h29v-43h-90v72
h-30v-101h150v101zM300 92h-150v-102h150v102zM270 62v-43h-90v43h90zM300 -31h-150v-30h64l-64 -42v-30h150v30h-92l63 42h29v30z" />
    <glyph glyph-name=".null" 
 />
    <glyph glyph-name="nonmarkingreturn" horiz-adv-x="333" 
 />
    <glyph glyph-name="space" unicode=" " horiz-adv-x="255" 
 />
    <glyph glyph-name="exclam" unicode="!" horiz-adv-x="287" 
d="M117 675h55l-11 -492h-33zM110 69h69v-69h-69v69z" />
    <glyph glyph-name="quotedbl" unicode="&#x22;" horiz-adv-x="302" 
d="M105 675l-14 -264h-36l-8 264h58zM250 675l-13 -264h-36l-9 264h58z" />
    <glyph glyph-name="numbersign" unicode="#" horiz-adv-x="663" 
d="M627 438h-127l-44 -199h133l-10 -42h-133l-44 -197h-46l44 197h-208l-45 -197h-46l44 197h-120l10 42h120l44 199h-128l11 41h127l44 196h46l-44 -196h208l44 196h46l-44 -196h129zM409 239l45 199h-208l-45 -199h208z" />
    <glyph glyph-name="dollar" unicode="$" horiz-adv-x="615" 
d="M553 195q0 -91 -63 -144t-163 -58v-97h-42v98q-83 4 -147.5 36t-101.5 81l35 37q30 -46 85 -74.5t129 -32.5v292q-44 10 -70 16.5t-59 20t-50.5 28.5t-30 40t-12.5 57q0 78 57 129.5t165 55.5v112h42v-112q124 -8 202 -86l-32 -34q-55 65 -170 72v-260q12 -2 16 -4
q30 -7 44 -10.5t41 -12.5t41 -16.5t32.5 -21t28 -28.5t16.5 -36.5t7 -47.5zM112 496q0 -21 9 -38t22.5 -27.5t38 -20.5t46 -15.5t57.5 -13.5v252q-86 -3 -129.5 -40.5t-43.5 -96.5zM327 41q79 4 128.5 42t49.5 107q0 27 -9 47t-22 32.5t-39.5 23.5t-47.5 16.5t-60 14.5v-283
z" />
    <glyph glyph-name="percent" unicode="%" horiz-adv-x="774" 
d="M204 681q68 0 109 -44.5t41 -111.5v-15q0 -64 -41.5 -108.5t-108.5 -44.5t-109 44.5t-42 107.5v16q0 67 42 111.5t109 44.5zM635 675l-450 -675h-44l450 675h44zM204 644q-51 0 -81.5 -33.5t-30.5 -86.5v-12q0 -51 30.5 -84t81.5 -33t80.5 33t29.5 84v12q0 53 -29.5 86.5
t-80.5 33.5zM574 320q68 0 109 -44.5t41 -111.5v-15q0 -64 -41.5 -109t-108.5 -45t-109 44.5t-42 108.5v16q0 66 42.5 111t108.5 45zM574 283q-51 0 -81.5 -33.5t-30.5 -87.5v-12q0 -51 30.5 -84t81.5 -33t80.5 33t29.5 84v12q0 54 -29.5 87.5t-80.5 33.5z" />
    <glyph glyph-name="ampersand" unicode="&#x26;" horiz-adv-x="720" 
d="M697 0h-57l-86 101q-88 -111 -228 -111q-118 0 -193 57.5t-75 160.5v13q0 87 54 148.5t147 80.5l-151 177l17 48h474v-46h-435l387 -457q13 27 21 47q43 93 25 221h50q8 -127 -32 -230q-14 -38 -35 -72zM330 35q125 0 197 99l-239 282q-84 -14 -132.5 -66.5t-48.5 -130.5
v-6q0 -89 60 -133.5t163 -44.5z" />
    <glyph glyph-name="quotesingle" unicode="'" horiz-adv-x="153" 
d="M101 675l-14 -264h-36l-8 264h58z" />
    <glyph glyph-name="parenleft" unicode="(" horiz-adv-x="362" 
d="M309 756l24 -36q-107 -70 -157 -180.5t-50 -237.5v-25q0 -260 200 -405l-28 -37q-220 155 -220 440v31q0 139 56.5 257t174.5 193z" />
    <glyph glyph-name="parenright" unicode=")" horiz-adv-x="362" 
d="M54 756q117 -74 173.5 -192.5t56.5 -257.5v-31q0 -284 -219 -440l-28 37q200 145 200 405v25q0 127 -50.5 237t-157.5 180z" />
    <glyph glyph-name="asterisk" unicode="*" horiz-adv-x="432" 
d="M241 675l-8 -161l135 76l22 -43l-146 -61l107 -130l-37 -28l-98 134l-100 -134l-36 28l108 130l-145 61l22 43l134 -76l-9 161h51z" />
    <glyph glyph-name="plus" unicode="+" horiz-adv-x="499" 
d="M450 325v-46h-178v-189h-45v189h-178v46h178v189h45v-189h178z" />
    <glyph glyph-name="comma" unicode="," horiz-adv-x="200" 
d="M140 102q-13 -166 -67 -269l-42 13q51 107 58 256h51z" />
    <glyph glyph-name="hyphen" unicode="-" horiz-adv-x="383" 
d="M327 307v-48h-271v48h271z" />
    <glyph glyph-name="period" unicode="." horiz-adv-x="235" 
d="M152 69v-69h-69v69h69z" />
    <glyph glyph-name="slash" unicode="/" horiz-adv-x="455" 
d="M423 755l-341 -850h-50l341 850h50z" />
    <glyph glyph-name="zero" unicode="0" horiz-adv-x="653" 
d="M328 685q125 0 202 -89t77 -233v-53q0 -141 -77 -230t-202 -89q-127 0 -204.5 89.5t-77.5 229.5v53q0 142 78 232t204 90zM327 638q-106 0 -168.5 -76.5t-62.5 -204.5v-41q0 -128 63.5 -203t168.5 -75t166.5 73.5t61.5 204.5v41q0 130 -62 205.5t-167 75.5z" />
    <glyph glyph-name="one" unicode="1" horiz-adv-x="405" 
d="M289 675v-675h-47v616q-94 -55 -186 -109l-12 42q167 100 208 126h37z" />
    <glyph glyph-name="two" unicode="2" horiz-adv-x="595" 
d="M302 685q105 0 173 -46t68 -129q0 -39 -14 -68t-42.5 -50t-60.5 -36.5t-80 -35.5q-5 -2 -8 -3t-7 -2.5t-8 -3.5q-116 -46 -167.5 -103.5t-55.5 -160.5h449v-47h-497q-4 133 48.5 208t186.5 135q17 7 59.5 24t60 26t42.5 26t35 38t10 49q0 67 -52 99t-142 32
q-149 0 -206 -113l-40 30q30 54 93.5 92.5t154.5 38.5z" />
    <glyph glyph-name="three" unicode="3" horiz-adv-x="595" 
d="M340 386q94 -3 150 -45.5t56 -122.5v-22q0 -95 -72 -150t-182 -55q-96 0 -167 36t-107 93l40 34q25 -52 87 -84.5t147 -32.5q90 0 148.5 39.5t58.5 117.5v16q0 76 -48 106.5t-147 30.5q-27 0 -48 -3l-20 45l243 240h-429v46h487v-50l-246 -238q31 0 49 -1z" />
    <glyph glyph-name="four" unicode="4" horiz-adv-x="593" 
d="M588 205v-44h-141v-161h-44v161h-384v42l382 472h46v-470h141zM78 205h325v404z" />
    <glyph glyph-name="five" unicode="5" horiz-adv-x="609" 
d="M528 675v-46h-405l-15 -267q30 34 84 58t126 24q109 0 175.5 -49.5t66.5 -153.5v-23q0 -106 -74 -166.5t-189 -60.5q-85 0 -153 32t-109 89l37 35q66 -110 227 -110q91 0 152 46t61 134v17q0 91 -52 127.5t-148 36.5q-126 0 -204 -87l-46 22l18 342h448z" />
    <glyph glyph-name="six" unicode="6" horiz-adv-x="623" 
d="M336 427q65 0 116.5 -17.5t86.5 -62t35 -111.5v-18q0 -103 -69 -165t-183 -62q-123 0 -199.5 87.5t-76.5 227.5v38q0 149 70.5 245t204.5 96q139 0 218 -85l-33 -34q-35 42 -78.5 57.5t-109.5 15.5q-113 0 -168.5 -83.5t-55.5 -219.5v-20q34 45 96.5 78t145.5 33z
M527 217v13q0 151 -194 151q-78 0 -140 -33.5t-97 -87.5q12 -103 72 -163t153 -60q97 0 151.5 47t54.5 133z" />
    <glyph glyph-name="seven" unicode="7" horiz-adv-x="533" 
d="M519 675v-51l-330 -624h-53l333 629h-449v46h499z" />
    <glyph glyph-name="eight" unicode="8" horiz-adv-x="631" 
d="M313 687q104 0 169 -44t65 -125v-14q0 -59 -34 -95.5t-82 -40.5q61 -4 108 -44.5t47 -113.5v-20q0 -93 -75 -146.5t-197 -53.5q-120 0 -195 54.5t-75 143.5v18q0 76 48 116t105 46q-42 2 -78 39.5t-36 92.5v15q0 81 63.5 126.5t166.5 45.5zM313 641q-81 0 -131 -30.5
t-50 -95.5v-11q0 -117 184 -117q89 0 135.5 27.5t46.5 91.5v11q0 65 -52.5 94.5t-132.5 29.5zM315 346q-222 0 -222 -141v-14q0 -74 61.5 -115t159.5 -41q101 0 162.5 40t61.5 116v15q0 140 -223 140z" />
    <glyph glyph-name="nine" unicode="9" horiz-adv-x="600" 
d="M287 685q123 0 195 -86.5t72 -246.5v-42q0 -151 -69 -235t-203 -84q-78 0 -143.5 32.5t-100.5 86.5l38 33q24 -44 78.5 -75t124.5 -31q116 0 172 69t56 211v39q-35 -39 -96 -64t-129 -25q-102 0 -172.5 49.5t-70.5 140.5v13q0 99 70 157t178 58zM284 312q70 0 129.5 27
t91.5 69q-10 115 -68 173t-154 58q-86 0 -140.5 -43.5t-54.5 -121.5v-13q0 -75 55.5 -112t140.5 -37z" />
    <glyph glyph-name="colon" unicode=":" horiz-adv-x="236" 
d="M152 379v-69h-69v69h69zM152 69v-69h-69v69h69z" />
    <glyph glyph-name="semicolon" unicode=";" horiz-adv-x="220" 
d="M155 379v-69h-69v69h69zM142 102q-11 -164 -66 -269l-42 13q51 107 58 256h50z" />
    <glyph glyph-name="less" unicode="&#x3c;" horiz-adv-x="498" 
d="M450 515v-55l-352 -158l352 -158v-54l-401 189v47z" />
    <glyph glyph-name="equal" unicode="=" horiz-adv-x="499" 
d="M450 418v-45h-401v45h401zM450 231v-46h-401v46h401z" />
    <glyph glyph-name="greater" unicode="&#x3e;" horiz-adv-x="499" 
d="M48 515l402 -189v-47l-402 -189v54l352 158l-352 158v55z" />
    <glyph glyph-name="question" unicode="?" horiz-adv-x="563" 
d="M287 685q101 0 166 -45.5t65 -127.5q0 -61 -34 -97.5t-103 -75.5q-62 -37 -80.5 -72.5t-9.5 -83.5h-50q-30 104 92 179q43 25 59 36t38 30t29 39t7 47q0 61 -50.5 92.5t-132.5 31.5q-70 0 -121.5 -28.5t-75.5 -78.5l-44 28q29 52 90 89t155 37zM300 69v-69h-68v69h68z
" />
    <glyph glyph-name="at" unicode="@" horiz-adv-x="880" 
d="M474 685q177 0 269 -98.5t80 -255.5l-1 -18q-8 -102 -60 -166t-130 -64q-45 0 -74 21t-37 58q-38 -81 -123 -81q-66 0 -97.5 51.5t-25.5 127.5l2 27q7 87 50 140.5t118 54.5q29 0 53.5 -12.5t36.5 -31.5l3 38h48l-22 -276q-3 -35 15.5 -57t57.5 -21q56 0 94 50.5
t46 141.5l1 14q11 148 -68 230.5t-242 82.5q-105 0 -186.5 -49.5t-124 -127.5t-50.5 -172l-3 -41q-11 -140 58 -227t199 -87q56 -1 107.5 14.5t79.5 47.5l28 -38q-78 -67 -212 -67q-154 0 -237 101t-71 261l3 34q13 164 124 279.5t291 115.5zM403 122q44 0 73.5 32.5
t43.5 83.5l12 150q-26 54 -85 54q-53 0 -84.5 -43.5t-37.5 -112.5l-3 -30q-4 -60 15.5 -97t65.5 -37z" />
    <glyph glyph-name="A" unicode="A" horiz-adv-x="687" 
d="M617 0l-82 198h-373l-91 -198h-52l310 675h57l282 -675h-51zM182 243h334l-159 384z" />
    <glyph glyph-name="B" unicode="B" horiz-adv-x="693" 
d="M494 357q61 1 107 -37.5t46 -110.5v-18q0 -87 -57.5 -139t-169.5 -52h-327v675h309q102 0 151.5 -44t49.5 -117v-17q0 -57 -31.5 -97t-77.5 -43zM413 627h-271v-252h278q63 0 98.5 32.5t35.5 90.5v13q0 116 -141 116zM597 190v14q0 125 -157 125h-298v-281h275
q180 0 180 142z" />
    <glyph glyph-name="C" unicode="C" horiz-adv-x="661" 
d="M358 685q173 0 264 -124l-38 -29q-70 105 -230 105q-118 0 -185 -80.5t-67 -212.5v-29q0 -129 72 -203t189 -74q73 0 134 32.5t92 89.5l42 -31q-90 -139 -268 -139q-139 0 -225.5 87.5t-86.5 236.5v29q0 150 82 246t225 96z" />
    <glyph glyph-name="D" unicode="D" horiz-adv-x="722" 
d="M341 675q156 0 243 -84t87 -234v-37q0 -148 -84.5 -234t-236.5 -86h-257v675h248zM340 627h-197v-579h204q133 0 203 70.5t70 203.5v32q0 136 -72 204.5t-208 68.5z" />
    <glyph glyph-name="E" unicode="E" horiz-adv-x="624" 
d="M570 628h-427v-262h358v-47h-358v-272h427v-47h-477v675h477v-47z" />
    <glyph glyph-name="F" unicode="F" horiz-adv-x="607" 
d="M572 628h-429v-281h365v-48h-365v-299h-50v675h479v-47z" />
    <glyph glyph-name="G" unicode="G" horiz-adv-x="717" 
d="M645 0h-39q-11 38 -12 72q-86 -82 -238 -82q-135 0 -220 86t-85 233v29q0 93 32.5 169.5t105.5 126.5t175 50q171 0 258 -115l-42 -30q-63 97 -217 97q-87 0 -147.5 -42.5t-87 -108t-26.5 -148.5v-25q0 -127 70 -200.5t190 -73.5q78 0 137.5 24t91.5 64v179h-226v45h273
v-242q0 -58 7 -108z" />
    <glyph glyph-name="H" unicode="H" horiz-adv-x="736" 
d="M593 675h50v-675h-50v316h-450v-316h-50v675h50v-311h450v311z" />
    <glyph glyph-name="I" unicode="I" horiz-adv-x="239" 
d="M95 0v675h50v-675h-50z" />
    <glyph glyph-name="J" unicode="J" horiz-adv-x="640" 
d="M563 675v-431q0 -123 -70.5 -188.5t-196.5 -65.5q-88 0 -159.5 42t-107.5 109l44 30q26 -61 86.5 -97.5t137.5 -36.5q216 0 216 209v382h-428v47h478z" />
    <glyph glyph-name="K" unicode="K" horiz-adv-x="668" 
d="M583 0l-269 346l-172 -177v-169h-49v675h49v-438l425 438h66l-286 -295l296 -380h-60z" />
    <glyph glyph-name="L" unicode="L" horiz-adv-x="587" 
d="M143 675v-628h404v-47h-454v675h50z" />
    <glyph glyph-name="M" unicode="M" horiz-adv-x="874" 
d="M721 675h63v-675h-47v615l-284 -459h-31l-284 460v-616h-48v675h64l283 -459z" />
    <glyph glyph-name="N" unicode="N" horiz-adv-x="738" 
d="M601 675h47v-675h-61l-450 617v-617h-47v675h60l451 -615v615z" />
    <glyph glyph-name="O" unicode="O" horiz-adv-x="720" 
d="M360 685q141 0 225.5 -92.5t84.5 -235.5v-43q0 -140 -84 -231.5t-225 -91.5q-142 0 -226 91.5t-84 230.5v43q0 145 83.5 237t225.5 92zM360 638q-119 0 -188.5 -77t-69.5 -209v-35q0 -127 70.5 -203t188.5 -76t188 75.5t70 205.5v34q0 131 -70 208t-189 77z" />
    <glyph glyph-name="P" unicode="P" horiz-adv-x="656" 
d="M378 675q111 0 172 -50t61 -149v-21q0 -94 -63.5 -148t-171.5 -54h-233v-253h-50v675h285zM561 457v16q0 80 -44.5 117t-135.5 37h-238v-326h230q188 0 188 156z" />
    <glyph glyph-name="Q" unicode="Q" horiz-adv-x="721" 
d="M670 314q0 -95 -39.5 -170t-111.5 -115l100 -138h-53l-86 120q-55 -20 -119 -20q-142 0 -226 91.5t-84 230.5v43q0 145 84 237t226 92q141 0 225 -92.5t84 -235.5v-43zM491 68q61 33 95 97.5t34 153.5v34q0 131 -70.5 208t-189.5 77t-188.5 -77t-69.5 -209v-35
q0 -127 70.5 -203t188.5 -76q46 0 90 13l-106 148h51z" />
    <glyph glyph-name="R" unicode="R" horiz-adv-x="666" 
d="M566 0l-192 275h-232v-275h-49v675h290q108 0 165.5 -50.5t57.5 -136.5v-19q0 -79 -46.5 -130.5t-130.5 -61.5l195 -277h-58zM142 627v-305h251q81 0 122 38.5t41 109.5v14q0 143 -164 143h-250z" />
    <glyph glyph-name="S" unicode="S" horiz-adv-x="606" 
d="M310 -9q-92 0 -163.5 33t-110.5 86l35 37q33 -50 95 -79.5t144 -29.5q89 0 145 38.5t56 113.5q0 20 -5.5 36t-11.5 27.5t-23.5 22t-26.5 16t-37.5 14t-39.5 11t-47 10.5q-2 1 -3 1t-3 0.5t-3.5 1t-3.5 0.5q-37 8 -55 12t-49 12.5t-47 16t-37 20.5t-31 27.5t-17.5 35
t-7.5 44.5q0 82 62.5 134.5t181.5 52.5q141 0 228 -87l-32 -35q-62 74 -202 74q-94 0 -141 -38t-47 -101q0 -23 10.5 -40.5t25.5 -28.5t44.5 -21.5t52 -16t64.5 -14.5q8 -2 12.5 -3t11.5 -2.5t13 -2.5q42 -10 62.5 -15.5t54.5 -20t51 -30.5t30.5 -44.5t13.5 -64.5
q0 -96 -69.5 -149.5t-179.5 -53.5z" />
    <glyph glyph-name="T" unicode="T" horiz-adv-x="611" 
d="M588 675v-47h-257v-628h-51v628h-257v47h565z" />
    <glyph glyph-name="U" unicode="U" horiz-adv-x="710" 
d="M632 675v-416q0 -125 -72 -197t-204 -72q-131 0 -204.5 70.5t-73.5 194.5v420h51v-425q0 -103 61.5 -157.5t166.5 -54.5t164.5 55.5t59.5 160.5v421h51z" />
    <glyph glyph-name="V" unicode="V" horiz-adv-x="683" 
d="M603 675h54l-282 -675h-62l-287 675h54l264 -630z" />
    <glyph glyph-name="W" unicode="W" horiz-adv-x="944" 
d="M866 675h51l-243 -675h-62l-137 334l-132 -334h-62l-254 675h50l235 -636l131 331l-127 305h52l107 -270l100 270h51l-120 -304l136 -332z" />
    <glyph glyph-name="X" unicode="X" horiz-adv-x="655" 
d="M621 0h-59l-235 321l-234 -321h-59l257 347l-238 328h59l215 -301l215 301h59l-238 -327z" />
    <glyph glyph-name="Y" unicode="Y" horiz-adv-x="635" 
d="M559 675h59l-273 -437v-238h-50v239l-278 436h58l245 -389z" />
    <glyph glyph-name="Z" unicode="Z" horiz-adv-x="614" 
d="M115 47h449v-47h-505v51l448 577h-445v47h500v-52z" />
    <glyph glyph-name="bracketleft" unicode="[" horiz-adv-x="321" 
d="M285 745v-44h-160v-810h160v-44h-207v898h207z" />
    <glyph glyph-name="backslash" unicode="\" horiz-adv-x="456" 
d="M32 755h50l341 -850h-49z" />
    <glyph glyph-name="bracketright" unicode="]" horiz-adv-x="321" 
d="M36 745h207v-898h-207v44h160v810h-160v44z" />
    <glyph glyph-name="asciicircum" unicode="^" horiz-adv-x="485" 
d="M457 332h-54l-159 304l-162 -304h-54l187 343h58z" />
    <glyph glyph-name="underscore" unicode="_" horiz-adv-x="476" 
d="M472 0v-44h-469v44h469z" />
    <glyph glyph-name="grave" unicode="`" horiz-adv-x="225" 
d="M96 721l95 -169h-42l-114 169h61z" />
    <glyph glyph-name="a" unicode="a" horiz-adv-x="511" 
d="M455 0h-45q-7 41 -8 67q-63 -77 -173 -77q-79 0 -133 38t-54 111q0 78 50.5 114.5t137.5 36.5q93 0 173 -40v51q1 73 -37.5 106.5t-108.5 33.5q-108 0 -152 -72l-33 32q61 85 187 85q87 0 138.5 -47t50.5 -140q-1 -52 -1 -174q0 -98 8 -125zM232 35q117 0 171 82v93
q-76 37 -163 37q-74 0 -111.5 -23t-37.5 -81q0 -55 39 -81.5t102 -26.5z" />
    <glyph glyph-name="b" unicode="b" horiz-adv-x="561" 
d="M301 486q107 0 163 -62t56 -165v-27q0 -111 -58.5 -176.5t-166.5 -65.5q-92 0 -170 72l-3 -62h-44v706h48v-306q28 38 73.5 62t101.5 24zM471 230v21q0 190 -172 190q-118 0 -173 -96v-234q26 -33 71.5 -54.5t97.5 -21.5q85 0 130.5 51t45.5 144z" />
    <glyph glyph-name="c" unicode="c" horiz-adv-x="491" 
d="M265 486q132 0 197 -102l-40 -27q-46 84 -160 84q-78 0 -125 -54.5t-47 -139.5v-22q0 -89 46.5 -139.5t128.5 -50.5q61 0 102.5 25.5t59.5 68.5l41 -28q-69 -110 -203 -110q-102 0 -163 63.5t-61 168.5v26q0 101 61 169t163 68z" />
    <glyph glyph-name="d" unicode="d" horiz-adv-x="551" 
d="M492 0h-48q-7 18 -9 68q-23 -33 -69 -55t-106 -22q-96 0 -157.5 59t-61.5 163v25q0 116 62.5 182t167.5 66q51 0 96 -17.5t68 -43.5v281h48v-570q0 -108 9 -136zM264 36q122 0 171 88v245q-24 35 -69 53.5t-97 18.5q-84 0 -131.5 -53.5t-47.5 -150.5v-19q0 -88 47.5 -135
t126.5 -47z" />
    <glyph glyph-name="e" unicode="e" horiz-adv-x="508" 
d="M476 236h-387v-14q0 -90 46.5 -139t124.5 -49q115 0 162 89l37 -27q-26 -45 -77 -75.5t-123 -30.5q-97 0 -157.5 62.5t-60.5 166.5v27q0 101 59 170.5t162 69.5q108 0 160.5 -70t53.5 -167v-13zM259 442q-73 0 -116 -44.5t-52 -120.5h335q-16 165 -167 165z" />
    <glyph glyph-name="f" unicode="f" horiz-adv-x="366" 
d="M258 713q70 0 107 -34l-21 -39q-29 30 -87 30q-39 0 -56.5 -26.5t-17.5 -83.5v-84h158v-42h-158v-434h-47v434h-110v42h110v84q0 153 122 153z" />
    <glyph glyph-name="g" unicode="g" horiz-adv-x="551" 
d="M437 476h42v-471q0 -105 -58 -157t-159 -52q-68 0 -123.5 26t-89.5 70l36 34q25 -39 72 -62.5t108 -23.5q81 0 125 39t44 117v78q-22 -33 -65.5 -55t-106.5 -22q-102 0 -161.5 60t-59.5 162v26q0 109 57.5 175t164.5 66q54 0 101 -19.5t71 -45.5zM266 41q59 0 103 24.5
t64 62.5v243q-24 32 -68.5 51t-99.5 19q-88 0 -132 -53t-44 -146v-16q0 -89 45.5 -137t131.5 -48z" />
    <glyph glyph-name="h" unicode="h" horiz-adv-x="562" 
d="M300 486q89 0 140 -51.5t51 -153.5v-281h-50v281q0 83 -37 121t-111 38q-110 0 -166 -101v-339h-49v706h49v-309q22 37 67.5 63t105.5 26z" />
    <glyph glyph-name="i" unicode="i" horiz-adv-x="203" 
d="M73 675h57v-66h-57v66zM126 476v-476h-48v476h48z" />
    <glyph glyph-name="j" unicode="j" horiz-adv-x="208" 
d="M76 675h56v-66h-56v66zM128 476v-537q0 -140 -114 -140q-59 0 -99 36l22 43q29 -35 75 -35q35 0 51.5 22t16.5 70v541h48z" />
    <glyph glyph-name="k" unicode="k" horiz-adv-x="505" 
d="M434 0l-193 242l-116 -114v-128h-47v706h47v-520l292 290h64l-208 -204l216 -272h-55z" />
    <glyph glyph-name="l" unicode="l" horiz-adv-x="202" 
d="M125 706v-706h-47v706h47z" />
    <glyph glyph-name="m" unicode="m" horiz-adv-x="872" 
d="M610 486q191 0 191 -207v-279h-50v284q0 156 -140 156q-96 0 -146 -80v-360h-50v305q0 135 -133 135q-47 0 -88 -25t-64 -67v-348h-50v476h46l2 -76q22 36 65 61t101 25q52 0 92.5 -25.5t55.5 -67.5q26 39 70 66t98 27z" />
    <glyph glyph-name="n" unicode="n" horiz-adv-x="565" 
d="M303 486q90 0 140.5 -51t50.5 -147v-288h-50v280q0 82 -35.5 121t-112.5 39q-54 0 -98 -27t-68 -72v-341h-50v476h47l1 -81q27 41 73.5 66t101.5 25z" />
    <glyph glyph-name="o" unicode="o" horiz-adv-x="534" 
d="M267 486q104 0 165.5 -66t61.5 -170v-24q0 -104 -61.5 -169.5t-164.5 -65.5q-105 0 -166 66t-61 170v23q0 103 60.5 169.5t165.5 66.5zM268 441q-85 0 -131.5 -53t-46.5 -142v-17q0 -90 46.5 -142t130.5 -52q82 0 130 51t48 142v18q0 89 -46.5 142t-130.5 53z" />
    <glyph glyph-name="p" unicode="p" horiz-adv-x="560" 
d="M303 486q98 0 157.5 -62.5t59.5 -166.5v-24q0 -111 -60 -176.5t-165 -65.5q-102 0 -172 62v-248h-46v671h45l2 -76q61 86 179 86zM471 235v20q0 91 -46.5 138.5t-126.5 47.5q-115 0 -173 -95v-242q67 -69 169 -69q83 0 130 52.5t47 147.5z" />
    <glyph glyph-name="q" unicode="q" horiz-adv-x="557" 
d="M439 476h46v-671h-47v260q-25 -30 -70.5 -52t-103.5 -22q-101 0 -162 62t-61 170v24q0 109 60.5 174t162.5 65q56 0 102.5 -20t70.5 -48zM265 36q56 0 100.5 22.5t70.5 58.5v249q-20 30 -63.5 52.5t-109.5 22.5q-80 0 -126.5 -51.5t-46.5 -144.5v-19q0 -93 48 -141.5
t127 -48.5z" />
    <glyph glyph-name="r" unicode="r" horiz-adv-x="319" 
d="M250 480q35 0 54 -11l-9 -48q-17 12 -47 12q-42 0 -75 -36.5t-45 -95.5v-301h-48v476h47l1 -109q14 54 45 83.5t77 29.5z" />
    <glyph glyph-name="s" unicode="s" horiz-adv-x="452" 
d="M231 -9q-129 0 -200 86l33 35q53 -77 163 -77q69 0 108 25.5t39 75.5q0 15 -3.5 27t-13 20.5t-17 14t-25 10.5t-26 7t-31.5 6t-31 6q-41 9 -59 13.5t-46.5 14.5t-40.5 20.5t-22 29t-10 42.5q0 60 49 99t132 39q114 0 174 -69l-30 -32q-44 57 -148 57q-58 0 -94 -25
t-36 -67q0 -12 3.5 -21t13 -16t17.5 -12t25.5 -10t27 -7.5t33 -7.5t34.5 -7q6 -1 28 -6t30.5 -7.5t27.5 -8.5t27.5 -11.5t21.5 -15t18.5 -20t10.5 -26t5 -33.5q0 -72 -51 -110.5t-137 -38.5z" />
    <glyph glyph-name="t" unicode="t" horiz-adv-x="368" 
d="M323 71l22 -38q-40 -42 -115 -42q-53 0 -82.5 32.5t-29.5 95.5v315h-92v42h92v118l47 14v-132h174v-42h-174v-313q0 -87 70 -87q55 0 88 37z" />
    <glyph glyph-name="u" unicode="u" horiz-adv-x="544" 
d="M484 0h-48q-8 28 -10 70q-24 -32 -67 -55.5t-97 -23.5q-93 0 -145 48t-52 144v293h51v-287q0 -81 38 -117t112 -36q53 0 94 24t63 61v355h50v-336q0 -105 11 -140z" />
    <glyph glyph-name="v" unicode="v" horiz-adv-x="489" 
d="M425 476h53l-205 -476h-60l-202 476h53l179 -434z" />
    <glyph glyph-name="w" unicode="w" horiz-adv-x="737" 
d="M671 476h51l-152 -476h-58l-143 431l-140 -431h-57l-157 476h51l134 -430l139 430h58l144 -431z" />
    <glyph glyph-name="x" unicode="x" horiz-adv-x="501" 
d="M478 -1h-58l-168 221l-171 -221h-58l193 245l-177 233h58l155 -209l157 209h58l-180 -233z" />
    <glyph glyph-name="y" unicode="y" horiz-adv-x="479" 
d="M416 476h52q-220 -531 -315 -678l-44 21q72 100 106 185l-204 472h53l177 -428z" />
    <glyph glyph-name="z" unicode="z" horiz-adv-x="476" 
d="M105 45h328v-45h-384v45l324 386h-321v45h375v-47z" />
    <glyph glyph-name="braceleft" unicode="{" horiz-adv-x="386" 
d="M349 757l8 -43q-76 -1 -110 -34t-34 -98q0 -29 6.5 -77.5t6.5 -84.5q0 -44 -26 -80t-70 -42q45 -4 70.5 -40.5t25.5 -88.5q0 -30 -5.5 -79.5t-5.5 -85.5q0 -61 31.5 -91.5t106.5 -32.5l-8 -42q-91 1 -134.5 42.5t-43.5 113.5q0 36 5.5 87t5.5 81q0 117 -126 114v44
q65 -3 96 28.5t31 83.5q0 24 -7.5 72t-7.5 84q0 76 45.5 121t139.5 48z" />
    <glyph glyph-name="bar" unicode="|" horiz-adv-x="296" 
d="M171 754v-912h-46v912h46z" />
    <glyph glyph-name="braceright" unicode="}" horiz-adv-x="363" 
d="M37 757q94 -3 139.5 -48t45.5 -121q0 -36 -7.5 -84t-7.5 -72q0 -52 31 -83.5t96 -28.5v-44q-125 3 -125 -114q0 -30 5 -81t5 -87q0 -72 -43.5 -113.5t-134.5 -42.5l-8 42q75 2 107 32.5t32 91.5q0 36 -6 85.5t-6 79.5q0 52 25.5 88.5t70.5 40.5q-44 6 -70 42t-26 80
q0 36 6.5 84.5t6.5 77.5q0 65 -34 98t-110 34z" />
    <glyph glyph-name="asciitilde" unicode="~" horiz-adv-x="496" 
d="M448 359v-60q-31 -34 -107 -34q-36 0 -93.5 22t-86.5 22q-74 0 -112 -56v56q27 48 113 48q36 0 92.5 -22.5t87.5 -22.5q71 0 106 47z" />
    <glyph glyph-name="uni00A0" unicode="&#xa0;" horiz-adv-x="255" 
 />
    <glyph glyph-name="exclamdown" unicode="&#xa1;" horiz-adv-x="288" 
d="M179 406h-68v70h68v-70zM173 -199h-55l11 492h33z" />
    <glyph glyph-name="cent" unicode="&#xa2;" horiz-adv-x="492" 
d="M468 198q-60 -97 -174 -109v-89h-50v88q-93 7 -148 69.5t-55 162.5v26q0 97 55 163t150 73v93h49v-94q111 -11 167 -100l-40 -27q-46 84 -160 84q-78 0 -125 -54.5t-47 -139.5v-22q0 -88 46.5 -139t128.5 -51q61 0 102.5 25.5t59.5 68.5z" />
    <glyph glyph-name="sterling" unicode="&#xa3;" horiz-adv-x="610" 
d="M96 47h469v-47h-529v56q62 35 101.5 90t39.5 123q0 23 -4 39h-119v45h104q-3 7 -19.5 40.5t-23 56t-6.5 51.5q0 87 57.5 134.5t151.5 47.5q141 0 221 -88l-37 -33q-58 75 -182 75q-71 0 -116.5 -33.5t-45.5 -103.5q0 -27 7 -50t22.5 -54t20.5 -43h272v-45h-259
q3 -16 3 -36q0 -74 -35.5 -133t-92.5 -92z" />
    <glyph glyph-name="currency" unicode="&#xa4;" horiz-adv-x="591" 
d="M483 325q0 -60 -34 -109l90 -86l-32 -32l-89 84q-53 -48 -127 -48q-76 0 -131 48l-87 -85l-33 33l90 86q-35 51 -35 110v16q0 66 35 117l-90 85l33 33l88 -84q53 45 130 45q73 0 126 -45l89 84l33 -33l-91 -85q35 -53 35 -116v-18zM291 179q65 0 104.5 42t39.5 107v13
q0 70 -39 111.5t-106 41.5t-106 -41.5t-39 -112.5v-11q0 -66 39.5 -108t106.5 -42z" />
    <glyph glyph-name="yen" unicode="&#xa5;" horiz-adv-x="663" 
d="M631 675l-181 -289h111v-45h-139l-60 -96h199v-45h-203v-200h-51v200h-222v45h218l-61 96h-157v45h129l-185 289h59l245 -389l240 389h58z" />
    <glyph glyph-name="brokenbar" unicode="&#xa6;" horiz-adv-x="296" 
d="M171 754v-369h-46v369h46zM171 211v-369h-46v369h46z" />
    <glyph glyph-name="section" unicode="&#xa7;" horiz-adv-x="569" 
d="M410 140q70 -33 70 -105q0 -69 -57.5 -108.5t-145.5 -39.5q-82 0 -142.5 29t-93.5 73l37 33q53 -90 196 -90q67 0 112 24.5t45 76.5q0 33 -22.5 52.5t-47 26t-90.5 17.5q-7 1 -10 2q-45 10 -73 17t-60.5 20.5t-50 29t-29.5 39.5t-12 56q0 102 109 143q-76 33 -76 102
q0 67 55.5 107t155.5 40q119 0 203 -80l-36 -30q-53 66 -179 66q-67 0 -107 -24.5t-40 -75.5q0 -16 5 -28t17 -21t23 -15.5t32.5 -12t36 -8.5t43 -8.5t43.5 -8.5q44 -9 71.5 -18.5t57 -26.5t43.5 -44.5t14 -65.5q0 -46 -26.5 -84t-70.5 -60zM86 295q0 -30 14.5 -50.5t43 -33
t59 -21t72.5 -16.5q11 -2 17 -3q43 -7 65 -13q46 15 73 47t27 76q0 20 -5.5 36t-19 28t-25.5 19.5t-36.5 14.5t-39.5 10.5t-47 9.5q-31 6 -86 19q-112 -30 -112 -123z" />
    <glyph glyph-name="dieresis" unicode="&#xa8;" horiz-adv-x="416" 
d="M142 644v-65h-64v65h64zM339 644v-65h-64v65h64z" />
    <glyph glyph-name="copyright" unicode="&#xa9;" horiz-adv-x="777" 
d="M388 687q154 0 248 -97.5t94 -233.5v-38q0 -87 -39.5 -161t-119 -121t-183.5 -47q-78 0 -143.5 27.5t-108.5 73.5t-66.5 104.5t-23.5 122.5v38q0 136 95 234t247 98zM388 643q-132 0 -214 -83t-82 -210v-28q0 -125 81.5 -207t214.5 -82q134 0 215 81.5t81 209.5v27
q0 127 -80.5 209.5t-215.5 82.5zM387 541q55 0 89 -19.5t60 -55.5l-32 -26q-25 32 -50 45.5t-69 13.5q-56 0 -90 -40t-34 -105v-25q0 -66 36.5 -103.5t95.5 -37.5q82 0 119 66l34 -27q-55 -81 -151 -81q-80 0 -129.5 49.5t-49.5 129.5v30q0 85 45.5 135.5t125.5 50.5z" />
    <glyph glyph-name="ordfeminine" unicode="&#xaa;" horiz-adv-x="414" 
d="M372 301h-45q-5 13 -7 44q-44 -53 -128 -53q-61 0 -105 30t-44 86q0 117 151 117q67 0 126 -17v26q0 58 -29 81.5t-81 23.5q-86 0 -112 -55l-34 28q38 68 147 69q154 0 154 -152v-132q0 -71 7 -96zM196 333q80 0 124 57v81q-52 16 -115 16q-54 0 -84.5 -15.5t-30.5 -60.5
q0 -39 31 -58.5t75 -19.5z" />
    <glyph glyph-name="guillemotleft" unicode="&#xab;" horiz-adv-x="584" 
d="M312 429l-193 -179l193 -179h-65l-191 179l191 179h65zM518 429l-192 -179l192 -179h-65l-191 179l191 179h65z" />
    <glyph glyph-name="logicalnot" unicode="&#xac;" horiz-adv-x="513" 
d="M464 388v-192h-44v149h-371v43h415z" />
    <glyph glyph-name="uni00AD" unicode="&#xad;" horiz-adv-x="383" 
d="M327 307v-48h-271v48h271z" />
    <glyph glyph-name="registered" unicode="&#xae;" horiz-adv-x="777" 
d="M388 687q154 0 248 -97.5t94 -233.5v-38q0 -87 -39.5 -161t-119 -121t-183.5 -47q-78 0 -143.5 27.5t-108.5 73.5t-66.5 104.5t-23.5 122.5v38q0 136 95 234t247 98zM684 324v27q0 127 -80.5 209.5t-215.5 82.5q-132 0 -214 -83t-82 -210v-28q0 -125 81.5 -207t214.5 -82
q134 0 215 81.5t81 209.5zM548 412q0 -38 -23.5 -65.5t-65.5 -37.5l96 -149h-51l-89 145h-117v-145h-43v372h163q61 0 95.5 -29.5t34.5 -75.5v-15zM298 492v-148h120q42 0 64.5 19t22.5 49v11q0 69 -84 69h-123z" />
    <glyph glyph-name="macron" unicode="&#xaf;" horiz-adv-x="434" 
d="M357 635v-45h-279v45h279z" />
    <glyph glyph-name="degree" unicode="&#xb0;" horiz-adv-x="376" 
d="M191 685q63 0 102.5 -41t39.5 -103q0 -63 -39.5 -105.5t-102.5 -42.5q-67 0 -107.5 42.5t-40.5 105.5q0 61 40 102.5t108 41.5zM191 645q-48 0 -77 -29t-29 -75q0 -48 28.5 -78t77.5 -30q45 0 72.5 29.5t27.5 78.5q0 46 -28 75t-72 29z" />
    <glyph glyph-name="plusminus" unicode="&#xb1;" horiz-adv-x="499" 
d="M273 368h178v-42h-178v-179h-46v179h-178v42h178v179h46v-179zM49 23v45h401v-45h-401z" />
    <glyph glyph-name="acute" unicode="&#xb4;" horiz-adv-x="225" 
d="M193 721l-118 -170h-43l101 170h60z" />
    <glyph glyph-name="paragraph" unicode="&#xb6;" horiz-adv-x="692" 
d="M658 675v-40h-71v-739h-47v739h-115v-739h-46v237q-144 3 -236 66t-92 189v31q0 125 92.5 190.5t258.5 65.5h256z" />
    <glyph glyph-name="periodcentered" unicode="&#xb7;" horiz-adv-x="235" 
d="M152 319v-70h-69v70h69z" />
    <glyph glyph-name="cedilla" unicode="&#xb8;" horiz-adv-x="285" 
d="M152 13l-13 -68q107 10 107 -74q0 -40 -29 -64t-83 -24q-32 0 -61 10t-40 21l19 43q9 -14 32 -25t50 -11q70 0 70 49q0 42 -50 42q-18 0 -34 -6l-24 26l13 81h43z" />
    <glyph glyph-name="ordmasculine" unicode="&#xba;" horiz-adv-x="442" 
d="M221 682q82 0 130.5 -51.5t48.5 -130.5v-26q0 -79 -49 -129.5t-130 -50.5q-80 0 -129 51t-49 128v26q0 79 48.5 131t129.5 52zM221 639q-60 0 -95 -39.5t-35 -102.5v-22q0 -63 35 -101t95 -38t95 37.5t35 100.5v24q0 63 -34.5 102t-95.5 39z" />
    <glyph glyph-name="guillemotright" unicode="&#xbb;" horiz-adv-x="585" 
d="M63 429h65l191 -179l-191 -179h-65l192 179zM269 429h65l191 -179l-191 -179h-65l193 179z" />
    <glyph glyph-name="onequarter" unicode="&#xbc;" horiz-adv-x="725" 
d="M168 296v328l-124 -68l-9 40q71 38 146 81h28v-381h-41zM570 675h44l-451 -675h-44zM721 128v-40h-86v-85h-38v85h-219v41l213 254h44v-255h86zM428 128h169l-1 203z" />
    <glyph glyph-name="onehalf" unicode="&#xbd;" horiz-adv-x="791" 
d="M209 677v-381h-41v328l-124 -68l-9 40q71 38 146 81h28zM614 675l-451 -675h-44l451 675h44zM604 391q65 0 104.5 -27.5t39.5 -81.5q0 -44 -29 -66t-97 -44q-70 -20 -99 -49t-28 -80h259v-41h-304q-6 81 25.5 127.5t116.5 74.5q76 25 95 40q17 16 17 37q1 36 -26 51.5
t-75 15.5q-86 0 -118 -62l-34 27q46 78 153 78z" />
    <glyph glyph-name="threequarters" unicode="&#xbe;" horiz-adv-x="775" 
d="M336 410q0 -57 -46 -89.5t-111 -32.5q-53 0 -99 23t-66 56l32 30q15 -29 52 -48.5t82 -19.5q47 0 80 20t33 60v6q0 39 -21 53.5t-58 14.5q-28 0 -57 -9l-19 39l126 122h-229v40h285v-44l-127 -116q13 4 50 2q40 -3 66.5 -27.5t26.5 -70.5v-9zM620 675h44l-451 -675h-44z
M771 128v-40h-86v-85h-38v85h-219v41l213 254h44v-255h86zM478 128h169l-1 203z" />
    <glyph glyph-name="questiondown" unicode="&#xbf;" horiz-adv-x="564" 
d="M263 406v70h69v-70h-69zM277 -209q-102 0 -167 45t-65 128q0 61 34 97.5t104 75.5q61 37 79.5 72.5t9.5 82.5l51 1q30 -104 -93 -179q-36 -22 -47.5 -29t-34.5 -24t-30 -28.5t-14 -30t-7 -40.5q0 -61 50.5 -92.5t133.5 -31.5q70 0 121.5 28.5t75.5 78.5l44 -28
q-29 -52 -90 -89t-155 -37z" />
    <glyph glyph-name="Agrave" unicode="&#xc0;" horiz-adv-x="687" 
d="M394 737h-51l-149 137h72zM617 0l-82 198h-373l-91 -198h-52l310 675h57l282 -675h-51zM182 243h334l-159 384z" />
    <glyph glyph-name="Aacute" unicode="&#xc1;" horiz-adv-x="687" 
d="M535 874l-163 -137h-51l143 137h71zM617 0l-82 198h-373l-91 -198h-52l310 675h57l282 -675h-51zM182 243h334l-159 384z" />
    <glyph glyph-name="Acircumflex" unicode="&#xc2;" horiz-adv-x="687" 
d="M357 844l-106 -107h-61l142 138h51l139 -138h-60zM617 0l-82 198h-373l-91 -198h-52l310 675h57l282 -675h-51zM182 243h334l-159 384z" />
    <glyph glyph-name="Atilde" unicode="&#xc3;" horiz-adv-x="687" 
d="M289 785q-52 0 -78 -40v52q21 32 78 32q29 0 73.5 -15.5t66.5 -15.5q50 0 76 33v-52q-23 -25 -77 -25q-22 0 -68.5 15.5t-70.5 15.5zM617 0l-82 198h-373l-91 -198h-52l310 675h57l282 -675h-51zM182 243h334l-159 384z" />
    <glyph glyph-name="Adieresis" unicode="&#xc4;" horiz-adv-x="687" 
d="M268 825v-68h-66v68h66zM511 825v-68h-67v68h67zM617 0l-82 198h-373l-91 -198h-52l310 675h57l282 -675h-51zM182 243h334l-159 384z" />
    <glyph glyph-name="Aring" unicode="&#xc5;" horiz-adv-x="687" 
d="M357 728q-44 0 -73 27t-29 71q0 43 29 69.5t73 26.5t73 -26.5t29 -69.5q0 -44 -29 -71t-73 -27zM357 883q-27 0 -43 -15.5t-16 -42.5t15.5 -42.5t43.5 -15.5q27 0 42 15.5t15 42.5t-15 42.5t-42 15.5zM617 0l-82 198h-373l-91 -198h-52l310 675h57l282 -675h-51zM182 243
h334l-159 384z" />
    <glyph glyph-name="AE" unicode="&#xc6;" horiz-adv-x="980" 
d="M931 628h-404v-259h335v-47h-335v-275h404v-47h-453v198h-294l-135 -198h-55l460 675h477v-47zM215 244h263v385z" />
    <glyph glyph-name="Ccedilla" unicode="&#xc7;" horiz-adv-x="661" 
d="M631 129q-84 -127 -241 -138l-12 -61q18 4 47 0q37 -3 60.5 -24.5t23.5 -61.5q0 -48 -36.5 -75t-93.5 -27q-37 0 -73.5 11.5t-54.5 27.5l21 43q34 -41 107 -41q86 0 86 60q0 52 -63 54q-21 1 -41 -4l-26 24l11 74q-133 5 -214 91.5t-81 231.5v29q0 150 82 246t225 96
q173 0 264 -124l-38 -29q-70 105 -230 105q-118 0 -185 -80.5t-67 -212.5v-29q0 -129 72 -203t189 -74q73 0 134 32.5t92 89.5z" />
    <glyph glyph-name="Egrave" unicode="&#xc8;" horiz-adv-x="624" 
d="M371 737h-51l-149 137h72zM570 628h-427v-262h358v-47h-358v-272h427v-47h-477v675h477v-47z" />
    <glyph glyph-name="Eacute" unicode="&#xc9;" horiz-adv-x="624" 
d="M512 874l-163 -137h-51l143 137h71zM570 628h-427v-262h358v-47h-358v-272h427v-47h-477v675h477v-47z" />
    <glyph glyph-name="Ecircumflex" unicode="&#xca;" horiz-adv-x="624" 
d="M334 844l-106 -107h-61l142 138h51l139 -138h-60zM570 628h-427v-262h358v-47h-358v-272h427v-47h-477v675h477v-47z" />
    <glyph glyph-name="Edieresis" unicode="&#xcb;" horiz-adv-x="624" 
d="M245 825v-68h-66v68h66zM488 825v-68h-67v68h67zM570 628h-427v-262h358v-47h-358v-272h427v-47h-477v675h477v-47z" />
    <glyph glyph-name="Igrave" unicode="&#xcc;" horiz-adv-x="239" 
d="M32 875l109 -143h-47l-126 143h64zM95 0v675h50v-675h-50z" />
    <glyph glyph-name="Iacute" unicode="&#xcd;" horiz-adv-x="239" 
d="M276 875l-129 -143h-49l114 143h64zM95 0v675h50v-675h-50z" />
    <glyph glyph-name="Icircumflex" unicode="&#xce;" horiz-adv-x="239" 
d="M147 875l113 -143h-58l-82 111l-83 -111h-58l116 143h52zM95 0v675h50v-675h-50z" />
    <glyph glyph-name="Idieresis" unicode="&#xcf;" horiz-adv-x="239" 
d="M64 820v-71h-63v71h63zM240 820v-71h-63v71h63zM95 0v675h50v-675h-50z" />
    <glyph glyph-name="Eth" unicode="&#xd0;" horiz-adv-x="723" 
d="M341 675q157 0 244 -84t87 -234v-37q0 -148 -85 -234t-237 -86h-257v318h-62v41h62v316h248zM621 322v32q0 136 -72 204.5t-209 68.5h-197v-268h246v-41h-246v-270h204q133 0 203.5 70.5t70.5 203.5z" />
    <glyph glyph-name="Ntilde" unicode="&#xd1;" horiz-adv-x="738" 
d="M311 785q-52 0 -78 -40v52q21 32 78 32q29 0 73.5 -15.5t66.5 -15.5q50 0 76 33v-52q-23 -25 -77 -25q-22 0 -68.5 15.5t-70.5 15.5zM601 675h47v-675h-61l-450 617v-617h-47v675h60l451 -615v615z" />
    <glyph glyph-name="Ograve" unicode="&#xd2;" horiz-adv-x="720" 
d="M274 876l128 -137h-51l-149 137h72zM360 685q141 0 225.5 -92.5t84.5 -235.5v-43q0 -140 -84 -231.5t-225 -91.5q-142 0 -226 91.5t-84 230.5v43q0 145 83.5 237t225.5 92zM360 638q-119 0 -188.5 -77t-69.5 -209v-35q0 -127 70.5 -203t188.5 -76t188 75.5t70 205.5v34
q0 131 -70 208t-189 77z" />
    <glyph glyph-name="Oacute" unicode="&#xd3;" horiz-adv-x="720" 
d="M542 876l-163 -137h-51l143 137h71zM360 685q141 0 225.5 -92.5t84.5 -235.5v-43q0 -140 -84 -231.5t-225 -91.5q-142 0 -226 91.5t-84 230.5v43q0 145 83.5 237t225.5 92zM360 638q-119 0 -188.5 -77t-69.5 -209v-35q0 -127 70.5 -203t188.5 -76t188 75.5t70 205.5v34
q0 131 -70 208t-189 77z" />
    <glyph glyph-name="Ocircumflex" unicode="&#xd4;" horiz-adv-x="720" 
d="M365 846l-106 -107h-61l142 138h51l139 -138h-60zM360 685q141 0 225.5 -92.5t84.5 -235.5v-43q0 -140 -84 -231.5t-225 -91.5q-142 0 -226 91.5t-84 230.5v43q0 145 83.5 237t225.5 92zM619 319v34q0 131 -70 208t-189 77t-188.5 -77t-69.5 -209v-35q0 -127 70.5 -203
t188.5 -76t188 75.5t70 205.5z" />
    <glyph glyph-name="Otilde" unicode="&#xd5;" horiz-adv-x="720" 
d="M513 833v-52q-23 -25 -77 -25q-22 0 -68.5 15.5t-70.5 15.5q-52 0 -78 -40v52q21 32 78 32q29 0 73.5 -15.5t66.5 -15.5q50 0 76 33zM360 685q141 0 225.5 -92.5t84.5 -235.5v-43q0 -140 -84 -231.5t-225 -91.5q-142 0 -226 91.5t-84 230.5v43q0 145 83.5 237t225.5 92z
M360 638q-119 0 -188.5 -77t-69.5 -209v-35q0 -127 70.5 -203t188.5 -76t188 75.5t70 205.5v34q0 131 -70 208t-189 77z" />
    <glyph glyph-name="Odieresis" unicode="&#xd6;" horiz-adv-x="720" 
d="M276 827v-68h-66v68h66zM519 827v-68h-67v68h67zM360 685q141 0 225.5 -92.5t84.5 -235.5v-43q0 -140 -84 -231.5t-225 -91.5q-142 0 -226 91.5t-84 230.5v43q0 145 83.5 237t225.5 92zM360 638q-119 0 -188.5 -77t-69.5 -209v-35q0 -127 70.5 -203t188.5 -76t188 75.5
t70 205.5v34q0 131 -70 208t-189 77z" />
    <glyph glyph-name="multiply" unicode="&#xd7;" horiz-adv-x="423" 
d="M382 436l-139 -135l139 -135l-32 -31l-138 135l-139 -135l-31 31l138 135l-138 135l32 30l138 -135l138 135z" />
    <glyph glyph-name="Oslash" unicode="&#xd8;" horiz-adv-x="720" 
d="M567 611q103 -94 103 -255v-43q0 -141 -83.5 -231.5t-225.5 -90.5q-94 0 -166 42l-64 -99h-51l80 124q-109 91 -109 254v43q0 146 84 238t226 92q97 0 172 -48l57 88h51zM101 317q0 -141 86 -218l320 498q-62 40 -147 40q-119 0 -189 -77t-70 -209v-34zM619 318v34
q0 141 -78 217l-320 -495q61 -36 140 -36q118 0 188 75t70 205z" />
    <glyph glyph-name="Ugrave" unicode="&#xd9;" horiz-adv-x="710" 
d="M264 874l128 -137h-51l-149 137h72zM632 675v-416q0 -125 -72 -197t-204 -72q-131 0 -204.5 70.5t-73.5 194.5v420h51v-425q0 -103 61.5 -157.5t166.5 -54.5t164.5 55.5t59.5 160.5v421h51z" />
    <glyph glyph-name="Uacute" unicode="&#xda;" horiz-adv-x="710" 
d="M532 874l-163 -137h-51l143 137h71zM632 675v-416q0 -125 -72 -197t-204 -72q-131 0 -204.5 70.5t-73.5 194.5v420h51v-425q0 -103 61.5 -157.5t166.5 -54.5t164.5 55.5t59.5 160.5v421h51z" />
    <glyph glyph-name="Ucircumflex" unicode="&#xdb;" horiz-adv-x="710" 
d="M354 844l-106 -107h-61l142 138h51l139 -138h-60zM581 675h51v-416q0 -125 -72 -197t-204 -72q-131 0 -204.5 70.5t-73.5 194.5v420h51v-425q0 -103 61.5 -157.5t166.5 -54.5t164.5 55.5t59.5 160.5v421z" />
    <glyph glyph-name="Udieresis" unicode="&#xdc;" horiz-adv-x="710" 
d="M265 825v-68h-66v68h66zM508 825v-68h-67v68h67zM632 675v-416q0 -125 -72 -197t-204 -72q-131 0 -204.5 70.5t-73.5 194.5v420h51v-425q0 -103 61.5 -157.5t166.5 -54.5t164.5 55.5t59.5 160.5v421h51z" />
    <glyph glyph-name="Yacute" unicode="&#xdd;" horiz-adv-x="635" 
d="M496 874l-163 -137h-51l143 137h71zM559 675h59l-273 -437v-238h-50v239l-278 436h58l245 -389z" />
    <glyph glyph-name="Thorn" unicode="&#xde;" horiz-adv-x="664" 
d="M371 557q116 0 179.5 -51.5t63.5 -149.5v-19q0 -100 -63.5 -153.5t-176.5 -53.5h-232v-130h-49v675h49v-118h229zM563 337v15q0 156 -190 156h-231v-329h228q193 0 193 158z" />
    <glyph glyph-name="germandbls" unicode="&#xdf;" horiz-adv-x="569" 
d="M272 712q83 0 133 -40.5t50 -113.5q0 -36 -17 -66t-38 -46.5t-38 -37.5t-17 -41q0 -23 13.5 -35t62.5 -31q60 -23 88.5 -57.5t28.5 -94.5q0 -72 -51.5 -116t-123.5 -44q-90 0 -156 48l26 44q46 -46 129 -46q56 0 92.5 30t36.5 81q0 49 -24 74.5t-82 47.5q-52 19 -70 40
t-18 56q0 23 11.5 43t27.5 35.5t32 31.5t27.5 37t11.5 46q0 57 -38 83.5t-98 26.5q-145 0 -145 -171v-496h-48v486q0 226 194 226z" />
    <glyph glyph-name="agrave" unicode="&#xe0;" horiz-adv-x="511" 
d="M287 552h-43l-113 169h60zM455 0h-45q-7 41 -8 67q-63 -77 -173 -77q-79 0 -133 38t-54 111q0 78 50.5 114.5t137.5 36.5q93 0 173 -40v51q1 73 -37.5 106.5t-108.5 33.5q-108 0 -152 -72l-33 32q61 85 187 85q87 0 138.5 -47t50.5 -140q-1 -52 -1 -174q0 -98 8 -125z
M232 35q117 0 171 82v93q-76 37 -163 37q-74 0 -111.5 -23t-37.5 -81q0 -55 39 -81.5t102 -26.5z" />
    <glyph glyph-name="aacute" unicode="&#xe1;" horiz-adv-x="511" 
d="M400 721l-118 -170h-43l101 170h60zM455 0h-45q-7 41 -8 67q-63 -77 -173 -77q-79 0 -133 38t-54 111q0 78 50.5 114.5t137.5 36.5q93 0 173 -40v51q1 73 -37.5 106.5t-108.5 33.5q-108 0 -152 -72l-33 32q61 85 187 85q87 0 138.5 -47t50.5 -140q-1 -52 -1 -174
q0 -98 8 -125zM232 35q117 0 171 82v93q-76 37 -163 37q-74 0 -111.5 -23t-37.5 -81q0 -55 39 -81.5t102 -26.5z" />
    <glyph glyph-name="acircumflex" unicode="&#xe2;" horiz-adv-x="511" 
d="M264 688l-95 -137h-56l126 170h50l120 -170h-56zM455 0h-45q-7 41 -8 67q-63 -77 -173 -77q-79 0 -133 38t-54 111q0 78 50.5 114.5t137.5 36.5q93 0 173 -40v51q1 73 -37.5 106.5t-108.5 33.5q-108 0 -152 -72l-33 32q61 85 187 85q87 0 138.5 -47t50.5 -140
q-1 -52 -1 -174q0 -98 8 -125zM232 35q117 0 171 82v93q-76 37 -163 37q-74 0 -111.5 -23t-37.5 -81q0 -55 39 -81.5t102 -26.5z" />
    <glyph glyph-name="atilde" unicode="&#xe3;" horiz-adv-x="511" 
d="M198 605q-46 0 -76 -35v51q23 29 81 29q26 0 66 -13t57 -13q51 0 73 30v-55q-22 -20 -73 -20q-21 0 -62.5 13t-65.5 13zM455 0h-45q-7 41 -8 67q-63 -77 -173 -77q-79 0 -133 38t-54 111q0 78 50.5 114.5t137.5 36.5q93 0 173 -40v51q1 73 -37.5 106.5t-108.5 33.5
q-108 0 -152 -72l-33 32q61 85 187 85q87 0 138.5 -47t50.5 -140q-1 -52 -1 -174q0 -98 8 -125zM232 35q117 0 171 82v93q-76 37 -163 37q-74 0 -111.5 -23t-37.5 -81q0 -55 39 -81.5t102 -26.5z" />
    <glyph glyph-name="adieresis" unicode="&#xe4;" horiz-adv-x="511" 
d="M195 644v-65h-64v65h64zM392 644v-65h-64v65h64zM455 0h-45q-7 41 -8 67q-63 -77 -173 -77q-79 0 -133 38t-54 111q0 78 50.5 114.5t137.5 36.5q93 0 173 -40v51q1 73 -37.5 106.5t-108.5 33.5q-108 0 -152 -72l-33 32q61 85 187 85q87 0 138.5 -47t50.5 -140
q-1 -52 -1 -174q0 -98 8 -125zM232 35q117 0 171 82v93q-76 37 -163 37q-74 0 -111.5 -23t-37.5 -81q0 -55 39 -81.5t102 -26.5z" />
    <glyph glyph-name="aring" unicode="&#xe5;" horiz-adv-x="511" 
d="M262 547q-41 0 -68 25t-27 67t26.5 66.5t68.5 24.5q40 0 67 -24.5t27 -66.5t-27 -67t-67 -25zM262 692q-24 0 -38.5 -14t-14.5 -39t14.5 -39.5t38.5 -14.5q23 0 37 14.5t14 39.5q0 24 -14 38.5t-37 14.5zM455 0h-45q-7 41 -8 67q-63 -77 -173 -77q-79 0 -133 38t-54 111
q0 78 50.5 114.5t137.5 36.5q93 0 173 -40v51q1 73 -37.5 106.5t-108.5 33.5q-108 0 -152 -72l-33 32q61 85 187 85q87 0 138.5 -47t50.5 -140q-1 -52 -1 -174q0 -98 8 -125zM232 35q117 0 171 82v93q-76 37 -163 37q-74 0 -111.5 -23t-37.5 -81q0 -55 39 -81.5t102 -26.5z
" />
    <glyph glyph-name="ae" unicode="&#xe6;" horiz-adv-x="856" 
d="M825 236h-385v-16q0 -87 45 -136.5t125 -49.5q60 0 101.5 24t59.5 63l36 -29q-25 -42 -76 -72t-121 -30q-126 0 -183 94q-26 -40 -80 -67t-118 -27q-82 0 -137 36t-56 109q-2 80 46 117t135 37q96 0 176 -36v43q5 144 -142 144q-110 0 -152 -75l-35 31q55 90 189 90
q64 0 111 -28t61 -80q25 51 73 79t112 28q106 0 160.5 -69t54.5 -168v-12zM608 441q-76 0 -117.5 -45.5t-48.5 -118.5h333q-17 164 -167 164zM230 35q58 0 104 22.5t59 55.5l1 99q-74 34 -166 34q-73 0 -108.5 -23.5t-35.5 -83.5q1 -104 146 -104z" />
    <glyph glyph-name="ccedilla" unicode="&#xe7;" horiz-adv-x="491" 
d="M468 101q-64 -104 -187 -110l-9 -46q106 9 106 -74q0 -40 -28.5 -64t-82.5 -24q-32 0 -61.5 10.5t-39.5 20.5l19 43q8 -14 31 -25t50 -11q71 0 71 49q0 42 -50 42q-17 0 -34 -6l-24 26l10 60q-91 8 -144.5 70.5t-53.5 160.5v26q0 101 61 169t163 68q132 0 197 -102
l-40 -27q-46 84 -160 84q-78 0 -125 -54.5t-47 -139.5v-22q0 -89 46.5 -139.5t128.5 -50.5q61 0 102.5 25.5t59.5 68.5z" />
    <glyph glyph-name="egrave" unicode="&#xe8;" horiz-adv-x="508" 
d="M293 552h-43l-113 169h60zM476 236h-387v-14q0 -90 46.5 -139t124.5 -49q115 0 162 89l37 -27q-26 -45 -77 -75.5t-123 -30.5q-97 0 -157.5 62.5t-60.5 166.5v27q0 101 59 170.5t162 69.5q108 0 160.5 -70t53.5 -167v-13zM259 442q-73 0 -116 -44.5t-52 -120.5h335
q-16 165 -167 165z" />
    <glyph glyph-name="eacute" unicode="&#xe9;" horiz-adv-x="508" 
d="M406 721l-118 -170h-43l101 170h60zM476 236h-387v-14q0 -90 46.5 -139t124.5 -49q115 0 162 89l37 -27q-26 -45 -77 -75.5t-123 -30.5q-97 0 -157.5 62.5t-60.5 166.5v27q0 101 59 170.5t162 69.5q108 0 160.5 -70t53.5 -167v-13zM259 442q-73 0 -116 -44.5t-52 -120.5
h335q-16 165 -167 165z" />
    <glyph glyph-name="ecircumflex" unicode="&#xea;" horiz-adv-x="508" 
d="M270 688l-95 -137h-56l126 170h50l120 -170h-56zM476 236h-387v-14q0 -90 46.5 -139t124.5 -49q115 0 162 89l37 -27q-26 -45 -77 -75.5t-123 -30.5q-97 0 -157.5 62.5t-60.5 166.5v27q0 101 59 170.5t162 69.5q108 0 160.5 -70t53.5 -167v-13zM259 442q-73 0 -116 -44.5
t-52 -120.5h335q-16 165 -167 165z" />
    <glyph glyph-name="edieresis" unicode="&#xeb;" horiz-adv-x="508" 
d="M200 644v-65h-64v65h64zM397 644v-65h-64v65h64zM476 236h-387v-14q0 -90 46.5 -139t124.5 -49q115 0 162 89l37 -27q-26 -45 -77 -75.5t-123 -30.5q-97 0 -157.5 62.5t-60.5 166.5v27q0 101 59 170.5t162 69.5q108 0 160.5 -70t53.5 -167v-13zM259 442q-73 0 -116 -44.5
t-52 -120.5h335q-16 165 -167 165z" />
    <glyph glyph-name="igrave" unicode="&#xec;" horiz-adv-x="208" 
d="M34 721l96 -169h-43l-113 169h60zM128 476v-476h-48v476h48z" />
    <glyph glyph-name="iacute" unicode="&#xed;" horiz-adv-x="208" 
d="M236 721l-112 -170h-40l95 170h57zM128 476v-476h-48v476h48z" />
    <glyph glyph-name="icircumflex" unicode="&#xee;" horiz-adv-x="208" 
d="M130 721l113 -170h-53l-84 137l-88 -137h-53l118 170h47zM80 0v476h48v-476h-48z" />
    <glyph glyph-name="idieresis" unicode="&#xef;" horiz-adv-x="208" 
d="M55 644v-65h-64v65h64zM217 644v-65h-63v65h63zM128 476v-476h-48v476h48z" />
    <glyph glyph-name="eth" unicode="&#xf0;" horiz-adv-x="545" 
d="M360 611q144 -136 144 -347v-22q0 -116 -60 -184.5t-171 -68.5q-107 0 -169.5 66.5t-62.5 164.5v23q0 103 61 169.5t169 66.5q109 0 170 -82q-31 110 -122 192l-153 -80l-19 31l140 76q-62 50 -148 90h82q61 -30 107 -67l104 56l21 -36zM273 35q85 0 134 51t49 151
q0 90 -48 143.5t-135 53.5q-89 0 -135.5 -52.5t-46.5 -140.5v-16q0 -89 49.5 -139.5t132.5 -50.5z" />
    <glyph glyph-name="ntilde" unicode="&#xf1;" horiz-adv-x="565" 
d="M228 605q-46 0 -76 -35v51q23 29 81 29q26 0 66 -13t57 -13q51 0 73 30v-55q-22 -20 -73 -20q-21 0 -62.5 13t-65.5 13zM303 486q90 0 140.5 -51t50.5 -147v-288h-50v280q0 82 -35.5 121t-112.5 39q-54 0 -98 -27t-68 -72v-341h-50v476h47l1 -81q27 41 73.5 66t101.5 25z
" />
    <glyph glyph-name="ograve" unicode="&#xf2;" horiz-adv-x="534" 
d="M198 721l96 -169h-43l-113 169h60zM267 486q104 0 165.5 -66t61.5 -170v-24q0 -104 -61.5 -169.5t-164.5 -65.5q-105 0 -166 66t-61 170v23q0 103 60.5 169.5t165.5 66.5zM268 441q-85 0 -131.5 -53t-46.5 -142v-17q0 -90 46.5 -142t130.5 -52q82 0 130 51t48 142v18
q0 89 -46.5 142t-130.5 53z" />
    <glyph glyph-name="oacute" unicode="&#xf3;" horiz-adv-x="534" 
d="M407 721l-118 -170h-43l101 170h60zM267 486q104 0 165.5 -66t61.5 -170v-24q0 -104 -61.5 -169.5t-164.5 -65.5q-105 0 -166 66t-61 170v23q0 103 60.5 169.5t165.5 66.5zM268 441q-85 0 -131.5 -53t-46.5 -142v-17q0 -90 46.5 -142t130.5 -52q82 0 130 51t48 142v18
q0 89 -46.5 142t-130.5 53z" />
    <glyph glyph-name="ocircumflex" unicode="&#xf4;" horiz-adv-x="534" 
d="M271 688l-95 -137h-56l126 170h50l120 -170h-56zM267 486q104 0 165.5 -66t61.5 -170v-24q0 -104 -61.5 -169.5t-164.5 -65.5q-105 0 -166 66t-61 170v23q0 103 60.5 169.5t165.5 66.5zM445 228v18q0 89 -46.5 142t-130.5 53q-85 0 -131.5 -53t-46.5 -142v-17
q0 -90 46.5 -142t130.5 -52q82 0 130 51t48 142z" />
    <glyph glyph-name="otilde" unicode="&#xf5;" horiz-adv-x="534" 
d="M406 654v-55q-22 -20 -73 -20q-21 0 -62.5 13t-65.5 13q-46 0 -76 -35v51q23 29 81 29q26 0 66 -13t57 -13q51 0 73 30zM267 486q104 0 165.5 -66t61.5 -170v-24q0 -104 -61.5 -169.5t-164.5 -65.5q-105 0 -166 66t-61 170v23q0 103 60.5 169.5t165.5 66.5zM268 441
q-85 0 -131.5 -53t-46.5 -142v-17q0 -90 46.5 -142t130.5 -52q82 0 130 51t48 142v18q0 89 -46.5 142t-130.5 53z" />
    <glyph glyph-name="odieresis" unicode="&#xf6;" horiz-adv-x="534" 
d="M201 644v-65h-64v65h64zM398 644v-65h-64v65h64zM267 486q104 0 165.5 -66t61.5 -170v-24q0 -104 -61.5 -169.5t-164.5 -65.5q-105 0 -166 66t-61 170v23q0 103 60.5 169.5t165.5 66.5zM268 441q-85 0 -131.5 -53t-46.5 -142v-17q0 -90 46.5 -142t130.5 -52q82 0 130 51
t48 142v18q0 89 -46.5 142t-130.5 53z" />
    <glyph glyph-name="divide" unicode="&#xf7;" horiz-adv-x="499" 
d="M292 525v-66h-65v66h65zM450 325v-45h-401v45h401zM291 148v-65h-65v65h65z" />
    <glyph glyph-name="oslash" unicode="&#xf8;" horiz-adv-x="549" 
d="M430 435q75 -64 75 -184v-24q0 -104 -62.5 -171t-167.5 -67q-67 0 -120 29l-51 -76h-47l65 99q-79 67 -79 187v23q0 103 62.5 170t169.5 67q68 0 122 -30l49 74h48zM92 230q0 -97 56 -150l224 340q-40 23 -97 23q-87 0 -135 -53t-48 -143v-17zM457 229v18q0 98 -53 149
l-224 -339q40 -23 95 -23q83 0 132.5 52.5t49.5 142.5z" />
    <glyph glyph-name="ugrave" unicode="&#xf9;" horiz-adv-x="544" 
d="M301 552h-43l-113 169h60zM484 0h-48q-8 28 -10 70q-24 -32 -67 -55.5t-97 -23.5q-93 0 -145 48t-52 144v293h51v-287q0 -81 38 -117t112 -36q53 0 94 24t63 61v355h50v-336q0 -105 11 -140z" />
    <glyph glyph-name="uacute" unicode="&#xfa;" horiz-adv-x="544" 
d="M414 721l-118 -170h-43l101 170h60zM484 0h-48q-8 28 -10 70q-24 -32 -67 -55.5t-97 -23.5q-93 0 -145 48t-52 144v293h51v-287q0 -81 38 -117t112 -36q53 0 94 24t63 61v355h50v-336q0 -105 11 -140z" />
    <glyph glyph-name="ucircumflex" unicode="&#xfb;" horiz-adv-x="544" 
d="M278 688l-95 -137h-56l126 170h50l120 -170h-56zM484 0h-48q-8 28 -10 70q-24 -32 -67 -55.5t-97 -23.5q-93 0 -145 48t-52 144v293h51v-287q0 -81 38 -117t112 -36q53 0 94 24t63 61v355h50v-336q0 -105 11 -140z" />
    <glyph glyph-name="udieresis" unicode="&#xfc;" horiz-adv-x="544" 
d="M208 644v-65h-64v65h64zM405 644v-65h-64v65h64zM484 0h-48q-8 28 -10 70q-24 -32 -67 -55.5t-97 -23.5q-93 0 -145 48t-52 144v293h51v-287q0 -81 38 -117t112 -36q53 0 94 24t63 61v355h50v-336q0 -105 11 -140z" />
    <glyph glyph-name="yacute" unicode="&#xfd;" horiz-adv-x="479" 
d="M376 721l-118 -170h-43l101 170h60zM416 476h52q-220 -531 -315 -678l-44 21q72 100 106 185l-204 472h53l177 -428z" />
    <glyph glyph-name="thorn" unicode="&#xfe;" horiz-adv-x="561" 
d="M304 486q98 0 157 -62t59 -167v-24q0 -111 -60 -176.5t-165 -65.5q-103 0 -172 63v-249h-46v904h49v-305q62 82 178 82zM471 235v20q0 91 -46.5 138.5t-126.5 47.5q-115 0 -173 -95v-243q68 -68 169 -68q83 0 130 52.5t47 147.5z" />
    <glyph glyph-name="ydieresis" unicode="&#xff;" horiz-adv-x="479" 
d="M171 644v-65h-64v65h64zM368 644v-65h-64v65h64zM416 476h52q-220 -531 -315 -678l-44 21q72 100 106 185l-204 472h53l177 -428z" />
    <glyph glyph-name="Amacron" unicode="&#x100;" horiz-adv-x="687" 
d="M503 804v-43h-293v43h293zM617 0l-82 198h-373l-91 -198h-52l310 675h57l282 -675h-51zM182 243h334l-159 384z" />
    <glyph glyph-name="amacron" unicode="&#x101;" horiz-adv-x="511" 
d="M401 635v-45h-279v45h279zM455 0h-45q-7 41 -8 67q-63 -77 -173 -77q-79 0 -133 38t-54 111q0 78 50.5 114.5t137.5 36.5q93 0 173 -40v51q1 73 -37.5 106.5t-108.5 33.5q-108 0 -152 -72l-33 32q61 85 187 85q87 0 138.5 -47t50.5 -140q-1 -52 -1 -174q0 -98 8 -125z
M232 35q117 0 171 82v93q-76 37 -163 37q-74 0 -111.5 -23t-37.5 -81q0 -55 39 -81.5t102 -26.5z" />
    <glyph glyph-name="Abreve" unicode="&#x102;" horiz-adv-x="687" 
d="M359 738q-57 0 -96.5 34.5t-53.5 87.5h55q21 -84 94 -84q36 0 60.5 24t33.5 60h56q-14 -52 -53.5 -87t-95.5 -35zM617 0l-82 198h-373l-91 -198h-52l310 675h57l282 -675h-51zM182 243h334l-159 384z" />
    <glyph glyph-name="abreve" unicode="&#x103;" horiz-adv-x="511" 
d="M262 550q-105 0 -139 144h54q7 -49 29 -77.5t56 -28.5q66 0 84 106h54q-16 -66 -50.5 -105t-87.5 -39zM455 0h-45q-7 41 -8 67q-63 -77 -173 -77q-79 0 -133 38t-54 111q0 78 50.5 114.5t137.5 36.5q93 0 173 -40v51q1 73 -37.5 106.5t-108.5 33.5q-108 0 -152 -72
l-33 32q61 85 187 85q87 0 138.5 -47t50.5 -140q-1 -52 -1 -174q0 -98 8 -125zM232 35q117 0 171 82v93q-76 37 -163 37q-74 0 -111.5 -23t-37.5 -81q0 -55 39 -81.5t102 -26.5z" />
    <glyph glyph-name="Aogonek" unicode="&#x104;" horiz-adv-x="687" 
d="M666 -142l18 -41q-25 -29 -77 -29q-40 0 -65 24t-25 67q2 82 97 128l-79 191h-373l-91 -198h-52l310 675h57l281 -673l3 -2q-105 -43 -105 -118q0 -52 47 -52q36 0 54 28zM182 243h334l-159 384z" />
    <glyph glyph-name="aogonek" unicode="&#x105;" horiz-adv-x="511" 
d="M439 -136l17 -37q-35 -28 -81 -28q-38 0 -62 25t-24 64q0 81 119 126q-4 25 -6 53q-63 -77 -173 -77q-79 0 -133 38t-54 111q0 78 50.5 114.5t137.5 36.5q93 0 173 -40v51q1 73 -37.5 106.5t-108.5 33.5q-108 0 -152 -72l-33 32q61 85 187 85q87 0 138.5 -47t50.5 -140
q-1 -52 -1 -174q0 -98 8 -125q-120 -37 -120 -108q0 -52 48 -52q36 0 56 24zM232 35q117 0 171 82v93q-76 37 -163 37q-74 0 -111.5 -23t-37.5 -81q0 -55 39 -81.5t102 -26.5z" />
    <glyph glyph-name="Cacute" unicode="&#x106;" horiz-adv-x="661" 
d="M544 876l-163 -137h-51l143 137h71zM358 685q173 0 264 -124l-38 -29q-70 105 -230 105q-118 0 -185 -80.5t-67 -212.5v-29q0 -129 72 -203t189 -74q73 0 134 32.5t92 89.5l42 -31q-90 -139 -268 -139q-139 0 -225.5 87.5t-86.5 236.5v29q0 150 82 246t225 96z" />
    <glyph glyph-name="cacute" unicode="&#x107;" horiz-adv-x="491" 
d="M404 721l-118 -170h-43l101 170h60zM265 486q132 0 197 -102l-40 -27q-46 84 -160 84q-78 0 -125 -54.5t-47 -139.5v-22q0 -89 46.5 -139.5t128.5 -50.5q61 0 102.5 25.5t59.5 68.5l41 -28q-69 -110 -203 -110q-102 0 -163 63.5t-61 168.5v26q0 101 61 169t163 68z" />
    <glyph glyph-name="Ccircumflex" unicode="&#x108;" horiz-adv-x="661" 
d="M367 846l-106 -107h-61l142 138h51l139 -138h-60zM589 160l42 -31q-90 -139 -268 -139q-139 0 -225.5 87.5t-86.5 236.5v29q0 150 82 246t225 96q173 0 264 -124l-38 -29q-70 105 -230 105q-118 0 -185 -80.5t-67 -212.5v-29q0 -129 72 -203t189 -74q73 0 134 32.5
t92 89.5z" />
    <glyph glyph-name="ccircumflex" unicode="&#x109;" horiz-adv-x="491" 
d="M268 688l-95 -137h-56l126 170h50l120 -170h-56zM427 129l41 -28q-69 -110 -203 -110q-102 0 -163 63.5t-61 168.5v26q0 101 61 169t163 68q132 0 197 -102l-40 -27q-46 84 -160 84q-78 0 -125 -54.5t-47 -139.5v-22q0 -89 46.5 -139.5t128.5 -50.5q61 0 102.5 25.5
t59.5 68.5z" />
    <glyph glyph-name="Cdotaccent" unicode="&#x10a;" horiz-adv-x="661" 
d="M333 827h66v-68h-66v68zM358 685q173 0 264 -124l-38 -29q-70 105 -230 105q-118 0 -185 -80.5t-67 -212.5v-29q0 -129 72 -203t189 -74q73 0 134 32.5t92 89.5l42 -31q-90 -139 -268 -139q-139 0 -225.5 87.5t-86.5 236.5v29q0 150 82 246t225 96z" />
    <glyph glyph-name="cdotaccent" unicode="&#x10b;" horiz-adv-x="491" 
d="M234 645h65v-64h-65v64zM265 486q132 0 197 -102l-40 -27q-46 84 -160 84q-78 0 -125 -54.5t-47 -139.5v-22q0 -89 46.5 -139.5t128.5 -50.5q61 0 102.5 25.5t59.5 68.5l41 -28q-69 -110 -203 -110q-102 0 -163 63.5t-61 168.5v26q0 101 61 169t163 68z" />
    <glyph glyph-name="Ccaron" unicode="&#x10c;" horiz-adv-x="661" 
d="M390 740h-50l-139 136h62l102 -107l101 107h62zM589 160l42 -31q-90 -139 -268 -139q-139 0 -225.5 87.5t-86.5 236.5v29q0 150 82 246t225 96q173 0 264 -124l-38 -29q-70 105 -230 105q-118 0 -185 -80.5t-67 -212.5v-29q0 -129 72 -203t189 -74q73 0 134 32.5t92 89.5
z" />
    <glyph glyph-name="ccaron" unicode="&#x10d;" horiz-adv-x="491" 
d="M291 552h-51l-122 169h56l91 -138l91 138h57zM427 129l41 -28q-69 -110 -203 -110q-102 0 -163 63.5t-61 168.5v26q0 101 61 169t163 68q132 0 197 -102l-40 -27q-46 84 -160 84q-78 0 -125 -54.5t-47 -139.5v-22q0 -89 46.5 -139.5t128.5 -50.5q61 0 102.5 25.5
t59.5 68.5z" />
    <glyph glyph-name="Dcaron" unicode="&#x10e;" horiz-adv-x="722" 
d="M377 738h-50l-139 136h62l102 -107l101 107h62zM341 675q156 0 243 -84t87 -234v-37q0 -148 -84.5 -234t-236.5 -86h-257v675h248zM620 322v32q0 136 -72 204.5t-208 68.5h-197v-579h204q133 0 203 70.5t70 203.5z" />
    <glyph glyph-name="dcaron" unicode="&#x10f;" horiz-adv-x="551" 
d="M562 722h51l-44 -194h-36zM483 706v-570q0 -108 9 -136h-48q-7 18 -9 68q-23 -33 -69 -55t-106 -22q-96 0 -157.5 59t-61.5 163v25q0 116 62.5 182t167.5 66q51 0 96 -17.5t68 -43.5v281h48zM264 36q122 0 171 88v245q-24 35 -69 53.5t-97 18.5q-84 0 -131.5 -53.5
t-47.5 -150.5v-19q0 -88 47.5 -135t126.5 -47z" />
    <glyph glyph-name="Dcroat" unicode="&#x110;" horiz-adv-x="723" 
d="M341 675q157 0 244 -84t87 -234v-37q0 -148 -85 -234t-237 -86h-257v318h-62v41h62v316h248zM621 322v32q0 136 -72 204.5t-209 68.5h-197v-268h246v-41h-246v-270h204q133 0 203.5 70.5t70.5 203.5z" />
    <glyph glyph-name="dcroat" unicode="&#x111;" horiz-adv-x="552" 
d="M547 552h-63v-416q0 -112 9 -136h-48q-9 24 -9 68q-24 -33 -69.5 -55t-106.5 -22q-95 0 -157 59.5t-62 162.5v25q0 116 62.5 182t167.5 66q51 0 96 -17.5t69 -43.5v127h-184v40h184v114h48v-114h63v-40zM264 36q124 0 172 89v244q-24 35 -69 53.5t-98 18.5
q-84 0 -131.5 -53.5t-47.5 -150.5v-19q0 -88 47.5 -135t126.5 -47z" />
    <glyph glyph-name="Emacron" unicode="&#x112;" horiz-adv-x="624" 
d="M480 804v-43h-293v43h293zM570 628h-427v-262h358v-47h-358v-272h427v-47h-477v675h477v-47z" />
    <glyph glyph-name="emacron" unicode="&#x113;" horiz-adv-x="508" 
d="M406 635v-45h-279v45h279zM476 236h-387v-14q0 -90 46.5 -139t124.5 -49q115 0 162 89l37 -27q-26 -45 -77 -75.5t-123 -30.5q-97 0 -157.5 62.5t-60.5 166.5v27q0 101 59 170.5t162 69.5q108 0 160.5 -70t53.5 -167v-13zM259 442q-73 0 -116 -44.5t-52 -120.5h335
q-16 165 -167 165z" />
    <glyph glyph-name="Ebreve" unicode="&#x114;" horiz-adv-x="624" 
d="M336 738q-57 0 -96.5 34.5t-53.5 87.5h55q21 -84 94 -84q36 0 60.5 24t33.5 60h56q-14 -52 -53.5 -87t-95.5 -35zM570 628h-427v-262h358v-47h-358v-272h427v-47h-477v675h477v-47z" />
    <glyph glyph-name="ebreve" unicode="&#x115;" horiz-adv-x="508" 
d="M267 550q-105 0 -139 144h54q7 -49 29 -77.5t56 -28.5q66 0 84 106h54q-16 -66 -50.5 -105t-87.5 -39zM476 236h-387v-14q0 -90 46.5 -139t124.5 -49q115 0 162 89l37 -27q-26 -45 -77 -75.5t-123 -30.5q-97 0 -157.5 62.5t-60.5 166.5v27q0 101 59 170.5t162 69.5
q108 0 160.5 -70t53.5 -167v-13zM259 442q-73 0 -116 -44.5t-52 -120.5h335q-16 165 -167 165z" />
    <glyph glyph-name="Edotaccent" unicode="&#x116;" horiz-adv-x="624" 
d="M367 825v-68h-66v68h66zM570 628h-427v-262h358v-47h-358v-272h427v-47h-477v675h477v-47z" />
    <glyph glyph-name="edotaccent" unicode="&#x117;" horiz-adv-x="508" 
d="M300 645v-64h-65v64h65zM476 236h-387v-14q0 -90 46.5 -139t124.5 -49q115 0 162 89l37 -27q-26 -45 -77 -75.5t-123 -30.5q-97 0 -157.5 62.5t-60.5 166.5v27q0 101 59 170.5t162 69.5q108 0 160.5 -70t53.5 -167v-13zM259 442q-73 0 -116 -44.5t-52 -120.5h335
q-16 165 -167 165z" />
    <glyph glyph-name="Eogonek" unicode="&#x118;" horiz-adv-x="624" 
d="M565 -142l18 -41q-25 -29 -77 -29q-40 0 -65 24t-25 67q2 75 84 121h-407v675h477v-47h-427v-262h358v-47h-358v-272h427v-47h-1q-105 -43 -105 -118q0 -52 47 -52q36 0 54 28z" />
    <glyph glyph-name="eogonek" unicode="&#x119;" horiz-adv-x="508" 
d="M476 236h-387v-14q0 -90 46.5 -139t124.5 -49q115 0 162 89l37 -27q-16 -33 -47 -61t-57.5 -43.5t-46.5 -41t-20 -58.5q0 -24 12.5 -38.5t37.5 -14.5q36 0 56 26l18 -37q-32 -30 -81 -30q-41 0 -65 25t-24 65q0 63 64 106q-30 -4 -47 -4q-97 0 -157.5 62.5t-60.5 166.5
v27q0 101 59 170.5t162 69.5q108 0 160.5 -70t53.5 -167v-13zM259 442q-73 0 -116 -44.5t-52 -120.5h335q-16 165 -167 165z" />
    <glyph glyph-name="Ecaron" unicode="&#x11a;" horiz-adv-x="624" 
d="M358 738h-50l-139 136h62l102 -107l101 107h62zM570 628h-427v-262h358v-47h-358v-272h427v-47h-477v675h477v-47z" />
    <glyph glyph-name="ecaron" unicode="&#x11b;" horiz-adv-x="508" 
d="M293 552h-51l-122 169h56l91 -138l91 138h57zM476 236h-387v-14q0 -90 46.5 -139t124.5 -49q115 0 162 89l37 -27q-26 -45 -77 -75.5t-123 -30.5q-97 0 -157.5 62.5t-60.5 166.5v27q0 101 59 170.5t162 69.5q108 0 160.5 -70t53.5 -167v-13zM259 442q-73 0 -116 -44.5
t-52 -120.5h335q-16 165 -167 165z" />
    <glyph glyph-name="Gcircumflex" unicode="&#x11c;" horiz-adv-x="717" 
d="M369 846l-106 -107h-61l142 138h51l139 -138h-60zM645 0h-39q-11 38 -12 72q-86 -82 -238 -82q-135 0 -220 86t-85 233v29q0 93 32.5 169.5t105.5 126.5t175 50q171 0 258 -115l-42 -30q-63 97 -217 97q-87 0 -147.5 -42.5t-87 -108t-26.5 -148.5v-25q0 -127 70 -200.5
t190 -73.5q78 0 137.5 24t91.5 64v179h-226v45h273v-242q0 -58 7 -108z" />
    <glyph glyph-name="gcircumflex" unicode="&#x11d;" horiz-adv-x="551" 
d="M272 688l-95 -137h-56l126 170h50l120 -170h-56zM437 476h42v-471q0 -105 -58 -157t-159 -52q-68 0 -123.5 26t-89.5 70l36 34q25 -39 72 -62.5t108 -23.5q81 0 125 39t44 117v78q-22 -33 -65.5 -55t-106.5 -22q-102 0 -161.5 60t-59.5 162v26q0 109 57.5 175t164.5 66
q54 0 101 -19.5t71 -45.5zM266 41q59 0 103 24.5t64 62.5v243q-24 32 -68.5 51t-99.5 19q-88 0 -132 -53t-44 -146v-16q0 -89 45.5 -137t131.5 -48z" />
    <glyph glyph-name="Gbreve" unicode="&#x11e;" horiz-adv-x="717" 
d="M370 740q-57 0 -96.5 34.5t-53.5 87.5h55q21 -84 94 -84q36 0 60.5 24t33.5 60h56q-14 -52 -53.5 -87t-95.5 -35zM645 0h-39q-11 38 -12 72q-86 -82 -238 -82q-135 0 -220 86t-85 233v29q0 93 32.5 169.5t105.5 126.5t175 50q171 0 258 -115l-42 -30q-63 97 -217 97
q-87 0 -147.5 -42.5t-87 -108t-26.5 -148.5v-25q0 -127 70 -200.5t190 -73.5q78 0 137.5 24t91.5 64v179h-226v45h273v-242q0 -58 7 -108z" />
    <glyph glyph-name="gbreve" unicode="&#x11f;" horiz-adv-x="551" 
d="M270 550q-105 0 -139 144h54q7 -49 29 -77.5t56 -28.5q66 0 84 106h54q-16 -66 -50.5 -105t-87.5 -39zM437 476h42v-471q0 -105 -58 -157t-159 -52q-68 0 -123.5 26t-89.5 70l36 34q25 -39 72 -62.5t108 -23.5q81 0 125 39t44 117v78q-22 -33 -65.5 -55t-106.5 -22
q-102 0 -161.5 60t-59.5 162v26q0 109 57.5 175t164.5 66q54 0 101 -19.5t71 -45.5zM266 41q59 0 103 24.5t64 62.5v243q-24 32 -68.5 51t-99.5 19q-88 0 -132 -53t-44 -146v-16q0 -89 45.5 -137t131.5 -48z" />
    <glyph glyph-name="Gdotaccent" unicode="&#x120;" horiz-adv-x="717" 
d="M401 827v-68h-66v68h66zM645 0h-39q-11 38 -12 72q-86 -82 -238 -82q-135 0 -220 86t-85 233v29q0 93 32.5 169.5t105.5 126.5t175 50q171 0 258 -115l-42 -30q-63 97 -217 97q-87 0 -147.5 -42.5t-87 -108t-26.5 -148.5v-25q0 -127 70 -200.5t190 -73.5q78 0 137.5 24
t91.5 64v179h-226v45h273v-242q0 -58 7 -108z" />
    <glyph glyph-name="gdotaccent" unicode="&#x121;" horiz-adv-x="551" 
d="M303 645v-64h-65v64h65zM437 476h42v-471q0 -105 -58 -157t-159 -52q-68 0 -123.5 26t-89.5 70l36 34q25 -39 72 -62.5t108 -23.5q81 0 125 39t44 117v78q-22 -33 -65.5 -55t-106.5 -22q-102 0 -161.5 60t-59.5 162v26q0 109 57.5 175t164.5 66q54 0 101 -19.5t71 -45.5z
M266 41q59 0 103 24.5t64 62.5v243q-24 32 -68.5 51t-99.5 19q-88 0 -132 -53t-44 -146v-16q0 -89 45.5 -137t131.5 -48z" />
    <glyph glyph-name="Gcommaaccent" unicode="&#x122;" horiz-adv-x="717" 
d="M645 0h-39q-11 38 -12 72q-86 -82 -238 -82q-135 0 -220 86t-85 233v29q0 93 32.5 169.5t105.5 126.5t175 50q171 0 258 -115l-42 -30q-63 97 -217 97q-87 0 -147.5 -42.5t-87 -108t-26.5 -148.5v-25q0 -127 70 -200.5t190 -73.5q78 0 137.5 24t91.5 64v179h-226v45h273
v-242q0 -58 7 -108zM251 -237l96 173h55l-108 -173h-43z" />
    <glyph glyph-name="gcommaaccent" unicode="&#x123;" horiz-adv-x="551" 
d="M398 718l-100 -169h-63l115 169h48zM437 476h42v-471q0 -105 -58 -157t-159 -52q-68 0 -123.5 26t-89.5 70l36 34q25 -39 72 -62.5t108 -23.5q81 0 125 39t44 117v78q-22 -33 -65.5 -55t-106.5 -22q-102 0 -161.5 60t-59.5 162v26q0 109 57.5 175t164.5 66
q54 0 101 -19.5t71 -45.5zM266 41q59 0 103 24.5t64 62.5v243q-24 32 -68.5 51t-99.5 19q-88 0 -132 -53t-44 -146v-16q0 -89 45.5 -137t131.5 -48z" />
    <glyph glyph-name="Hcircumflex" unicode="&#x124;" horiz-adv-x="736" 
d="M369 844l-106 -107h-61l142 138h51l139 -138h-60zM593 675h50v-675h-50v316h-450v-316h-50v675h50v-311h450v311z" />
    <glyph glyph-name="hcircumflex" unicode="&#x125;" horiz-adv-x="565" 
d="M185 726l-82 111l-83 -111h-58l116 143h52l113 -143h-58zM301 486q89 0 140.5 -51.5t51.5 -153.5v-281h-50v281q0 83 -37.5 121t-111.5 38q-110 0 -166 -101v-339h-50v706h49v-308q23 37 69 62.5t105 25.5z" />
    <glyph glyph-name="Hbar" unicode="&#x126;" horiz-adv-x="736" 
d="M713 524v-41h-70v-483h-50v316h-450v-316h-50v483h-70v41h70v151h50v-151h450v151h50v-151h70zM593 364v119h-450v-119h450z" />
    <glyph glyph-name="hbar" unicode="&#x127;" horiz-adv-x="562" 
d="M300 486q89 0 140 -51.5t51 -153.5v-281h-50v281q0 83 -37 121t-111 38q-110 0 -166 -101v-339h-49v553h-59v40h59v113h49v-113h190v-40h-190v-156q22 37 67.5 63t105.5 26z" />
    <glyph glyph-name="Itilde" unicode="&#x128;" horiz-adv-x="239" 
d="M244 823v-53q-21 -21 -69 -21q-22 0 -58 13t-53 13q-48 0 -71 -34v52q17 28 72 28q24 0 60 -13.5t52 -13.5q44 0 67 29zM95 0v675h50v-675h-50z" />
    <glyph glyph-name="itilde" unicode="&#x129;" horiz-adv-x="208" 
d="M225 654v-55q-20 -20 -64 -20q-19 0 -55 13t-57 13q-41 0 -67 -35v51q21 29 71 29q23 0 58 -13t50 -13q44 0 64 30zM128 476v-476h-48v476h48z" />
    <glyph glyph-name="Imacron" unicode="&#x12a;" horiz-adv-x="239" 
d="M248 804v-43h-256v43h256zM95 0v675h50v-675h-50z" />
    <glyph glyph-name="imacron" unicode="&#x12b;" horiz-adv-x="208" 
d="M224 635v-45h-240v45h240zM128 476v-476h-48v476h48z" />
    <glyph glyph-name="Ibreve" unicode="&#x12c;" horiz-adv-x="239" 
d="M249 859q-15 -56 -47.5 -90.5t-79.5 -34.5t-79 34t-47 90h53q19 -86 73 -86q27 0 46.5 23.5t27.5 63.5h53zM95 0v675h50v-675h-50z" />
    <glyph glyph-name="ibreve" unicode="&#x12d;" horiz-adv-x="208" 
d="M233 694q-15 -66 -47.5 -105t-81.5 -39q-97 0 -129 144h50q6 -49 26.5 -77.5t52.5 -28.5q61 0 79 106h50zM128 476v-476h-48v476h48z" />
    <glyph glyph-name="Iogonek" unicode="&#x12e;" horiz-adv-x="239" 
d="M141 -142l18 -41q-25 -29 -76 -29q-39 0 -64 24.5t-24 66.5q0 83 100 130v666h50v-675q-103 -43 -103 -118q0 -52 46 -52q37 0 53 28z" />
    <glyph glyph-name="iogonek" unicode="&#x12f;" horiz-adv-x="208" 
d="M73 675h62v-69h-62v69zM56 -160q36 0 56 24l17 -37q-35 -28 -81 -28q-38 0 -62 25t-24 64q0 80 118 126v462h48v-476q-120 -37 -120 -108q0 -52 48 -52z" />
    <glyph glyph-name="Idotaccent" unicode="&#x130;" horiz-adv-x="239" 
d="M89 816h64v-69h-64v69zM95 0v675h50v-675h-50z" />
    <glyph glyph-name="dotlessi" unicode="&#x131;" horiz-adv-x="208" 
d="M128 476v-476h-48v476h48z" />
    <glyph glyph-name="IJ" unicode="&#x132;" horiz-adv-x="880" 
d="M95 0v675h50v-675h-50zM802 675v-431q0 -123 -70.5 -188.5t-196.5 -65.5q-88 0 -159.5 42t-107.5 109l44 30q26 -61 86.5 -97.5t137.5 -36.5q216 0 216 209v382h-428v47h478z" />
    <glyph glyph-name="ij" unicode="&#x133;" horiz-adv-x="413" 
d="M73 675h57v-66h-57v66zM281 675h56v-66h-56v66zM333 476v-537q0 -140 -114 -140q-59 0 -99 36l22 43q29 -35 75 -35q35 0 51.5 22t16.5 70v541h48zM126 476v-476h-48v476h48z" />
    <glyph glyph-name="Jcircumflex" unicode="&#x134;" horiz-adv-x="640" 
d="M320 844l-106 -107h-61l142 138h51l139 -138h-60zM85 675h478v-431q0 -123 -70.5 -188.5t-196.5 -65.5q-88 0 -159.5 42t-107.5 109l44 30q26 -61 86.5 -97.5t137.5 -36.5q216 0 216 209v382h-428v47z" />
    <glyph glyph-name="jcircumflex" unicode="&#x135;" horiz-adv-x="207" 
d="M131 721l114 -170h-54l-84 136l-90 -136h-53l119 170h48zM80 -65v541h49v-537q0 -140 -115 -140q-58 0 -99 35l22 44q30 -36 75 -36q68 0 68 93z" />
    <glyph glyph-name="Kcommaaccent" unicode="&#x136;" horiz-adv-x="668" 
d="M347 380l296 -380h-60l-269 346l-172 -177v-169h-49v675h49v-438l425 438h66zM220 -237l96 173h55l-108 -173h-43z" />
    <glyph glyph-name="kcommaaccent" unicode="&#x137;" horiz-adv-x="505" 
d="M273 272l216 -272h-55l-193 242l-116 -114v-128h-47v706h47v-520l292 290h64zM156 -232l75 173h53l-87 -173h-41z" />
    <glyph glyph-name="kgreenlandic" unicode="&#x138;" horiz-adv-x="506" 
d="M430 0l-187 244l-117 -114v-130h-48v476h48v-287l286 287h68l-203 -199l212 -277h-59z" />
    <glyph glyph-name="Lacute" unicode="&#x139;" horiz-adv-x="587" 
d="M300 874l-163 -137h-51l143 137h71zM143 675v-628h404v-47h-454v675h50z" />
    <glyph glyph-name="lacute" unicode="&#x13a;" horiz-adv-x="202" 
d="M226 881l-101 -133h-45l83 133h63zM125 706v-706h-47v706h47z" />
    <glyph glyph-name="Lcommaaccent" unicode="&#x13b;" horiz-adv-x="587" 
d="M143 675v-628h404v-47h-454v675h50zM356 -64l-108 -173h-43l96 173h55z" />
    <glyph glyph-name="lcommaaccent" unicode="&#x13c;" horiz-adv-x="202" 
d="M125 706v-706h-47v706h47zM124 -59l-87 -173h-41l75 173h53z" />
    <glyph glyph-name="Lcaron" unicode="&#x13d;" horiz-adv-x="587" 
d="M143 675v-628h404v-47h-454v675h50zM295 675l-44 -194h-36l29 194h51z" />
    <glyph glyph-name="lcaron" unicode="&#x13e;" horiz-adv-x="202" 
d="M254 722l-44 -194h-36l29 194h51zM125 706v-706h-47v706h47z" />
    <glyph glyph-name="Ldot" unicode="&#x13f;" horiz-adv-x="587" 
d="M143 675v-628h404v-47h-454v675h50zM418 380v-69h-69v69h69z" />
    <glyph glyph-name="ldot" unicode="&#x140;" horiz-adv-x="217" 
d="M125 706v-706h-47v706h47zM180 391h59v-64h-59v64z" />
    <glyph glyph-name="Lslash" unicode="&#x141;" horiz-adv-x="588" 
d="M143 47h405v-47h-455v204l-65 -42v49l65 42v422h50v-389l231 151v-50l-231 -150v-190z" />
    <glyph glyph-name="lslash" unicode="&#x142;" horiz-adv-x="202" 
d="M208 447v-53l-83 -66v-328h-47v290l-82 -65v49l82 67v365h47v-327z" />
    <glyph glyph-name="Nacute" unicode="&#x143;" horiz-adv-x="738" 
d="M556 874l-163 -137h-51l143 137h71zM601 675h47v-675h-61l-450 617v-617h-47v675h60l451 -615v615z" />
    <glyph glyph-name="nacute" unicode="&#x144;" horiz-adv-x="565" 
d="M430 721l-118 -170h-43l101 170h60zM303 486q90 0 140.5 -51t50.5 -147v-288h-50v280q0 82 -35.5 121t-112.5 39q-54 0 -98 -27t-68 -72v-341h-50v476h47l1 -81q27 41 73.5 66t101.5 25z" />
    <glyph glyph-name="Ncommaaccent" unicode="&#x145;" horiz-adv-x="738" 
d="M601 675h47v-675h-61l-450 617v-617h-47v675h60l451 -615v615zM252 -237l96 173h55l-108 -173h-43z" />
    <glyph glyph-name="ncommaaccent" unicode="&#x146;" horiz-adv-x="565" 
d="M303 486q90 0 140.5 -51t50.5 -147v-288h-50v280q0 82 -35.5 121t-112.5 39q-54 0 -98 -27t-68 -72v-341h-50v476h47l1 -81q27 41 73.5 66t101.5 25zM195 -232l75 173h53l-87 -173h-41z" />
    <glyph glyph-name="Ncaron" unicode="&#x147;" horiz-adv-x="738" 
d="M402 738h-50l-139 136h62l102 -107l101 107h62zM601 675h47v-675h-61l-450 617v-617h-47v675h60l451 -615v615z" />
    <glyph glyph-name="ncaron" unicode="&#x148;" horiz-adv-x="565" 
d="M317 552h-51l-122 169h56l91 -138l91 138h57zM303 486q90 0 140.5 -51t50.5 -147v-288h-50v280q0 82 -35.5 121t-112.5 39q-54 0 -98 -27t-68 -72v-341h-50v476h47l1 -81q27 41 73.5 66t101.5 25z" />
    <glyph glyph-name="Eng" unicode="&#x14a;" horiz-adv-x="741" 
d="M604 675h48v-717q0 -74 -30 -114.5t-87 -40.5q-64 0 -108 41l24 41q32 -37 82 -37q33 0 52 23t19 67v43l-467 639v-620h-47v675h61l453 -612v612z" />
    <glyph glyph-name="eng" unicode="&#x14b;" horiz-adv-x="566" 
d="M306 486q91 0 140 -53.5t49 -145.5v-332q0 -67 -29.5 -103t-87.5 -36q-63 0 -96 35l21 45q29 -36 72 -36q33 0 51.5 19t18.5 70v333q0 158 -147 158q-52 0 -97 -25.5t-71 -68.5v-346h-50v476h47l2 -75q61 85 177 85z" />
    <glyph glyph-name="Omacron" unicode="&#x14c;" horiz-adv-x="720" 
d="M510 806v-43h-293v43h293zM360 685q141 0 225.5 -92.5t84.5 -235.5v-43q0 -140 -84 -231.5t-225 -91.5q-142 0 -226 91.5t-84 230.5v43q0 145 83.5 237t225.5 92zM360 638q-119 0 -188.5 -77t-69.5 -209v-35q0 -127 70.5 -203t188.5 -76t188 75.5t70 205.5v34
q0 131 -70 208t-189 77z" />
    <glyph glyph-name="omacron" unicode="&#x14d;" horiz-adv-x="534" 
d="M408 635v-45h-279v45h279zM267 486q104 0 165.5 -66t61.5 -170v-24q0 -104 -61.5 -169.5t-164.5 -65.5q-105 0 -166 66t-61 170v23q0 103 60.5 169.5t165.5 66.5zM268 441q-85 0 -131.5 -53t-46.5 -142v-17q0 -90 46.5 -142t130.5 -52q82 0 130 51t48 142v18
q0 89 -46.5 142t-130.5 53z" />
    <glyph glyph-name="Obreve" unicode="&#x14e;" horiz-adv-x="720" 
d="M515 862q-14 -52 -53.5 -87t-95.5 -35q-57 0 -96.5 34.5t-53.5 87.5h55q21 -84 94 -84q36 0 60.5 24t33.5 60h56zM360 685q141 0 225.5 -92.5t84.5 -235.5v-43q0 -140 -84 -231.5t-225 -91.5q-142 0 -226 91.5t-84 230.5v43q0 145 83.5 237t225.5 92zM360 638
q-119 0 -188.5 -77t-69.5 -209v-35q0 -127 70.5 -203t188.5 -76t188 75.5t70 205.5v34q0 131 -70 208t-189 77z" />
    <glyph glyph-name="obreve" unicode="&#x14f;" horiz-adv-x="534" 
d="M407 694q-16 -66 -50.5 -105t-87.5 -39q-105 0 -139 144h54q7 -49 29 -77.5t56 -28.5q66 0 84 106h54zM267 486q104 0 165.5 -66t61.5 -170v-24q0 -104 -61.5 -169.5t-164.5 -65.5q-105 0 -166 66t-61 170v23q0 103 60.5 169.5t165.5 66.5zM268 441q-85 0 -131.5 -53
t-46.5 -142v-17q0 -90 46.5 -142t130.5 -52q82 0 130 51t48 142v18q0 89 -46.5 142t-130.5 53z" />
    <glyph glyph-name="Ohungarumlaut" unicode="&#x150;" horiz-adv-x="720" 
d="M433 883l-119 -144h-45l102 144h62zM570 883l-126 -144h-45l110 144h61zM360 685q141 0 225.5 -92.5t84.5 -235.5v-43q0 -140 -84 -231.5t-225 -91.5q-142 0 -226 91.5t-84 230.5v43q0 145 83.5 237t225.5 92zM360 638q-119 0 -188.5 -77t-69.5 -209v-35
q0 -127 70.5 -203t188.5 -76t188 75.5t70 205.5v34q0 131 -70 208t-189 77z" />
    <glyph glyph-name="ohungarumlaut" unicode="&#x151;" horiz-adv-x="534" 
d="M317 721l-103 -169h-41l85 169h59zM459 721l-112 -169h-43l97 169h58zM267 486q104 0 165.5 -66t61.5 -170v-24q0 -104 -61.5 -169.5t-164.5 -65.5q-105 0 -166 66t-61 170v23q0 103 60.5 169.5t165.5 66.5zM268 441q-85 0 -131.5 -53t-46.5 -142v-17q0 -90 46.5 -142
t130.5 -52q82 0 130 51t48 142v18q0 89 -46.5 142t-130.5 53z" />
    <glyph glyph-name="OE" unicode="&#x152;" horiz-adv-x="1030" 
d="M980 628h-412v-259h343v-47h-343v-275h410v-47h-453q-76 -12 -138 -12q-158 0 -247 94.5t-89 236.5v34q0 91 35.5 164.5t113.5 121t188 47.5q47 0 131 -11h461v-47zM518 55v569q-48 14 -130 14q-143 0 -214.5 -82.5t-71.5 -210.5v-22q0 -124 74 -206t210 -82q86 0 132 20
z" />
    <glyph glyph-name="oe" unicode="&#x153;" horiz-adv-x="901" 
d="M484 236v-14q0 -90 46.5 -139t123.5 -49q117 0 162 89l37 -27q-26 -46 -77 -76t-123 -30q-67 0 -118 30.5t-77 86.5q-27 -54 -78 -85t-119 -31q-103 0 -163 66t-60 170v23q0 103 60 169.5t163 66.5q70 0 121.5 -32t77.5 -89q27 56 77.5 88.5t119.5 32.5q56 0 98.5 -20.5
t66.5 -55.5t36 -75.5t12 -85.5v-13h-386zM653 442q-73 0 -116 -44.5t-51 -120.5h335q-17 165 -168 165zM261 35q76 0 122.5 45.5t51.5 125.5v13v27q0 12 1 18q-5 82 -50.5 129.5t-124.5 47.5q-83 0 -129 -53t-46 -142v-17q0 -90 46 -142t129 -52z" />
    <glyph glyph-name="Racute" unicode="&#x154;" horiz-adv-x="666" 
d="M506 874l-163 -137h-51l143 137h71zM566 0l-192 275h-232v-275h-49v675h290q108 0 165.5 -50.5t57.5 -136.5v-19q0 -79 -46.5 -130.5t-130.5 -61.5l195 -277h-58zM142 627v-305h251q81 0 122 38.5t41 109.5v14q0 143 -164 143h-250z" />
    <glyph glyph-name="racute" unicode="&#x155;" horiz-adv-x="319" 
d="M334 721l-118 -170h-43l101 170h60zM128 367q14 54 45 83.5t77 29.5q35 0 54 -11l-9 -48q-17 12 -47 12q-42 0 -75 -36.5t-45 -95.5v-301h-48v476h47z" />
    <glyph glyph-name="Rcommaaccent" unicode="&#x156;" horiz-adv-x="666" 
d="M624 0h-58l-192 275h-232v-275h-49v675h290q108 0 165.5 -50.5t57.5 -136.5v-19q0 -79 -46.5 -130.5t-130.5 -61.5zM142 627v-305h251q81 0 122 38.5t41 109.5v14q0 143 -164 143h-250zM209 -237l96 173h55l-108 -173h-43z" />
    <glyph glyph-name="rcommaaccent" unicode="&#x157;" horiz-adv-x="319" 
d="M250 480q35 0 54 -11l-9 -48q-17 12 -47 12q-42 0 -75 -36.5t-45 -95.5v-301h-48v476h47l1 -109q14 54 45 83.5t77 29.5zM0 -232l75 173h53l-87 -173h-41z" />
    <glyph glyph-name="Rcaron" unicode="&#x158;" horiz-adv-x="666" 
d="M352 738h-50l-139 136h62l102 -107l101 107h62zM566 0l-192 275h-232v-275h-49v675h290q108 0 165.5 -50.5t57.5 -136.5v-19q0 -79 -46.5 -130.5t-130.5 -61.5l195 -277h-58zM142 627v-305h251q81 0 122 38.5t41 109.5v14q0 143 -164 143h-250z" />
    <glyph glyph-name="rcaron" unicode="&#x159;" horiz-adv-x="319" 
d="M221 552h-51l-122 169h56l91 -138l91 138h57zM128 367q14 54 45 83.5t77 29.5q35 0 54 -11l-9 -48q-17 12 -47 12q-42 0 -75 -36.5t-45 -95.5v-301h-48v476h47z" />
    <glyph glyph-name="Sacute" unicode="&#x15a;" horiz-adv-x="606" 
d="M483 876l-163 -137h-51l143 137h71zM310 -9q-92 0 -163.5 33t-110.5 86l35 37q33 -50 95 -79.5t144 -29.5q89 0 145 38.5t56 113.5q0 20 -5.5 36t-11.5 27.5t-23.5 22t-26.5 16t-37.5 14t-39.5 11t-47 10.5q-2 1 -3 1t-3 0.5t-3.5 1t-3.5 0.5q-37 8 -55 12t-49 12.5
t-47 16t-37 20.5t-31 27.5t-17.5 35t-7.5 44.5q0 82 62.5 134.5t181.5 52.5q141 0 228 -87l-32 -35q-62 74 -202 74q-94 0 -141 -38t-47 -101q0 -23 10.5 -40.5t25.5 -28.5t44.5 -21.5t52 -16t64.5 -14.5q8 -2 12.5 -3t11.5 -2.5t13 -2.5q42 -10 62.5 -15.5t54.5 -20
t51 -30.5t30.5 -44.5t13.5 -64.5q0 -96 -69.5 -149.5t-179.5 -53.5z" />
    <glyph glyph-name="sacute" unicode="&#x15b;" horiz-adv-x="452" 
d="M369 721l-118 -170h-43l101 170h60zM231 -9q-129 0 -200 86l33 35q53 -77 163 -77q69 0 108 25.5t39 75.5q0 15 -3.5 27t-13 20.5t-17 14t-25 10.5t-26 7t-31.5 6t-31 6q-41 9 -59 13.5t-46.5 14.5t-40.5 20.5t-22 29t-10 42.5q0 60 49 99t132 39q114 0 174 -69l-30 -32
q-44 57 -148 57q-58 0 -94 -25t-36 -67q0 -12 3.5 -21t13 -16t17.5 -12t25.5 -10t27 -7.5t33 -7.5t34.5 -7q6 -1 28 -6t30.5 -7.5t27.5 -8.5t27.5 -11.5t21.5 -15t18.5 -20t10.5 -26t5 -33.5q0 -72 -51 -110.5t-137 -38.5z" />
    <glyph glyph-name="Scircumflex" unicode="&#x15c;" horiz-adv-x="606" 
d="M306 846l-106 -107h-61l142 138h51l139 -138h-60zM347 369q42 -10 62.5 -15.5t54.5 -20t51 -30.5t30.5 -44.5t13.5 -64.5q0 -96 -69.5 -149.5t-179.5 -53.5q-92 0 -163.5 33t-110.5 86l35 37q33 -50 95 -79.5t144 -29.5q89 0 145 38.5t56 113.5q0 20 -5.5 36t-11.5 27.5
t-23.5 22t-26.5 16t-37.5 14t-39.5 11t-47 10.5q-2 1 -3 1t-3 0.5t-3.5 1t-3.5 0.5q-37 8 -55 12t-49 12.5t-47 16t-37 20.5t-31 27.5t-17.5 35t-7.5 44.5q0 82 62.5 134.5t181.5 52.5q141 0 228 -87l-32 -35q-62 74 -202 74q-94 0 -141 -38t-47 -101q0 -23 10.5 -40.5
t25.5 -28.5t44.5 -21.5t52 -16t64.5 -14.5q8 -2 12.5 -3t11.5 -2.5t13 -2.5z" />
    <glyph glyph-name="scircumflex" unicode="&#x15d;" horiz-adv-x="452" 
d="M233 688l-95 -137h-56l126 170h50l120 -170h-56zM250 268q6 -1 28 -6t30.5 -7.5t27.5 -8.5t27.5 -11.5t21.5 -15t18.5 -20t10.5 -26t5 -33.5q0 -72 -51 -110.5t-137 -38.5q-129 0 -200 86l33 35q53 -77 163 -77q69 0 108 25.5t39 75.5q0 15 -3.5 27t-13 20.5t-17 14
t-25 10.5t-26 7t-31.5 6t-31 6q-41 9 -59 13.5t-46.5 14.5t-40.5 20.5t-22 29t-10 42.5q0 60 49 99t132 39q114 0 174 -69l-30 -32q-44 57 -148 57q-58 0 -94 -25t-36 -67q0 -12 3.5 -21t13 -16t17.5 -12t25.5 -10t27 -7.5t33 -7.5t34.5 -7z" />
    <glyph glyph-name="Scedilla" unicode="&#x15e;" horiz-adv-x="606" 
d="M559 194q0 -96 -69.5 -149.5t-178.5 -53.5l-12 -61q18 4 47 0q37 -3 60.5 -24.5t23.5 -61.5q0 -48 -36.5 -75t-93.5 -27q-37 0 -73.5 11.5t-54.5 27.5l21 43q34 -41 107 -41q86 0 86 60q0 52 -63 54q-21 1 -41 -4l-26 24l11 76q-156 15 -231 117l35 37q33 -50 95 -79.5
t144 -29.5q89 0 145 38.5t56 113.5q0 20 -5.5 36t-11.5 27.5t-23.5 22t-26.5 16t-37.5 14t-39.5 11t-47 10.5q-2 1 -3 1t-3 0.5t-3.5 1t-3.5 0.5q-37 8 -55 12t-49 12.5t-47 16t-37 20.5t-31 27.5t-17.5 35t-7.5 44.5q0 82 62.5 134.5t181.5 52.5q141 0 228 -87l-32 -35
q-62 74 -202 74q-94 0 -141 -38t-47 -101q0 -23 10.5 -40.5t25.5 -28.5t44.5 -21.5t52 -16t64.5 -14.5q8 -2 12.5 -3t11.5 -2.5t13 -2.5q42 -10 62.5 -15.5t54.5 -20t51 -30.5t30.5 -44.5t13.5 -64.5z" />
    <glyph glyph-name="scedilla" unicode="&#x15f;" horiz-adv-x="452" 
d="M419 140q0 -70 -48 -108.5t-129 -40.5l-9 -46q106 9 106 -74q0 -40 -28.5 -64t-82.5 -24q-32 0 -61.5 10.5t-39.5 20.5l19 43q8 -14 31 -25t50 -11q71 0 71 49q0 42 -50 42q-17 0 -34 -6l-24 26l10 60q-105 10 -169 85l33 35q53 -77 163 -77q69 0 108 25.5t39 75.5
q0 15 -3.5 27t-13 20.5t-17 14t-25 10.5t-26 7t-31.5 6t-31 6q-41 9 -59 13.5t-46.5 14.5t-40.5 20.5t-22 29t-10 42.5q0 60 49 99t132 39q114 0 174 -69l-30 -32q-44 57 -148 57q-58 0 -94 -25t-36 -67q0 -12 3.5 -21t13 -16t17.5 -12t25.5 -10t27 -7.5t33 -7.5t34.5 -7
q6 -1 28 -6t30.5 -7.5t27.5 -8.5t27.5 -11.5t21.5 -15t18.5 -20t10.5 -26t5 -33.5z" />
    <glyph glyph-name="Scaron" unicode="&#x160;" horiz-adv-x="606" 
d="M329 740h-50l-139 136h62l102 -107l101 107h62zM347 369q42 -10 62.5 -15.5t54.5 -20t51 -30.5t30.5 -44.5t13.5 -64.5q0 -96 -69.5 -149.5t-179.5 -53.5q-92 0 -163.5 33t-110.5 86l35 37q33 -50 95 -79.5t144 -29.5q89 0 145 38.5t56 113.5q0 20 -5.5 36t-11.5 27.5
t-23.5 22t-26.5 16t-37.5 14t-39.5 11t-47 10.5q-2 1 -3 1t-3 0.5t-3.5 1t-3.5 0.5q-37 8 -55 12t-49 12.5t-47 16t-37 20.5t-31 27.5t-17.5 35t-7.5 44.5q0 82 62.5 134.5t181.5 52.5q141 0 228 -87l-32 -35q-62 74 -202 74q-94 0 -141 -38t-47 -101q0 -23 10.5 -40.5
t25.5 -28.5t44.5 -21.5t52 -16t64.5 -14.5q8 -2 12.5 -3t11.5 -2.5t13 -2.5z" />
    <glyph glyph-name="scaron" unicode="&#x161;" horiz-adv-x="452" 
d="M256 552h-51l-122 169h56l91 -138l91 138h57zM250 268q6 -1 28 -6t30.5 -7.5t27.5 -8.5t27.5 -11.5t21.5 -15t18.5 -20t10.5 -26t5 -33.5q0 -72 -51 -110.5t-137 -38.5q-129 0 -200 86l33 35q53 -77 163 -77q69 0 108 25.5t39 75.5q0 15 -3.5 27t-13 20.5t-17 14
t-25 10.5t-26 7t-31.5 6t-31 6q-41 9 -59 13.5t-46.5 14.5t-40.5 20.5t-22 29t-10 42.5q0 60 49 99t132 39q114 0 174 -69l-30 -32q-44 57 -148 57q-58 0 -94 -25t-36 -67q0 -12 3.5 -21t13 -16t17.5 -12t25.5 -10t27 -7.5t33 -7.5t34.5 -7z" />
    <glyph glyph-name="uni0162" unicode="&#x162;" horiz-adv-x="611" 
d="M588 628h-257v-628l-28 -69q20 4 50 0q77 -11 77 -84q0 -49 -35 -76t-91 -27q-34 0 -69.5 11.5t-53.5 27.5l21 43q35 -42 102 -42q85 0 85 62q0 29 -15.5 39t-44.5 12q-28 0 -43 -4l-26 28l27 79h-7v628h-257v47h565v-47z" />
    <glyph glyph-name="uni0163" unicode="&#x163;" horiz-adv-x="368" 
d="M345 33q-39 -41 -108 -42l-9 -46q106 9 106 -74q0 -40 -28.5 -64t-82.5 -24q-32 0 -61.5 10.5t-39.5 20.5l19 43q8 -14 31 -25t50 -11q71 0 71 49q0 42 -50 42q-17 0 -34 -6l-24 26l10 63q-77 19 -77 124v315h-92v42h92v118l47 14v-132h174v-42h-174v-313q0 -87 70 -87
q55 0 88 37z" />
    <glyph glyph-name="Tcaron" unicode="&#x164;" horiz-adv-x="611" 
d="M329 738h-50l-139 136h62l102 -107l101 107h62zM588 675v-47h-257v-628h-51v628h-257v47h565z" />
    <glyph glyph-name="tcaron" unicode="&#x165;" horiz-adv-x="368" 
d="M306 722l-44 -194h-36l29 194h51zM323 71l22 -38q-40 -42 -115 -42q-53 0 -82.5 32.5t-29.5 95.5v315h-92v42h92v118l47 14v-132h174v-42h-174v-313q0 -87 70 -87q55 0 88 37z" />
    <glyph glyph-name="Tbar" unicode="&#x166;" horiz-adv-x="611" 
d="M588 628h-257v-257h177v-43h-177v-328h-51v328h-176v43h176v257h-257v47h565v-47z" />
    <glyph glyph-name="tbar" unicode="&#x167;" horiz-adv-x="368" 
d="M323 71l22 -38q-40 -42 -115 -42q-53 0 -82.5 32.5t-29.5 95.5v131h-82v40h82v144h-92v42h92v118l47 14v-132h174v-42h-174v-144l156 -1v-40l-156 1v-129q0 -87 70 -87q55 0 88 37z" />
    <glyph glyph-name="Utilde" unicode="&#x168;" horiz-adv-x="710" 
d="M502 831v-52q-23 -25 -77 -25q-22 0 -68.5 15.5t-70.5 15.5q-52 0 -78 -40v52q21 32 78 32q29 0 73.5 -15.5t66.5 -15.5q50 0 76 33zM632 675v-416q0 -125 -72 -197t-204 -72q-131 0 -204.5 70.5t-73.5 194.5v420h51v-425q0 -103 61.5 -157.5t166.5 -54.5t164.5 55.5
t59.5 160.5v421h51z" />
    <glyph glyph-name="utilde" unicode="&#x169;" horiz-adv-x="544" 
d="M212 605q-46 0 -76 -35v51q23 29 81 29q26 0 66 -13t57 -13q51 0 73 30v-55q-22 -20 -73 -20q-21 0 -62.5 13t-65.5 13zM484 0h-48q-8 28 -10 70q-24 -32 -67 -55.5t-97 -23.5q-93 0 -145 48t-52 144v293h51v-287q0 -81 38 -117t112 -36q53 0 94 24t63 61v355h50v-336
q0 -105 11 -140z" />
    <glyph glyph-name="Umacron" unicode="&#x16a;" horiz-adv-x="710" 
d="M500 804v-43h-293v43h293zM632 675v-416q0 -125 -72 -197t-204 -72q-131 0 -204.5 70.5t-73.5 194.5v420h51v-425q0 -103 61.5 -157.5t166.5 -54.5t164.5 55.5t59.5 160.5v421h51z" />
    <glyph glyph-name="umacron" unicode="&#x16b;" horiz-adv-x="544" 
d="M414 635v-45h-279v45h279zM484 0h-48q-8 28 -10 70q-24 -32 -67 -55.5t-97 -23.5q-93 0 -145 48t-52 144v293h51v-287q0 -81 38 -117t112 -36q53 0 94 24t63 61v355h50v-336q0 -105 11 -140z" />
    <glyph glyph-name="Ubreve" unicode="&#x16c;" horiz-adv-x="710" 
d="M505 860q-14 -52 -53.5 -87t-95.5 -35q-57 0 -96.5 34.5t-53.5 87.5h55q21 -84 94 -84q36 0 60.5 24t33.5 60h56zM632 675v-416q0 -125 -72 -197t-204 -72q-131 0 -204.5 70.5t-73.5 194.5v420h51v-425q0 -103 61.5 -157.5t166.5 -54.5t164.5 55.5t59.5 160.5v421h51z
" />
    <glyph glyph-name="ubreve" unicode="&#x16d;" horiz-adv-x="544" 
d="M275 550q-105 0 -139 144h54q7 -49 29 -77.5t56 -28.5q66 0 84 106h54q-16 -66 -50.5 -105t-87.5 -39zM484 0h-48q-8 28 -10 70q-24 -32 -67 -55.5t-97 -23.5q-93 0 -145 48t-52 144v293h51v-287q0 -81 38 -117t112 -36q53 0 94 24t63 61v355h50v-336q0 -105 11 -140z
" />
    <glyph glyph-name="Uring" unicode="&#x16e;" horiz-adv-x="710" 
d="M354 922q44 0 73 -26.5t29 -69.5q0 -44 -29 -71t-73 -27t-73 27t-29 71q0 43 29 69.5t73 26.5zM354 883q-28 0 -43.5 -15.5t-15.5 -42.5t15.5 -42.5t43.5 -15.5q27 0 42 15.5t15 42.5t-15 42.5t-42 15.5zM632 675v-416q0 -125 -72 -197t-204 -72q-131 0 -204.5 70.5
t-73.5 194.5v420h51v-425q0 -103 61.5 -157.5t166.5 -54.5t164.5 55.5t59.5 160.5v421h51z" />
    <glyph glyph-name="uring" unicode="&#x16f;" horiz-adv-x="544" 
d="M276 547q-41 0 -68 25t-27 67t26.5 66.5t68.5 24.5q40 0 67 -24.5t27 -66.5t-27 -67t-67 -25zM276 692q-24 0 -38.5 -14t-14.5 -39t14.5 -39.5t38.5 -14.5q23 0 37 14.5t14 39.5q0 24 -14 38.5t-37 14.5zM484 0h-48q-8 28 -10 70q-24 -32 -67 -55.5t-97 -23.5
q-93 0 -145 48t-52 144v293h51v-287q0 -81 38 -117t112 -36q53 0 94 24t63 61v355h50v-336q0 -105 11 -140z" />
    <glyph glyph-name="Uhungarumlaut" unicode="&#x170;" horiz-adv-x="710" 
d="M423 881l-119 -144h-45l102 144h62zM560 881l-126 -144h-45l110 144h61zM632 675v-416q0 -125 -72 -197t-204 -72q-131 0 -204.5 70.5t-73.5 194.5v420h51v-425q0 -103 61.5 -157.5t166.5 -54.5t164.5 55.5t59.5 160.5v421h51z" />
    <glyph glyph-name="uhungarumlaut" unicode="&#x171;" horiz-adv-x="544" 
d="M324 721l-103 -169h-41l85 169h59zM354 552h-43l97 169h58zM484 0h-48q-8 28 -10 70q-24 -32 -67 -55.5t-97 -23.5q-93 0 -145 48t-52 144v293h51v-287q0 -81 38 -117t112 -36q53 0 94 24t63 61v355h50v-336q0 -105 11 -140z" />
    <glyph glyph-name="Uogonek" unicode="&#x172;" horiz-adv-x="710" 
d="M581 675h51v-416q0 -178 -135 -241q-119 -58 -119 -131q0 -53 48 -53q38 0 56 27l18 -42q-26 -30 -81 -30q-41 0 -65.5 25.5t-24.5 68.5q0 61 57 108q-4 0 -14 -0.5t-16 -0.5q-131 0 -204.5 70.5t-73.5 194.5v420h51v-425q0 -103 61.5 -157.5t166.5 -54.5t164.5 55.5
t59.5 160.5v421z" />
    <glyph glyph-name="uogonek" unicode="&#x173;" horiz-adv-x="544" 
d="M468 -136l17 -37q-35 -28 -81 -28q-38 0 -62 25t-24 64q0 80 115 125q-5 21 -7 57q-24 -32 -67 -55.5t-97 -23.5q-93 0 -145 48t-52 144v293h51v-287q0 -81 38 -117t112 -36q53 0 94 24t63 61v355h50v-336q0 -105 11 -140q-120 -37 -120 -108q0 -52 48 -52q36 0 56 24z
" />
    <glyph glyph-name="Wcircumflex" unicode="&#x174;" horiz-adv-x="944" 
d="M475 844l-106 -107h-61l142 138h51l139 -138h-60zM866 675h51l-243 -675h-62l-137 334l-132 -334h-62l-254 675h50l235 -636l131 331l-127 305h52l107 -270l100 270h51l-120 -304l136 -332z" />
    <glyph glyph-name="wcircumflex" unicode="&#x175;" horiz-adv-x="737" 
d="M372 688l-95 -137h-56l126 170h50l120 -170h-56zM671 476h51l-152 -476h-58l-143 431l-140 -431h-57l-157 476h51l134 -430l139 430h58l144 -431z" />
    <glyph glyph-name="Ycircumflex" unicode="&#x176;" horiz-adv-x="635" 
d="M318 844l-106 -107h-61l142 138h51l139 -138h-60zM559 675h59l-273 -437v-238h-50v239l-278 436h58l245 -389z" />
    <glyph glyph-name="ycircumflex" unicode="&#x177;" horiz-adv-x="479" 
d="M240 688l-95 -137h-56l126 170h50l120 -170h-56zM416 476h52q-220 -531 -315 -678l-44 21q72 100 106 185l-204 472h53l177 -428z" />
    <glyph glyph-name="Ydieresis" unicode="&#x178;" horiz-adv-x="635" 
d="M229 825v-68h-66v68h66zM472 825v-68h-67v68h67zM559 675h59l-273 -437v-238h-50v239l-278 436h58l245 -389z" />
    <glyph glyph-name="Zacute" unicode="&#x179;" horiz-adv-x="614" 
d="M495 874l-163 -137h-51l143 137h71zM115 47h449v-47h-505v51l448 577h-445v47h500v-52z" />
    <glyph glyph-name="zacute" unicode="&#x17a;" horiz-adv-x="476" 
d="M377 721l-118 -170h-43l101 170h60zM105 45h328v-45h-384v45l324 386h-321v45h375v-47z" />
    <glyph glyph-name="Zdotaccent" unicode="&#x17b;" horiz-adv-x="614" 
d="M350 825v-68h-66v68h66zM115 47h449v-47h-505v51l448 577h-445v47h500v-52z" />
    <glyph glyph-name="zdotaccent" unicode="&#x17c;" horiz-adv-x="476" 
d="M271 645v-64h-65v64h65zM105 45h328v-45h-384v45l324 386h-321v45h375v-47z" />
    <glyph glyph-name="Zcaron" unicode="&#x17d;" horiz-adv-x="614" 
d="M341 738h-50l-139 136h62l102 -107l101 107h62zM115 47h449v-47h-505v51l448 577h-445v47h500v-52z" />
    <glyph glyph-name="zcaron" unicode="&#x17e;" horiz-adv-x="476" 
d="M263 552h-51l-122 169h56l91 -138l91 138h57zM105 45h328v-45h-384v45l324 386h-321v45h375v-47z" />
    <glyph glyph-name="longs" unicode="&#x17f;" horiz-adv-x="274" 
d="M250 711q65 0 110 -35l-22 -39q-34 31 -89 31q-38 0 -53.5 -26t-15.5 -83v-559h-48v433h-106v43h106v80q0 155 118 155z" />
    <glyph glyph-name="florin" unicode="&#x192;" horiz-adv-x="435" 
d="M341 642q-71 0 -94 -115l-31 -156h148l-9 -44h-147l-61 -310q-18 -87 -52 -128t-94 -41q-58 0 -100 37l26 45q31 -36 77 -36q71 0 95 120l60 313h-119v44h128l30 156q15 80 51 120t98 40q56 0 106 -32l-25 -42q-34 29 -87 29z" />
    <glyph glyph-name="Scommaaccent" unicode="&#x218;" horiz-adv-x="606" 
d="M310 -9q-92 0 -163.5 33t-110.5 86l35 37q33 -50 95 -79.5t144 -29.5q89 0 145 38.5t56 113.5q0 20 -5.5 36t-11.5 27.5t-23.5 22t-26.5 16t-37.5 14t-39.5 11t-47 10.5q-2 1 -3 1t-3 0.5t-3.5 1t-3.5 0.5q-37 8 -55 12t-49 12.5t-47 16t-37 20.5t-31 27.5t-17.5 35
t-7.5 44.5q0 82 62.5 134.5t181.5 52.5q141 0 228 -87l-32 -35q-62 74 -202 74q-94 0 -141 -38t-47 -101q0 -23 10.5 -40.5t25.5 -28.5t44.5 -21.5t52 -16t64.5 -14.5q8 -2 12.5 -3t11.5 -2.5t13 -2.5q42 -10 62.5 -15.5t54.5 -20t51 -30.5t30.5 -44.5t13.5 -64.5
q0 -96 -69.5 -149.5t-179.5 -53.5zM322 -64l-108 -173h-43l96 173h55z" />
    <glyph glyph-name="scommaaccent" unicode="&#x219;" horiz-adv-x="452" 
d="M231 -9q-129 0 -200 86l33 35q53 -77 163 -77q69 0 108 25.5t39 75.5q0 15 -3.5 27t-13 20.5t-17 14t-25 10.5t-26 7t-31.5 6t-31 6q-41 9 -59 13.5t-46.5 14.5t-40.5 20.5t-22 29t-10 42.5q0 60 49 99t132 39q114 0 174 -69l-30 -32q-44 57 -148 57q-58 0 -94 -25
t-36 -67q0 -12 3.5 -21t13 -16t17.5 -12t25.5 -10t27 -7.5t33 -7.5t34.5 -7q6 -1 28 -6t30.5 -7.5t27.5 -8.5t27.5 -11.5t21.5 -15t18.5 -20t10.5 -26t5 -33.5q0 -72 -51 -110.5t-137 -38.5zM250 -59l-87 -173h-41l75 173h53z" />
    <glyph glyph-name="uni021A" unicode="&#x21a;" horiz-adv-x="611" 
d="M23 675h565v-47h-257v-628h-51v628h-257v47zM185 -237l96 173h55l-108 -173h-43z" />
    <glyph glyph-name="uni021B" unicode="&#x21b;" horiz-adv-x="368" 
d="M323 71l22 -38q-40 -42 -115 -42q-53 0 -82.5 32.5t-29.5 95.5v315h-92v42h92v118l47 14v-132h174v-42h-174v-313q0 -87 70 -87q55 0 88 37zM118 -232l75 173h53l-87 -173h-41z" />
    <glyph glyph-name="uni0237" unicode="&#x237;" horiz-adv-x="207" 
d="M129 476v-537q0 -140 -115 -140q-58 0 -99 35l22 44q30 -36 75 -36q68 0 68 93v541h49z" />
    <glyph glyph-name="circumflex" unicode="&#x2c6;" horiz-adv-x="362" 
d="M329 551h-56l-89 137l-95 -137h-56l125 170h51z" />
    <glyph glyph-name="caron" unicode="&#x2c7;" horiz-adv-x="367" 
d="M273 721h57l-122 -169h-51l-122 169h56l91 -138z" />
    <glyph glyph-name="breve" unicode="&#x2d8;" horiz-adv-x="349" 
d="M310 694q-16 -66 -50.5 -105t-87.5 -39q-105 0 -139 144h54q7 -49 29 -77.5t56 -28.5q66 0 84 106h54z" />
    <glyph glyph-name="dotaccent" unicode="&#x2d9;" horiz-adv-x="222" 
d="M78 645h66v-64h-66v64z" />
    <glyph glyph-name="ring" unicode="&#x2da;" horiz-adv-x="346" 
d="M174 730q40 0 67 -24.5t27 -66.5t-27 -67t-67 -25q-41 0 -68 25t-27 67t26.5 66.5t68.5 24.5zM174 692q-24 0 -38.5 -14t-14.5 -39t14.5 -39.5t38.5 -14.5q23 0 37 14.5t14 39.5q0 24 -14 38.5t-37 14.5z" />
    <glyph glyph-name="ogonek" unicode="&#x2db;" horiz-adv-x="235" 
d="M167 20l32 -20q-120 -37 -120 -108q0 -23 12.5 -37.5t35.5 -14.5q36 0 57 24l16 -37q-33 -28 -80 -28q-38 0 -62.5 25t-24.5 64q0 47 34.5 78t99.5 54z" />
    <glyph glyph-name="tilde" unicode="&#x2dc;" horiz-adv-x="433" 
d="M355 654v-55q-22 -20 -73 -20q-21 0 -62.5 13t-65.5 13q-46 0 -76 -35v51q23 29 81 29q26 0 66 -13t57 -13q51 0 73 30z" />
    <glyph glyph-name="hungarumlaut" unicode="&#x2dd;" horiz-adv-x="352" 
d="M177 721l-103 -169h-41l85 169h59zM319 721l-112 -169h-43l97 169h58z" />
    <glyph glyph-name="gravecomb" unicode="&#x300;" 
d="M-138 721l96 -169h-43l-113 169h60z" />
    <glyph glyph-name="acutecomb" unicode="&#x301;" 
d="M-32 721l-118 -170h-43l101 170h60z" />
    <glyph glyph-name="uni0302" unicode="&#x302;" 
d="M-32 551h-56l-89 137l-95 -137h-56l126 170h50z" />
    <glyph glyph-name="tildecomb" unicode="&#x303;" 
d="M-78 654v-55q-22 -20 -73 -20q-21 0 -62.5 13t-65.5 13q-46 0 -76 -35v51q23 29 81 29q26 0 66 -13t57 -13q51 0 73 30z" />
    <glyph glyph-name="uni0304" unicode="&#x304;" 
d="M-84 635v-45h-279v45h279z" />
    <glyph glyph-name="uni0306" unicode="&#x306;" 
d="M-33 694q-16 -66 -50.5 -105t-87.5 -39q-105 0 -139 144h54q7 -49 29 -77.5t56 -28.5q66 0 84 106h54z" />
    <glyph glyph-name="uni0307" unicode="&#x307;" 
d="M-143 645h65v-64h-65v64z" />
    <glyph glyph-name="uni0308" unicode="&#x308;" 
d="M-281 644v-65h-64v65h64zM-84 644v-65h-64v65h64z" />
    <glyph glyph-name="uni030A" unicode="&#x30a;" 
d="M-172 730q40 0 67 -24.5t27 -66.5t-27 -67t-67 -25q-41 0 -68 25t-27 67t26.5 66.5t68.5 24.5zM-172 692q-24 0 -38.5 -14t-14.5 -39t14.5 -39.5t38.5 -14.5q23 0 37 14.5t14 39.5q0 24 -14 38.5t-37 14.5z" />
    <glyph glyph-name="uni030B" unicode="&#x30b;" 
d="M-175 721l-103 -169h-41l85 169h59zM-33 721l-112 -169h-43l97 169h58z" />
    <glyph glyph-name="uni030C" unicode="&#x30c;" 
d="M-90 721h57l-122 -169h-51l-122 169h56l91 -138z" />
    <glyph glyph-name="uni0312" unicode="&#x312;" 
d="M-32 718l-100 -169h-63l115 169h48z" />
    <glyph glyph-name="uni0326" unicode="&#x326;" 
d="M-33 -59l-87 -173h-41l75 173h53z" />
    <glyph glyph-name="uni0327" unicode="&#x327;" 
d="M-115 13l-13 -68q106 9 106 -74q0 -40 -28.5 -64t-82.5 -24q-32 0 -61.5 10.5t-39.5 20.5l19 43q8 -14 31 -25t50 -11q71 0 71 49q0 42 -50 42q-17 0 -34 -6l-24 26l13 81h43z" />
    <glyph glyph-name="uni0328" unicode="&#x328;" 
d="M-77 20l32 -20q-120 -37 -120 -108q0 -52 48 -52q36 0 56 24l17 -37q-35 -28 -81 -28q-38 0 -62 25t-24 64q0 47 34.5 78t99.5 54z" />
    <glyph glyph-name="uni1E02" unicode="&#x1e02;" horiz-adv-x="693" 
d="M364 825v-68h-66v68h66zM494 357q61 1 107 -37.5t46 -110.5v-18q0 -87 -57.5 -139t-169.5 -52h-327v675h309q102 0 151.5 -44t49.5 -117v-17q0 -57 -31.5 -97t-77.5 -43zM413 627h-271v-252h278q63 0 98.5 32.5t35.5 90.5v13q0 116 -141 116zM597 190v14q0 125 -157 125
h-298v-281h275q180 0 180 142z" />
    <glyph glyph-name="uni1E03" unicode="&#x1e03;" horiz-adv-x="561" 
d="M301 486q107 0 163 -62t56 -165v-27q0 -111 -58.5 -176.5t-166.5 -65.5q-92 0 -170 72l-3 -62h-44v706h48v-306q28 38 73.5 62t101.5 24zM341 645v-64h-65v64h65zM471 230v21q0 190 -172 190q-118 0 -173 -96v-234q26 -33 71.5 -54.5t97.5 -21.5q85 0 130.5 51t45.5 144z
" />
    <glyph glyph-name="uni1E0A" unicode="&#x1e0a;" horiz-adv-x="722" 
d="M319 825h66v-68h-66v68zM341 675q156 0 243 -84t87 -234v-37q0 -148 -84.5 -234t-236.5 -86h-257v675h248zM340 627h-197v-579h204q133 0 203 70.5t70 203.5v32q0 136 -72 204.5t-208 68.5z" />
    <glyph glyph-name="uni1E0B" unicode="&#x1e0b;" horiz-adv-x="551" 
d="M492 0h-48q-7 18 -9 68q-23 -33 -69 -55t-106 -22q-96 0 -157.5 59t-61.5 163v25q0 116 62.5 182t167.5 66q51 0 96 -17.5t68 -43.5v281h48v-570q0 -108 9 -136zM292 645v-64h-65v64h65zM264 36q122 0 171 88v245q-24 35 -69 53.5t-97 18.5q-84 0 -131.5 -53.5
t-47.5 -150.5v-19q0 -88 47.5 -135t126.5 -47z" />
    <glyph glyph-name="uni1E1E" unicode="&#x1e1e;" horiz-adv-x="607" 
d="M368 825v-68h-66v68h66zM572 628h-429v-281h365v-48h-365v-299h-50v675h479v-47z" />
    <glyph glyph-name="uni1E1F" unicode="&#x1e1f;" horiz-adv-x="366" 
d="M212 823v-64h-65v64h65zM258 713q70 0 107 -34l-21 -39q-29 30 -87 30q-39 0 -56.5 -26.5t-17.5 -83.5v-84h158v-42h-158v-434h-47v434h-110v42h110v84q0 153 122 153z" />
    <glyph glyph-name="uni1E40" unicode="&#x1e40;" horiz-adv-x="874" 
d="M471 825v-68h-66v68h66zM721 675h63v-675h-47v615l-284 -459h-31l-284 460v-616h-48v675h64l283 -459z" />
    <glyph glyph-name="uni1E41" unicode="&#x1e41;" horiz-adv-x="872" 
d="M473 645v-64h-65v64h65zM610 486q191 0 191 -207v-279h-50v284q0 156 -140 156q-96 0 -146 -80v-360h-50v305q0 135 -133 135q-47 0 -88 -25t-64 -67v-348h-50v476h46l2 -76q22 36 65 61t101 25q52 0 92.5 -25.5t55.5 -67.5q26 39 70 66t98 27z" />
    <glyph glyph-name="uni1E6A" unicode="&#x1e6a;" horiz-adv-x="611" 
d="M338 825v-68h-66v68h66zM588 675v-47h-257v-628h-51v628h-257v47h565z" />
    <glyph glyph-name="uni1E6B" unicode="&#x1e6b;" horiz-adv-x="368" 
d="M173 734v-64h-65v64h65zM323 71l22 -38q-40 -42 -115 -42q-53 0 -82.5 32.5t-29.5 95.5v315h-92v42h92v118l47 14v-132h174v-42h-174v-313q0 -87 70 -87q55 0 88 37z" />
    <glyph glyph-name="Wgrave" unicode="&#x1e80;" horiz-adv-x="944" 
d="M512 737h-51l-149 137h72zM866 675h51l-243 -675h-62l-137 334l-132 -334h-62l-254 675h50l235 -636l131 331l-127 305h52l107 -270l100 270h51l-120 -304l136 -332z" />
    <glyph glyph-name="wgrave" unicode="&#x1e81;" horiz-adv-x="737" 
d="M395 552h-43l-113 169h60zM671 476h51l-152 -476h-58l-143 431l-140 -431h-57l-157 476h51l134 -430l139 430h58l144 -431z" />
    <glyph glyph-name="Wacute" unicode="&#x1e82;" horiz-adv-x="944" 
d="M652 874l-163 -137h-51l143 137h71zM866 675h51l-243 -675h-62l-137 334l-132 -334h-62l-254 675h50l235 -636l131 331l-127 305h52l107 -270l100 270h51l-120 -304l136 -332z" />
    <glyph glyph-name="wacute" unicode="&#x1e83;" horiz-adv-x="737" 
d="M508 721l-118 -170h-43l101 170h60zM671 476h51l-152 -476h-58l-143 431l-140 -431h-57l-157 476h51l134 -430l139 430h58l144 -431z" />
    <glyph glyph-name="Wdieresis" unicode="&#x1e84;" horiz-adv-x="944" 
d="M386 825v-68h-66v68h66zM629 825v-68h-67v68h67zM866 675h51l-243 -675h-62l-137 334l-132 -334h-62l-254 675h50l235 -636l131 331l-127 305h52l107 -270l100 270h51l-120 -304l136 -332z" />
    <glyph glyph-name="wdieresis" unicode="&#x1e85;" horiz-adv-x="737" 
d="M302 644v-65h-64v65h64zM499 644v-65h-64v65h64zM671 476h51l-152 -476h-58l-143 431l-140 -431h-57l-157 476h51l134 -430l139 430h58l144 -431z" />
    <glyph glyph-name="Ygrave" unicode="&#x1ef2;" horiz-adv-x="635" 
d="M355 737h-51l-149 137h72zM559 675h59l-273 -437v-238h-50v239l-278 436h58l245 -389z" />
    <glyph glyph-name="ygrave" unicode="&#x1ef3;" horiz-adv-x="479" 
d="M263 552h-43l-113 169h60zM416 476h52q-220 -531 -315 -678l-44 21q72 100 106 185l-204 472h53l177 -428z" />
    <glyph glyph-name="endash" unicode="&#x2013;" horiz-adv-x="599" 
d="M539 306v-45h-480v45h480z" />
    <glyph glyph-name="emdash" unicode="&#x2014;" horiz-adv-x="845" 
d="M785 306v-45h-726v45h726z" />
    <glyph glyph-name="quoteleft" unicode="&#x2018;" horiz-adv-x="186" 
d="M43 424q11 162 65 269l40 -13q-49 -105 -56 -256h-49z" />
    <glyph glyph-name="quoteright" unicode="&#x2019;" horiz-adv-x="186" 
d="M143 675q-11 -165 -65 -269l-40 13q51 109 56 256h49z" />
    <glyph glyph-name="quotesinglbase" unicode="&#x201a;" horiz-adv-x="186" 
d="M143 102q-11 -165 -65 -269l-40 13q51 109 56 256h49z" />
    <glyph glyph-name="quotedblleft" unicode="&#x201c;" horiz-adv-x="330" 
d="M40 424q11 165 65 269l40 -13q-51 -109 -56 -256h-49zM185 424q11 165 65 269l40 -13q-51 -109 -56 -256h-49z" />
    <glyph glyph-name="quotedblright" unicode="&#x201d;" horiz-adv-x="328" 
d="M143 675q-11 -165 -65 -269l-40 13q51 109 56 256h49zM285 675q-11 -162 -65 -269l-41 13q50 105 57 256h49z" />
    <glyph glyph-name="quotedblbase" unicode="&#x201e;" horiz-adv-x="328" 
d="M143 102q-11 -165 -65 -269l-40 13q51 109 56 256h49zM285 102q-11 -162 -65 -269l-41 13q50 105 57 256h49z" />
    <glyph glyph-name="dagger" unicode="&#x2020;" horiz-adv-x="539" 
d="M293 674v-223h211v-45h-211v-516h-48v516h-210v45h210v223h48z" />
    <glyph glyph-name="daggerdbl" unicode="&#x2021;" horiz-adv-x="539" 
d="M293 674v-216h211v-46h-211v-260h211v-46h-211v-216h-48v216h-210v46h210v260h-210v46h210v216h48z" />
    <glyph glyph-name="bullet" unicode="&#x2022;" horiz-adv-x="373" 
d="M187 379q46 0 74.5 -29t28.5 -75q0 -45 -28.5 -74.5t-74.5 -29.5t-75 29.5t-29 74.5t29 74.5t75 29.5z" />
    <glyph glyph-name="ellipsis" unicode="&#x2026;" horiz-adv-x="626" 
d="M147 64v-64h-63v64h63zM346 64v-64h-64v64h64zM543 64v-64h-63v64h63z" />
    <glyph glyph-name="perthousand" unicode="&#x2030;" horiz-adv-x="1099" 
d="M203 681q68 0 109 -44.5t41 -111.5v-15q0 -64 -41.5 -108.5t-108.5 -44.5t-109 44.5t-42 107.5v16q0 67 42 111.5t109 44.5zM635 675l-451 -675h-44l451 675h44zM203 644q-51 0 -81.5 -33.5t-30.5 -86.5v-12q0 -51 30.5 -84t81.5 -33t80.5 33t29.5 84v12q0 53 -29.5 86.5
t-80.5 33.5zM573 320q68 0 109 -44.5t41 -111.5v-15q0 -65 -41 -109.5t-109 -44.5q-67 0 -109 44.5t-42 108.5v16q0 66 42.5 111t108.5 45zM900 320q68 0 109 -44.5t41 -111.5v-15q0 -65 -41 -109.5t-109 -44.5q-67 0 -109 44.5t-42 108.5v16q0 66 42.5 111t108.5 45z
M574 283q-51 0 -81.5 -33.5t-30.5 -87.5v-12q0 -51 30.5 -84t81.5 -33q50 0 79.5 33t29.5 84v12q0 54 -29.5 87.5t-79.5 33.5zM900 283q-50 0 -80.5 -33.5t-30.5 -87.5v-12q0 -51 30 -84t81 -33t80.5 33t29.5 84v12q0 54 -29.5 87.5t-80.5 33.5z" />
    <glyph glyph-name="guilsinglleft" unicode="&#x2039;" horiz-adv-x="377" 
d="M311 429l-192 -179l193 -179h-65l-192 179l192 179h64z" />
    <glyph glyph-name="guilsinglright" unicode="&#x203a;" horiz-adv-x="377" 
d="M66 429h65l191 -179l-191 -179h-66l193 179z" />
    <glyph glyph-name="uni203D" unicode="&#x203d;" horiz-adv-x="625" 
d="M263 172l-241 441l48 28l214 -426q7 38 30.5 66.5t69.5 57.5q14 10 42.5 27.5t41.5 27t29.5 26.5t23.5 37t7 46q0 65 -50 98.5t-131 33.5q-104 0 -164 -50l-23 47q72 51 185 51q105 0 170.5 -46t65.5 -132q0 -29 -9.5 -54t-20.5 -41.5t-36 -36.5t-40 -30t-49 -30
q-93 -56 -114 -141h-49zM319 69v-69h-69v69h69z" />
    <glyph glyph-name="fraction" unicode="&#x2044;" horiz-adv-x="103" 
d="M298 675l-450 -675h-44l450 675h44z" />
    <glyph glyph-name="Euro" unicode="&#x20ac;" horiz-adv-x="659" 
d="M386 39q127 0 195 90l39 -34q-88 -104 -235 -104q-127 0 -208 70t-100 190h-70v45h66q-1 8 -1 24v27q0 17 2 47h-67v45h74q22 114 99.5 179.5t199.5 65.5q154 0 241 -99l-38 -31q-63 82 -206 82q-96 0 -159 -52.5t-84 -144.5h339l-9 -45h-338q-2 -32 -2 -48v-25v-25h323
l-10 -45h-308q18 -100 84 -156t173 -56z" />
    <glyph glyph-name="uni2113" unicode="&#x2113;" horiz-adv-x="417" 
d="M330 115l43 -26q-49 -99 -149 -99q-60 0 -96 38.5t-36 118.5v36q-38 -13 -66 -20l-11 42q31 8 77 25v280q0 81 32.5 128t99.5 47q69 0 104 -44.5t35 -118.5v-28q0 -84 -55.5 -161.5t-168.5 -129.5v-52q0 -118 88 -118q78 0 103 82zM139 519v-268q175 88 175 248v27
q0 56 -22.5 86.5t-66.5 30.5q-43 0 -64.5 -33.5t-21.5 -90.5z" />
    <glyph glyph-name="uni2116" unicode="&#x2116;" horiz-adv-x="1279" 
d="M996 684q96 0 155 -62t59 -160v-31q0 -93 -59 -156t-155 -63q-95 0 -155 62.5t-60 155.5v30q0 100 59 162t156 62zM601 60v615h48v-675h-61l-451 617v-617h-47v675h60zM1160 432v27q0 83 -43.5 132t-120.5 49q-78 0 -121.5 -49t-43.5 -132v-27q0 -78 44 -127t121 -49
t120.5 48.5t43.5 127.5zM962 0v67h67v-67h-67z" />
    <glyph glyph-name="trademark" unicode="&#x2122;" horiz-adv-x="779" 
d="M43 637v38h297v-38h-127v-285h-43v285h-127zM690 675h47v-323h-40v267l-125 -189h-17l-126 188v-266h-40v323h47l127 -196z" />
    <glyph glyph-name="estimated" unicode="&#x212e;" horiz-adv-x="886" 
d="M443 29q104 0 183.5 33.5t121.5 91.5l35 -32q-123 -132 -340 -132q-71 0 -139.5 21.5t-125.5 62t-92 106.5t-35 148v13q0 102 56 182t143 120.5t186 40.5q93 0 169 -29.5t124.5 -78.5t76 -109t31.5 -125h-625v-242q91 -71 231 -71zM673 575q-86 73 -238 73
q-134 0 -223 -65v-201h461v193z" />
    <glyph glyph-name="uni2153" unicode="&#x2153;" horiz-adv-x="796" 
d="M168 296v328l-124 -68l-9 40q71 38 146 81h28v-381h-41zM570 675h44l-451 -675h-44zM664 223q40 -3 66.5 -27.5t26.5 -70.5v-9q0 -57 -46 -89.5t-111 -32.5q-53 0 -99 23t-66 56l32 30q15 -29 52 -48.5t82 -19.5q47 0 80 20t33 60v6q0 39 -21 53.5t-58 14.5q-28 0 -57 -9
l-19 39l126 122h-229v40h285v-44l-127 -116q13 4 50 2z" />
    <glyph glyph-name="uni2154" unicode="&#x2154;" horiz-adv-x="874" 
d="M346 337v-41h-304q-6 81 25.5 127.5t116.5 74.5q76 25 95 40q17 16 17 37q1 36 -26 51.5t-75 15.5q-86 0 -118 -62l-34 27q46 78 153 78q65 0 104.5 -27.5t39.5 -81.5q0 -44 -29 -66t-97 -44q-70 -20 -99 -49t-28 -80h259zM648 675h44l-451 -675h-44zM742 223
q40 -3 66.5 -27.5t26.5 -70.5v-9q0 -57 -46 -89.5t-111 -32.5q-53 0 -99 23t-66 56l32 30q15 -29 52 -48.5t82 -19.5q47 0 80 20t33 60v6q0 39 -21 53.5t-58 14.5q-28 0 -57 -9l-19 39l126 122h-229v40h285v-44l-127 -116q13 4 50 2z" />
    <glyph glyph-name="oneeighth" unicode="&#x215b;" horiz-adv-x="786" 
d="M209 677v-381h-41v328l-124 -68l-9 40q71 38 146 81h28zM614 675l-451 -675h-44l451 675h44zM591 388q60 0 100 -24.5t40 -69.5v-10q0 -32 -17.5 -52t-45.5 -23q35 -3 59 -25.5t24 -66.5v-8q0 -54 -45 -84.5t-116 -30.5q-69 0 -114 30t-45 82v7q0 44 25 68.5t59 27.5
q-25 2 -44 22.5t-19 52.5v8q0 44 39 70t100 26zM591 348q-41 0 -69 -15t-28 -44v-6q0 -57 98 -57t98 58v7q0 30 -29 43.5t-70 13.5zM592 191q-119 0 -119 -78v-4q0 -37 33.5 -56t84.5 -19q50 0 84 18.5t34 56.5v6q0 76 -117 76z" />
    <glyph glyph-name="uni2160" unicode="&#x2160;" horiz-adv-x="276" 
d="M279 634h-116v-593h116v-41h-282v41h117v593h-117v41h282v-41z" />
    <glyph glyph-name="uni2161" unicode="&#x2161;" horiz-adv-x="553" 
d="M556 634h-116v-593h116v-41h-559v41h117v593h-117v41h559v-41zM391 41v593h-228v-593h228z" />
    <glyph glyph-name="uni2162" unicode="&#x2162;" horiz-adv-x="830" 
d="M832 634h-116v-593h116v-41h-835v41h117v593h-117v41h835v-41zM163 41h228v593h-228v-593zM667 41v593h-227v-593h227z" />
    <glyph glyph-name="uni2163" unicode="&#x2163;" horiz-adv-x="995" 
d="M998 634h-85l-233 -593h119v-41h-331v41h122l-234 593h-193v-593h116v-41h-282v41h117v593h-117v41h511v-41h-103l230 -586l229 586h-85v41h219v-41z" />
    <glyph glyph-name="uni2164" unicode="&#x2164;" horiz-adv-x="717" 
d="M720 634h-85l-232 -593h119v-41h-331v41h122l-234 593h-81v41h233v-41h-103l230 -586l228 586h-84v41h218v-41z" />
    <glyph glyph-name="uni2165" unicode="&#x2165;" horiz-adv-x="995" 
d="M997 634h-116v-593h116v-41h-282v41h117v593h-196l-233 -593h119v-41h-331v41h122l-234 593h-81v41h233v-41h-103l230 -586l229 586h-85v41h495v-41z" />
    <glyph glyph-name="uni2166" unicode="&#x2166;" horiz-adv-x="1272" 
d="M1274 634h-116v-593h116v-41h-559v41h117v593h-196l-233 -593h119v-41h-331v41h122l-234 593h-81v41h233v-41h-103l230 -586l229 586h-85v41h772v-41zM1109 41v593h-228v-593h228z" />
    <glyph glyph-name="uni2167" unicode="&#x2167;" horiz-adv-x="1548" 
d="M1551 634h-116v-593h116v-41h-836v41h117v593h-196l-233 -593h119v-41h-331v41h122l-234 593h-81v41h233v-41h-103l230 -586l229 586h-85v41h1049v-41zM1109 41v593h-228v-593h228zM1386 41v593h-228v-593h228z" />
    <glyph glyph-name="uni2168" unicode="&#x2168;" horiz-adv-x="941" 
d="M869 41h76v-41h-238v41h106l-202 281l-204 -281h113v-41h-523v41h117v593h-117v41h533v-41h-107l189 -259l190 259h-110v41h252v-41h-85l-212 -285zM349 41l227 308l-211 285h-202v-593h186z" />
    <glyph glyph-name="uni2169" unicode="&#x2169;" horiz-adv-x="664" 
d="M591 41h76v-41h-238v41h106l-201 282l-204 -282h113v-41h-246v41h75l227 308l-211 285h-90v41h254v-41h-106l189 -259l189 259h-110v41h252v-41h-85l-211 -285z" />
    <glyph glyph-name="uni216A" unicode="&#x216a;" horiz-adv-x="941" 
d="M944 634h-116v-593h116v-41h-514v41h106l-202 281l-204 -281h113v-41h-246v41h75l227 308l-211 285h-90v41h255v-41h-107l189 -259l190 259h-110v41h529v-41zM779 41v593h-197l-212 -285l222 -308h187z" />
    <glyph glyph-name="uni216B" unicode="&#x216b;" horiz-adv-x="1218" 
d="M1220 634h-116v-593h116v-41h-790v41h106l-202 281l-204 -281h113v-41h-246v41h75l227 308l-211 285h-90v41h255v-41h-107l189 -259l190 259h-110v41h805v-41zM779 41v593h-197l-212 -285l222 -308h187zM1055 41v593h-227v-593h227z" />
    <glyph glyph-name="uni216C" unicode="&#x216c;" horiz-adv-x="611" 
d="M503 188h46v-188h-550v41h105v593h-107v41h266v-41h-110v-591h350v145z" />
    <glyph glyph-name="uni216D" unicode="&#x216d;" horiz-adv-x="662" 
d="M352 684q96 0 160 -30.5t108 -94.5l-41 -30q-38 62 -93.5 85t-135.5 23q-120 0 -189.5 -80t-69.5 -211v-26q0 -127 74 -203.5t195 -76.5q79 0 139 32.5t90 94.5l44 -31q-86 -144 -275 -144q-143 0 -231.5 89.5t-88.5 238.5v28q0 151 83.5 243.5t230.5 92.5z" />
    <glyph glyph-name="uni216E" unicode="&#x216e;" horiz-adv-x="725" 
d="M341 675q156 0 246 -86.5t90 -236.5v-36q0 -149 -86.5 -232.5t-238.5 -83.5h-355v41h106v593h-106v41h344zM627 319v29q0 135 -76 209t-211 74h-187v-587h195q133 0 206 71t73 204z" />
    <glyph glyph-name="uni216F" unicode="&#x216f;" horiz-adv-x="881" 
d="M884 634h-99v-593h98v-41h-239v41h94v578l-282 -458h-30l-282 459v-579h96v-41h-243v41h99v593h-98v41h164l279 -456l280 456h163v-41z" />
    <glyph glyph-name="arrowup" unicode="&#x2191;" horiz-adv-x="746" 
d="M582 443l-29 -31l-159 166v-576h-42v576l-159 -166l-30 31l210 215z" />
    <glyph glyph-name="arrowdown" unicode="&#x2193;" horiz-adv-x="746" 
d="M553 228l29 -31l-209 -215l-210 215l30 31l159 -166v576h42v-576z" />
    <glyph glyph-name="arrowupdn" unicode="&#x2195;" horiz-adv-x="746" 
d="M393 57l160 167l30 -30l-210 -216l-210 216l30 30l159 -166v516l-159 -166l-30 30l210 216l210 -216l-30 -30l-160 167v-518z" />
    <glyph glyph-name="minus" unicode="&#x2212;" horiz-adv-x="498" 
d="M450 325v-46h-401v46h401z" />
    <glyph glyph-name="uni2215" unicode="&#x2215;" horiz-adv-x="458" 
d="M486 675l-450 -675h-44l450 675h44z" />
    <glyph glyph-name="infinity" unicode="&#x221e;" horiz-adv-x="737" 
d="M538 459q64 0 105 -38t41 -107q0 -67 -41 -106t-105 -39q-52 0 -90 29t-79 82q-40 -53 -78 -82t-91 -29q-62 0 -104 38t-42 107q0 67 41.5 106t103.5 39q53 0 91.5 -29t78.5 -82q41 53 79 82t90 29zM202 212q41 0 73 26t69 76q-38 51 -70 77t-73 26q-51 0 -77.5 -28
t-26.5 -75q0 -46 27.5 -74t77.5 -28zM537 212q50 0 77 28t27 74q0 47 -26.5 75t-77.5 28q-42 0 -74 -26.5t-69 -76.5q37 -50 68.5 -76t74.5 -26z" />
    <glyph glyph-name="approxequal" unicode="&#x2248;" horiz-adv-x="497" 
d="M448 421v-60q-32 -34 -107 -34q-36 0 -93.5 22.5t-86.5 22.5q-74 0 -112 -56v56q28 48 114 48q35 0 91.5 -22.5t87.5 -22.5q72 0 106 46zM448 279v-60q-32 -34 -107 -34q-36 0 -93.5 22t-86.5 22q-73 0 -112 -55v56q27 47 114 47q35 0 91.5 -22t87.5 -22q73 0 106 46z
" />
    <glyph glyph-name="notequal" unicode="&#x2260;" horiz-adv-x="500" 
d="M451 373h-134l-80 -142h214v-46h-239l-77 -139h-48l77 139h-115v46h141l79 142h-220v45h246l75 135h47l-75 -135h109v-45z" />
    <glyph glyph-name="lessequal" unicode="&#x2264;" horiz-adv-x="499" 
d="M450 200v-51l-401 177v44l401 176v-50l-352 -148zM49 68h402v-45h-402v45z" />
    <glyph glyph-name="greaterequal" unicode="&#x2265;" horiz-adv-x="506" 
d="M450 370v-44l-402 -177v51l353 148l-353 148v50zM56 68h401v-45h-401v45z" />
    <glyph glyph-name="uniF8FF" unicode="&#xf8ff;" horiz-adv-x="786" 
d="M751 469q0 -53 -29.5 -105.5t-75 -95t-93 -80.5t-90.5 -76.5t-59 -67.5h177v-44h-388v44h182q-15 29 -56.5 67t-88 75.5t-91.5 80.5t-74.5 96.5t-29.5 107.5q0 101 46 157.5t138 56.5q76 0 122.5 -44t51.5 -114q2 70 45.5 114t116.5 44q92 0 144 -56t52 -160z" />
    <glyph glyph-name="IJ.ss01" horiz-adv-x="867" 
d="M95 0v675h50v-675h-50zM790 675v-427q0 -124 -69 -191t-190 -67q-88 0 -156 42t-108 119l44 29q30 -68 87.5 -105t132.5 -37q98 0 153.5 52.5t55.5 158.5v426h50z" />
    <glyph glyph-name="Iacute_J.loclNLD" horiz-adv-x="880" 
d="M311 874l-163 -137h-51l143 137h71zM737 874l-163 -137h-51l143 137h71zM95 0v675h50v-675h-50zM802 675v-431q0 -123 -70.5 -188.5t-196.5 -65.5q-88 0 -159.5 42t-107.5 109l44 30q26 -61 86.5 -97.5t137.5 -36.5q216 0 216 209v382h-428v47h478z" />
    <glyph glyph-name="Iacute_J.loclNLD.ss01" horiz-adv-x="880" 
d="M311 874l-163 -137h-51l143 137h71zM737 874l-163 -137h-51l143 137h71zM95 0v675h50v-675h-50zM802 675v-431q0 -123 -70.5 -188.5t-196.5 -65.5q-88 0 -159.5 42t-107.5 109l44 30q26 -61 86.5 -97.5t137.5 -36.5q216 0 216 209v382h-428v47h478z" />
    <glyph glyph-name="J.ss01" horiz-adv-x="628" 
d="M551 675v-427q0 -124 -69 -191t-190 -67q-88 0 -156 42t-108 119l44 29q30 -68 87.5 -105t132.5 -37q98 0 153.5 52.5t55.5 158.5v426h50z" />
    <glyph glyph-name="Jcircumflex.ss01" horiz-adv-x="628" 
d="M553 875l113 -143h-58l-82 111l-83 -111h-58l116 143h52zM501 249v426h50v-427q0 -124 -69 -191t-190 -67q-88 0 -156 42t-108 119l44 29q30 -68 87.5 -105t132.5 -37q98 0 153.5 52.5t55.5 158.5z" />
    <glyph glyph-name="Q.ss01" horiz-adv-x="720" 
d="M670 314q0 -91 -37.5 -164.5t-104.5 -114.5l120 -147h-58l-103 126q-57 -23 -126 -23q-142 0 -226 91.5t-84 230.5v43q0 145 83.5 237t225.5 92q141 0 225.5 -92.5t84.5 -235.5v-43zM361 38q118 0 188 75.5t70 205.5v34q0 131 -70 208t-189 77t-188.5 -77t-69.5 -209v-35
q0 -127 70.5 -203t188.5 -76z" />
    <glyph glyph-name="W.ss01" horiz-adv-x="955" 
d="M875 675h52l-200 -675h-64l-185 624l-184 -624h-62l-203 675h52l181 -628l186 628h61l186 -628z" />
    <glyph glyph-name="Wacute.ss01" horiz-adv-x="955" 
d="M657 874l-163 -137h-51l143 137h71zM875 675h52l-200 -675h-64l-185 624l-184 -624h-62l-203 675h52l181 -628l186 628h61l186 -628z" />
    <glyph glyph-name="Wcircumflex.ss01" horiz-adv-x="955" 
d="M480 844l-106 -107h-61l142 138h51l139 -138h-60zM875 675h52l-200 -675h-64l-185 624l-184 -624h-62l-203 675h52l181 -628l186 628h61l186 -628z" />
    <glyph glyph-name="Wdieresis.ss01" horiz-adv-x="955" 
d="M391 825v-68h-66v68h66zM634 825v-68h-67v68h67zM875 675h52l-200 -675h-64l-185 624l-184 -624h-62l-203 675h52l181 -628l186 628h61l186 -628z" />
    <glyph glyph-name="Wgrave.ss01" horiz-adv-x="955" 
d="M517 737h-51l-149 137h72zM875 675h52l-200 -675h-64l-185 624l-184 -624h-62l-203 675h52l181 -628l186 628h61l186 -628z" />
    <glyph glyph-name="a.ss02" horiz-adv-x="544" 
d="M485 0h-47q-8 27 -8 71q-24 -34 -70 -57t-103 -23q-96 0 -156 59.5t-60 165.5v25q0 115 61.5 180t168.5 65q49 0 92 -21.5t66 -50.5l2 62h45v-341q0 -107 9 -135zM262 36q54 0 98.5 23.5t67.5 65.5v235q-23 37 -66.5 59t-92.5 22q-85 0 -132.5 -52.5t-47.5 -149.5v-18
q0 -89 46.5 -137t126.5 -48z" />
    <glyph glyph-name="aacute.ss02" horiz-adv-x="544" 
d="M410 721l-118 -170h-43l101 170h60zM485 0h-47q-8 27 -8 71q-24 -34 -70 -57t-103 -23q-96 0 -156 59.5t-60 165.5v25q0 115 61.5 180t168.5 65q49 0 92 -21.5t66 -50.5l2 62h45v-341q0 -107 9 -135zM262 36q54 0 98.5 23.5t67.5 65.5v235q-23 37 -66.5 59t-92.5 22
q-85 0 -132.5 -52.5t-47.5 -149.5v-18q0 -89 46.5 -137t126.5 -48z" />
    <glyph glyph-name="abreve.ss02" horiz-adv-x="544" 
d="M271 550q-105 0 -139 144h54q7 -49 29 -77.5t56 -28.5q66 0 84 106h54q-16 -66 -50.5 -105t-87.5 -39zM485 0h-47q-8 27 -8 71q-24 -34 -70 -57t-103 -23q-96 0 -156 59.5t-60 165.5v25q0 115 61.5 180t168.5 65q49 0 92 -21.5t66 -50.5l2 62h45v-341q0 -107 9 -135z
M262 36q54 0 98.5 23.5t67.5 65.5v235q-23 37 -66.5 59t-92.5 22q-85 0 -132.5 -52.5t-47.5 -149.5v-18q0 -89 46.5 -137t126.5 -48z" />
    <glyph glyph-name="acircumflex.ss02" horiz-adv-x="544" 
d="M274 688l-95 -137h-56l126 170h50l120 -170h-56zM485 0h-47q-8 27 -8 71q-24 -34 -70 -57t-103 -23q-96 0 -156 59.5t-60 165.5v25q0 115 61.5 180t168.5 65q49 0 92 -21.5t66 -50.5l2 62h45v-341q0 -107 9 -135zM262 36q54 0 98.5 23.5t67.5 65.5v235q-23 37 -66.5 59
t-92.5 22q-85 0 -132.5 -52.5t-47.5 -149.5v-18q0 -89 46.5 -137t126.5 -48z" />
    <glyph glyph-name="adieresis.ss02" horiz-adv-x="544" 
d="M204 644v-65h-64v65h64zM401 644v-65h-64v65h64zM485 0h-47q-8 27 -8 71q-24 -34 -70 -57t-103 -23q-96 0 -156 59.5t-60 165.5v25q0 115 61.5 180t168.5 65q49 0 92 -21.5t66 -50.5l2 62h45v-341q0 -107 9 -135zM262 36q54 0 98.5 23.5t67.5 65.5v235q-23 37 -66.5 59
t-92.5 22q-85 0 -132.5 -52.5t-47.5 -149.5v-18q0 -89 46.5 -137t126.5 -48z" />
    <glyph glyph-name="agrave.ss02" horiz-adv-x="544" 
d="M297 552h-43l-113 169h60zM485 0h-47q-8 27 -8 71q-24 -34 -70 -57t-103 -23q-96 0 -156 59.5t-60 165.5v25q0 115 61.5 180t168.5 65q49 0 92 -21.5t66 -50.5l2 62h45v-341q0 -107 9 -135zM262 36q54 0 98.5 23.5t67.5 65.5v235q-23 37 -66.5 59t-92.5 22
q-85 0 -132.5 -52.5t-47.5 -149.5v-18q0 -89 46.5 -137t126.5 -48z" />
    <glyph glyph-name="amacron.ss02" horiz-adv-x="544" 
d="M410 635v-45h-279v45h279zM485 0h-47q-8 27 -8 71q-24 -34 -70 -57t-103 -23q-96 0 -156 59.5t-60 165.5v25q0 115 61.5 180t168.5 65q49 0 92 -21.5t66 -50.5l2 62h45v-341q0 -107 9 -135zM262 36q54 0 98.5 23.5t67.5 65.5v235q-23 37 -66.5 59t-92.5 22
q-85 0 -132.5 -52.5t-47.5 -149.5v-18q0 -89 46.5 -137t126.5 -48z" />
    <glyph glyph-name="aogonek.ss02" horiz-adv-x="544" 
d="M470 -136l17 -37q-35 -28 -81 -28q-38 0 -62 25t-24 64q0 80 115 125q-5 32 -5 58q-24 -34 -70 -57t-103 -23q-96 0 -156 59.5t-60 165.5v25q0 115 61.5 180t168.5 65q49 0 92 -21.5t66 -50.5l2 62h45v-341q0 -105 9 -134l1 -1q-120 -37 -120 -108q0 -52 48 -52
q36 0 56 24zM262 36q54 0 98.5 23.5t67.5 65.5v235q-23 37 -66.5 59t-92.5 22q-85 0 -132.5 -52.5t-47.5 -149.5v-18q0 -89 46.5 -137t126.5 -48z" />
    <glyph glyph-name="aring.ss02" horiz-adv-x="544" 
d="M272 547q-41 0 -68 25t-27 67t26.5 66.5t68.5 24.5q40 0 67 -24.5t27 -66.5t-27 -67t-67 -25zM272 692q-24 0 -38.5 -14t-14.5 -39t14.5 -39.5t38.5 -14.5q23 0 37 14.5t14 39.5q0 24 -14 38.5t-37 14.5zM485 0h-47q-8 27 -8 71q-24 -34 -70 -57t-103 -23
q-96 0 -156 59.5t-60 165.5v25q0 115 61.5 180t168.5 65q49 0 92 -21.5t66 -50.5l2 62h45v-341q0 -107 9 -135zM262 36q54 0 98.5 23.5t67.5 65.5v235q-23 37 -66.5 59t-92.5 22q-85 0 -132.5 -52.5t-47.5 -149.5v-18q0 -89 46.5 -137t126.5 -48z" />
    <glyph glyph-name="atilde.ss02" horiz-adv-x="544" 
d="M208 605q-46 0 -76 -35v51q23 29 81 29q26 0 66 -13t57 -13q51 0 73 30v-55q-22 -20 -73 -20q-21 0 -62.5 13t-65.5 13zM485 0h-47q-8 27 -8 71q-24 -34 -70 -57t-103 -23q-96 0 -156 59.5t-60 165.5v25q0 115 61.5 180t168.5 65q49 0 92 -21.5t66 -50.5l2 62h45v-341
q0 -107 9 -135zM262 36q54 0 98.5 23.5t67.5 65.5v235q-23 37 -66.5 59t-92.5 22q-85 0 -132.5 -52.5t-47.5 -149.5v-18q0 -89 46.5 -137t126.5 -48z" />
    <glyph glyph-name="iacute_j.loclNLD" horiz-adv-x="415" 
d="M243 721l-118 -170h-43l101 170h60zM451 721l-118 -170h-43l101 170h60zM337 476v-537q0 -140 -115 -140q-58 0 -99 35l22 44q30 -36 75 -36q68 0 68 93v541h49zM128 476v-476h-48v476h48z" />
    <glyph glyph-name="i.loclTRK" horiz-adv-x="208" 
d="M73 675h62v-69h-62v69zM128 476v-476h-48v476h48z" />
    <glyph glyph-name="n_d.ordn" horiz-adv-x="815" 
d="M594 329q-70 0 -113 42.5t-43 118.5v16q0 82 43 125.5t120 43.5q74 0 110 -36v171h43v-376q0 -81 6 -97h-42q-6 17 -6 46q-15 -23 -46 -38.5t-72 -15.5zM109 567v-230h-45v330h45v-53q45 61 122 61q64 0 99 -35t35 -102v-201h-44v196q0 52 -23.5 76t-73.5 24
q-35 0 -65.5 -18.5t-49.5 -47.5zM482 507v-16q0 -60 31 -90.5t84 -30.5q78 0 114 60v161q-39 44 -111 44q-55 0 -86.5 -34t-31.5 -94zM58 220h710v-42h-710v42z" />
    <glyph glyph-name="r_d.ordn" horiz-adv-x="665" 
d="M440 329q-70 0 -113 42.5t-43 118.5v16q0 82 43 125.5t120 43.5q73 0 109 -36v171h43v-376q0 -78 6 -97h-41q-7 16 -7 46q-35 -54 -117 -54zM110 542v-205h-44v330h44v-69q20 75 90 75q40 0 54 -12l-14 -43q-13 13 -43 13q-31 0 -54.5 -25t-32.5 -64zM328 507v-16
q0 -60 31 -90.5t84 -30.5q78 0 113 60v161q-38 44 -110 44q-55 0 -86.5 -34t-31.5 -94zM58 220h560v-42h-560v42z" />
    <glyph glyph-name="s_t.ordn" horiz-adv-x="654" 
d="M433 427v203h-68v37h68v77l41 13v-90h126v-37h-126v-202q0 -57 51 -57q36 0 64 28l16 -37q-36 -30 -85 -30q-87 0 -87 95zM189 368q103 0 103 63q0 21 -13.5 33t-28 15.5t-50.5 9.5q-8 1 -12 2q-31 5 -50 10.5t-39.5 15.5t-30.5 26t-10 39q0 42 36 69t97 27q83 0 127 -53
l-28 -23q-27 39 -104 39q-40 0 -63 -15.5t-23 -42.5q0 -13 7.5 -22.5t25 -16t33 -10t44.5 -8.5q31 -5 48 -9.5t37 -14.5t29 -27.5t9 -42.5q0 -49 -39.5 -75.5t-103.5 -26.5q-50 0 -88 19.5t-57 47.5l31 25q11 -24 42 -39t71 -15zM40 220h569v-42h-569v42z" />
    <glyph glyph-name="t_h.ordn" horiz-adv-x="694" 
d="M372 567v-230h-44v473h44v-198q43 63 121 63q64 0 99.5 -34.5t35.5 -100.5v-203h-44v198q0 52 -23.5 75t-73.5 23q-73 0 -115 -66zM91 427v204h-67v37h67v76l41 13v-89h126v-37h-126v-203q0 -57 51 -57q37 0 63 28l17 -37q-39 -30 -85 -30q-87 0 -87 95zM58 220h586v-42
h-586v42z" />
    <glyph glyph-name="a.sc" horiz-adv-x="589" 
d="M520 0l-64 148h-317l-70 -148h-51l259 543h59l235 -543h-51zM161 194h276l-132 306z" />
    <glyph glyph-name="aacute.sc" horiz-adv-x="589" 
d="M445 788l-118 -170h-43l101 170h60zM520 0l-64 148h-317l-70 -148h-51l259 543h59l235 -543h-51zM161 194h276l-132 306z" />
    <glyph glyph-name="abreve.sc" horiz-adv-x="589" 
d="M306 617q-105 0 -139 144h54q7 -49 29 -77.5t56 -28.5q66 0 84 106h54q-16 -66 -50.5 -105t-87.5 -39zM520 0l-64 148h-317l-70 -148h-51l259 543h59l235 -543h-51zM161 194h276l-132 306z" />
    <glyph glyph-name="acircumflex.sc" horiz-adv-x="589" 
d="M308 755l-95 -137h-56l126 170h50l120 -170h-56zM520 0l-64 148h-317l-70 -148h-51l259 543h59l235 -543h-51zM161 194h276l-132 306z" />
    <glyph glyph-name="adieresis.sc" horiz-adv-x="589" 
d="M239 711v-65h-64v65h64zM436 711v-65h-64v65h64zM520 0l-64 148h-317l-70 -148h-51l259 543h59l235 -543h-51zM161 194h276l-132 306z" />
    <glyph glyph-name="agrave.sc" horiz-adv-x="589" 
d="M331 619h-43l-113 169h60zM520 0l-64 148h-317l-70 -148h-51l259 543h59l235 -543h-51zM161 194h276l-132 306z" />
    <glyph glyph-name="amacron.sc" horiz-adv-x="589" 
d="M445 703v-45h-279v45h279zM520 0l-64 148h-317l-70 -148h-51l259 543h59l235 -543h-51zM161 194h276l-132 306z" />
    <glyph glyph-name="aogonek.sc" horiz-adv-x="589" 
d="M556 -133l17 -36q-34 -27 -81 -27q-38 0 -62 24t-24 62q0 77 110 120l-60 138h-317l-70 -148h-51l259 543h59l234 -542l2 -1q-120 -37 -120 -106q0 -50 48 -50q36 0 56 23zM161 194h276l-132 306z" />
    <glyph glyph-name="aring.sc" horiz-adv-x="589" 
d="M306 614q-41 0 -68 25t-27 67t26.5 66.5t68.5 24.5q40 0 67 -24.5t27 -66.5t-27 -67t-67 -25zM306 759q-24 0 -38.5 -14t-14.5 -39t14.5 -39.5t38.5 -14.5q23 0 37 14.5t14 39.5q0 24 -14 38.5t-37 14.5zM520 0l-64 148h-317l-70 -148h-51l259 543h59l235 -543h-51z
M161 194h276l-132 306z" />
    <glyph glyph-name="atilde.sc" horiz-adv-x="589" 
d="M242 672q-46 0 -76 -35v51q23 29 81 29q26 0 66 -13t57 -13q51 0 73 30v-55q-22 -20 -73 -20q-21 0 -62.5 13t-65.5 13zM520 0l-64 148h-317l-70 -148h-51l259 543h59l235 -543h-51zM161 194h276l-132 306z" />
    <glyph glyph-name="ae.sc" horiz-adv-x="840" 
d="M799 497h-335v-197h278v-47h-278v-206h334v-47h-383v148h-251l-107 -148h-56l393 543h405v-46zM197 193h218v302z" />
    <glyph glyph-name="b.sc" horiz-adv-x="596" 
d="M428 285q52 2 88 -29t36 -91v-14q0 -69 -48 -110t-139 -41h-278v543h259q91 0 132.5 -36t41.5 -96v-13q0 -46 -26.5 -79t-65.5 -34zM355 497h-220v-193h226q110 0 110 94v9q0 90 -116 90zM504 153v10q0 96 -127 96h-242v-212h228q68 0 104.5 27t36.5 79z" />
    <glyph glyph-name="uni1E03.sc" horiz-adv-x="596" 
d="M325 712v-64h-65v64h65zM428 285q52 2 88 -29t36 -91v-14q0 -69 -48 -110t-139 -41h-278v543h259q91 0 132.5 -36t41.5 -96v-13q0 -46 -26.5 -79t-65.5 -34zM355 497h-220v-193h226q110 0 110 94v9q0 90 -116 90zM504 153v10q0 96 -127 96h-242v-212h228q68 0 104.5 27
t36.5 79z" />
    <glyph glyph-name="c.sc" horiz-adv-x="560" 
d="M305 553q136 0 219 -95l-39 -31q-33 45 -76.5 62t-105.5 17q-97 0 -152 -63.5t-55 -166.5v-21q0 -98 58 -157.5t152 -59.5q130 0 187 94l39 -32q-80 -110 -227 -110q-114 0 -186 73.5t-72 190.5v23q0 122 68 199t190 77z" />
    <glyph glyph-name="cacute.sc" horiz-adv-x="560" 
d="M444 788l-118 -170h-43l101 170h60zM305 553q136 0 219 -95l-39 -31q-33 45 -76.5 62t-105.5 17q-97 0 -152 -63.5t-55 -166.5v-21q0 -98 58 -157.5t152 -59.5q130 0 187 94l39 -32q-80 -110 -227 -110q-114 0 -186 73.5t-72 190.5v23q0 122 68 199t190 77z" />
    <glyph glyph-name="ccaron.sc" horiz-adv-x="560" 
d="M331 620h-51l-122 169h56l91 -138l91 138h57zM493 132l39 -32q-80 -110 -227 -110q-114 0 -186 73.5t-72 190.5v23q0 122 68 199t190 77q136 0 219 -95l-39 -31q-33 45 -76.5 62t-105.5 17q-97 0 -152 -63.5t-55 -166.5v-21q0 -98 58 -157.5t152 -59.5q130 0 187 94z" />
    <glyph glyph-name="ccedilla.sc" horiz-adv-x="560" 
d="M532 100q-76 -104 -210 -109l-9 -46q106 9 106 -74q0 -40 -28.5 -64t-82.5 -24q-32 0 -61.5 10.5t-39.5 20.5l19 43q8 -14 31 -25t50 -11q71 0 71 49q0 42 -50 42q-18 0 -34 -6l-24 26l10 59q-104 9 -168.5 81t-64.5 182v23q0 122 68 199t190 77q136 0 219 -95l-39 -31
q-33 45 -76.5 62t-105.5 17q-97 0 -152 -63.5t-55 -166.5v-21q0 -98 58 -157.5t152 -59.5q130 0 187 94z" />
    <glyph glyph-name="ccircumflex.sc" horiz-adv-x="560" 
d="M308 755l-95 -137h-56l126 170h50l120 -170h-56zM493 132l39 -32q-80 -110 -227 -110q-114 0 -186 73.5t-72 190.5v23q0 122 68 199t190 77q136 0 219 -95l-39 -31q-33 45 -76.5 62t-105.5 17q-97 0 -152 -63.5t-55 -166.5v-21q0 -98 58 -157.5t152 -59.5q130 0 187 94z
" />
    <glyph glyph-name="cdotaccent.sc" horiz-adv-x="560" 
d="M273 712h65v-64h-65v64zM305 553q136 0 219 -95l-39 -31q-33 45 -76.5 62t-105.5 17q-97 0 -152 -63.5t-55 -166.5v-21q0 -98 58 -157.5t152 -59.5q130 0 187 94l39 -32q-80 -110 -227 -110q-114 0 -186 73.5t-72 190.5v23q0 122 68 199t190 77z" />
    <glyph glyph-name="d.sc" horiz-adv-x="623" 
d="M303 543q128 0 201 -68.5t73 -189.5v-26q0 -120 -72 -189.5t-196 -69.5h-222v543h216zM301 496h-165v-448h169q107 0 165 53.5t58 159.5v21q0 107 -58 160.5t-169 53.5z" />
    <glyph glyph-name="eth.sc" horiz-adv-x="623" 
d="M303 543q128 0 201 -68.5t73 -189.5v-26q0 -120 -72 -189.5t-196 -69.5h-222v251h-52v41h52v251h216zM528 261v21q0 107 -58 160.5t-169 53.5h-165v-204h219v-41h-219v-203h169q107 0 165 53.5t58 159.5z" />
    <glyph glyph-name="dcaron.sc" horiz-adv-x="623" 
d="M333 620h-51l-122 169h56l91 -138l91 138h57zM303 543q128 0 201 -68.5t73 -189.5v-26q0 -120 -72 -189.5t-196 -69.5h-222v543h216zM528 261v21q0 107 -58 160.5t-169 53.5h-165v-448h169q107 0 165 53.5t58 159.5z" />
    <glyph glyph-name="dcroat.sc" horiz-adv-x="623" 
d="M303 543q128 0 201 -68.5t73 -189.5v-26q0 -120 -72 -189.5t-196 -69.5h-222v251h-52v41h52v251h216zM528 261v21q0 107 -58 160.5t-169 53.5h-165v-204h219v-41h-219v-203h169q107 0 165 53.5t58 159.5z" />
    <glyph glyph-name="uni1E0B.sc" horiz-adv-x="623" 
d="M275 712h65v-64h-65v64zM303 543q128 0 201 -68.5t73 -189.5v-26q0 -120 -72 -189.5t-196 -69.5h-222v543h216zM301 496h-165v-448h169q107 0 165 53.5t58 159.5v21q0 107 -58 160.5t-169 53.5z" />
    <glyph glyph-name="e.sc" horiz-adv-x="555" 
d="M505 497h-369v-196h314v-47h-314v-208h368v-46h-417v543h418v-46z" />
    <glyph glyph-name="eacute.sc" horiz-adv-x="555" 
d="M439 788l-118 -170h-43l101 170h60zM505 497h-369v-196h314v-47h-314v-208h368v-46h-417v543h418v-46z" />
    <glyph glyph-name="ebreve.sc" horiz-adv-x="555" 
d="M300 617q-105 0 -139 144h54q7 -49 29 -77.5t56 -28.5q66 0 84 106h54q-16 -66 -50.5 -105t-87.5 -39zM505 497h-369v-196h314v-47h-314v-208h368v-46h-417v543h418v-46z" />
    <glyph glyph-name="ecaron.sc" horiz-adv-x="555" 
d="M326 620h-51l-122 169h56l91 -138l91 138h57zM505 497h-369v-196h314v-47h-314v-208h368v-46h-417v543h418v-46z" />
    <glyph glyph-name="ecircumflex.sc" horiz-adv-x="555" 
d="M303 755l-95 -137h-56l126 170h50l120 -170h-56zM505 497h-369v-196h314v-47h-314v-208h368v-46h-417v543h418v-46z" />
    <glyph glyph-name="edieresis.sc" horiz-adv-x="555" 
d="M233 711v-65h-64v65h64zM430 711v-65h-64v65h64zM505 497h-369v-196h314v-47h-314v-208h368v-46h-417v543h418v-46z" />
    <glyph glyph-name="edotaccent.sc" horiz-adv-x="555" 
d="M334 712v-64h-65v64h65zM505 497h-369v-196h314v-47h-314v-208h368v-46h-417v543h418v-46z" />
    <glyph glyph-name="egrave.sc" horiz-adv-x="555" 
d="M326 619h-43l-113 169h60zM505 497h-369v-196h314v-47h-314v-208h368v-46h-417v543h418v-46z" />
    <glyph glyph-name="emacron.sc" horiz-adv-x="555" 
d="M440 703v-45h-279v45h279zM505 497h-369v-196h314v-47h-314v-208h368v-46h-417v543h418v-46z" />
    <glyph glyph-name="eogonek.sc" horiz-adv-x="555" 
d="M492 -131l17 -36q-33 -26 -80 -26q-38 0 -62.5 24t-24.5 61q0 67 86 108h-341v543h418v-46h-369v-196h314v-47h-314v-208h368v-44l4 -2q-120 -35 -120 -104q0 -50 48 -50q36 0 56 23z" />
    <glyph glyph-name="f.sc" horiz-adv-x="536" 
d="M504 497h-369v-209h316v-46h-316v-242h-48v543h417v-46z" />
    <glyph glyph-name="uni1E1F.sc" horiz-adv-x="536" 
d="M335 712v-64h-65v64h65zM504 497h-369v-209h316v-46h-316v-242h-48v543h417v-46z" />
    <glyph glyph-name="g.sc" horiz-adv-x="614" 
d="M540 88q0 -44 6 -88h-37q-10 25 -14 61v3q-78 -74 -197 -74q-114 0 -182.5 69t-68.5 189v22q0 122 65.5 202t195.5 80q142 0 218 -91l-37 -30q-53 76 -182 76q-107 0 -159.5 -66t-52.5 -171v-19q0 -105 54 -160.5t154 -55.5q63 0 113.5 22.5t78.5 59.5v130h-187v42h232
v-201z" />
    <glyph glyph-name="gbreve.sc" horiz-adv-x="614" 
d="M313 617q-105 0 -139 144h54q7 -49 29 -77.5t56 -28.5q66 0 84 106h54q-16 -66 -50.5 -105t-87.5 -39zM540 88q0 -44 6 -88h-37q-10 25 -14 61v3q-78 -74 -197 -74q-114 0 -182.5 69t-68.5 189v22q0 122 65.5 202t195.5 80q142 0 218 -91l-37 -30q-53 76 -182 76
q-107 0 -159.5 -66t-52.5 -171v-19q0 -105 54 -160.5t154 -55.5q63 0 113.5 22.5t78.5 59.5v130h-187v42h232v-201z" />
    <glyph glyph-name="gcircumflex.sc" horiz-adv-x="614" 
d="M315 755l-95 -137h-56l126 170h50l120 -170h-56zM540 88q0 -44 6 -88h-37q-10 25 -14 61v3q-78 -74 -197 -74q-114 0 -182.5 69t-68.5 189v22q0 122 65.5 202t195.5 80q142 0 218 -91l-37 -30q-53 76 -182 76q-107 0 -159.5 -66t-52.5 -171v-19q0 -105 54 -160.5
t154 -55.5q63 0 113.5 22.5t78.5 59.5v130h-187v42h232v-201z" />
    <glyph glyph-name="gcommaaccent.sc" horiz-adv-x="614" 
d="M540 88q0 -44 6 -88h-37q-10 25 -14 61v3q-78 -74 -197 -74q-114 0 -182.5 69t-68.5 189v22q0 122 65.5 202t195.5 80q142 0 218 -91l-37 -30q-53 76 -182 76q-107 0 -159.5 -66t-52.5 -171v-19q0 -105 54 -160.5t154 -55.5q63 0 113.5 22.5t78.5 59.5v130h-187v42h232
v-201zM215 -224l75 164h53l-87 -164h-41z" />
    <glyph glyph-name="gdotaccent.sc" horiz-adv-x="614" 
d="M346 712v-64h-65v64h65zM540 88q0 -44 6 -88h-37q-10 25 -14 61v3q-78 -74 -197 -74q-114 0 -182.5 69t-68.5 189v22q0 122 65.5 202t195.5 80q142 0 218 -91l-37 -30q-53 76 -182 76q-107 0 -159.5 -66t-52.5 -171v-19q0 -105 54 -160.5t154 -55.5q63 0 113.5 22.5
t78.5 59.5v130h-187v42h232v-201z" />
    <glyph glyph-name="h.sc" horiz-adv-x="639" 
d="M503 543h50v-543h-50v252h-367v-252h-50v543h50v-245h367v245z" />
    <glyph glyph-name="h.sc.hbar" horiz-adv-x="640" 
d="M503 543h50v-543h-50v252h-366v-252h-50v543h50v-245h366v245z" />
    <glyph glyph-name="hbar.sc" horiz-adv-x="640" 
d="M605 438v-40h-52v-398h-50v252h-366v-252h-50v398h-51v40h51v105h50v-105h366v105h50v-105h52zM503 298v100h-366v-100h366z" />
    <glyph glyph-name="hcircumflex.sc" horiz-adv-x="639" 
d="M323 755l-95 -137h-56l126 170h50l120 -170h-56zM503 543h50v-543h-50v252h-367v-252h-50v543h50v-245h367v245z" />
    <glyph glyph-name="i.sc" horiz-adv-x="222" 
d="M135 543v-543h-48v543h48z" />
    <glyph glyph-name="dotlessi.sc" horiz-adv-x="222" 
d="M135 543v-543h-48v543h48z" />
    <glyph glyph-name="iacute.sc" horiz-adv-x="222" 
d="M243 776l-112 -161h-40l95 161h57zM135 543v-543h-48v543h48z" />
    <glyph glyph-name="iacute_j.loclNLD.sc" horiz-adv-x="784" 
d="M248 788l-118 -170h-43l101 170h60zM643 788l-118 -170h-43l101 170h60zM135 543v-543h-48v543h48zM714 543v-325q0 -109 -58.5 -168t-166.5 -59q-84 0 -145.5 34.5t-92.5 93.5l45 30q21 -51 70.5 -81t122.5 -30q86 0 132 44.5t46 134.5v280h-367v46h414z" />
    <glyph glyph-name="ibreve.sc" horiz-adv-x="222" 
d="M243 750q-15 -62 -48 -99t-84 -37q-99 0 -131 136h51q6 -46 26.5 -73t53.5 -27q63 0 80 100h52zM135 543v-543h-48v543h48z" />
    <glyph glyph-name="icircumflex.sc" horiz-adv-x="222" 
d="M138 776l114 -161h-54l-84 129l-90 -129h-53l119 161h48zM87 0v543h48v-543h-48z" />
    <glyph glyph-name="idieresis.sc" horiz-adv-x="222" 
d="M48 707v-64h-61v64h61zM235 707v-64h-61v64h61zM135 543v-543h-48v543h48z" />
    <glyph glyph-name="i.sc.loclTRK" horiz-adv-x="222" 
d="M80 712h65v-64h-65v64zM135 543v-543h-48v543h48z" />
    <glyph glyph-name="igrave.sc" horiz-adv-x="222" 
d="M45 776l91 -161h-41l-107 161h57zM135 543v-543h-48v543h48z" />
    <glyph glyph-name="ij.sc" horiz-adv-x="785" 
d="M135 543v-543h-48v543h48zM715 543v-325q0 -109 -58.5 -168t-166.5 -59q-84 0 -146 34.5t-93 93.5l45 30q22 -51 71.5 -81t122.5 -30q85 0 131 44.5t46 134.5v280h-367v46h415z" />
    <glyph glyph-name="imacron.sc" horiz-adv-x="222" 
d="M240 691v-42h-258v42h258zM135 543v-543h-48v543h48z" />
    <glyph glyph-name="iogonek.sc" horiz-adv-x="222" 
d="M120 -133l17 -36q-34 -27 -81 -27q-38 0 -62 24t-24 62q0 78 117 123v530h48v-543h1q-120 -37 -120 -106q0 -50 48 -50q36 0 56 23z" />
    <glyph glyph-name="itilde.sc" horiz-adv-x="222" 
d="M239 709v-51q-19 -19 -68 -19q-20 0 -58 12t-60 12q-43 0 -71 -32v47q21 27 75 27q25 0 62 -12t52 -12q46 0 68 28zM135 543v-543h-48v543h48z" />
    <glyph glyph-name="j.sc" horiz-adv-x="562" 
d="M492 543v-325q0 -109 -58.5 -168t-166.5 -59q-84 0 -145.5 34.5t-92.5 93.5l45 30q21 -51 70.5 -81t122.5 -30q86 0 132 44.5t46 134.5v280h-367v46h414z" />
    <glyph glyph-name="j.sc.ss01" horiz-adv-x="541" 
d="M471 543v-329q0 -109 -55.5 -166t-164.5 -57q-77 0 -134 35.5t-88 96.5l42 30q22 -53 68 -84t112 -31q171 0 171 175v330h49z" />
    <glyph glyph-name="uni0237.sc" horiz-adv-x="562" 
d="M492 543v-325q0 -109 -58.5 -168t-166.5 -59q-84 0 -145.5 34.5t-92.5 93.5l45 30q21 -51 70.5 -81t122.5 -30q86 0 132 44.5t46 134.5v280h-367v46h414z" />
    <glyph glyph-name="jcircumflex.sc" horiz-adv-x="562" 
d="M287 755l-95 -137h-56l126 170h50l120 -170h-56zM78 543h414v-325q0 -109 -58.5 -168t-166.5 -59q-84 0 -145.5 34.5t-92.5 93.5l45 30q21 -51 70.5 -81t122.5 -30q86 0 132 44.5t46 134.5v280h-367v46z" />
    <glyph glyph-name="k.sc" horiz-adv-x="580" 
d="M497 0l-222 273l-140 -144v-129h-48v543h48v-347l340 347h66l-233 -237l249 -306h-60z" />
    <glyph glyph-name="kcommaaccent.sc" horiz-adv-x="580" 
d="M308 306l249 -306h-60l-222 273l-140 -144v-129h-48v543h48v-347l340 347h66zM196 -232l75 173h53l-87 -173h-41z" />
    <glyph glyph-name="kgreenlandic.sc" horiz-adv-x="580" 
d="M497 0l-222 273l-140 -144v-129h-48v543h48v-347l340 347h66l-233 -237l249 -306h-60z" />
    <glyph glyph-name="l.sc" horiz-adv-x="512" 
d="M135 543v-495h340v-48h-388v543h48z" />
    <glyph glyph-name="lacute.sc" horiz-adv-x="512" 
d="M251 788l-118 -170h-43l101 170h60zM135 543v-495h340v-48h-388v543h48z" />
    <glyph glyph-name="lcaron.sc" horiz-adv-x="512" 
d="M263 559l-41 -199h-34l27 199h48zM135 543v-495h340v-48h-388v543h48z" />
    <glyph glyph-name="lcommaaccent.sc" horiz-adv-x="512" 
d="M135 543v-495h340v-48h-388v543h48zM307 -58l-87 -170h-41l75 170h53z" />
    <glyph glyph-name="ldot.sc" horiz-adv-x="512" 
d="M135 543v-495h340v-48h-388v543h48zM309 260v66h66v-66h-66z" />
    <glyph glyph-name="lslash.sc" horiz-adv-x="512" 
d="M135 48h340v-48h-388v152l-58 -37v45l58 38v345h48v-313l215 140v-47l-215 -139v-136z" />
    <glyph glyph-name="m.sc" horiz-adv-x="737" 
d="M597 543h57v-543h-46v480l-225 -352h-28l-225 352v-480h-46v543h56l229 -358z" />
    <glyph glyph-name="uni1E41.sc" horiz-adv-x="737" 
d="M402 712v-64h-65v64h65zM597 543h57v-543h-46v480l-225 -352h-28l-225 352v-480h-46v543h56l229 -358z" />
    <glyph glyph-name="n.sc" horiz-adv-x="630" 
d="M500 543h47v-543h-51l-366 481v-481h-46v543h52l364 -475v475z" />
    <glyph glyph-name="nacute.sc" horiz-adv-x="630" 
d="M461 788l-118 -170h-43l101 170h60zM500 543h47v-543h-51l-366 481v-481h-46v543h52l364 -475v475z" />
    <glyph glyph-name="ncaron.sc" horiz-adv-x="630" 
d="M348 620h-51l-122 169h56l91 -138l91 138h57zM500 543h47v-543h-51l-366 481v-481h-46v543h52l364 -475v475z" />
    <glyph glyph-name="ncommaaccent.sc" horiz-adv-x="630" 
d="M500 543h47v-543h-51l-366 481v-481h-46v543h52l364 -475v475zM215 -232l75 173h53l-87 -173h-41z" />
    <glyph glyph-name="eng.sc" horiz-adv-x="638" 
d="M507 543h47v-581q0 -138 -115 -138q-27 0 -55 11.5t-41 26.5l22 44q30 -36 74 -36q35 0 51.5 22t16.5 70v28l-376 491v-481h-47v543h58l365 -475v475z" />
    <glyph glyph-name="ntilde.sc" horiz-adv-x="630" 
d="M259 672q-46 0 -76 -35v51q23 29 81 29q26 0 66 -13t57 -13q51 0 73 30v-55q-22 -20 -73 -20q-21 0 -62.5 13t-65.5 13zM500 543h47v-543h-51l-366 481v-481h-46v543h52l364 -475v475z" />
    <glyph glyph-name="o.sc" horiz-adv-x="619" 
d="M309 553q120 0 192 -74t72 -191v-37q0 -113 -72.5 -187t-191.5 -74t-190.5 74.5t-71.5 187.5v34q0 119 71 193t191 74zM309 506q-99 0 -156 -59t-57 -163v-31q0 -97 57.5 -156.5t155.5 -59.5t156 59t58 159v30q0 102 -57.5 161.5t-156.5 59.5z" />
    <glyph glyph-name="oacute.sc" horiz-adv-x="619" 
d="M452 786l-118 -170h-43l101 170h60zM309 553q120 0 192 -74t72 -191v-37q0 -113 -72.5 -187t-191.5 -74t-190.5 74.5t-71.5 187.5v34q0 119 71 193t191 74zM309 506q-99 0 -156 -59t-57 -163v-31q0 -97 57.5 -156.5t155.5 -59.5t156 59t58 159v30q0 102 -57.5 161.5
t-156.5 59.5z" />
    <glyph glyph-name="obreve.sc" horiz-adv-x="619" 
d="M451 759q-16 -66 -50.5 -105t-87.5 -39q-105 0 -139 144h54q7 -49 29 -77.5t56 -28.5q66 0 84 106h54zM309 553q120 0 192 -74t72 -191v-37q0 -113 -72.5 -187t-191.5 -74t-190.5 74.5t-71.5 187.5v34q0 119 71 193t191 74zM309 506q-99 0 -156 -59t-57 -163v-31
q0 -97 57.5 -156.5t155.5 -59.5t156 59t58 159v30q0 102 -57.5 161.5t-156.5 59.5z" />
    <glyph glyph-name="ocircumflex.sc" horiz-adv-x="619" 
d="M315 753l-95 -137h-56l126 170h50l120 -170h-56zM309 553q120 0 192 -74t72 -191v-37q0 -113 -72.5 -187t-191.5 -74t-190.5 74.5t-71.5 187.5v34q0 119 71 193t191 74zM523 255v30q0 102 -57.5 161.5t-156.5 59.5t-156 -59t-57 -163v-31q0 -97 57.5 -156.5t155.5 -59.5
t156 59t58 159z" />
    <glyph glyph-name="odieresis.sc" horiz-adv-x="619" 
d="M246 709v-65h-64v65h64zM443 709v-65h-64v65h64zM309 553q120 0 192 -74t72 -191v-37q0 -113 -72.5 -187t-191.5 -74t-190.5 74.5t-71.5 187.5v34q0 119 71 193t191 74zM309 506q-99 0 -156 -59t-57 -163v-31q0 -97 57.5 -156.5t155.5 -59.5t156 59t58 159v30
q0 102 -57.5 161.5t-156.5 59.5z" />
    <glyph glyph-name="ograve.sc" horiz-adv-x="619" 
d="M242 786l96 -169h-43l-113 169h60zM309 553q120 0 192 -74t72 -191v-37q0 -113 -72.5 -187t-191.5 -74t-190.5 74.5t-71.5 187.5v34q0 119 71 193t191 74zM309 506q-99 0 -156 -59t-57 -163v-31q0 -97 57.5 -156.5t155.5 -59.5t156 59t58 159v30q0 102 -57.5 161.5
t-156.5 59.5z" />
    <glyph glyph-name="ohungarumlaut.sc" horiz-adv-x="619" 
d="M361 786l-103 -169h-41l85 169h59zM503 786l-112 -169h-43l97 169h58zM309 553q120 0 192 -74t72 -191v-37q0 -113 -72.5 -187t-191.5 -74t-190.5 74.5t-71.5 187.5v34q0 119 71 193t191 74zM309 506q-99 0 -156 -59t-57 -163v-31q0 -97 57.5 -156.5t155.5 -59.5t156 59
t58 159v30q0 102 -57.5 161.5t-156.5 59.5z" />
    <glyph glyph-name="omacron.sc" horiz-adv-x="619" 
d="M452 700v-45h-279v45h279zM309 553q120 0 192 -74t72 -191v-37q0 -113 -72.5 -187t-191.5 -74t-190.5 74.5t-71.5 187.5v34q0 119 71 193t191 74zM309 506q-99 0 -156 -59t-57 -163v-31q0 -97 57.5 -156.5t155.5 -59.5t156 59t58 159v30q0 102 -57.5 161.5t-156.5 59.5z
" />
    <glyph glyph-name="oslash.sc" horiz-adv-x="625" 
d="M479 502q99 -74 99 -214v-37q0 -114 -73 -187.5t-193 -73.5q-72 0 -127 27l-47 -79h-48l60 99q-49 35 -76 90.5t-27 122.5v37q0 119 72 192.5t193 73.5q74 0 130 -29l48 80h50zM96 253q0 -116 78 -175l244 405q-48 23 -106 23q-101 0 -158.5 -59.5t-57.5 -162.5v-31z
M529 255v30q0 115 -75 176l-244 -404q45 -20 101 -20q99 0 158.5 59t59.5 159z" />
    <glyph glyph-name="otilde.sc" horiz-adv-x="619" 
d="M450 719v-55q-22 -20 -73 -20q-21 0 -62.5 13t-65.5 13q-46 0 -76 -35v51q23 29 81 29q26 0 66 -13t57 -13q51 0 73 30zM309 553q120 0 192 -74t72 -191v-37q0 -113 -72.5 -187t-191.5 -74t-190.5 74.5t-71.5 187.5v34q0 119 71 193t191 74zM309 506q-99 0 -156 -59
t-57 -163v-31q0 -97 57.5 -156.5t155.5 -59.5t156 59t58 159v30q0 102 -57.5 161.5t-156.5 59.5z" />
    <glyph glyph-name="oe.sc" horiz-adv-x="842" 
d="M798 497h-330v-197h276v-47h-276v-206h328v-47h-373q-61 -8 -92 -8q-129 0 -206.5 71t-77.5 188v28q0 121 78 196t205 75q33 0 89 -7h379v-46zM419 46v452q-44 6 -88 6q-108 0 -171.5 -62t-63.5 -168v-19q0 -99 64 -158t170 -59q52 0 89 8z" />
    <glyph glyph-name="p.sc" horiz-adv-x="580" 
d="M331 543q100 0 154 -43t54 -123v-16q0 -82 -54.5 -127.5t-150.5 -45.5h-199v-188h-48v543h244zM491 362v11q0 123 -159 123h-197v-260h195q161 0 161 126z" />
    <glyph glyph-name="thorn.sc" horiz-adv-x="581" 
d="M331 458q101 0 155 -43.5t54 -124.5v-16q0 -84 -54.5 -128t-151.5 -44h-198v-102h-49v543h49v-85h195zM491 274v11q0 125 -157 125h-198v-260h196q159 0 159 124z" />
    <glyph glyph-name="q.sc" horiz-adv-x="619" 
d="M573 251q0 -79 -37 -141.5t-104 -93.5l99 -139h-60l-83 123q-42 -10 -79 -10q-119 0 -190.5 74.5t-71.5 187.5v34q0 119 71 193t191 74t192 -74t72 -191v-37zM309 37q98 0 156 59t58 159v30q0 102 -57.5 161.5t-156.5 59.5t-156 -59t-57 -163v-31q0 -97 57.5 -156.5
t155.5 -59.5z" />
    <glyph glyph-name="r.sc" horiz-adv-x="583" 
d="M487 0l-157 219h-195v-219h-48v543h252q90 0 139 -40.5t49 -109.5v-15q0 -64 -37.5 -105.5t-105.5 -51.5l160 -221h-57zM135 496v-231h211q132 0 132 114v9q0 108 -134 108h-209z" />
    <glyph glyph-name="racute.sc" horiz-adv-x="583" 
d="M432 788l-118 -170h-43l101 170h60zM487 0l-157 219h-195v-219h-48v543h252q90 0 139 -40.5t49 -109.5v-15q0 -64 -37.5 -105.5t-105.5 -51.5l160 -221h-57zM135 496v-231h211q132 0 132 114v9q0 108 -134 108h-209z" />
    <glyph glyph-name="rcaron.sc" horiz-adv-x="583" 
d="M319 620h-51l-122 169h56l91 -138l91 138h57zM487 0l-157 219h-195v-219h-48v543h252q90 0 139 -40.5t49 -109.5v-15q0 -64 -37.5 -105.5t-105.5 -51.5l160 -221h-57zM135 496v-231h211q132 0 132 114v9q0 108 -134 108h-209z" />
    <glyph glyph-name="rcommaaccent.sc" horiz-adv-x="583" 
d="M544 0h-57l-157 219h-195v-219h-48v543h252q90 0 139 -40.5t49 -109.5v-15q0 -64 -37.5 -105.5t-105.5 -51.5zM135 496v-231h211q132 0 132 114v9q0 108 -134 108h-209zM194 -232l75 173h53l-87 -173h-41z" />
    <glyph glyph-name="s.sc" horiz-adv-x="521" 
d="M267 -10q-149 0 -234 97l36 39q29 -42 81 -65.5t116 -23.5q77 0 121.5 30.5t44.5 88.5q0 19 -4.5 33t-17 24t-23 16.5t-34 13t-38.5 9t-47 8.5q-111 21 -141 34q-69 30 -69 101q0 70 54.5 114t150.5 44q124 0 195 -65l-32 -38q-51 57 -167 57q-72 0 -112 -29.5t-40 -78.5
q0 -23 9 -38.5t36.5 -26.5t40.5 -14t58 -11q13 -3 20 -4q45 -8 69.5 -13.5t55.5 -16.5t46 -24.5t25.5 -36t10.5 -52.5q0 -81 -57 -126.5t-154 -45.5z" />
    <glyph glyph-name="sacute.sc" horiz-adv-x="521" 
d="M405 788l-118 -170h-43l101 170h60zM267 -10q-149 0 -234 97l36 39q29 -42 81 -65.5t116 -23.5q77 0 121.5 30.5t44.5 88.5q0 19 -4.5 33t-17 24t-23 16.5t-34 13t-38.5 9t-47 8.5q-111 21 -141 34q-69 30 -69 101q0 70 54.5 114t150.5 44q124 0 195 -65l-32 -38
q-51 57 -167 57q-72 0 -112 -29.5t-40 -78.5q0 -23 9 -38.5t36.5 -26.5t40.5 -14t58 -11q13 -3 20 -4q45 -8 69.5 -13.5t55.5 -16.5t46 -24.5t25.5 -36t10.5 -52.5q0 -81 -57 -126.5t-154 -45.5z" />
    <glyph glyph-name="scaron.sc" horiz-adv-x="521" 
d="M292 620h-51l-122 169h56l91 -138l91 138h57zM271 305q45 -8 69.5 -13.5t55.5 -16.5t46 -24.5t25.5 -36t10.5 -52.5q0 -81 -57 -126.5t-154 -45.5q-149 0 -234 97l36 39q29 -42 81 -65.5t116 -23.5q77 0 121.5 30.5t44.5 88.5q0 19 -4.5 33t-17 24t-23 16.5t-34 13
t-38.5 9t-47 8.5q-111 21 -141 34q-69 30 -69 101q0 70 54.5 114t150.5 44q124 0 195 -65l-32 -38q-51 57 -167 57q-72 0 -112 -29.5t-40 -78.5q0 -23 9 -38.5t36.5 -26.5t40.5 -14t58 -11q13 -3 20 -4z" />
    <glyph glyph-name="scedilla.sc" horiz-adv-x="521" 
d="M478 162q0 -79 -53.5 -124t-145.5 -48l-9 -47q106 9 106 -74q0 -40 -28.5 -64t-82.5 -24q-32 0 -61.5 10.5t-39.5 20.5l19 43q8 -14 31 -25t50 -11q71 0 71 49q0 42 -50 42q-17 0 -34 -6l-24 26l10 61q-130 12 -204 96l36 39q29 -42 81 -65.5t116 -23.5q77 0 121.5 30.5
t44.5 88.5q0 19 -4.5 33t-17 24t-23 16.5t-34 13t-38.5 9t-47 8.5q-111 21 -141 34q-69 30 -69 101q0 70 54.5 114t150.5 44q124 0 195 -65l-32 -38q-51 57 -167 57q-72 0 -112 -29.5t-40 -78.5q0 -23 9 -38.5t36.5 -26.5t40.5 -14t58 -11q13 -3 20 -4q45 -8 69.5 -13.5
t55.5 -16.5t46 -24.5t25.5 -36t10.5 -52.5z" />
    <glyph glyph-name="scircumflex.sc" horiz-adv-x="521" 
d="M269 755l-95 -137h-56l126 170h50l120 -170h-56zM271 305q45 -8 69.5 -13.5t55.5 -16.5t46 -24.5t25.5 -36t10.5 -52.5q0 -81 -57 -126.5t-154 -45.5q-149 0 -234 97l36 39q29 -42 81 -65.5t116 -23.5q77 0 121.5 30.5t44.5 88.5q0 19 -4.5 33t-17 24t-23 16.5t-34 13
t-38.5 9t-47 8.5q-111 21 -141 34q-69 30 -69 101q0 70 54.5 114t150.5 44q124 0 195 -65l-32 -38q-51 57 -167 57q-72 0 -112 -29.5t-40 -78.5q0 -23 9 -38.5t36.5 -26.5t40.5 -14t58 -11q13 -3 20 -4z" />
    <glyph glyph-name="scommaaccent.sc" horiz-adv-x="521" 
d="M267 -10q-149 0 -234 97l36 39q29 -42 81 -65.5t116 -23.5q77 0 121.5 30.5t44.5 88.5q0 19 -4.5 33t-17 24t-23 16.5t-34 13t-38.5 9t-47 8.5q-111 21 -141 34q-69 30 -69 101q0 70 54.5 114t150.5 44q124 0 195 -65l-32 -38q-51 57 -167 57q-72 0 -112 -29.5t-40 -78.5
q0 -23 9 -38.5t36.5 -26.5t40.5 -14t58 -11q13 -3 20 -4q45 -8 69.5 -13.5t55.5 -16.5t46 -24.5t25.5 -36t10.5 -52.5q0 -81 -57 -126.5t-154 -45.5zM287 -61l-87 -173h-41l75 173h53z" />
    <glyph glyph-name="germandbls.sc" horiz-adv-x="1043" 
d="M267 -10q-149 0 -234 97l36 39q29 -42 81 -65.5t116 -23.5q77 0 121.5 30.5t44.5 88.5q0 19 -4.5 33t-17 24t-23 16.5t-34 13t-38.5 9t-47 8.5q-111 21 -141 34q-69 30 -69 101q0 70 54.5 114t150.5 44q124 0 195 -65l-32 -38q-51 57 -167 57q-72 0 -112 -29.5t-40 -78.5
q0 -23 9 -38.5t36.5 -26.5t40.5 -14t58 -11q13 -3 20 -4q45 -8 69.5 -13.5t55.5 -16.5t46 -24.5t25.5 -36t10.5 -52.5q0 -81 -57 -126.5t-154 -45.5zM789 -10q-150 0 -235 97l36 39q29 -42 81 -65.5t116 -23.5q78 0 122.5 30.5t44.5 88.5q0 22 -9 38.5t-20 26t-37 17.5
t-43 11.5t-56 10.5q-111 21 -141 34q-69 30 -69 101q0 70 54.5 114t150.5 44q125 0 195 -65l-32 -38q-51 57 -167 57q-72 0 -112 -29.5t-40 -78.5q0 -23 11 -39t32 -25.5t45.5 -15t57.5 -11.5q12 -2 19 -3q45 -8 69.5 -13.5t55.5 -16.5t46 -24.5t25.5 -36t10.5 -52.5
q0 -81 -57 -126.5t-154 -45.5z" />
    <glyph glyph-name="longs.sc" horiz-adv-x="521" 
d="M267 -10q-149 0 -234 97l36 39q29 -42 81 -65.5t116 -23.5q77 0 121.5 30.5t44.5 88.5q0 19 -4.5 33t-17 24t-23 16.5t-34 13t-38.5 9t-47 8.5q-111 21 -141 34q-69 30 -69 101q0 70 54.5 114t150.5 44q124 0 195 -65l-32 -38q-51 57 -167 57q-72 0 -112 -29.5t-40 -78.5
q0 -23 9 -38.5t36.5 -26.5t40.5 -14t58 -11q13 -3 20 -4q45 -8 69.5 -13.5t55.5 -16.5t46 -24.5t25.5 -36t10.5 -52.5q0 -81 -57 -126.5t-154 -45.5z" />
    <glyph glyph-name="t.sc" horiz-adv-x="524" 
d="M502 543v-46h-216v-497h-49v497h-216v46h481z" />
    <glyph glyph-name="tbar.sc" horiz-adv-x="524" 
d="M502 497h-216v-199h158v-41h-158v-257h-49v257h-157v41h157v199h-216v46h481v-46z" />
    <glyph glyph-name="tcaron.sc" horiz-adv-x="524" 
d="M288 620h-51l-122 169h56l91 -138l91 138h57zM502 543v-46h-216v-497h-49v497h-216v46h481z" />
    <glyph glyph-name="uni0163.sc" horiz-adv-x="524" 
d="M502 497h-216v-497h1l-24 -69q52 8 89 -14.5t37 -71.5q0 -47 -35.5 -73.5t-90.5 -26.5q-36 0 -72.5 11.5t-53.5 27.5l21 42q35 -42 105 -42q38 0 61 15t23 46q0 28 -15.5 39t-44.5 13q-28 0 -41 -4l-27 25l26 82h-8v497h-216v46h481v-46z" />
    <glyph glyph-name="uni021B.sc" horiz-adv-x="524" 
d="M502 543v-46h-216v-497h-49v497h-216v46h481zM156 -232l75 173h53l-87 -173h-41z" />
    <glyph glyph-name="uni1E6B.sc" horiz-adv-x="524" 
d="M295 712v-64h-65v64h65zM502 543v-46h-216v-497h-49v497h-216v46h481z" />
    <glyph glyph-name="u.sc" horiz-adv-x="608" 
d="M537 543v-335q0 -102 -61 -160.5t-171 -58.5q-109 0 -171 58t-62 159v337h50v-341q0 -81 49 -123t134 -42q87 0 134.5 43t47.5 126v337h50z" />
    <glyph glyph-name="uacute.sc" horiz-adv-x="608" 
d="M443 782l-118 -165h-43l101 165h60zM537 543v-335q0 -102 -61 -160.5t-171 -58.5q-109 0 -171 58t-62 159v337h50v-341q0 -81 49 -123t134 -42q87 0 134.5 43t47.5 126v337h50z" />
    <glyph glyph-name="ubreve.sc" horiz-adv-x="608" 
d="M443 756q-16 -64 -50.5 -102t-87.5 -38q-105 0 -139 140h54q7 -47 29 -75t56 -28q66 0 84 103h54zM537 543v-335q0 -102 -61 -160.5t-171 -58.5q-109 0 -171 58t-62 159v337h50v-341q0 -81 49 -123t134 -42q87 0 134.5 43t47.5 126v337h50z" />
    <glyph glyph-name="ucircumflex.sc" horiz-adv-x="608" 
d="M307 750l-95 -133h-56l126 165h50l120 -165h-56zM487 543h50v-335q0 -102 -61 -160.5t-171 -58.5q-109 0 -171 58t-62 159v337h50v-341q0 -81 49 -123t134 -42q87 0 134.5 43t47.5 126v337z" />
    <glyph glyph-name="udieresis.sc" horiz-adv-x="608" 
d="M238 709v-64h-64v64h64zM435 709v-64h-64v64h64zM537 543v-335q0 -102 -61 -160.5t-171 -58.5q-109 0 -171 58t-62 159v337h50v-341q0 -81 49 -123t134 -42q87 0 134.5 43t47.5 126v337h50z" />
    <glyph glyph-name="ugrave.sc" horiz-adv-x="608" 
d="M234 783l96 -165h-43l-113 165h60zM537 543v-335q0 -102 -61 -160.5t-171 -58.5q-109 0 -171 58t-62 159v337h50v-341q0 -81 49 -123t134 -42q87 0 134.5 43t47.5 126v337h50z" />
    <glyph glyph-name="uhungarumlaut.sc" horiz-adv-x="608" 
d="M353 782l-103 -164h-41l85 164h59zM495 782l-112 -164h-43l97 164h58zM537 543v-335q0 -102 -61 -160.5t-171 -58.5q-109 0 -171 58t-62 159v337h50v-341q0 -81 49 -123t134 -42q87 0 134.5 43t47.5 126v337h50z" />
    <glyph glyph-name="umacron.sc" horiz-adv-x="608" 
d="M444 699v-45h-279v45h279zM537 543v-335q0 -102 -61 -160.5t-171 -58.5q-109 0 -171 58t-62 159v337h50v-341q0 -81 49 -123t134 -42q87 0 134.5 43t47.5 126v337h50z" />
    <glyph glyph-name="uogonek.sc" horiz-adv-x="608" 
d="M487 543h50v-335q0 -78 -36 -131t-103 -74q-87 -40 -87 -109q0 -24 13 -38t35 -14q35 0 55 27l17 -39q-28 -30 -78 -30q-40 0 -65 24.5t-24 66.5q0 59 54 99q-4 -1 -13 -1q-109 0 -171 58t-62 159v337h50v-341q0 -81 49 -123t134 -42q87 0 134.5 43t47.5 126v337z" />
    <glyph glyph-name="uring.sc" horiz-adv-x="608" 
d="M305 797q40 0 67 -24.5t27 -66.5t-27 -67t-67 -25q-41 0 -68 25t-27 67t26.5 66.5t68.5 24.5zM305 759q-24 0 -38.5 -14t-14.5 -39t14.5 -39.5t38.5 -14.5q23 0 37 14.5t14 39.5q0 24 -14 38.5t-37 14.5zM537 543v-335q0 -102 -61 -160.5t-171 -58.5q-109 0 -171 58
t-62 159v337h50v-341q0 -81 49 -123t134 -42q87 0 134.5 43t47.5 126v337h50z" />
    <glyph glyph-name="utilde.sc" horiz-adv-x="608" 
d="M442 721v-55q-22 -20 -73 -20q-21 0 -62.5 13t-65.5 13q-46 0 -76 -35v51q23 29 81 29q26 0 66 -13t57 -13q51 0 73 30zM537 543v-335q0 -102 -61 -160.5t-171 -58.5q-109 0 -171 58t-62 159v337h50v-341q0 -81 49 -123t134 -42q87 0 134.5 43t47.5 126v337h50z" />
    <glyph glyph-name="v.sc" horiz-adv-x="576" 
d="M497 543h55l-231 -543h-62l-235 543h55l211 -501z" />
    <glyph glyph-name="w.sc" horiz-adv-x="816" 
d="M739 543h53l-169 -543h-62l-153 495l-153 -495h-63l-167 543h52l146 -500l156 500h58l155 -499z" />
    <glyph glyph-name="wacute.sc" horiz-adv-x="816" 
d="M547 788l-118 -170h-43l101 170h60zM739 543h53l-169 -543h-62l-153 495l-153 -495h-63l-167 543h52l146 -500l156 500h58l155 -499z" />
    <glyph glyph-name="wcircumflex.sc" horiz-adv-x="816" 
d="M410 755l-95 -137h-56l126 170h50l120 -170h-56zM739 543h53l-169 -543h-62l-153 495l-153 -495h-63l-167 543h52l146 -500l156 500h58l155 -499z" />
    <glyph glyph-name="wdieresis.sc" horiz-adv-x="816" 
d="M341 711v-65h-64v65h64zM538 711v-65h-64v65h64zM739 543h53l-169 -543h-62l-153 495l-153 -495h-63l-167 543h52l146 -500l156 500h58l155 -499z" />
    <glyph glyph-name="wgrave.sc" horiz-adv-x="816" 
d="M433 619h-43l-113 169h60zM739 543h53l-169 -543h-62l-153 495l-153 -495h-63l-167 543h52l146 -500l156 500h58l155 -499z" />
    <glyph glyph-name="x.sc" horiz-adv-x="566" 
d="M535 0h-59l-193 255l-192 -255h-59l216 281l-200 262h59l176 -235l176 235h59l-200 -261z" />
    <glyph glyph-name="y.sc" horiz-adv-x="540" 
d="M467 543h58l-230 -349v-194h-48v194l-232 349h59l197 -304z" />
    <glyph glyph-name="yacute.sc" horiz-adv-x="540" 
d="M411 788l-118 -170h-43l101 170h60zM467 543h58l-230 -349v-194h-48v194l-232 349h59l197 -304z" />
    <glyph glyph-name="ycircumflex.sc" horiz-adv-x="540" 
d="M275 755l-95 -137h-56l126 170h50l120 -170h-56zM467 543h58l-230 -349v-194h-48v194l-232 349h59l197 -304z" />
    <glyph glyph-name="ydieresis.sc" horiz-adv-x="540" 
d="M205 711v-65h-64v65h64zM402 711v-65h-64v65h64zM467 543h58l-230 -349v-194h-48v194l-232 349h59l197 -304z" />
    <glyph glyph-name="ygrave.sc" horiz-adv-x="540" 
d="M298 619h-43l-113 169h60zM467 543h58l-230 -349v-194h-48v194l-232 349h59l197 -304z" />
    <glyph glyph-name="z.sc" horiz-adv-x="528" 
d="M111 46h371v-46h-428v48l365 449h-364v46h420v-48z" />
    <glyph glyph-name="zacute.sc" horiz-adv-x="528" 
d="M406 788l-118 -170h-43l101 170h60zM111 46h371v-46h-428v48l365 449h-364v46h420v-48z" />
    <glyph glyph-name="zcaron.sc" horiz-adv-x="528" 
d="M292 620h-51l-122 169h56l91 -138l91 138h57zM111 46h371v-46h-428v48l365 449h-364v46h420v-48z" />
    <glyph glyph-name="zdotaccent.sc" horiz-adv-x="528" 
d="M300 712v-64h-65v64h65zM111 46h371v-46h-428v48l365 449h-364v46h420v-48z" />
    <glyph glyph-name="zero.c2sc" horiz-adv-x="582" 
d="M291 553q114 0 180.5 -73.5t66.5 -190.5v-38q0 -115 -66.5 -188t-180.5 -73q-112 0 -179.5 74t-67.5 187v38q0 115 68 189.5t179 74.5zM292 505q-90 0 -143.5 -60.5t-53.5 -160.5v-28q0 -99 53 -158.5t143 -59.5t143 58.5t53 159.5v28q0 101 -53 161t-142 60z" />
    <glyph glyph-name="one.c2sc" horiz-adv-x="386" 
d="M273 540v-540h-48v480q-16 -8 -76.5 -40.5t-96.5 -50.5l-10 44q139 73 195 107h36z" />
    <glyph glyph-name="two.c2sc" horiz-adv-x="537" 
d="M51 0q-6 109 39.5 172.5t158.5 104.5q17 6 46.5 15t46 14.5t37.5 15.5t31.5 20t18.5 25.5t8 35.5q0 54 -46.5 79t-118.5 25q-62 0 -109 -25t-72 -69l-37 30q29 46 84.5 78t135.5 32q90 0 150.5 -37t60.5 -111q0 -15 -1.5 -27.5t-8 -24t-10 -20t-15.5 -17.5t-17.5 -14
t-23.5 -13t-24 -11t-29.5 -11t-30.5 -10t-34 -11q-100 -31 -144.5 -74.5t-45.5 -124.5h392l-1 -47h-441z" />
    <glyph glyph-name="three.c2sc" horiz-adv-x="527" 
d="M333 312q65 -3 107.5 -35.5t42.5 -99.5v-15q0 -81 -64 -126.5t-164 -45.5q-157 0 -239 103l39 33q23 -39 74 -64t126 -25q76 0 127 31t51 92v12q1 57 -31 80t-89 23q-51 0 -85 -11l-24 43l205 191h-368v45h426v-48l-204 -187q25 7 70 4z" />
    <glyph glyph-name="four.c2sc" horiz-adv-x="514" 
d="M510 169v-42h-121v-127h-45v127h-326v42l321 375h50v-375h121zM77 169h267v317z" />
    <glyph glyph-name="five.c2sc" horiz-adv-x="534" 
d="M457 543v-45h-343l-9 -204q59 61 185 61q87 0 143 -38t56 -126v-16q0 -88 -61 -136.5t-162 -48.5q-74 0 -137 29.5t-98 80.5l40 34q20 -44 74.5 -71t118.5 -27q82 0 129 34.5t47 104.5v10q0 126 -163 126q-100 0 -164 -65l-55 24l12 273h387z" />
    <glyph glyph-name="six.c2sc" horiz-adv-x="549" 
d="M291 349q91 0 151.5 -38t60.5 -119v-13q0 -86 -59.5 -137.5t-160.5 -51.5q-107 0 -172.5 72t-65.5 190v27q0 120 61.5 197.5t178.5 77.5q67 0 110.5 -16t79.5 -52l-30 -34q-31 31 -68.5 43.5t-94.5 12.5q-95 0 -141.5 -64.5t-46.5 -171.5v-9q61 86 197 86zM455 179v8
q0 119 -172 119q-119 0 -187 -94q10 -84 60 -130t128 -46q77 0 124 36t47 107z" />
    <glyph glyph-name="seven.c2sc" horiz-adv-x="467" 
d="M454 544v-50l-281 -494h-57l285 497h-384v47h437z" />
    <glyph glyph-name="eight.c2sc" horiz-adv-x="558" 
d="M277 -10q-109 0 -173 43.5t-64 114.5v15q0 65 41.5 98.5t92.5 36.5q-37 2 -67.5 32t-30.5 75v12q0 65 54.5 100.5t146.5 35.5t148.5 -34.5t56.5 -100.5v-10q0 -48 -28 -77.5t-71 -32.5q53 -3 93.5 -35.5t40.5 -95.5v-18q0 -72 -64.5 -115.5t-175.5 -43.5zM278 317
q155 0 155 92v7q0 49 -43.5 71t-112.5 22q-152 0 -152 -95v-6q0 -91 153 -91zM277 35q87 0 138 29.5t51 86.5v14q0 63 -48.5 87t-140.5 24q-186 0 -186 -112v-13q0 -56 50 -86t136 -30z" />
    <glyph glyph-name="nine.c2sc" horiz-adv-x="522" 
d="M245 553q107 0 170 -68t63 -207v-33q0 -120 -61.5 -187.5t-175.5 -67.5q-68 0 -124.5 29t-82.5 74l38 31q16 -36 61.5 -61t105.5 -25q191 0 191 214v30q-30 -30 -80 -49.5t-107 -19.5q-91 0 -150 40t-59 112v12q0 81 58.5 128.5t152.5 47.5zM246 257q56 0 105.5 21
t76.5 53q-21 176 -187 176q-70 0 -113.5 -33.5t-43.5 -93.5v-11q0 -56 45.5 -84t116.5 -28z" />
    <glyph glyph-name="zero.osf" horiz-adv-x="574" 
d="M287 526q110 0 176.5 -70t66.5 -180v-37q0 -108 -66.5 -178t-176.5 -70t-176.5 70.5t-66.5 177.5v37q0 109 67 179.5t176 70.5zM288 481q-89 0 -141 -57t-52 -153v-27q0 -95 52 -151.5t140 -56.5t139.5 55.5t51.5 152.5v27q0 97 -51.5 153.5t-138.5 56.5z" />
    <glyph glyph-name="one.osf" horiz-adv-x="377" 
d="M265 521v-521h-47v463q-98 -52 -167 -87l-9 43q143 74 189 102h34z" />
    <glyph glyph-name="two.osf" horiz-adv-x="528" 
d="M268 530q90 0 149 -36.5t59 -105.5q0 -20 -5.5 -36.5t-11.5 -28t-23 -23.5t-26.5 -18.5t-36.5 -16.5t-39.5 -14t-47.5 -15q-98 -30 -141.5 -71.5t-45.5 -118.5h385l-1 -46h-432q-6 106 39 167t156 99q16 5 45.5 14t44.5 14t35.5 14.5t31 19t18 24.5t7.5 34q0 50 -45 74.5
t-116 24.5q-60 0 -106.5 -24t-71.5 -66l-35 29q28 44 82.5 75t131.5 31z" />
    <glyph glyph-name="three.osf" horiz-adv-x="542" 
d="M320 255q71 -4 122 -40.5t51 -113.5v-19q0 -92 -67.5 -142.5t-169.5 -50.5q-80 0 -143.5 31.5t-98.5 79.5l37 32q27 -44 81 -71.5t126 -27.5q80 0 134 36.5t54 109.5v14q0 125 -147 125q-44 0 -72 -7l-21 43l218 222h-377v45h432v-49l-221 -219q35 4 62 2z" />
    <glyph glyph-name="four.osf" horiz-adv-x="530" 
d="M528 98v-43h-125v-158h-44v158h-340v44l333 422h51v-423h125zM74 98h285v362z" />
    <glyph glyph-name="five.osf" horiz-adv-x="559" 
d="M482 521v-45h-362l-13 -241q26 31 77 51t112 20q95 0 154.5 -47t59.5 -143v-16q0 -102 -68.5 -156.5t-170.5 -54.5q-152 0 -237 108l38 34q26 -46 79 -71.5t121 -25.5q83 0 137 40t54 126v10q0 153 -173 153q-108 0 -179 -75l-50 21l15 312h406z" />
    <glyph glyph-name="six.osf" horiz-adv-x="583" 
d="M316 394q96 0 157.5 -44t61.5 -138v-13q0 -91 -61 -150.5t-170 -59.5q-114 0 -186 81t-72 210v30q0 139 66.5 228.5t190.5 89.5q69 0 114 -18.5t84 -56.5l-33 -33q-34 33 -71.5 48t-95.5 15q-104 0 -155.5 -78.5t-51.5 -202.5v-3q32 39 90.5 67t131.5 28zM489 199v7
q0 145 -178 145q-68 0 -125 -30.5t-90 -79.5q11 -95 67 -151t142 -56t135 44.5t49 120.5z" />
    <glyph glyph-name="seven.osf" horiz-adv-x="475" 
d="M463 521v-49l-294 -575h-53l298 579h-396v45h445z" />
    <glyph glyph-name="eight.osf" horiz-adv-x="589" 
d="M293 629q92 0 154 -40t62 -112v-13q0 -53 -30.5 -86t-75.5 -38q55 -4 99 -42.5t44 -109.5v-17q0 -82 -70 -131.5t-182 -49.5t-182 48.5t-70 129.5v15q0 73 45 112.5t98 44.5q-38 3 -71.5 36.5t-33.5 83.5v15q0 72 59.5 113t153.5 41zM292 584q-71 0 -117 -26.5t-46 -84.5
v-9q0 -104 166 -104q81 0 123.5 24t42.5 81v10q0 58 -48.5 83.5t-120.5 25.5zM294 319q-203 0 -203 -137v-11q0 -67 57.5 -102.5t144.5 -35.5q90 0 147.5 35t57.5 104v12q0 76 -52.5 105.5t-151.5 29.5z" />
    <glyph glyph-name="nine.osf" horiz-adv-x="552" 
d="M262 530q112 0 179 -78t67 -231v-42q0 -136 -64 -212t-184 -76q-73 0 -132.5 29.5t-90.5 76.5l37 33q19 -38 68 -66t115 -28q105 0 155.5 61.5t50.5 188.5v36q-32 -34 -85.5 -56.5t-117.5 -22.5q-94 0 -157.5 45.5t-63.5 130.5v12q0 93 62.5 146t160.5 53zM263 187
q64 0 117 25.5t81 64.5q-11 107 -64.5 158.5t-139.5 51.5q-75 0 -122.5 -40t-47.5 -113v-10q0 -71 49.5 -104t126.5 -33z" />
    <glyph glyph-name="zero.sinf" horiz-adv-x="408" 
d="M204 221q80 0 123.5 -52t43.5 -134v-23q0 -79 -44 -131t-124 -52q-77 0 -121.5 52t-44.5 130v24q0 81 45 133.5t122 52.5zM204 181q-59 0 -92 -39.5t-33 -106.5v-23q0 -65 32.5 -104t91.5 -39q60 0 92.5 39t32.5 105v22q0 67 -32 106.5t-92 39.5z" />
    <glyph glyph-name="one.sinf" horiz-adv-x="302" 
d="M208 215v-381h-40v328l-124 -68l-9 40q80 43 145 81h28z" />
    <glyph glyph-name="two.sinf" horiz-adv-x="382" 
d="M195 223q66 0 105.5 -27.5t39.5 -81.5q0 -44 -29 -66t-97 -44q-71 -20 -99.5 -49t-27.5 -80h258v-41h-303q-6 81 25.5 127.5t116.5 74.5q42 14 59 20t35 21.5t18 35.5q0 67 -101 67q-86 0 -118 -62l-34 27q46 78 152 78z" />
    <glyph glyph-name="three.sinf" horiz-adv-x="375" 
d="M243 57q40 -3 66.5 -27.5t26.5 -70.5v-9q0 -57 -46 -89.5t-111 -32.5q-54 0 -99.5 22.5t-65.5 56.5l32 30q15 -29 52 -48.5t82 -19.5q47 0 80 20t33 60v6q0 68 -80 68q-27 0 -56 -9l-19 39l126 122h-229v40h285v-44l-127 -116q13 4 50 2z" />
    <glyph glyph-name="four.sinf" horiz-adv-x="361" 
d="M357 -40v-40h-85v-85h-39v85h-218v41l213 254h44v-255h85zM65 -40h168v203z" />
    <glyph glyph-name="five.sinf" horiz-adv-x="381" 
d="M322 215v-41h-227l-10 -132q40 43 116 43q63 0 102 -27.5t39 -89.5v-12q0 -62 -44.5 -95.5t-113.5 -33.5q-104 0 -158 79l31 32q37 -70 128 -70q49 0 81 21.5t32 66.5v8q0 81 -102 81q-64 0 -109 -44l-42 22l9 192h268z" />
    <glyph glyph-name="six.sinf" horiz-adv-x="397" 
d="M212 86q61 0 103.5 -27.5t42.5 -87.5v-12q0 -58 -42.5 -95t-110.5 -37q-76 0 -122 49.5t-46 127.5v25q0 90 44 141.5t125 51.5q84 0 130 -54l-29 -28q-38 42 -103 42q-123 0 -123 -155v-1q21 26 55.5 43t75.5 17zM315 -44v10q0 79 -106 79q-36 0 -71.5 -17t-55.5 -46
q6 -53 38 -83.5t85 -30.5q50 0 80 24t30 64z" />
    <glyph glyph-name="seven.sinf" horiz-adv-x="320" 
d="M309 215l-1 -42l-184 -339h-48l186 341h-246v40h293z" />
    <glyph glyph-name="eight.sinf" horiz-adv-x="392" 
d="M196 222q60 0 99.5 -24.5t39.5 -69.5v-10q0 -31 -17.5 -51.5t-44.5 -23.5q35 -3 59 -25.5t24 -66.5v-8q0 -54 -45.5 -84.5t-116.5 -30.5q-69 0 -113.5 30t-44.5 82v7q0 44 25 68.5t59 27.5q-25 2 -44 22.5t-19 52.5v8q0 44 38.5 70t100.5 26zM195 182q-40 0 -68 -15
t-28 -44v-6q0 -57 98 -57q97 0 97 58v7q0 30 -29 43.5t-70 13.5zM196 25q-118 0 -118 -78v-4q0 -37 33 -56t84 -19t84.5 18t33.5 57v6q0 44 -31.5 60t-85.5 16z" />
    <glyph glyph-name="nine.sinf" horiz-adv-x="374" 
d="M177 223q70 0 115 -50t45 -138v-25q0 -86 -42 -133.5t-118 -47.5q-49 0 -88 20t-59 50l30 29q12 -24 43.5 -41.5t71.5 -17.5q62 0 91 36t29 110v15q-49 -49 -119 -49q-62 0 -103 29t-41 83v8q0 54 40.5 88t104.5 34zM177 22q73 0 116 50q-8 56 -40 84t-78 28
q-44 0 -72 -21.5t-28 -59.5v-8q0 -38 29 -55.5t73 -17.5z" />
    <glyph glyph-name="one.ss03" horiz-adv-x="481" 
d="M294 45h165v-45h-380v45h169v573q-76 -45 -194 -107l-10 42q85 45 214 122h36v-630z" />
    <glyph glyph-name="one.c2sc.ss03" horiz-adv-x="439" 
d="M266 46h142v-46h-342v46h152v429q-49 -29 -176 -97l-10 44q170 96 198 113h36v-489z" />
    <glyph glyph-name="one.osf.ss03" horiz-adv-x="429" 
d="M259 45h139v-46h-335v46h149v418q-55 -33 -172 -94l-9 42q107 57 192 110h36v-476z" />
    <glyph glyph-name="one.sinf.ss03" horiz-adv-x="323" 
d="M204 -130h101v-37h-252v37h112v296q-23 -14 -126 -70l-9 36q105 58 146 83h28v-345z" />
    <glyph glyph-name="zero.tf" horiz-adv-x="637" 
d="M320 685q124 0 201 -89t77 -233v-53q0 -141 -76.5 -230t-201.5 -89q-127 0 -204 89.5t-77 229.5v53q0 142 78 232t203 90zM319 638q-105 0 -167 -76t-62 -205v-41q0 -128 62.5 -203t167.5 -75q104 0 165.5 73.5t61.5 204.5v41q0 129 -62 205t-166 76z" />
    <glyph glyph-name="one.tf" horiz-adv-x="637" 
d="M381 45h166v-45h-401v45h186v573q-81 -46 -205 -107l-10 42q92 47 226 122h38v-630z" />
    <glyph glyph-name="two.tf" horiz-adv-x="637" 
d="M302 685q105 0 173 -46t68 -129q0 -31 -10.5 -56.5t-24.5 -42t-44 -34t-51.5 -27.5t-64.5 -28q-16 -7 -24 -10q-117 -46 -168 -104t-55 -161h449v-47h-497q-4 133 48.5 209t185.5 135q17 7 50.5 20t50.5 20t41 20.5t36 26.5t21 32.5t9 42.5q0 67 -53 99.5t-142 32.5
q-146 0 -206 -113l-40 31q32 53 94.5 91t153.5 38z" />
    <glyph glyph-name="three.tf" horiz-adv-x="637" 
d="M356 383q90 -6 143.5 -46.5t53.5 -118.5v-22q0 -96 -71.5 -150.5t-182.5 -54.5q-96 0 -167 36t-108 91l39 36q25 -51 88 -84t148 -33q90 0 148.5 39.5t58.5 117.5v16q0 75 -48.5 106t-147.5 31q-27 0 -48 -3l-20 45l242 240h-428v46h486v-50l-246 -238q31 1 60 -4z" />
    <glyph glyph-name="four.tf" horiz-adv-x="637" 
d="M603 205v-44h-140v-161h-44v161h-385v42l382 472h47v-470h140zM93 205h326v404z" />
    <glyph glyph-name="five.tf" horiz-adv-x="637" 
d="M531 675v-46h-405l-15 -267q72 82 210 82q109 0 175 -49.5t66 -153.5v-23q0 -106 -73.5 -166.5t-188.5 -60.5q-85 0 -153 32t-110 89l38 35q65 -110 226 -110q92 0 153 46t61 134v17q0 91 -52 127.5t-148 36.5q-58 0 -113 -22.5t-92 -64.5l-45 22l17 342h449z" />
    <glyph glyph-name="six.tf" horiz-adv-x="637" 
d="M343 427q47 0 88 -10.5t75.5 -32.5t54 -60t19.5 -89v-18q0 -103 -68 -164.5t-182 -61.5q-122 0 -197 87.5t-75 227.5v38q0 149 69.5 245t201.5 96q138 0 216 -85l-34 -34q-33 42 -76.5 57.5t-108.5 15.5q-111 0 -166 -83.5t-55 -219.5v-19q33 45 94.5 77.5t143.5 32.5z
M533 216v13q0 152 -193 152q-77 0 -137.5 -33.5t-94.5 -87.5q11 -103 70 -163t151 -60q96 0 150 46.5t54 132.5z" />
    <glyph glyph-name="seven.tf" horiz-adv-x="637" 
d="M573 675v-51l-337 -624h-56l342 629h-461v46h512z" />
    <glyph glyph-name="eight.tf" horiz-adv-x="637" 
d="M317 687q103 0 167 -44t64 -125v-14q0 -59 -34 -95.5t-80 -40.5q59 -4 106 -44.5t47 -113.5v-20q0 -93 -74 -146.5t-195 -53.5q-119 0 -193 54.5t-74 143.5v18q0 76 47 116t104 46q-41 3 -77 40t-36 92v15q0 81 62.5 126.5t165.5 45.5zM316 641q-80 0 -129 -30.5
t-49 -95.5v-11q0 -117 182 -117q88 0 133.5 27.5t45.5 91.5v11q0 65 -51.5 94.5t-131.5 29.5zM318 346q-218 0 -218 -141v-14q0 -74 60.5 -115t156.5 -41q100 0 160.5 40t60.5 116v15q0 140 -220 140z" />
    <glyph glyph-name="nine.tf" horiz-adv-x="637" 
d="M304 685q121 0 192.5 -86.5t71.5 -246.5v-42q0 -151 -68.5 -235t-200.5 -84q-77 0 -141.5 32.5t-99.5 86.5l37 33q24 -44 78 -75t123 -31q114 0 169.5 69t55.5 211v40q-35 -39 -95 -64.5t-128 -25.5q-100 0 -169.5 49.5t-69.5 140.5v13q0 99 69 157t176 58zM301 312
q69 0 128 27t90 69q-10 115 -67.5 173t-151.5 58q-84 0 -138 -43.5t-54 -121.5v-13q0 -76 54.5 -112.5t138.5 -36.5z" />
    <glyph glyph-name="zero.tosf" horiz-adv-x="561" 
d="M277 526q110 0 176 -70t66 -180v-37q0 -108 -66 -178t-177 -70q-110 0 -176.5 70.5t-66.5 177.5v37q0 109 67 179.5t177 70.5zM277 481q-89 0 -140.5 -57t-51.5 -153v-27q0 -96 51.5 -152t139.5 -56t140 55.5t52 152.5v27q0 96 -52 153t-139 57z" />
    <glyph glyph-name="one.tosf" horiz-adv-x="561" 
d="M329 45h144v-46h-346v46h154v418q-67 -38 -179 -94l-9 42q108 55 199 110h37v-476z" />
    <glyph glyph-name="two.tosf" horiz-adv-x="561" 
d="M282 530q90 0 149 -36.5t59 -105.5q0 -20 -5.5 -36.5t-11.5 -28t-23 -23.5t-26.5 -18.5t-36.5 -16.5t-39.5 -14t-47.5 -15q-98 -30 -142 -71.5t-46 -118.5h386v-46h-434q-5 106 40 167t155 99q16 5 45.5 14t45 14t36.5 14.5t31 19t18 24.5t8 34q0 50 -45.5 74.5
t-116.5 24.5q-60 0 -107 -24t-72 -66l-35 29q28 44 83 75t132 31z" />
    <glyph glyph-name="three.tosf" horiz-adv-x="561" 
d="M341 255q72 -4 122.5 -40.5t50.5 -113.5v-19q0 -92 -67 -142.5t-169 -50.5q-80 0 -144 31.5t-99 79.5l37 32q27 -44 81 -71.5t126 -27.5q80 0 134.5 36.5t54.5 109.5v14q0 125 -148 125q-44 0 -72 -7l-21 43l218 222h-377v45h432v-49l-221 -219q35 4 62 2z" />
    <glyph glyph-name="four.tosf" horiz-adv-x="561" 
d="M533 98v-43h-126v-158h-46v158h-340v44l334 422h52v-423h126zM76 98h285v362z" />
    <glyph glyph-name="five.tosf" horiz-adv-x="561" 
d="M487 521v-45h-364l-13 -241q27 31 78 51t112 20q96 0 156 -47t60 -143v-16q0 -102 -69 -156.5t-172 -54.5q-153 0 -238 108l38 34q26 -46 79.5 -71.5t122.5 -25.5q83 0 137 40t54 126v10q0 153 -174 153q-110 0 -179 -75l-51 21l16 312h407z" />
    <glyph glyph-name="six.tosf" horiz-adv-x="561" 
d="M307 394q96 0 157.5 -44t61.5 -138v-13q0 -91 -61.5 -150.5t-170.5 -59.5q-113 0 -185 81t-72 210v30q0 140 66 229.5t190 88.5q69 -1 114 -19t84 -56l-33 -33q-33 33 -71 48t-96 15q-104 0 -155.5 -79t-51.5 -202v-3q33 39 91.5 67t131.5 28zM479 199v7q0 145 -178 145
q-68 0 -125 -30.5t-90 -79.5q11 -94 67.5 -150.5t142.5 -56.5t134.5 44.5t48.5 120.5z" />
    <glyph glyph-name="seven.tosf" horiz-adv-x="561" 
d="M506 521v-49l-297 -575h-53l300 579h-400v45h450z" />
    <glyph glyph-name="eight.tosf" horiz-adv-x="561" 
d="M275 629q92 0 154 -40t62 -112v-13q0 -53 -30.5 -86t-75.5 -38q55 -4 99.5 -42.5t44.5 -109.5v-17q0 -83 -70.5 -132.5t-182.5 -49.5t-181.5 48.5t-69.5 130.5v15q0 73 45 112.5t98 44.5q-39 3 -72.5 36.5t-33.5 83.5v15q0 72 60 113t153 41zM274 584q-71 0 -117 -26.5
t-46 -84.5v-9q0 -104 166 -104q81 0 123.5 24t42.5 81v10q0 58 -48.5 83.5t-120.5 25.5zM276 319q-96 0 -149 -31t-53 -106v-11q0 -67 57 -102.5t144 -35.5q90 0 147.5 35t57.5 104v12q0 76 -52.5 105.5t-151.5 29.5z" />
    <glyph glyph-name="nine.tosf" horiz-adv-x="561" 
d="M276 530q112 0 179.5 -78t67.5 -231v-42q0 -136 -64.5 -212t-184.5 -76q-73 0 -132 29.5t-90 76.5l36 33q20 -39 69 -66.5t115 -27.5q105 0 155.5 61.5t50.5 188.5v36q-32 -34 -86 -56.5t-117 -22.5q-94 0 -157.5 45.5t-63.5 130.5v12q0 93 62 146t160 53zM277 187
q64 0 117.5 25.5t80.5 64.5q-11 107 -64.5 158.5t-139.5 51.5q-75 0 -122 -40t-47 -113v-10q0 -71 49.5 -104t125.5 -33z" />
    <glyph glyph-name="zero.dnom" horiz-adv-x="408" 
d="M204 388q80 0 123.5 -52.5t43.5 -133.5v-24q0 -79 -44.5 -130.5t-123.5 -51.5q-77 0 -121.5 52t-44.5 130v24q0 81 45 133.5t122 52.5zM204 348q-59 0 -92 -39.5t-33 -107.5v-22q0 -65 32.5 -104t91.5 -39q60 0 92.5 39t32.5 104v22q0 67 -32 107t-92 40z" />
    <glyph glyph-name="one.dnom" horiz-adv-x="301" 
d="M208 383v-381h-40v327q-11 -6 -51 -27.5t-73 -39.5l-9 39q88 47 145 82h28z" />
    <glyph glyph-name="two.dnom" horiz-adv-x="383" 
d="M195 390q66 0 105.5 -27.5t39.5 -80.5q0 -44 -29 -66t-97 -44q-71 -21 -99.5 -50t-27.5 -80h258v-40h-303q-6 81 25.5 127t116.5 75q42 14 59 20t35 21.5t18 35.5q0 67 -101 67q-85 0 -118 -62l-34 27q45 77 152 77z" />
    <glyph glyph-name="three.dnom" horiz-adv-x="375" 
d="M243 223q40 -3 66.5 -27.5t26.5 -70.5v-9q0 -57 -46 -89.5t-111 -32.5q-54 0 -99.5 22.5t-65.5 56.5l32 30q15 -29 52 -48.5t82 -19.5q47 0 80 20t33 60v6q0 68 -80 68q-27 0 -56 -9l-19 39l126 122h-229v41h285v-45l-127 -116q18 5 50 2z" />
    <glyph glyph-name="four.dnom" horiz-adv-x="362" 
d="M357 127v-40h-85v-85h-39v85h-218v41l213 255h44v-256h85zM64 127h169v204z" />
    <glyph glyph-name="five.dnom" horiz-adv-x="380" 
d="M322 382v-41h-227l-10 -133q39 44 116 44q63 0 102 -28t39 -90v-11q0 -62 -44.5 -95.5t-113.5 -33.5q-104 0 -158 78l31 32q37 -69 128 -69q48 0 80.5 21t32.5 66v9q0 80 -102 80q-64 0 -109 -44l-42 22l9 193h268z" />
    <glyph glyph-name="six.dnom" horiz-adv-x="396" 
d="M212 252q61 0 103.5 -27.5t42.5 -87.5v-12q0 -57 -42.5 -94.5t-110.5 -37.5q-76 0 -122 49.5t-46 127.5v25q0 90 44 141.5t125 51.5q83 0 130 -53l-29 -29q-37 42 -103 42q-123 0 -123 -155q48 59 131 59zM315 123v9q0 79 -106 79q-36 0 -71 -16.5t-56 -46.5
q6 -53 38 -83.5t85 -30.5q50 0 80 24.5t30 64.5z" />
    <glyph glyph-name="seven.dnom" horiz-adv-x="320" 
d="M309 382l-1 -43l-184 -338h-48l186 340h-246v41h293z" />
    <glyph glyph-name="eight.dnom" horiz-adv-x="391" 
d="M196 388q60 0 99.5 -24.5t39.5 -69.5v-10q0 -31 -17.5 -51.5t-44.5 -23.5q35 -3 59 -25.5t24 -66.5v-8q0 -54 -45.5 -84.5t-116.5 -30.5q-69 0 -113.5 30t-44.5 82v7q0 44 25 68.5t59 27.5q-26 2 -44.5 22.5t-18.5 53.5v7q0 44 38.5 70t100.5 26zM195 348q-40 0 -68 -15
t-28 -44v-6q0 -57 98 -57q97 0 97 58v7q0 30 -29 43.5t-70 13.5zM196 191q-118 0 -118 -78v-4q0 -37 33 -56t84 -19t84.5 18t33.5 57v6q0 44 -31.5 60t-85.5 16z" />
    <glyph glyph-name="nine.dnom" horiz-adv-x="374" 
d="M177 388q70 0 115 -50t45 -138v-25q0 -86 -42 -133.5t-118 -47.5q-49 0 -88 20t-59 50l30 29q12 -24 43.5 -41.5t71.5 -17.5q62 0 91 36t29 110v15q-49 -49 -119 -49q-62 0 -103 29t-41 83v8q0 54 40.5 88t104.5 34zM177 187q73 0 116 50q-8 56 -39.5 84t-78.5 28
q-44 0 -72 -21.5t-28 -59.5v-8q0 -38 29 -55.5t73 -17.5z" />
    <glyph glyph-name="zero.numr" horiz-adv-x="407" 
d="M204 683q80 0 123.5 -52t43.5 -134v-23q0 -79 -44 -131t-124 -52q-77 0 -121.5 52t-44.5 130v24q0 81 45 133.5t122 52.5zM204 643q-59 0 -92 -39.5t-33 -107.5v-22q0 -65 32.5 -104t91.5 -39q60 0 92.5 39t32.5 105v22q0 67 -32 106.5t-92 39.5z" />
    <glyph glyph-name="one.numr" horiz-adv-x="301" 
d="M208 677v-381h-40v328l-124 -68l-9 40q80 43 145 81h28z" />
    <glyph glyph-name="two.numr" horiz-adv-x="383" 
d="M195 685q66 0 105.5 -27.5t39.5 -81.5q0 -44 -29 -66t-97 -44q-71 -20 -99.5 -49t-27.5 -80h258v-41h-303q-6 81 25.5 127.5t116.5 74.5q42 14 59 20t35 21.5t18 35.5q0 67 -101 67q-86 0 -118 -62l-34 27q46 78 152 78z" />
    <glyph glyph-name="three.numr" horiz-adv-x="375" 
d="M243 516q40 -2 66.5 -26.5t26.5 -70.5v-9q0 -58 -46 -90.5t-111 -32.5q-54 0 -99.5 22.5t-65.5 56.5l32 31q15 -30 51.5 -49.5t82.5 -19.5q47 0 80 20t33 61v6q0 68 -80 68q-29 0 -56 -10l-19 40l126 121h-229v41h285v-44l-127 -116q15 4 50 1z" />
    <glyph glyph-name="four.numr" horiz-adv-x="362" 
d="M357 420v-39h-85v-86h-39v86h-218v41l213 254h44v-256h85zM64 420h169v204z" />
    <glyph glyph-name="five.numr" horiz-adv-x="380" 
d="M322 676v-41h-227l-10 -133q40 43 116 43q141 0 141 -117v-12q0 -62 -44.5 -95t-113.5 -33q-105 0 -158 78l31 32q37 -69 128 -69q48 0 80.5 21t32.5 66v9q0 80 -102 80q-64 0 -109 -44l-42 22l9 193h268z" />
    <glyph glyph-name="six.numr" horiz-adv-x="396" 
d="M212 547q61 0 103.5 -27.5t42.5 -87.5v-12q0 -58 -42.5 -95t-110.5 -37q-76 0 -122 49.5t-46 127.5v25q0 90 44 141.5t125 51.5q84 0 130 -54l-29 -28q-38 42 -103 42q-123 0 -123 -155q48 59 131 59zM315 417v10q0 79 -106 79q-36 0 -71 -16.5t-56 -46.5q6 -53 38 -83.5
t85 -30.5q50 0 80 24t30 64z" />
    <glyph glyph-name="seven.numr" horiz-adv-x="320" 
d="M309 676l-1 -43l-184 -338h-48l186 340h-246v41h293z" />
    <glyph glyph-name="eight.numr" horiz-adv-x="391" 
d="M196 682q60 0 99.5 -24.5t39.5 -69.5v-10q0 -31 -17.5 -51.5t-44.5 -23.5q35 -3 59 -25.5t24 -66.5v-8q0 -54 -45.5 -84.5t-116.5 -30.5q-69 0 -113.5 30t-44.5 82v7q0 44 25 68.5t59 27.5q-25 2 -44 22.5t-19 52.5v8q0 44 38.5 70t100.5 26zM195 642q-40 0 -68 -15
t-28 -44v-6q0 -57 98 -57q97 0 97 58v7q0 30 -29 43.5t-70 13.5zM196 485q-118 0 -118 -78v-4q0 -37 33 -56t84 -19t84.5 18t33.5 57v6q0 44 -31.5 60t-85.5 16z" />
    <glyph glyph-name="nine.numr" horiz-adv-x="374" 
d="M177 682q70 0 115 -50t45 -138v-25q0 -86 -42 -133.5t-118 -47.5q-49 0 -88 20t-59 50l30 29q12 -24 43.5 -41.5t71.5 -17.5q62 0 91 36t29 110v15q-49 -49 -119 -49q-62 0 -103 29t-41 83v8q0 54 40.5 88t104.5 34zM177 481q73 0 116 50q-8 56 -39.5 84t-78.5 28
q-44 0 -72 -21.5t-28 -59.5v-8q0 -38 29 -55.5t73 -17.5z" />
    <glyph glyph-name="one.dnom.ss03" horiz-adv-x="323" 
d="M204 38h101v-38h-252v38h112v295q-5 -3 -49.5 -27.5t-76.5 -42.5l-9 36q88 49 146 84h28v-345z" />
    <glyph glyph-name="one.numr.ss03" horiz-adv-x="390" 
d="M209 332h101v-38h-252v38h111v295q-31 -18 -126 -69l-8 36q90 49 145 83h29v-345z" />
    <glyph glyph-name="one.sups.ss03" horiz-adv-x="323" 
d="M204 446h101v-38h-252v38h112v295q-23 -14 -126 -70l-9 36q88 49 146 84h28v-345z" />
    <glyph glyph-name="zero.sups" horiz-adv-x="407" 
d="M204 795q80 0 123.5 -52.5t43.5 -133.5v-23q0 -79 -44 -131t-124 -52q-77 0 -121.5 52t-44.5 130v24q0 81 45 133.5t122 52.5zM204 755q-59 0 -92 -39.5t-33 -107.5v-22q0 -65 32.5 -104t91.5 -39q60 0 92.5 39t32.5 105v22q0 67 -32 106.5t-92 39.5z" />
    <glyph glyph-name="one.sups" horiz-adv-x="301" 
d="M208 791v-381h-40v327q-36 -20 -124 -67l-9 39q88 47 145 82h28z" />
    <glyph glyph-name="two.sups" horiz-adv-x="383" 
d="M195 798q66 0 105.5 -27.5t39.5 -80.5q0 -44 -29 -66.5t-97 -43.5q-71 -21 -99.5 -50t-27.5 -80h258v-40h-303q-6 81 25.5 127t116.5 75q41 13 58.5 19.5t35.5 21.5t18 36q0 67 -101 67q-85 0 -118 -63l-34 27q45 78 152 78z" />
    <glyph glyph-name="three.sups" horiz-adv-x="375" 
d="M243 631q40 -2 66.5 -26.5t26.5 -70.5v-9q0 -57 -46 -90t-111 -33q-53 0 -99 23t-66 56l32 31q15 -29 52 -49t82 -20q47 0 80 20t33 61v6q0 68 -80 68q-29 0 -56 -10l-19 40l126 121h-229v41h285v-44l-127 -116q15 4 50 1z" />
    <glyph glyph-name="four.sups" horiz-adv-x="362" 
d="M357 534v-40h-85v-85h-39v85h-218v42l213 254h44v-256h85zM64 534h169v204z" />
    <glyph glyph-name="five.sups" horiz-adv-x="380" 
d="M322 790v-41h-227l-10 -133q40 43 116 43q141 0 141 -117v-12q0 -62 -44.5 -95.5t-113.5 -33.5q-104 0 -158 79l31 32q37 -69 128 -69q48 0 80.5 21t32.5 66v8q0 81 -102 81q-64 0 -109 -44l-42 22l9 193h268z" />
    <glyph glyph-name="six.sups" horiz-adv-x="396" 
d="M212 661q61 0 103.5 -27.5t42.5 -87.5v-12q0 -58 -42.5 -95t-110.5 -37q-76 0 -122 49.5t-46 126.5v26q0 90 44 141.5t125 51.5q84 0 130 -54l-29 -29q-37 43 -103 43q-123 0 -123 -155q48 59 131 59zM315 531v10q0 79 -106 79q-36 0 -71 -16.5t-56 -46.5q6 -53 38 -83.5
t85 -30.5q50 0 80 24t30 64z" />
    <glyph glyph-name="seven.sups" horiz-adv-x="320" 
d="M309 791l-1 -43l-184 -338h-48l186 340h-246v41h293z" />
    <glyph glyph-name="eight.sups" horiz-adv-x="391" 
d="M196 795q60 0 99.5 -24.5t39.5 -69.5v-9q0 -32 -17.5 -52.5t-44.5 -22.5q35 -3 59 -26t24 -66v-8q0 -55 -45.5 -85.5t-116.5 -30.5q-68 0 -113 30t-45 82v7q0 45 25 69.5t59 27.5q-25 2 -44 22.5t-19 52.5v8q0 44 38.5 69.5t100.5 25.5zM195 756q-40 0 -68 -15t-28 -44
v-6q0 -57 98 -57q97 0 97 58v7q0 29 -29 43t-70 14zM196 599q-118 0 -118 -78v-5q0 -37 33 -55.5t84 -18.5t84.5 18t33.5 57v6q0 44 -31.5 60t-85.5 16z" />
    <glyph glyph-name="nine.sups" horiz-adv-x="374" 
d="M177 795q70 0 115 -50t45 -138v-24q0 -86 -42 -134t-118 -48q-49 0 -88 20.5t-59 50.5l30 29q12 -25 43 -42t72 -17q62 0 91 35.5t29 110.5v14q-50 -48 -119 -48q-62 0 -103 28.5t-41 82.5v9q0 54 40 87.5t105 33.5zM177 594q72 0 116 51q-8 55 -39.5 83t-78.5 28
q-44 0 -72 -21t-28 -60v-8q0 -37 29 -55t73 -18z" />
    <glyph glyph-name="uni21692169" horiz-adv-x="1330" 
d="M1257 41h76v-41h-238v41h106l-202 281l-204 -281h113v-41h-478v41h106l-202 281l-204 -281h113v-41h-246v41h75l227 308l-211 285h-90v41h255v-41h-107l189 -259l190 259h-110v41h503v-41h-107l189 -259l190 259h-110v41h252v-41h-85l-212 -285zM737 41l227 308l-211 285
h-171l-212 -285l222 -308h145z" />
    <glyph glyph-name="uni216921692169" horiz-adv-x="1994" 
d="M1922 41h76v-41h-238v41h106l-202 281l-204 -281h113v-41h-478v41h106l-202 281l-204 -281h113v-41h-478v41h106l-202 281l-204 -281h113v-41h-246v41h75l227 308l-211 285h-90v41h255v-41h-107l189 -259l190 259h-110v41h503v-41h-107l189 -259l190 259h-110v41h503v-41
h-107l189 -259l190 259h-110v41h252v-41h-85l-212 -285zM737 41l227 308l-211 285h-171l-212 -285l222 -308h145zM1402 41l227 308l-211 285h-171l-212 -285l222 -308h145z" />
    <glyph glyph-name="uni2169216C" horiz-adv-x="1276" 
d="M1168 188h47v-188h-785v41h106l-202 281l-204 -281h113v-41h-246v41h75l227 308l-211 285h-90v41h255v-41h-107l189 -259l190 259h-110v41h514v-41h-110v-591h349v145zM769 41v593h-187l-212 -285l222 -308h177z" />
    <glyph glyph-name="uni2169216D" horiz-adv-x="1327" 
d="M1254 167l44 -31q-85 -144 -274 -144q-144 0 -232.5 89.5t-88.5 238.5v28q0 151 83.5 243.5t230.5 92.5q96 0 160.5 -31t108.5 -94l-41 -30q-39 62 -94 85t-135 23q-121 0 -190.5 -80t-69.5 -211v-26q0 -127 74 -203.5t195 -76.5q79 0 139 33t90 94zM370 349l222 -308h76
v-41h-238v41h106l-202 281l-204 -281h113v-41h-246v41h75l227 308l-211 285h-90v41h255v-41h-107l189 -259l190 259h-110v41h252v-41h-85z" />
    <glyph glyph-name="uni216C2169" horiz-adv-x="1276" 
d="M503 43v145h47v-188h-551v41h105v593h-107v41h267v-41h-110v-591h349zM1203 41h76v-41h-238v41h106l-202 281l-204 -281h113v-41h-246v41h75l227 308l-211 285h-90v41h255v-41h-107l189 -259l190 259h-110v41h252v-41h-85l-212 -285z" />
    <glyph glyph-name="uni216C21692169" horiz-adv-x="1941" 
d="M503 43v145h47v-188h-551v41h105v593h-107v41h267v-41h-110v-591h349zM1868 41h76v-41h-238v41h106l-202 281l-204 -281h113v-41h-478v41h106l-202 281l-204 -281h113v-41h-246v41h75l227 308l-211 285h-90v41h255v-41h-107l189 -259l190 259h-110v41h503v-41h-107
l189 -259l190 259h-110v41h252v-41h-85l-212 -285zM1348 41l227 308l-211 285h-171l-212 -285l222 -308h145z" />
    <glyph glyph-name="uni216C216921692169" horiz-adv-x="2606" 
d="M503 43v145h47v-188h-551v41h105v593h-107v41h267v-41h-110v-591h349zM2533 41h76v-41h-238v41h106l-202 281l-204 -281h113v-41h-478v41h106l-202 281l-204 -281h113v-41h-478v41h106l-202 281l-204 -281h113v-41h-246v41h75l227 308l-211 285h-90v41h255v-41h-107
l189 -259l190 259h-110v41h503v-41h-107l189 -259l190 259h-110v41h503v-41h-107l189 -259l190 259h-110v41h252v-41h-85l-212 -285zM1348 41l227 308l-211 285h-171l-212 -285l222 -308h145zM2013 41l227 308l-211 285h-171l-212 -285l222 -308h145z" />
    <glyph glyph-name="uni216D216D" horiz-adv-x="1302" 
d="M352 684q96 0 160.5 -31t108.5 -94l-41 -30q-39 62 -94 85t-135 23q-121 0 -190.5 -80t-69.5 -211v-26q0 -127 74 -203.5t195 -76.5q79 0 139 33t90 94l44 -31q-85 -144 -274 -144q-144 0 -232.5 89.5t-88.5 238.5v28q0 151 83.5 243.5t230.5 92.5zM991 684
q96 0 160.5 -31t108.5 -94l-41 -30q-39 62 -94 85t-135 23q-121 0 -190.5 -80t-69.5 -211v-26q0 -127 74 -203.5t195 -76.5q79 0 139 33t90 94l44 -31q-85 -144 -274 -144q-144 0 -232.5 89.5t-88.5 238.5v28q0 151 83.5 243.5t230.5 92.5z" />
    <glyph glyph-name="uni216D216D216D" horiz-adv-x="1941" 
d="M352 684q96 0 160.5 -31t108.5 -94l-41 -30q-39 62 -94 85t-135 23q-121 0 -190.5 -80t-69.5 -211v-26q0 -127 74 -203.5t195 -76.5q79 0 139 33t90 94l44 -31q-85 -144 -274 -144q-144 0 -232.5 89.5t-88.5 238.5v28q0 151 83.5 243.5t230.5 92.5zM991 684
q96 0 160.5 -31t108.5 -94l-41 -30q-39 62 -94 85t-135 23q-121 0 -190.5 -80t-69.5 -211v-26q0 -127 74 -203.5t195 -76.5q79 0 139 33t90 94l44 -31q-85 -144 -274 -144q-144 0 -232.5 89.5t-88.5 238.5v28q0 151 83.5 243.5t230.5 92.5zM1631 684q96 0 160.5 -31
t108.5 -94l-41 -30q-39 62 -94 85t-135 23q-121 0 -190.5 -80t-69.5 -211v-26q0 -127 74 -203.5t195 -76.5q79 0 139 33t90 94l44 -31q-85 -144 -274 -144q-144 0 -232.5 89.5t-88.5 238.5v28q0 151 83.5 243.5t230.5 92.5z" />
    <glyph glyph-name="uni216D216E" horiz-adv-x="1388" 
d="M360 40q79 0 139 33t90 94l44 -31q-85 -144 -274 -144q-144 0 -232.5 89.5t-88.5 238.5v28q0 151 83.5 243.5t230.5 92.5q96 0 160.5 -31t108.5 -94l-41 -30q-39 62 -94 85t-135 23q-121 0 -190.5 -80t-69.5 -211v-26q0 -127 74 -203.5t195 -76.5zM1004 675
q155 0 245.5 -86.5t90.5 -236.5v-36q0 -149 -87 -232.5t-239 -83.5h-355v41h106v593h-106v41h345zM1289 319v29q0 135 -76 209t-211 74h-186v-587h194q133 0 206 71t73 204z" />
    <glyph glyph-name="uni216D216F" horiz-adv-x="1544" 
d="M360 40q79 0 139 33t90 94l44 -31q-85 -144 -274 -144q-144 0 -232.5 89.5t-88.5 238.5v28q0 151 83.5 243.5t230.5 92.5q96 0 160.5 -31t108.5 -94l-41 -30q-39 62 -94 85t-135 23q-121 0 -190.5 -80t-69.5 -211v-26q0 -127 74 -203.5t195 -76.5zM1547 634h-99v-593h98
v-41h-239v41h94v578l-283 -458h-29l-283 458v-578h96v-41h-243v41h100v593h-99v41h164l280 -456l280 456h163v-41z" />
    <glyph glyph-name="uni216E216D" horiz-adv-x="1388" 
d="M1315 167l44 -31q-85 -144 -274 -144q-144 0 -232.5 89.5t-88.5 238.5v28q0 151 83.5 243.5t230.5 92.5q96 0 160.5 -31t108.5 -94l-41 -30q-39 62 -94 85t-135 23q-121 0 -190.5 -80t-69.5 -211v-26q0 -127 74 -203.5t195 -76.5q79 0 139 33t90 94zM342 675
q155 0 245.5 -86.5t90.5 -236.5v-36q0 -149 -87 -232.5t-239 -83.5h-355v41h106v593h-106v41h345zM627 319v29q0 135 -76 209t-211 74h-186v-587h194q133 0 206 71t73 204z" />
    <glyph glyph-name="uni216E216D216D" horiz-adv-x="2028" 
d="M1086 40q79 0 139 33t90 94l44 -31q-85 -144 -274 -144q-144 0 -232.5 89.5t-88.5 238.5v28q0 151 83.5 243.5t230.5 92.5q96 0 160.5 -31t108.5 -94l-41 -30q-39 62 -94 85t-135 23q-121 0 -190.5 -80t-69.5 -211v-26q0 -127 74 -203.5t195 -76.5zM1954 167l44 -31
q-85 -144 -274 -144q-144 0 -232.5 89.5t-88.5 238.5v28q0 151 83.5 243.5t230.5 92.5q96 0 160.5 -31t108.5 -94l-41 -30q-39 62 -94 85t-135 23q-121 0 -190.5 -80t-69.5 -211v-26q0 -127 74 -203.5t195 -76.5q79 0 139 33t90 94zM342 675q155 0 245.5 -86.5t90.5 -236.5
v-36q0 -149 -87 -232.5t-239 -83.5h-355v41h106v593h-106v41h345zM627 319v29q0 135 -76 209t-211 74h-186v-587h194q133 0 206 71t73 204z" />
    <glyph glyph-name="uni216E216D216D216D" horiz-adv-x="2667" 
d="M1086 40q79 0 139 33t90 94l44 -31q-85 -144 -274 -144q-144 0 -232.5 89.5t-88.5 238.5v28q0 151 83.5 243.5t230.5 92.5q96 0 160.5 -31t108.5 -94l-41 -30q-39 62 -94 85t-135 23q-121 0 -190.5 -80t-69.5 -211v-26q0 -127 74 -203.5t195 -76.5zM1725 40q79 0 139 33
t90 94l44 -31q-85 -144 -274 -144q-144 0 -232.5 89.5t-88.5 238.5v28q0 151 83.5 243.5t230.5 92.5q96 0 160.5 -31t108.5 -94l-41 -30q-39 62 -94 85t-135 23q-121 0 -190.5 -80t-69.5 -211v-26q0 -127 74 -203.5t195 -76.5zM2594 167l44 -31q-85 -144 -274 -144
q-144 0 -232.5 89.5t-88.5 238.5v28q0 151 83.5 243.5t230.5 92.5q96 0 160.5 -31t108.5 -94l-41 -30q-39 62 -94 85t-135 23q-121 0 -190.5 -80t-69.5 -211v-26q0 -127 74 -203.5t195 -76.5q79 0 139 33t90 94zM342 675q155 0 245.5 -86.5t90.5 -236.5v-36
q0 -149 -87 -232.5t-239 -83.5h-355v41h106v593h-106v41h345zM627 319v29q0 135 -76 209t-211 74h-186v-587h194q133 0 206 71t73 204z" />
    <glyph glyph-name="uni216F216F" horiz-adv-x="1764" 
d="M1767 634h-99v-593h98v-41h-239v41h94v578l-283 -458h-29l-283 458v-578h96v-41h-477v41h94v578l-283 -458h-29l-283 458v-578h96v-41h-243v41h100v593h-99v41h164l280 -456l280 456h322l280 -456l280 456h163v-41zM979 41v593h-193v-593h193z" />
    <glyph glyph-name="uni216F216F216F" horiz-adv-x="2643" 
d="M2646 634h-99v-593h98v-41h-239v41h94v578l-282 -458h-30l-282 458v-578h96v-41h-477v41h94v578l-282 -458h-30l-282 458v-578h96v-41h-477v41h94v578l-282 -458h-30l-282 459v-579h96v-41h-243v41h99v593h-98v41h164l279 -456l280 456h322l279 -455l280 455h322
l279 -455l280 455h163v-41zM977 41v593h-93h-99v-593h192zM1858 41v593h-192v-593h192z" />
    <glyph glyph-name="exclam.c2sc" horiz-adv-x="292" 
d="M176 543l-13 -380h-32l-13 380h58zM181 69v-69h-68v69h68z" />
    <glyph glyph-name="exclamdown.c2sc" horiz-adv-x="231" 
d="M49 475v68h68v-68h-68zM55 0l12 380h33l12 -380h-57z" />
    <glyph glyph-name="uni203D.c2sc" horiz-adv-x="506" 
d="M204 162l-181 336l47 25l156 -323q11 56 74 90q9 6 28 17t27.5 16t22 15.5t19 19.5t10.5 23t5 30q0 43 -40 69t-96 26q-83 0 -120 -43l-21 45q52 42 140 42q79 0 132.5 -37t53.5 -101q0 -28 -7.5 -49.5t-27.5 -40t-32.5 -26.5t-45.5 -27q-7 -4 -10 -6q-70 -41 -83 -101
h-51zM192 0v69h68v-69h-68z" />
    <glyph glyph-name="question.c2sc" horiz-adv-x="475" 
d="M240 552q83 0 136.5 -36t53.5 -100q0 -49 -25.5 -79t-75.5 -57q-48 -32 -63.5 -58.5t-11.5 -59.5h-48q-21 76 80 141q53 32 73.5 53t20.5 58q0 45 -40.5 69.5t-101.5 24.5q-59 0 -100 -26t-53 -65l-43 25q19 43 68.5 76.5t129.5 33.5zM263 69v-69h-68v69h68z" />
    <glyph glyph-name="questiondown.c2sc" horiz-adv-x="440" 
d="M192 475v69h68v-69h-68zM216 -8q-83 0 -137 36t-54 100q0 49 25.5 79t75.5 57q49 32 64.5 58.5t10.5 59.5h49q20 -77 -81 -141q-53 -32 -73 -53t-20 -58q0 -45 40 -69.5t102 -24.5q59 0 99.5 26t53.5 65l43 -26q-20 -42 -69 -75.5t-129 -33.5z" />
    <glyph glyph-name="slash.c2sc" horiz-adv-x="433" 
d="M395 601l-308 -691h-50l309 691h49z" />
    <glyph glyph-name="periodcentered.loclCAT.case" horiz-adv-x="10" 
d="M-129 386v-70h-69v70h69z" />
    <glyph glyph-name="periodcentered.loclCAT" horiz-adv-x="66" 
d="M4 391h58v-63h-58v63z" />
    <glyph glyph-name="braceleft.c2sc" horiz-adv-x="289" 
d="M252 557l7 -34q-88 -2 -88 -70q-1 -19 5 -54t6 -57q0 -26 -17 -47.5t-47 -25.5q31 -1 47.5 -24t16.5 -56q0 -17 -5 -48.5t-5 -53.5q0 -61 86 -66l-10 -35q-55 3 -87 28.5t-32 68.5q0 22 4.5 54t4.5 49q0 72 -86 69v32q44 -1 65.5 17t21.5 47q0 16 -5.5 50t-5.5 55
q0 46 33 72.5t91 28.5z" />
    <glyph glyph-name="braceright.c2sc" horiz-adv-x="266" 
d="M37 557q58 -2 91 -28.5t33 -72.5q0 -21 -5.5 -55t-5.5 -50q0 -29 21.5 -47t65.5 -17v-32q-86 3 -86 -69q0 -17 4.5 -49t4.5 -54q0 -44 -32 -69t-88 -28l-9 35q86 5 86 66q0 22 -5 53.5t-5 48.5q0 33 16 56t47 24q-30 4 -46.5 25.5t-16.5 47.5q0 22 6 57t5 54q0 68 -89 70
z" />
    <glyph glyph-name="bracketleft.c2sc" horiz-adv-x="283" 
d="M246 543v-37h-127v-470h127v-37h-168v544h168z" />
    <glyph glyph-name="bracketright.c2sc" horiz-adv-x="283" 
d="M36 543h169v-544h-169v37h128v470h-128v37z" />
    <glyph glyph-name="parenleft.c2sc" horiz-adv-x="296" 
d="M244 558l23 -31q-73 -41 -109.5 -106.5t-36.5 -144.5v-14q0 -153 141 -243l-25 -32q-159 98 -159 274v18q0 89 42.5 161.5t123.5 117.5z" />
    <glyph glyph-name="parenright.c2sc" horiz-adv-x="296" 
d="M52 558q81 -45 123.5 -117.5t42.5 -161.5v-18q0 -176 -159 -274l-25 32q141 90 141 243v14q0 78 -36.5 143.5t-109.5 107.5z" />
    <glyph glyph-name="quoteleft.c2sc" horiz-adv-x="186" 
d="M38 293q11 163 65 270l40 -13q-49 -105 -56 -257h-49z" />
    <glyph glyph-name="quoteright.c2sc" horiz-adv-x="186" 
d="M143 544q-11 -166 -65 -270l-40 13q51 109 56 257h49z" />
    <glyph glyph-name="periodcentered.loclCAT.case.sc" horiz-adv-x="173" 
d="M-113 328v-70h-69v70h69z" />
    <glyph glyph-name="periodcentered.loclCAT.sc" horiz-adv-x="1" 
d="M-113 328v-70h-69v70h69z" />
    <glyph glyph-name="cent.c2sc" horiz-adv-x="430" 
d="M406 159q-56 -82 -149 -91v-68h-46v67q-79 7 -124.5 58.5t-45.5 133.5v25q0 81 46.5 136t126.5 62v71h46v-72q92 -9 142 -82l-36 -25q-38 68 -136 68q-66 0 -105.5 -45t-39.5 -115v-21q0 -72 39.5 -113t108.5 -41q50 0 86 22t51 56z" />
    <glyph glyph-name="currency.c2sc" horiz-adv-x="551" 
d="M460 266q0 -60 -33 -105l87 -83l-30 -31l-85 81q-50 -45 -122 -45q-74 0 -125 45l-83 -81l-32 31l86 83q-33 47 -33 106v16q0 64 34 112l-87 82l32 30l84 -80q51 43 124 43q72 0 121 -43l85 80l31 -30l-87 -83q33 -49 33 -111v-17zM277 125q62 0 100 40.5t38 103.5v12
q0 68 -37.5 107.5t-101.5 39.5t-101.5 -40t-37.5 -108v-10q0 -64 38 -104.5t102 -40.5z" />
    <glyph glyph-name="dollar.c2sc" horiz-adv-x="528" 
d="M482 163q0 -76 -51 -121.5t-138 -50.5v-94h-51v94q-132 10 -206 96l35 39q30 -43 82 -66t116 -23q77 0 121.5 31t44.5 89q0 22 -9 38t-19.5 25.5t-37 17.5t-43.5 11.5t-55 10.5q-112 22 -145 36q-67 30 -67 100q0 65 49 108t135 49v87l51 9v-97q105 -8 166 -64l-32 -38
q-51 57 -167 57q-72 0 -112 -29.5t-40 -77.5q0 -31 23.5 -50.5t47.5 -25.5t77 -15q11 -2 17 -3q47 -9 70 -14t55 -16.5t46.5 -24.5t25.5 -35.5t11 -52.5z" />
    <glyph glyph-name="Euro.c2sc" horiz-adv-x="558" 
d="M489 111l38 -32q-75 -86 -200 -86q-106 0 -173 55t-84 151h-58v41h54q0 3 -0.5 8.5t-0.5 8.5v23q0 11 2 35h-55v41h61q18 92 83 143.5t167 51.5q134 0 203 -81l-36 -30q-51 65 -169 65q-76 0 -126 -39.5t-68 -109.5h273l-8 -41h-272q-1 -12 -1 -35v-21v-19h259l-8 -41
h-246q15 -75 67 -117.5t137 -42.5q108 0 161 72z" />
    <glyph glyph-name="florin.c2sc" horiz-adv-x="435" 
d="M315 517q-66 0 -87 -105l-28 -141h136l-8 -40h-136l-56 -283q-16 -79 -47.5 -116.5t-86.5 -37.5q-53 0 -92 34l24 41q28 -33 70 -33q65 0 88 110l56 285h-110v40h117l28 142q15 72 47.5 108.5t89.5 36.5q54 0 97 -29l-23 -38q-30 26 -79 26z" />
    <glyph glyph-name="dollar.light.c2sc" horiz-adv-x="528" 
d="M482 163q0 -76 -51 -121.5t-138 -50.5v-94h-51v94q-132 10 -206 96l35 39q30 -43 82 -66t116 -23q77 0 121.5 31t44.5 89q0 22 -9 38t-19.5 25.5t-37 17.5t-43.5 11.5t-55 10.5q-112 22 -145 36q-67 30 -67 100q0 65 49 108t135 49v87l51 9v-97q105 -8 166 -64l-32 -38
q-51 57 -167 57q-72 0 -112 -29.5t-40 -77.5q0 -31 23.5 -50.5t47.5 -25.5t77 -15q11 -2 17 -3q47 -9 70 -14t55 -16.5t46.5 -24.5t25.5 -35.5t11 -52.5z" />
    <glyph glyph-name="sterling.c2sc" horiz-adv-x="499" 
d="M77 41h377v-41h-431v47q51 29 85 73t34 98q0 18 -3 31h-99v38h85q-4 9 -12.5 25.5t-13.5 27t-9 27.5t-4 35q0 71 49.5 110.5t127.5 39.5q62 0 102 -17.5t73 -53.5l-32 -29q-47 59 -141 59q-57 0 -95.5 -27.5t-38.5 -82.5q0 -22 6 -40.5t18.5 -41.5t16.5 -32h215v-38h-203
q2 -18 2 -28q0 -60 -30 -107t-79 -73z" />
    <glyph glyph-name="yen.c2sc" horiz-adv-x="547" 
d="M530 543l-135 -204h108v-41h-135l-65 -100h200v-41h-203v-157h-49v157h-202v41h199l-67 100h-132v41h105l-137 204h60l198 -303l196 303h59z" />
    <glyph glyph-name="ampersand.sc" horiz-adv-x="615" 
d="M595 0h-59l-54 62q-75 -72 -198 -72q-105 0 -168.5 49t-63.5 130v17q0 72 43 119t118 63l-112 128l15 48h385v-45h-342l323 -370q41 59 41 143q0 47 -9 83h53q4 -34 4 -61q0 -120 -59 -199zM285 34q102 0 168 61l-211 240q-64 -12 -101.5 -50t-37.5 -98v-13
q0 -67 49 -103.5t133 -36.5z" />
    <glyph glyph-name="copyright.sc" horiz-adv-x="633" 
d="M316 552q126 0 201 -77.5t75 -188.5v-31q0 -111 -75.5 -188.5t-201.5 -77.5q-124 0 -199 78t-75 186v30q0 113 75.5 191t199.5 78zM316 514q-107 0 -171 -65.5t-64 -169.5v-22q0 -101 64 -165.5t170 -64.5q107 0 171.5 64.5t64.5 168.5v21q0 102 -64.5 167.5t-170.5 65.5
zM314 432q78 0 120 -61l-26 -22q-33 48 -96 48q-44 0 -70 -33t-26 -83v-16q0 -51 29 -82t75 -31q63 0 95 53l26 -21q-41 -67 -121 -67q-62 0 -101.5 40.5t-39.5 104.5v20q0 66 36.5 108t98.5 42z" />
    <glyph glyph-name="registered.sc" horiz-adv-x="633" 
d="M316 552q126 0 201 -77.5t75 -188.5v-31q0 -111 -75.5 -188.5t-201.5 -77.5q-124 0 -199 78t-75 186v30q0 113 75.5 191t199.5 78zM551 260v21q0 102 -64.5 167.5t-170.5 65.5q-107 0 -171 -65.5t-64 -169.5v-22q0 -101 64 -165.5t170 -64.5q107 0 171.5 64.5t64.5 168.5
zM441 331q0 -32 -20 -55t-56 -29l84 -121h-44l-77 118h-83v-118h-36v302h130q50 0 76 -23.5t26 -63.5v-10zM245 394v-116h95q63 0 63 54v7q0 55 -61 55h-97z" />
    <glyph glyph-name="uni2116.sc" horiz-adv-x="1073" 
d="M845 551q80 0 130 -49t50 -128v-29q0 -76 -50.5 -125.5t-130.5 -49.5t-131 49.5t-51 125.5v29q0 81 50.5 129t132.5 48zM503 69v474h47v-543h-51l-368 480v-480h-47v543h54zM978 348v24q0 64 -35.5 101t-98.5 37q-64 0 -99.5 -37t-35.5 -102v-24q0 -61 36.5 -99t98.5 -38
q63 0 98.5 38t35.5 100zM819 0v63h64v-63h-64z" />
    <glyph glyph-name="caroncomb.alt" 
d="M-33 722l-44 -194h-36l29 194h51z" />
    <glyph glyph-name="acutecomb.case" 
d="M-33 874l-163 -137h-51l143 137h71z" />
    <glyph glyph-name="uni0306.case" 
d="M-39 862q-14 -52 -53.5 -87t-95.5 -35q-57 0 -96.5 34.5t-53.5 87.5h55q21 -84 94 -84q36 0 60.5 24t33.5 60h56z" />
    <glyph glyph-name="uni030C.case" 
d="M-101 874h62l-138 -136h-50l-139 136h62l102 -107z" />
    <glyph glyph-name="uni0327.case" 
d="M-154 14l-16 -84q18 4 47 0q37 -3 60.5 -24.5t23.5 -61.5q0 -48 -36.5 -75t-93.5 -27q-37 0 -73.5 11.5t-54.5 27.5l21 43q34 -41 107 -41q86 0 86 60q0 52 -63 54q-21 1 -41 -4l-26 24l14 97h45z" />
    <glyph glyph-name="uni0302.case" 
d="M-33 737h-60l-105 107l-106 -107h-61l142 138h51z" />
    <glyph glyph-name="uni0326.case" 
d="M-48 -64l-108 -173h-43l96 173h55z" />
    <glyph glyph-name="uni0308.case" 
d="M-321 825v-68h-66v68h66zM-78 825v-68h-67v68h67z" />
    <glyph glyph-name="uni0307.case" 
d="M-144 825h66v-68h-66v68z" />
    <glyph glyph-name="gravecomb.case" 
d="M-161 874l128 -137h-51l-149 137h72z" />
    <glyph glyph-name="uni030B.case" 
d="M-170 881l-119 -144h-45l102 144h62zM-33 881l-126 -144h-45l110 144h61z" />
    <glyph glyph-name="uni0304.case" 
d="M-78 804v-43h-293v43h293z" />
    <glyph glyph-name="uni0328.case" 
d="M-77 18l30 -18q-105 -43 -105 -118q0 -52 47 -52q36 0 54 28l18 -41q-25 -29 -77 -29q-40 0 -65 24t-25 67q1 44 33 80.5t90 58.5z" />
    <glyph glyph-name="uni030A.case" 
d="M-180 922q44 0 73 -26.5t29 -69.5q0 -44 -29 -71t-73 -27t-73 27t-29 71q0 43 29 69.5t73 26.5zM-180 883q-28 0 -43.5 -15.5t-15.5 -42.5t15.5 -42.5t43.5 -15.5q27 0 42 15.5t15 42.5t-15 42.5t-42 15.5z" />
    <glyph glyph-name="tildecomb.case" 
d="M-78 831v-52q-23 -25 -77 -25q-22 0 -68.5 15.5t-70.5 15.5q-52 0 -78 -40v52q21 32 78 32q29 0 73.5 -15.5t66.5 -15.5q50 0 76 33z" />
    <glyph glyph-name="uni0308.i" 
d="M-246 644v-65h-64v65h64zM-84 644v-65h-63v65h63z" />
    <glyph glyph-name="uni0307.narrow" 
d="M-140 675h62v-69h-62v69z" />
    <glyph glyph-name="soundrecordingcopyright" horiz-adv-x="777" 
d="M388 687q154 0 248 -97.5t94 -233.5v-38q0 -87 -39.5 -161t-119 -121t-183.5 -47q-78 0 -143.5 27.5t-108.5 73.5t-66.5 104.5t-23.5 122.5v38q0 136 95 234t247 98zM684 324v27q0 127 -80.5 209.5t-215.5 82.5q-132 0 -214 -83t-82 -210v-28q0 -125 81.5 -207t214.5 -82
q134 0 215 81.5t81 209.5zM433 532q61 0 96 -31.5t35 -80.5v-18q0 -50 -34.5 -79t-95.5 -29h-127v-134h-43v372h169zM521 402v15q0 37 -22.5 56t-62.5 19h-129v-158h127q87 0 87 68z" />
    <glyph glyph-name="Nothingroman" horiz-adv-x="7" 
 />
    <glyph glyph-name="soundrecordingcopyright.sc" horiz-adv-x="633" 
d="M316 552q126 0 201 -77.5t75 -188.5v-31q0 -111 -75.5 -188.5t-201.5 -77.5q-124 0 -199 78t-75 186v30q0 113 75.5 191t199.5 78zM551 260v21q0 102 -64.5 167.5t-170.5 65.5q-107 0 -171 -65.5t-64 -169.5v-22q0 -101 64 -165.5t170 -64.5q107 0 171.5 64.5t64.5 168.5
zM347 428q50 0 78 -25.5t28 -65.5v-13q0 -40 -27 -65.5t-76 -25.5h-103v-107h-37v302h137zM416 324v10q0 29 -18 44t-48 15h-103v-127h103q66 0 66 58z" />
    </font>
</defs>
</svg>
