<?xml version="1.0" standalone="no"?>
<!DOCTYPE svg PUBLIC "-//W3C//DTD SVG 1.1//EN" "http://www.w3.org/Graphics/SVG/1.1/DTD/svg11.dtd" >
<svg xmlns="http://www.w3.org/2000/svg" xmlns:xlink="http://www.w3.org/1999/xlink" version="1.1">
<metadata>
Created by FontForge 20170731 at Tue May 26 19:55:47 2015
 By Aleksey,,,
Copyright (c) 2015 by Typejockeys. All rights reserved.
</metadata>
<defs>
<font id="Vito-Bold" horiz-adv-x="0" >
  <font-face 
    font-family="Vito"
    font-weight="700"
    font-stretch="normal"
    units-per-em="1000"
    panose-1="0 0 8 0 0 0 0 0 0 0"
    ascent="750"
    descent="-250"
    x-height="482"
    cap-height="675"
    bbox="-462 -266 2811 959"
    underline-thickness="50"
    underline-position="-200"
    unicode-range="U+0020-F8FF"
  />
<missing-glyph horiz-adv-x="455" 
d="M373 719v-910h-288v910h288zM303 658h-150v-30h59v-34h-60v-30h151v30h-60v34h60v30zM243 541h-91v-95h151v31h-60v64zM212 510v-33h-30v33h30zM303 421h-151v-30h60v-33h-60v-30h91v63h60v30zM303 367h-30v-60h-121v-31h151v91zM303 256h-91v-51h31v21h30v-43h-91v73
h-30v-103h151v103zM303 98h-151v-102h151v102zM273 68v-42h-91v42h91zM303 -25h-151v-30h64l-64 -43v-30h151v30h-93l64 43h29v30z" />
    <glyph glyph-name="arrowleft" unicode="&#x3c;&#x2d;" horiz-adv-x="762" 
d="M722 346v-113h-480l117 -114l-74 -72l-243 243l243 243l74 -71l-119 -116h482z" />
    <glyph glyph-name="arrowright" unicode="&#x2d;&#x3e;" horiz-adv-x="753" 
d="M484 533l242 -243l-242 -243l-74 72l117 114h-479v113h480l-118 116z" />
    <glyph glyph-name="arrowboth" unicode="&#x3c;&#x2d;&#x3e;" horiz-adv-x="795" 
d="M526 539l241 -243l-241 -243l-74 71l118 115h-345l117 -115l-73 -71l-241 243l241 243l73 -72l-119 -116h348l-119 116z" />
    <glyph glyph-name=".notdef" horiz-adv-x="455" 
d="M373 719v-910h-288v910h288zM303 658h-150v-30h59v-34h-60v-30h151v30h-60v34h60v30zM243 541h-91v-95h151v31h-60v64zM212 510v-33h-30v33h30zM303 421h-151v-30h60v-33h-60v-30h91v63h60v30zM303 367h-30v-60h-121v-31h151v91zM303 256h-91v-51h31v21h30v-43h-91v73
h-30v-103h151v103zM303 98h-151v-102h151v102zM273 68v-42h-91v42h91zM303 -25h-151v-30h64l-64 -43v-30h151v30h-93l64 43h29v30z" />
    <glyph glyph-name=".null" 
 />
    <glyph glyph-name="nonmarkingreturn" horiz-adv-x="333" 
 />
    <glyph glyph-name="space" unicode=" " horiz-adv-x="222" 
 />
    <glyph glyph-name="exclam" unicode="!" horiz-adv-x="322" 
d="M67 675h188l-54 -435h-80zM83 157h156v-157h-156v157z" />
    <glyph glyph-name="quotedbl" unicode="&#x22;" horiz-adv-x="439" 
d="M191 675l-25 -319h-112l-17 319h154zM395 675l-25 -319h-112l-17 319h154z" />
    <glyph glyph-name="numbersign" unicode="#" horiz-adv-x="705" 
d="M662 404h-99l-33 -133h105l-28 -110h-104l-39 -161h-128l39 161h-139l-39 -161h-129l39 161h-93l28 110h92l33 133h-98l29 111h96l39 160h128l-39 -160h139l39 160h129l-39 -160h100zM402 271l32 133h-139l-32 -133h139z" />
    <glyph glyph-name="dollar" unicode="$" horiz-adv-x="618" 
d="M581 212q0 -91 -52.5 -144t-142.5 -67v-104h-159v105q-126 21 -205 83l72 118q27 -34 82.5 -59t130.5 -25q69 0 103 19.5t34 63.5q0 34 -33.5 48t-126.5 31q-5 1 -8 1.5t-7.5 1t-8.5 1.5q-44 10 -71 17.5t-58 22t-48 32t-28.5 45.5t-11.5 65q0 76 47.5 130t140.5 72v113
h156v-110q104 -14 175 -71l-65 -106q-62 57 -184 57q-129 0 -129 -75q0 -32 28.5 -43.5t132.5 -30.5q35 -7 51.5 -11t47 -13t45.5 -17t36 -22.5t31 -31.5t17.5 -41.5t7.5 -54.5z" />
    <glyph glyph-name="percent" unicode="%" horiz-adv-x="844" 
d="M205 682q78 0 125 -46.5t47 -120.5v-20q0 -70 -47 -115.5t-124 -45.5t-124 46t-47 115v20q0 75 46.5 121t123.5 46zM679 675l-425 -675h-93l425 675h93zM206 604q-35 0 -54.5 -23.5t-19.5 -65.5v-17q0 -38 19.5 -61t54.5 -23t54.5 22.5t19.5 61.5v16q0 42 -19.5 66
t-54.5 24zM631 343q78 0 124.5 -46.5t46.5 -120.5v-20q0 -70 -47 -115.5t-124 -45.5t-124 46t-47 115v20q0 75 46.5 121t124.5 46zM632 265q-36 0 -55.5 -23.5t-19.5 -65.5v-17q0 -38 19.5 -61t55.5 -23q34 0 53.5 22.5t19.5 61.5v17q0 41 -19.5 65t-53.5 24z" />
    <glyph glyph-name="ampersand" unicode="&#x26;" horiz-adv-x="747" 
d="M735 0h-163l-53 59q-88 -68 -209 -68q-76 0 -137 21.5t-101.5 72t-40.5 124.5v10q0 75 43.5 127.5t118.5 76.5l-121 136l43 116h502v-123h-375l277 -310q8 20 11 29q33 80 19 183h146q1 -109 -43 -217q-22 -51 -49 -90zM322 103q72 0 122 40l-185 206q-86 -31 -86 -121
v-10q0 -115 149 -115z" />
    <glyph glyph-name="quotesingle" unicode="'" horiz-adv-x="237" 
d="M191 675l-25 -319h-112l-17 319h154z" />
    <glyph glyph-name="parenleft" unicode="(" horiz-adv-x="394" 
d="M319 810l64 -98q-191 -133 -191 -398v-30q0 -116 43.5 -209t141.5 -177l-73 -96q-253 173 -253 481v32q0 160 66.5 288.5t201.5 206.5z" />
    <glyph glyph-name="parenright" unicode=")" horiz-adv-x="394" 
d="M75 810q134 -78 201 -206.5t67 -288.5v-32q0 -308 -253 -481l-73 96q98 84 141 176.5t43 209.5v30q0 266 -190 398z" />
    <glyph glyph-name="asterisk" unicode="*" horiz-adv-x="474" 
d="M293 675l-19 -160l130 79l44 -99l-149 -47l111 -117l-84 -66l-90 135l-90 -135l-85 66l110 119l-145 45l43 99l128 -79l-21 160h117z" />
    <glyph glyph-name="plus" unicode="+" horiz-adv-x="565" 
d="M520 370v-119h-175v-180h-125v180h-175v119h175v179h125v-179h175z" />
    <glyph glyph-name="comma" unicode="," horiz-adv-x="258" 
d="M216 167q-14 -192 -88 -333l-113 28q59 146 66 305h135z" />
    <glyph glyph-name="hyphen" unicode="-" horiz-adv-x="409" 
d="M356 358v-133h-303v133h303z" />
    <glyph glyph-name="period" unicode="." horiz-adv-x="269" 
d="M212 157v-157h-155v157h155z" />
    <glyph glyph-name="slash" unicode="/" horiz-adv-x="485" 
d="M469 762l-330 -873h-123l329 873h124z" />
    <glyph glyph-name="zero" unicode="0" horiz-adv-x="680" 
d="M341 684q145 0 226 -86.5t81 -233.5v-53q0 -144 -81 -231.5t-226 -87.5q-143 0 -226 87.5t-83 230.5v52q0 144 83 233t226 89zM341 563q-76 0 -118.5 -52.5t-42.5 -149.5v-47q0 -99 43 -150t118 -51q77 0 118 51t41 151v46q0 97 -41 149.5t-118 52.5z" />
    <glyph glyph-name="one" unicode="1" horiz-adv-x="443" 
d="M352 675v-675h-137v510q-27 -15 -80 -45t-82 -46l-17 126q93 52 219 130h97z" />
    <glyph glyph-name="two" unicode="2" horiz-adv-x="615" 
d="M316 684q127 0 197.5 -49t70.5 -148q0 -44 -14 -75.5t-47 -55t-64 -37.5t-89 -34q-97 -33 -139.5 -66.5t-46.5 -94.5h394v-124h-542q-6 154 40.5 239.5t180.5 137.5q22 8 59 20.5t53.5 18.5t36 17t27 23t7.5 29q0 40 -31 56.5t-96 16.5q-63 0 -116 -23.5t-78 -57.5
l-74 101q42 47 111.5 76.5t159.5 29.5z" />
    <glyph glyph-name="three" unicode="3" horiz-adv-x="626" 
d="M452 385q62 -9 102.5 -48.5t40.5 -114.5v-14q0 -105 -78 -160.5t-218 -55.5q-83 0 -157.5 26.5t-123.5 69.5l73 112q32 -36 88 -60.5t116 -24.5q160 0 160 90v11q0 42 -27 59t-82 17q-48 0 -97 -9l-42 113l198 155h-352v124h519v-126l-207 -158q50 1 87 -6z" />
    <glyph glyph-name="four" unicode="4" horiz-adv-x="622" 
d="M610 250v-110h-119v-140h-126v140h-351v106l338 429h139v-425h119zM169 250h196v257z" />
    <glyph glyph-name="five" unicode="5" horiz-adv-x="629" 
d="M567 675v-124h-376l-7 -164q61 58 171 58q103 0 173 -50t70 -155v-14q0 -110 -73.5 -172.5t-207.5 -62.5q-92 0 -170 24t-122 67l68 117q34 -38 93 -60.5t128 -22.5q145 0 145 103v12q0 52 -33 73t-97 21q-95 0 -156 -55l-119 45l13 360h500z" />
    <glyph glyph-name="six" unicode="6" horiz-adv-x="646" 
d="M365 440q71 0 125 -18.5t89.5 -64.5t35.5 -115v-14q0 -110 -75.5 -173t-205.5 -63q-135 0 -218.5 87.5t-83.5 234.5v29q0 153 80.5 246.5t228.5 93.5q145 0 238 -70l-66 -100q-52 49 -171 49q-170 0 -176 -203q76 81 199 81zM479 216v16q0 92 -131 92q-116 0 -176 -77
q27 -139 164 -139q65 0 104 28t39 80z" />
    <glyph glyph-name="seven" unicode="7" horiz-adv-x="567" 
d="M550 675v-128l-297 -547h-159l302 551h-381v124h535z" />
    <glyph glyph-name="eight" unicode="8" horiz-adv-x="649" 
d="M323 684q121 0 192 -48t71 -130v-13q0 -51 -30 -86t-68 -42q56 -10 93.5 -47t37.5 -106v-15q0 -97 -79 -151t-215 -54q-135 0 -215 53t-80 145v16q0 72 40 111.5t98 46.5q-39 5 -71.5 40t-32.5 87v11q0 84 71 133t188 49zM325 571q-63 0 -92.5 -18t-29.5 -59v-9
q0 -76 125 -76q118 0 118 75v11q0 40 -30 58t-91 18zM325 310q-151 0 -151 -94v-13q0 -47 39.5 -72.5t111.5 -25.5q73 0 111.5 25.5t38.5 73.5v15q0 91 -150 91z" />
    <glyph glyph-name="nine" unicode="9" horiz-adv-x="633" 
d="M309 689q140 0 216 -93t76 -246v-31q0 -154 -76.5 -240.5t-229.5 -86.5q-86 0 -156.5 26.5t-114.5 70.5l71 108q80 -84 195 -84q92 0 132.5 48t40.5 157v8q-68 -72 -185 -72q-115 0 -182.5 51.5t-67.5 145.5v11q0 105 76 166t205 61zM296 370q107 0 162 62
q-11 71 -49 105.5t-106 34.5q-135 0 -135 -100v-12q0 -46 34.5 -68t93.5 -22z" />
    <glyph glyph-name="colon" unicode=":" horiz-adv-x="269" 
d="M212 455v-157h-155v157h155zM212 157v-157h-155v157h155z" />
    <glyph glyph-name="semicolon" unicode=";" horiz-adv-x="269" 
d="M226 455v-157h-155v157h155zM216 167q-12 -188 -87 -333l-114 28q59 146 66 305h135z" />
    <glyph glyph-name="less" unicode="&#x3c;" horiz-adv-x="565" 
d="M520 563v-141l-352 -110l352 -110v-141l-475 184v133z" />
    <glyph glyph-name="equal" unicode="=" horiz-adv-x="565" 
d="M521 478v-119h-476v119h476zM521 263v-119h-476v119h476z" />
    <glyph glyph-name="greater" unicode="&#x3e;" horiz-adv-x="565" 
d="M45 563l475 -185v-133l-475 -184v141l351 110l-351 110v141z" />
    <glyph glyph-name="question" unicode="?" horiz-adv-x="581" 
d="M283 683q130 0 199.5 -49t69.5 -134q0 -63 -31.5 -98t-98.5 -65q-45 -22 -60 -44.5t-14 -52.5h-146q-26 99 78 159q19 11 43 22.5t36 17.5t23.5 14.5t16 18t4.5 23.5q0 36 -32 50.5t-95 14.5q-55 0 -101 -21t-67 -57l-81 94q93 107 256 107zM350 157v-157h-155v157h155z
" />
    <glyph glyph-name="at" unicode="@" horiz-adv-x="937" 
d="M510 690q200 0 303.5 -99.5t90.5 -263.5l-2 -22q-10 -117 -70.5 -183t-165.5 -66q-94 -1 -133 68q-42 -65 -117 -65q-77 0 -115 55t-31 141l2 23q7 87 51 145.5t124 58.5q59 0 82 -44l4 42h131l-22 -269q-6 -71 41 -71q41 0 68 42t34 122l2 19q11 134 -55.5 200.5
t-231.5 66.5q-148 0 -238 -87.5t-101 -222.5l-4 -48q-11 -128 52.5 -203t185.5 -75q52 0 99.5 15.5t71.5 42.5l48 -95q-91 -66 -234 -66q-171 0 -266.5 105.5t-80.5 281.5l3 35q7 85 42.5 160t95 132.5t147 91t189.5 33.5zM447 154q45 0 68 69l11 132q-11 38 -53 38
q-60 0 -71 -117l-2 -28q-4 -41 8 -67.5t39 -26.5z" />
    <glyph glyph-name="A" unicode="A" horiz-adv-x="726" 
d="M566 0l-50 144h-302l-55 -144h-151l272 675h184l254 -675h-152zM259 263h215l-103 295z" />
    <glyph glyph-name="B" unicode="B" horiz-adv-x="697" 
d="M520 354q54 1 100 -35t46 -106v-14q0 -93 -61 -146t-178 -53h-362v675h356q105 0 159 -47.5t54 -124.5v-11q0 -58 -35 -97t-79 -41zM399 555h-191v-154h193q87 0 87 76v9q0 69 -89 69zM519 202v12q0 76 -92 76h-219v-170h212q99 0 99 82z" />
    <glyph glyph-name="C" unicode="C" horiz-adv-x="659" 
d="M371 683q176 0 269 -100l-78 -105q-65 76 -190 76q-86 0 -136 -54.5t-50 -152.5v-33q0 -95 50.5 -144.5t140.5 -49.5q61 0 111 24t76 66l79 -104q-40 -50 -109.5 -82t-160.5 -32q-156 0 -247 83t-91 236v32q0 151 90 245.5t246 94.5z" />
    <glyph glyph-name="D" unicode="D" horiz-adv-x="730" 
d="M357 675q160 0 249 -84t89 -239v-26q0 -150 -85.5 -238t-252.5 -88h-292v675h292zM356 551h-142v-427h140q93 0 141.5 50t48.5 147v32q0 101 -46.5 149.5t-141.5 48.5z" />
    <glyph glyph-name="E" unicode="E" horiz-adv-x="638" 
d="M602 551h-390v-149h315v-122h-315v-156h388v-124h-535v675h537v-124z" />
    <glyph glyph-name="F" unicode="F" horiz-adv-x="622" 
d="M600 551h-387v-174h316v-126h-316v-251h-148v675h535v-124z" />
    <glyph glyph-name="G" unicode="G" horiz-adv-x="723" 
d="M677 0h-108q-10 18 -19 74q-78 -82 -208 -82q-137 0 -222 83t-85 232v33q0 150 89 246.5t247 96.5q172 0 277 -96l-81 -101q-68 69 -200 69q-83 0 -131.5 -56.5t-48.5 -155.5v-28q0 -99 48 -149.5t134 -50.5q103 1 163 57v101h-161v109h299v-267q0 -65 7 -115z" />
    <glyph glyph-name="H" unicode="H" horiz-adv-x="741" 
d="M523 675h153v-675h-153v273h-306v-273h-152v675h152v-270h306v270z" />
    <glyph glyph-name="I" unicode="I" horiz-adv-x="283" 
d="M67 0v675h149v-675h-149z" />
    <glyph glyph-name="J" unicode="J" horiz-adv-x="627" 
d="M574 675v-408q0 -140 -71.5 -207.5t-220.5 -67.5q-88 0 -158 32.5t-110 81.5l82 111q27 -40 77.5 -68.5t108.5 -28.5q75 0 109 34t34 112v284h-353v125h502z" />
    <glyph glyph-name="K" unicode="K" horiz-adv-x="678" 
d="M677 675l-269 -298l267 -377h-170l-187 277l-103 -114v-163h-150v675h150v-331l276 331h186z" />
    <glyph glyph-name="L" unicode="L" horiz-adv-x="595" 
d="M211 675v-548h354v-127h-500v675h146z" />
    <glyph glyph-name="M" unicode="M" horiz-adv-x="876" 
d="M671 675h142v-675h-141v463l-206 -314h-56l-206 313v-462h-141v675h143l232 -351z" />
    <glyph glyph-name="N" unicode="N" horiz-adv-x="731" 
d="M527 675h142v-675h-135l-330 459v-459h-141v675h137l327 -454v454z" />
    <glyph glyph-name="O" unicode="O" horiz-adv-x="736" 
d="M367 683q155 0 245 -88t90 -239v-40q0 -146 -91 -235t-243 -89t-242.5 89t-90.5 235v40q0 150 89 238.5t243 88.5zM367 560q-85 0 -132.5 -52.5t-47.5 -149.5v-39q0 -96 47.5 -149.5t133.5 -53.5t133.5 53.5t47.5 149.5v39q0 97 -47.5 149.5t-134.5 52.5z" />
    <glyph glyph-name="P" unicode="P" horiz-adv-x="671" 
d="M380 675q127 0 196.5 -55t69.5 -169v-11q0 -112 -70.5 -171.5t-194.5 -59.5h-171v-209h-145v675h315zM501 439v12q0 57 -31.5 79t-93.5 22h-166v-220h160q131 0 131 107z" />
    <glyph glyph-name="Q" unicode="Q" horiz-adv-x="736" 
d="M702 316q0 -181 -134 -269l120 -157h-180l-70 108q-33 -6 -70 -6q-152 0 -242.5 89t-90.5 235v40q0 150 89 238.5t243 88.5q155 0 245 -88t90 -239v-40zM187 319q0 -96 47.5 -149.5t133.5 -53.5t133.5 53.5t47.5 149.5v39q0 97 -47.5 149.5t-134.5 52.5
q-85 0 -132.5 -52.5t-47.5 -149.5v-39z" />
    <glyph glyph-name="R" unicode="R" horiz-adv-x="695" 
d="M501 0l-154 229h-138v-229h-144v675h338q115 0 179.5 -56.5t64.5 -157.5v-13q0 -77 -41 -131.5t-114 -75.5l176 -241h-167zM209 553v-203h183q108 0 108 99v10q0 94 -104 94h-187z" />
    <glyph glyph-name="S" unicode="S" horiz-adv-x="617" 
d="M316 -7q-181 0 -296 92l73 118q27 -35 83.5 -60.5t132.5 -25.5q70 0 104.5 20t34.5 65q0 19 -7.5 30.5t-31.5 21t-45 14t-71 14.5q-20 4 -31 6q-56 12 -88.5 22.5t-65.5 30.5t-48 51.5t-15 77.5q0 94 71 153.5t205 59.5q149 0 248 -77l-67 -107q-29 27 -79.5 42.5
t-105.5 15.5q-133 0 -133 -77q0 -33 28.5 -44.5t135.5 -32.5q35 -7 52 -11t47.5 -13t45.5 -17t36 -22.5t31 -32t17.5 -42t7.5 -54.5q0 -108 -74 -163t-195 -55z" />
    <glyph glyph-name="T" unicode="T" horiz-adv-x="633" 
d="M620 675v-125h-228v-550h-151v550h-228v125h607z" />
    <glyph glyph-name="U" unicode="U" horiz-adv-x="718" 
d="M663 675v-397q0 -134 -76 -210t-227 -76t-228 75t-77 210v398h156v-409q0 -69 37 -108.5t113 -39.5q72 0 109 40.5t37 111.5v405h156z" />
    <glyph glyph-name="V" unicode="V" horiz-adv-x="727" 
d="M546 675h171l-251 -675h-206l-249 675h170l182 -560z" />
    <glyph glyph-name="W" unicode="W" horiz-adv-x="973" 
d="M803 675h156l-168 -675h-196l-107 535l-112 -535h-194l-167 675h155l107 -558l120 558h181l117 -560z" />
    <glyph glyph-name="X" unicode="X" horiz-adv-x="680" 
d="M663 0h-170l-151 272l-154 -272h-171l207 339l-192 336h170l140 -265l140 265h170l-191 -336z" />
    <glyph glyph-name="Y" unicode="Y" horiz-adv-x="689" 
d="M507 675h174l-257 -454v-221h-156v222l-260 453h174l164 -323z" />
    <glyph glyph-name="Z" unicode="Z" horiz-adv-x="617" 
d="M206 127h378v-127h-547v130l378 420h-378v125h546v-134z" />
    <glyph glyph-name="bracketleft" unicode="[" horiz-adv-x="362" 
d="M339 796v-113h-145v-746h145v-113h-278v972h278z" />
    <glyph glyph-name="backslash" unicode="\" horiz-adv-x="486" 
d="M16 762h124l330 -873h-124z" />
    <glyph glyph-name="bracketright" unicode="]" horiz-adv-x="362" 
d="M23 796h278v-972h-278v113h145v746h-145v113z" />
    <glyph glyph-name="asciicircum" unicode="^" horiz-adv-x="567" 
d="M546 319h-148l-114 263l-115 -263h-149l188 356h151z" />
    <glyph glyph-name="underscore" unicode="_" horiz-adv-x="489" 
d="M485 0v-120h-482v120h482z" />
    <glyph glyph-name="grave" unicode="`" horiz-adv-x="307" 
d="M177 733l114 -175h-115l-158 175h159z" />
    <glyph glyph-name="a" unicode="a" horiz-adv-x="531" 
d="M494 0h-120q-9 32 -11 57q-47 -65 -155 -65q-77 0 -130.5 38.5t-53.5 113.5q0 158 195 158q73 0 139 -29v28q1 45 -27.5 63.5t-83.5 18.5q-90 0 -132 -45l-57 91q86 62 204 62q105 0 165 -50.5t58 -153.5q-1 -54 -1 -163q0 -94 10 -124zM245 95q78 0 112 43v51
q-50 19 -108 19q-48 0 -70.5 -13t-22.5 -44q0 -56 89 -56z" />
    <glyph glyph-name="b" unicode="b" horiz-adv-x="580" 
d="M335 491q102 0 161 -63t59 -171v-20q0 -115 -61 -180.5t-166 -65.5q-82 0 -149 58l-6 -49h-124v719h141v-283q53 55 145 55zM414 233v24q0 123 -117 123q-64 0 -106 -42v-199q48 -37 108 -37q56 0 85.5 33.5t29.5 97.5z" />
    <glyph glyph-name="c" unicode="c" horiz-adv-x="504" 
d="M278 491q137 0 210 -83l-72 -87q-42 58 -131 58q-53 0 -86 -32t-33 -91v-30q0 -123 119 -123q42 0 78.5 18.5t55.5 48.5l71 -87q-33 -41 -87.5 -66t-123.5 -25q-120 0 -187 60t-67 170v29q0 109 69.5 174.5t183.5 65.5z" />
    <glyph glyph-name="d" unicode="d" horiz-adv-x="575" 
d="M539 0h-128q-5 15 -12 57q-53 -65 -154 -65q-93 0 -156 60t-63 166v27q0 117 67 181.5t172 64.5q39 0 73.5 -13.5t52.5 -32.5v274h141v-580q0 -105 7 -139zM280 105q70 0 111 45v186q-38 41 -109 41q-57 0 -86 -34t-29 -96v-23q0 -119 113 -119z" />
    <glyph glyph-name="e" unicode="e" horiz-adv-x="533" 
d="M271 491q66 0 114.5 -21.5t75.5 -59t39.5 -82.5t12.5 -98v-22h-357q7 -111 124 -111q93 0 132 64l77 -81q-78 -89 -216 -89q-114 0 -181 60.5t-67 169.5v21q0 107 67.5 178t178.5 71zM159 300h217q-10 95 -105 95q-94 0 -112 -95z" />
    <glyph glyph-name="f" unicode="f" horiz-adv-x="389" 
d="M231 536v-54h138v-107h-137v-375h-134v375h-87v107h87l-1 50q-2 194 164 194q77 0 129 -29l-28 -107q-30 24 -76 24q-30 0 -42.5 -18.5t-12.5 -59.5z" />
    <glyph glyph-name="g" unicode="g" horiz-adv-x="568" 
d="M400 482h121v-460q0 -115 -71 -168t-179 -53q-140 0 -230 80l67 92q60 -63 159 -63q60 0 90.5 22t30.5 73v60q-15 -25 -53 -44.5t-88 -19.5q-101 1 -161.5 61.5t-60.5 160.5v23q0 106 62 175.5t165 69.5q48 0 87 -18.5t54 -47.5zM280 113q73 0 108 52v166q-35 45 -110 45
q-55 0 -83.5 -34.5t-28.5 -94.5v-19q0 -115 114 -115z" />
    <glyph glyph-name="h" unicode="h" horiz-adv-x="578" 
d="M344 491q91 0 139.5 -56.5t48.5 -159.5v-275h-145v269q0 53 -21.5 77t-69.5 24q-66 0 -103 -52v-318h-144v719h145v-298q44 70 150 70z" />
    <glyph glyph-name="i" unicode="i" horiz-adv-x="244" 
d="M50 675h144v-123h-144v123zM193 482v-482h-141v482h141z" />
    <glyph glyph-name="j" unicode="j" horiz-adv-x="245" 
d="M51 675h143v-123h-143v123zM193 482v-498q0 -88 -41 -134t-115 -46q-69 0 -131 29l34 109q34 -28 69 -28q27 0 35.5 15t8.5 54v499h140z" />
    <glyph glyph-name="k" unicode="k" horiz-adv-x="545" 
d="M538 482l-192 -200l190 -282h-149l-121 198l-80 -84v-114h-137v719h136v-450l181 213h172z" />
    <glyph glyph-name="l" unicode="l" horiz-adv-x="238" 
d="M189 719v-719h-140v719h140z" />
    <glyph glyph-name="m" unicode="m" horiz-adv-x="883" 
d="M643 491q93 0 143 -55t50 -166v-270h-145v272q0 51 -20 74.5t-65 23.5q-57 0 -89 -42v-328h-145v277q0 47 -19 70t-61 23q-63 0 -95 -48v-322h-144v482h128l11 -72q45 81 148 81q51 0 88.5 -22.5t54.5 -62.5q59 85 160 85z" />
    <glyph glyph-name="n" unicode="n" horiz-adv-x="579" 
d="M342 491q86 0 138.5 -55t52.5 -160v-276h-145v271q0 99 -92 99q-65 0 -99 -47v-323h-144v482h125l10 -70q48 79 154 79z" />
    <glyph glyph-name="o" unicode="o" horiz-adv-x="553" 
d="M277 491q116 0 183 -63.5t67 -171.5v-30q0 -107 -67 -170.5t-183 -63.5q-117 0 -184.5 63.5t-67.5 173.5v29q0 105 68 169t184 64zM277 384q-54 0 -83 -33t-29 -91v-35q0 -60 28.5 -93t83.5 -33q54 0 82.5 32.5t28.5 92.5v35q0 59 -28.5 92t-82.5 33z" />
    <glyph glyph-name="p" unicode="p" horiz-adv-x="581" 
d="M343 491q95 0 154 -60.5t59 -175.5v-22q0 -113 -62.5 -177t-165.5 -64q-84 0 -142 42v-225h-136v673h125l9 -65q55 74 159 74zM415 233v24q0 121 -116 121q-67 0 -110 -46v-189q43 -40 107 -40q119 0 119 130z" />
    <glyph glyph-name="q" unicode="q" horiz-adv-x="576" 
d="M403 482h126v-666h-136v229q-53 -53 -145 -53q-98 0 -160.5 63.5t-62.5 166.5v24q0 108 60.5 176.5t161.5 68.5q106 0 150 -60zM276 109q74 0 116 44v179q-44 48 -111 48q-115 0 -115 -128v-20q0 -60 28.5 -91.5t81.5 -31.5z" />
    <glyph glyph-name="r" unicode="r" horiz-adv-x="375" 
d="M308 486q39 0 63 -12l-23 -140q-27 17 -64 17q-32 0 -56.5 -21t-35.5 -57v-273h-139v482h127l10 -122q27 126 118 126z" />
    <glyph glyph-name="s" unicode="s" horiz-adv-x="477" 
d="M235 -8q-137 0 -218 69l59 96q23 -28 65 -44t91 -16q102 0 102 50q0 6 -1.5 11t-5 8.5t-7 6.5t-11 5t-14 3.5t-18.5 3.5t-21.5 3.5t-26 3.5t-29.5 4q-87 16 -127 44t-40 90q0 68 51 114t155 46q129 0 201 -56l-55 -88q-45 41 -142 41q-88 0 -88 -47q0 -5 1.5 -9.5t5 -8
t7 -5.5t11 -4.5t13.5 -4t17 -3.5t19.5 -3t24 -3t26.5 -4q41 -7 65.5 -14.5t53 -22.5t42 -40.5t13.5 -63.5q0 -79 -55.5 -120.5t-163.5 -41.5z" />
    <glyph glyph-name="t" unicode="t" horiz-adv-x="411" 
d="M366 138l30 -109q-59 -37 -143 -37q-154 0 -154 155v228h-88v107h88v106l132 28v-134h159v-107h-159v-202q0 -36 12 -51.5t41 -15.5q46 0 82 32z" />
    <glyph glyph-name="u" unicode="u" horiz-adv-x="568" 
d="M532 0h-135q-7 27 -12 59q-23 -29 -62 -48t-84 -19q-88 0 -141 49.5t-53 156.5v284h144v-278q0 -52 21.5 -75.5t69.5 -23.5q61 0 94 41v336h145v-346q0 -99 13 -136z" />
    <glyph glyph-name="v" unicode="v" horiz-adv-x="539" 
d="M384 482h152l-176 -482h-182l-175 482h151l114 -386z" />
    <glyph glyph-name="w" unicode="w" horiz-adv-x="796" 
d="M645 482h146l-142 -482h-159l-91 354l-92 -354h-158l-144 482h146l77 -361l91 361h157l93 -360z" />
    <glyph glyph-name="x" unicode="x" horiz-adv-x="536" 
d="M523 0h-161l-93 182l-95 -182h-161l156 245l-148 238l160 -1l88 -173l89 173h159l-149 -237z" />
    <glyph glyph-name="y" unicode="y" horiz-adv-x="529" 
d="M377 482h150q-162 -444 -279 -673l-139 36q42 77 77 157l-183 480h152l108 -366z" />
    <glyph glyph-name="z" unicode="z" horiz-adv-x="495" 
d="M195 109h268v-109h-428v110l271 264h-269v108h423v-115z" />
    <glyph glyph-name="braceleft" unicode="{" horiz-adv-x="432" 
d="M406 809l15 -106q-69 -1 -99.5 -24.5t-30.5 -76.5q0 -27 6.5 -78.5t6.5 -89.5q0 -46 -35 -81t-86 -43q53 -5 86 -40.5t33 -89.5q0 -31 -5.5 -80t-5.5 -79q0 -53 29 -77t97 -24l-20 -108q-106 -5 -171.5 38.5t-65.5 129.5q0 37 5 86.5t5 81.5q0 105 -134 104v112
q135 0 135 100q0 24 -6.5 74t-6.5 87q0 93 68.5 141t179.5 43z" />
    <glyph glyph-name="bar" unicode="|" horiz-adv-x="363" 
d="M249 756v-910h-135v910h135z" />
    <glyph glyph-name="braceright" unicode="}" horiz-adv-x="406" 
d="M25 809q111 5 179.5 -43t68.5 -141q0 -37 -6.5 -87t-6.5 -74q0 -100 135 -100v-112q-134 1 -134 -104q0 -32 5 -81.5t5 -86.5q0 -86 -65.5 -129.5t-170.5 -38.5l-20 108q68 0 97 24t29 77q0 30 -5.5 79t-5.5 80q0 54 32.5 90t85.5 40q-51 8 -85.5 43t-34.5 81
q0 38 6.5 89.5t6.5 78.5q0 53 -30.5 76.5t-99.5 24.5z" />
    <glyph glyph-name="asciitilde" unicode="~" horiz-adv-x="552" 
d="M507 397v-131q-38 -38 -120 -38q-39 0 -113 23.5t-105 23.5q-77 0 -124 -57v126q35 51 129 51q37 0 108.5 -23.5t105.5 -23.5q75 0 119 49z" />
    <glyph glyph-name="uni00A0" unicode="&#xa0;" horiz-adv-x="222" 
 />
    <glyph glyph-name="exclamdown" unicode="&#xa1;" horiz-adv-x="322" 
d="M239 328h-156v157h156v-157zM255 -190h-188l54 436h80z" />
    <glyph glyph-name="cent" unicode="&#xa2;" horiz-adv-x="505" 
d="M491 178q-52 -64 -143 -84v-94h-150v95q-83 18 -128 75.5t-45 146.5v29q0 89 47.5 149.5t129.5 81.5v98h151v-97q85 -18 136 -76l-73 -86q-41 58 -132 58q-53 0 -85.5 -32t-32.5 -92v-29q0 -124 122 -124q42 0 77.5 18.5t54.5 49.5z" />
    <glyph glyph-name="sterling" unicode="&#xa3;" horiz-adv-x="650" 
d="M212 130h403v-130h-580v141q122 51 141 132h-117v119h83q-2 2 -7 8.5t-7.5 9.5t-7 9t-7 9.5t-6 9.5t-5.5 10.5t-4.5 10.5t-3.5 11.5t-2 12t-1 13.5q0 91 70 138.5t184 47.5q163 0 255 -81l-78 -105q-53 61 -163 61q-117 0 -117 -77q0 -9 2.5 -18t4.5 -14.5t9 -15.5
t9.5 -13t12.5 -14.5t11 -12.5h228v-119h-194q-17 -106 -113 -143z" />
    <glyph glyph-name="currency" unicode="&#xa4;" horiz-adv-x="641" 
d="M550 328q0 -53 -30 -102l91 -88l-86 -81l-88 91q-50 -29 -115 -29q-66 0 -119 28l-86 -90l-87 80l90 88q-30 49 -30 104v12q0 59 31 109l-92 89l88 81l88 -91q54 27 117 27q62 0 113 -28l89 91l87 -81l-92 -89q31 -50 31 -107v-14zM321 217q48 0 75.5 31t27.5 81v12
q0 54 -27.5 84.5t-76.5 30.5q-50 0 -77 -31t-27 -85v-10q0 -51 27.5 -82t77.5 -31z" />
    <glyph glyph-name="yen" unicode="&#xa5;" horiz-adv-x="721" 
d="M494 316l-30 -53h171v-97h-195v-166h-156v166h-210v97h186l-31 53h-155v98h99l-150 261h175l163 -323l162 323h175l-149 -261h85v-98h-140z" />
    <glyph glyph-name="brokenbar" unicode="&#xa6;" horiz-adv-x="363" 
d="M249 756v-371h-135v371h135zM249 216v-371h-135v371h135z" />
    <glyph glyph-name="section" unicode="&#xa7;" horiz-adv-x="609" 
d="M493 150q50 -39 50 -102q0 -78 -65.5 -126.5t-186.5 -48.5q-81 0 -150.5 25t-105.5 59l67 104q68 -74 190 -74q57 0 83.5 13t26.5 43q0 9 -3 16t-11 12t-16 8t-24.5 6.5t-30 5.5t-38.5 6t-45 7q-108 27 -160 63t-52 109q0 84 85 133q-45 37 -45 100q0 76 63.5 125.5
t183.5 49.5q143 0 234 -71l-67 -94q-62 52 -168 52q-98 0 -98 -54q0 -7 2 -12.5t6.5 -10t10 -8t15 -7t18 -6t23.5 -5t27 -5t31.5 -6t35.5 -6.5q95 -18 145 -55t50 -108q0 -42 -22.5 -78.5t-58.5 -59.5zM166 300q0 -34 28 -48.5t104 -32.5q3 -1 5.5 -1.5t5.5 -1t6 -1.5
q29 -6 70 -17q42 26 42 71q0 29 -28.5 44t-103.5 29q-68 14 -93 22q-36 -23 -36 -64z" />
    <glyph glyph-name="dieresis" unicode="&#xa8;" horiz-adv-x="449" 
d="M187 675v-125h-139v125h139zM401 675v-125h-138v125h138z" />
    <glyph glyph-name="copyright" unicode="&#xa9;" horiz-adv-x="809" 
d="M404 690q171 0 271 -96.5t100 -239.5v-34q0 -143 -98.5 -239.5t-272.5 -96.5q-168 0 -267.5 97.5t-99.5 237.5v34q0 143 100 240t267 97zM404 600q-125 0 -194 -67.5t-69 -184.5v-26q0 -112 69.5 -181t194.5 -69q126 0 196 68.5t70 183.5v25q0 116 -70 183.5t-197 67.5z
M410 531q90 0 149 -64l-50 -63q-37 45 -100 45q-87 0 -87 -98v-22q0 -45 24.5 -68.5t67.5 -23.5q68 0 96 52l56 -60q-59 -74 -154 -74q-85 0 -136 45t-51 127v23q0 85 48.5 133t136.5 48z" />
    <glyph glyph-name="ordfeminine" unicode="&#xaa;" horiz-adv-x="442" 
d="M416 279h-105q-7 21 -11 45q-35 -54 -123 -54q-64 0 -107.5 33t-43.5 94q0 127 166 127q59 0 106 -14v13q0 39 -22 54t-67 15q-74 0 -104 -38l-53 74q61 53 172 54q185 0 185 -174v-129q0 -73 7 -100zM208 361q64 0 90 34v45q-40 10 -80 10q-78 0 -78 -46q0 -43 68 -43z
" />
    <glyph glyph-name="guillemotleft" unicode="&#xab;" horiz-adv-x="655" 
d="M367 447l-175 -185l181 -187h-152l-177 187l171 185h152zM606 447l-175 -185l181 -187h-151l-178 187l171 185h152z" />
    <glyph glyph-name="logicalnot" unicode="&#xac;" horiz-adv-x="571" 
d="M526 417v-258h-115v152h-366v106h481z" />
    <glyph glyph-name="uni00AD" unicode="&#xad;" horiz-adv-x="409" 
d="M356 358v-133h-303v133h303z" />
    <glyph glyph-name="registered" unicode="&#xae;" horiz-adv-x="809" 
d="M404 690q171 0 271 -96.5t100 -239.5v-34q0 -143 -98.5 -239.5t-272.5 -96.5q-168 0 -267.5 97.5t-99.5 237.5v34q0 143 100 240t267 97zM671 324v25q0 116 -70 183.5t-197 67.5q-125 0 -194 -67.5t-69 -184.5v-26q0 -112 69.5 -181t194.5 -69q126 0 196 68.5t70 183.5z
M573 398q0 -76 -73 -106l89 -123h-103l-76 112h-60v-112h-91v353h178q69 0 102.5 -31.5t33.5 -82.5v-10zM350 448v-93h77q55 0 55 45v6q0 42 -50 42h-82z" />
    <glyph glyph-name="macron" unicode="&#xaf;" horiz-adv-x="434" 
d="M386 677v-108h-338v108h338z" />
    <glyph glyph-name="degree" unicode="&#xb0;" horiz-adv-x="396" 
d="M201 684q76 0 122.5 -47t46.5 -119q0 -73 -46.5 -121.5t-122.5 -48.5q-79 0 -127 49t-48 121q0 70 47.5 118t127.5 48zM200 598q-36 0 -57.5 -22.5t-21.5 -57.5q0 -36 21.5 -59.5t57.5 -23.5q33 0 54 23t21 60q0 35 -21 57.5t-54 22.5z" />
    <glyph glyph-name="plusminus" unicode="&#xb1;" horiz-adv-x="566" 
d="M345 450h176v-108h-176v-163h-124v163h-176v108h176v161h124v-161zM45 3v112h476v-112h-476z" />
    <glyph glyph-name="acute" unicode="&#xb4;" horiz-adv-x="314" 
d="M299 733l-169 -176h-115l127 176h157z" />
    <glyph glyph-name="paragraph" unicode="&#xb6;" horiz-adv-x="794" 
d="M758 675v-91h-68v-682h-108v682h-105v-682h-109v228q-139 1 -229 64t-90 185v26q0 130 97.5 200t270.5 70h341z" />
    <glyph glyph-name="periodcentered" unicode="&#xb7;" horiz-adv-x="269" 
d="M212 371v-157h-155v157h155z" />
    <glyph glyph-name="cedilla" unicode="&#xb8;" horiz-adv-x="294" 
d="M178 9l-14 -59q48 3 77.5 -17.5t29.5 -64.5q0 -51 -34 -78.5t-97 -27.5q-81 0 -124 31l32 84q35 -42 89 -42q43 0 43 32q0 26 -30 26q-15 0 -24 -6l-48 35l12 87h88z" />
    <glyph glyph-name="ordmasculine" unicode="&#xba;" horiz-adv-x="467" 
d="M232 684q97 0 153.5 -53t56.5 -140v-26q0 -89 -55 -142t-151 -53t-153 53t-57 143v26q0 86 55.5 139t150.5 53zM235 591q-44 0 -67.5 -25.5t-23.5 -72.5v-28q0 -48 24 -75t67 -27q42 0 64.5 27t22.5 74v28q0 47 -23.5 73t-63.5 26z" />
    <glyph glyph-name="guillemotright" unicode="&#xbb;" horiz-adv-x="657" 
d="M49 447h153l171 -185l-178 -187h-152l182 187zM289 447h152l171 -185l-177 -187h-152l181 187z" />
    <glyph glyph-name="onequarter" unicode="&#xbc;" horiz-adv-x="836" 
d="M578 675h93l-425 -675h-93zM245 278h-97v275q-71 -32 -102 -47l-17 91q16 8 75.5 36t86.5 41h54v-396zM825 157v-78h-64v-79h-88v79h-219v81l198 237h109v-240h64zM556 157h117v139z" />
    <glyph glyph-name="onehalf" unicode="&#xbd;" horiz-adv-x="872" 
d="M671 675l-425 -675h-93l425 675h93zM245 674v-396h-97v275q-71 -32 -102 -47l-17 91q16 8 75.5 36t86.5 41h54zM682 405q77 0 120.5 -31.5t43.5 -93.5q0 -53 -29.5 -76.5t-98.5 -42.5q-58 -15 -82.5 -32t-25.5 -44h237v-85h-338q-4 37 -0.5 72t14.5 64t39.5 52.5
t73.5 36.5q11 3 28 7.5t25.5 7t20 6t17 6.5t11.5 7.5t8.5 9t2.5 10.5q1 20 -18 29t-50 9q-38 0 -70.5 -12.5t-46.5 -34.5l-54 69q59 66 172 66z" />
    <glyph glyph-name="threequarters" unicode="&#xbe;" horiz-adv-x="887" 
d="M372 404q0 -67 -49 -100t-129 -33q-53 0 -102 16t-78 44l51 74q47 -51 123 -51q88 0 88 46v8q0 38 -54 38q-34 0 -65 -14l-34 81l118 78h-206v84h319v-89l-122 -79q23 4 44 2q41 -1 68.5 -25t27.5 -72v-8zM630 675h93l-425 -675h-93zM877 157v-78h-64v-79h-88v79h-219v81
l198 237h109v-240h64zM608 157h117v139z" />
    <glyph glyph-name="questiondown" unicode="&#xbf;" horiz-adv-x="582" 
d="M231 328v157h156v-157h-156zM299 -197q-131 0 -200.5 49t-69.5 134q0 63 31.5 98t99.5 65q44 22 59 44.5t15 51.5l146 1q26 -99 -78 -160q-19 -11 -43.5 -22.5t-36 -17.5t-23 -14.5t-16 -18t-4.5 -23.5q0 -36 32 -50t95 -14q55 0 101 20.5t67 57.5l81 -94
q-90 -107 -256 -107z" />
    <glyph glyph-name="Agrave" unicode="&#xc0;" horiz-adv-x="726" 
d="M446 730h-130l-188 155h184zM566 0l-50 144h-302l-55 -144h-151l272 675h184l254 -675h-152zM259 263h215l-103 295z" />
    <glyph glyph-name="Aacute" unicode="&#xc1;" horiz-adv-x="726" 
d="M635 885l-207 -155h-129l150 155h186zM566 0l-50 144h-302l-55 -144h-151l272 675h184l254 -675h-152zM259 263h215l-103 295z" />
    <glyph glyph-name="Acircumflex" unicode="&#xc2;" horiz-adv-x="726" 
d="M375 821l-65 -91h-151l146 156h143l144 -156h-152zM566 0l-50 144h-302l-55 -144h-151l272 675h184l254 -675h-152zM259 263h215l-103 295z" />
    <glyph glyph-name="Atilde" unicode="&#xc3;" horiz-adv-x="726" 
d="M288 765q-71 0 -103 -40v115q27 40 99 40q37 0 98 -16t87 -16q70 0 101 41v-121q-29 -29 -97 -29q-31 0 -92 13t-93 13zM566 0l-50 144h-302l-55 -144h-151l272 675h184l254 -675h-152zM259 263h215l-103 295z" />
    <glyph glyph-name="Adieresis" unicode="&#xc4;" horiz-adv-x="726" 
d="M318 873v-138h-150v138h150zM582 873v-138h-150v138h150zM566 0l-50 144h-302l-55 -144h-151l272 675h184l254 -675h-152zM259 263h215l-103 295z" />
    <glyph glyph-name="Aring" unicode="&#xc5;" horiz-adv-x="726" 
d="M376 703q-66 0 -104 36t-38 93q0 56 38 91.5t104 35.5q69 0 106.5 -35.5t37.5 -91.5q0 -57 -37.5 -93t-106.5 -36zM377 875q-23 0 -36 -12.5t-13 -31.5q0 -21 13 -33.5t36 -12.5q21 0 34 12.5t13 33.5q0 19 -13 31.5t-34 12.5zM566 0l-50 144h-302l-55 -144h-151l272 675
h184l254 -675h-152zM259 263h215l-103 295z" />
    <glyph glyph-name="AE" unicode="&#xc6;" horiz-adv-x="1034" 
d="M1002 550h-369v-148h293v-122h-293v-155h368v-125h-510v139h-251l-83 -139h-166l424 675h587v-125zM315 265h176v293z" />
    <glyph glyph-name="Ccedilla" unicode="&#xc7;" horiz-adv-x="659" 
d="M643 106q-36 -46 -98 -77t-144 -36l-12 -42q24 2 47 -2q36 -5 60 -28t23 -66q0 -61 -44 -91t-111 -30q-44 0 -84 10t-58 25l39 93q34 -44 94 -44q54 0 54 34q0 31 -41 31q-19 0 -29 -5l-46 41l13 77q-127 18 -199 99t-72 216v32q0 151 90 245.5t246 94.5q176 0 269 -100
l-78 -105q-65 76 -190 76q-86 0 -136 -54.5t-50 -152.5v-33q0 -95 50.5 -144.5t140.5 -49.5q61 0 111 24t76 66z" />
    <glyph glyph-name="Egrave" unicode="&#xc8;" horiz-adv-x="638" 
d="M410 730h-130l-188 155h184zM602 551h-390v-149h315v-122h-315v-156h388v-124h-535v675h537v-124z" />
    <glyph glyph-name="Eacute" unicode="&#xc9;" horiz-adv-x="638" 
d="M599 885l-207 -155h-129l150 155h186zM602 551h-390v-149h315v-122h-315v-156h388v-124h-535v675h537v-124z" />
    <glyph glyph-name="Ecircumflex" unicode="&#xca;" horiz-adv-x="638" 
d="M339 821l-65 -91h-151l146 156h143l144 -156h-152zM602 551h-390v-149h315v-122h-315v-156h388v-124h-535v675h537v-124z" />
    <glyph glyph-name="Edieresis" unicode="&#xcb;" horiz-adv-x="638" 
d="M282 873v-138h-150v138h150zM546 873v-138h-150v138h150zM602 551h-390v-149h315v-122h-315v-156h388v-124h-535v675h537v-124z" />
    <glyph glyph-name="Igrave" unicode="&#xcc;" horiz-adv-x="283" 
d="M85 886l116 -156h-126l-163 156h173zM67 0v675h149v-675h-149z" />
    <glyph glyph-name="Iacute" unicode="&#xcd;" horiz-adv-x="283" 
d="M379 886l-170 -156h-132l125 156h177zM67 0v675h149v-675h-149z" />
    <glyph glyph-name="Icircumflex" unicode="&#xce;" horiz-adv-x="283" 
d="M143 820l-55 -90h-147l129 156h148l126 -156h-147zM67 0v675h149v-675h-149z" />
    <glyph glyph-name="Idieresis" unicode="&#xcf;" horiz-adv-x="283" 
d="M102 874v-141h-151v141h151zM334 874v-141h-151v141h151zM67 0v675h149v-675h-149z" />
    <glyph glyph-name="Eth" unicode="&#xd0;" horiz-adv-x="732" 
d="M357 675q161 0 250.5 -84t89.5 -239v-26q0 -150 -85.5 -238t-253.5 -88h-293v281h-49v116h49v278h292zM545 321v32q0 101 -46.5 149.5t-141.5 48.5h-143v-154h168v-116h-168v-157h140q93 0 142 50t49 147z" />
    <glyph glyph-name="Ntilde" unicode="&#xd1;" horiz-adv-x="731" 
d="M281 765q-71 0 -103 -40v115q27 40 99 40q37 0 98 -16t87 -16q70 0 101 41v-121q-29 -29 -97 -29q-32 0 -93 13t-92 13zM527 675h142v-675h-135l-330 459v-459h-141v675h137l327 -454v454z" />
    <glyph glyph-name="Ograve" unicode="&#xd2;" horiz-adv-x="736" 
d="M310 887l134 -155h-130l-188 155h184zM367 683q155 0 245 -88t90 -239v-40q0 -146 -91 -235t-243 -89t-242.5 89t-90.5 235v40q0 150 89 238.5t243 88.5zM367 560q-85 0 -132.5 -52.5t-47.5 -149.5v-39q0 -96 47.5 -149.5t133.5 -53.5t133.5 53.5t47.5 149.5v39
q0 97 -47.5 149.5t-134.5 52.5z" />
    <glyph glyph-name="Oacute" unicode="&#xd3;" horiz-adv-x="736" 
d="M632 887l-207 -155h-129l150 155h186zM367 683q155 0 245 -88t90 -239v-40q0 -146 -91 -235t-243 -89t-242.5 89t-90.5 235v40q0 150 89 238.5t243 88.5zM367 560q-85 0 -132.5 -52.5t-47.5 -149.5v-39q0 -96 47.5 -149.5t133.5 -53.5t133.5 53.5t47.5 149.5v39
q0 97 -47.5 149.5t-134.5 52.5z" />
    <glyph glyph-name="Ocircumflex" unicode="&#xd4;" horiz-adv-x="736" 
d="M373 823l-65 -91h-151l146 156h143l144 -156h-152zM367 683q155 0 245 -88t90 -239v-40q0 -146 -91 -235t-243 -89t-242.5 89t-90.5 235v40q0 150 89 238.5t243 88.5zM549 319v39q0 97 -47.5 149.5t-134.5 52.5q-85 0 -132.5 -52.5t-47.5 -149.5v-39q0 -96 47.5 -149.5
t133.5 -53.5t133.5 53.5t47.5 149.5z" />
    <glyph glyph-name="Otilde" unicode="&#xd5;" horiz-adv-x="736" 
d="M567 891v-121q-29 -29 -97 -29q-32 0 -93 13t-92 13q-71 0 -103 -40v115q27 40 99 40q37 0 98 -16t87 -16q70 0 101 41zM367 683q155 0 245 -88t90 -239v-40q0 -146 -91 -235t-243 -89t-242.5 89t-90.5 235v40q0 150 89 238.5t243 88.5zM367 560q-85 0 -132.5 -52.5
t-47.5 -149.5v-39q0 -96 47.5 -149.5t133.5 -53.5t133.5 53.5t47.5 149.5v39q0 97 -47.5 149.5t-134.5 52.5z" />
    <glyph glyph-name="Odieresis" unicode="&#xd6;" horiz-adv-x="736" 
d="M316 875v-138h-150v138h150zM580 875v-138h-150v138h150zM367 683q155 0 245 -88t90 -239v-40q0 -146 -91 -235t-243 -89t-242.5 89t-90.5 235v40q0 150 89 238.5t243 88.5zM367 560q-85 0 -132.5 -52.5t-47.5 -149.5v-39q0 -96 47.5 -149.5t133.5 -53.5t133.5 53.5
t47.5 149.5v39q0 97 -47.5 149.5t-134.5 52.5z" />
    <glyph glyph-name="multiply" unicode="&#xd7;" horiz-adv-x="559" 
d="M510 448l-145 -139l145 -140l-84 -82l-146 140l-146 -140l-85 82l146 140l-146 139l85 82l146 -140l146 140z" />
    <glyph glyph-name="Oslash" unicode="&#xd8;" horiz-adv-x="744" 
d="M623 593q87 -85 87 -234v-41q0 -148 -92 -237t-247 -89q-67 0 -123 18l-41 -64h-145l77 121q-104 87 -104 245v40q0 150 92.5 240.5t245.5 90.5q78 0 144 -23l47 74h149zM187 316q0 -77 31 -126l226 356q-32 12 -72 12q-87 0 -136 -53t-49 -148v-41zM557 317v40
q0 59 -20 104l-217 -340q27 -5 52 -5q89 0 137 52t48 149z" />
    <glyph glyph-name="Ugrave" unicode="&#xd9;" horiz-adv-x="718" 
d="M299 885l134 -155h-130l-188 155h184zM663 675v-397q0 -134 -76 -210t-227 -76t-228 75t-77 210v398h156v-409q0 -69 37 -108.5t113 -39.5q72 0 109 40.5t37 111.5v405h156z" />
    <glyph glyph-name="Uacute" unicode="&#xda;" horiz-adv-x="718" 
d="M622 885l-207 -155h-129l150 155h186zM663 675v-397q0 -134 -76 -210t-227 -76t-228 75t-77 210v398h156v-409q0 -69 37 -108.5t113 -39.5q72 0 109 40.5t37 111.5v405h156z" />
    <glyph glyph-name="Ucircumflex" unicode="&#xdb;" horiz-adv-x="718" 
d="M362 821l-65 -91h-151l146 156h143l144 -156h-152zM507 675h156v-397q0 -134 -76 -210t-227 -76t-228 75t-77 210v398h156v-409q0 -69 37 -108.5t113 -39.5q72 0 109 40.5t37 111.5v405z" />
    <glyph glyph-name="Udieresis" unicode="&#xdc;" horiz-adv-x="718" 
d="M305 873v-138h-150v138h150zM569 873v-138h-150v138h150zM663 675v-397q0 -134 -76 -210t-227 -76t-228 75t-77 210v398h156v-409q0 -69 37 -108.5t113 -39.5q72 0 109 40.5t37 111.5v405h156z" />
    <glyph glyph-name="Yacute" unicode="&#xdd;" horiz-adv-x="689" 
d="M605 885l-207 -155h-129l150 155h186zM507 675h174l-257 -454v-221h-156v222l-260 453h174l164 -323z" />
    <glyph glyph-name="Thorn" unicode="&#xde;" horiz-adv-x="682" 
d="M378 577q126 0 197.5 -54t71.5 -168v-18q0 -116 -73 -174t-198 -58h-164v-105h-147v675h147v-98h166zM500 335v17q0 102 -125 102h-163v-227h154q134 0 134 108z" />
    <glyph glyph-name="germandbls" unicode="&#xdf;" horiz-adv-x="614" 
d="M281 726q106 0 165.5 -48t59.5 -131q0 -40 -21 -73t-41.5 -57.5t-20.5 -43.5q0 -17 10.5 -25.5t43.5 -22.5q6 -3 9 -4q107 -45 107 -153q0 -82 -52.5 -129t-139.5 -47q-95 0 -159 31l37 118q41 -33 103 -33q78 -2 78 59q0 11 -1.5 19t-7 15t-9 11.5t-15 10t-16.5 7.5
t-21.5 8t-23.5 9q-45 18 -65.5 43.5t-20.5 65.5q0 38 20.5 70t41 58.5t20.5 49.5q0 71 -83 71q-91 0 -91 -119v-486h-139v480q0 246 232 246z" />
    <glyph glyph-name="agrave" unicode="&#xe0;" horiz-adv-x="531" 
d="M335 550h-115l-157 175h158zM494 0h-120q-9 32 -11 57q-47 -65 -155 -65q-77 0 -130.5 38.5t-53.5 113.5q0 158 195 158q73 0 139 -29v28q1 45 -27.5 63.5t-83.5 18.5q-90 0 -132 -45l-57 91q86 62 204 62q105 0 165 -50.5t58 -153.5q-1 -54 -1 -163q0 -94 10 -124z
M245 95q78 0 112 43v51q-50 19 -108 19q-48 0 -70.5 -13t-22.5 -44q0 -56 89 -56z" />
    <glyph glyph-name="aacute" unicode="&#xe1;" horiz-adv-x="531" 
d="M480 725l-169 -176h-115l127 176h157zM494 0h-120q-9 32 -11 57q-47 -65 -155 -65q-77 0 -130.5 38.5t-53.5 113.5q0 158 195 158q73 0 139 -29v28q1 45 -27.5 63.5t-83.5 18.5q-90 0 -132 -45l-57 91q86 62 204 62q105 0 165 -50.5t58 -153.5q-1 -54 -1 -163
q0 -94 10 -124zM245 95q78 0 112 43v51q-50 19 -108 19q-48 0 -70.5 -13t-22.5 -44q0 -56 89 -56z" />
    <glyph glyph-name="acircumflex" unicode="&#xe2;" horiz-adv-x="531" 
d="M270 657l-68 -108h-131l134 176h132l127 -176h-130zM494 0h-120q-9 32 -11 57q-47 -65 -155 -65q-77 0 -130.5 38.5t-53.5 113.5q0 158 195 158q73 0 139 -29v28q1 45 -27.5 63.5t-83.5 18.5q-90 0 -132 -45l-57 91q86 62 204 62q105 0 165 -50.5t58 -153.5
q-1 -54 -1 -163q0 -94 10 -124zM245 95q78 0 112 43v51q-50 19 -108 19q-48 0 -70.5 -13t-22.5 -44q0 -56 89 -56z" />
    <glyph glyph-name="atilde" unicode="&#xe3;" horiz-adv-x="531" 
d="M357 556q-27 0 -79 14t-82 13q-54 0 -93 -39v110q32 34 98 34q26 0 77.5 -14t75.5 -14q63 0 88 34v-113q-27 -25 -85 -25zM494 0h-120q-9 32 -11 57q-47 -65 -155 -65q-77 0 -130.5 38.5t-53.5 113.5q0 158 195 158q73 0 139 -29v28q1 45 -27.5 63.5t-83.5 18.5
q-90 0 -132 -45l-57 91q86 62 204 62q105 0 165 -50.5t58 -153.5q-1 -54 -1 -163q0 -94 10 -124zM245 95q78 0 112 43v51q-50 19 -108 19q-48 0 -70.5 -13t-22.5 -44q0 -56 89 -56z" />
    <glyph glyph-name="adieresis" unicode="&#xe4;" horiz-adv-x="531" 
d="M232 674v-125h-138v125h138zM447 674v-125h-139v125h139zM494 0h-120q-9 32 -11 57q-47 -65 -155 -65q-77 0 -130.5 38.5t-53.5 113.5q0 158 195 158q73 0 139 -29v28q1 45 -27.5 63.5t-83.5 18.5q-90 0 -132 -45l-57 91q86 62 204 62q105 0 165 -50.5t58 -153.5
q-1 -54 -1 -163q0 -94 10 -124zM245 95q78 0 112 43v51q-50 19 -108 19q-48 0 -70.5 -13t-22.5 -44q0 -56 89 -56z" />
    <glyph glyph-name="aring" unicode="&#xe5;" horiz-adv-x="531" 
d="M272 530q-59 0 -95 34t-36 87t35.5 85.5t95.5 32.5t95 -32.5t35 -85.5t-35 -87t-95 -34zM272 695q-21 0 -33.5 -12t-12.5 -32q0 -21 12 -34t34 -13q21 0 33.5 13t12.5 34q0 20 -12.5 32t-33.5 12zM494 0h-120q-9 32 -11 57q-47 -65 -155 -65q-77 0 -130.5 38.5
t-53.5 113.5q0 158 195 158q73 0 139 -29v28q1 45 -27.5 63.5t-83.5 18.5q-90 0 -132 -45l-57 91q86 62 204 62q105 0 165 -50.5t58 -153.5q-1 -54 -1 -163q0 -94 10 -124zM245 95q78 0 112 43v51q-50 19 -108 19q-48 0 -70.5 -13t-22.5 -44q0 -56 89 -56z" />
    <glyph glyph-name="ae" unicode="&#xe6;" horiz-adv-x="866" 
d="M846 230v-20h-358q7 -112 121 -112q103 0 139 61l73 -79q-81 -89 -212 -89q-125 0 -182 73q-28 -31 -83.5 -52t-128.5 -21q-82 0 -137 38.5t-56 114.5q-2 81 50.5 120.5t144.5 39.5q71 0 141 -27v23q1 49 -27.5 68.5t-80.5 19.5q-91 0 -135 -46l-60 79q44 34 92.5 51.5
t120.5 17.5q58 0 103 -20t65 -54q52 76 169 76q110 0 175.5 -71t65.5 -191zM490 299h217q-8 98 -104 98q-95 0 -113 -98zM245 95q77 0 112 33v70q-52 16 -105 16q-49 0 -72 -14t-23 -49q0 -56 88 -56z" />
    <glyph glyph-name="ccedilla" unicode="&#xe7;" horiz-adv-x="504" 
d="M490 83q-66 -81 -185 -90l-10 -43q48 3 77.5 -17.5t29.5 -64.5q0 -51 -34 -78.5t-97 -27.5q-35 0 -70 9t-53 22l31 84q13 -15 37.5 -28.5t51.5 -13.5q44 0 44 32q0 26 -31 26q-14 0 -23 -6l-48 35l9 74q-92 14 -143 72.5t-51 153.5v29q0 109 69.5 174.5t183.5 65.5
q137 0 210 -83l-72 -87q-42 58 -131 58q-53 0 -86 -32t-33 -91v-30q0 -123 119 -123q42 0 78.5 18.5t55.5 48.5z" />
    <glyph glyph-name="egrave" unicode="&#xe8;" horiz-adv-x="533" 
d="M343 550h-115l-157 175h158zM271 491q66 0 114.5 -21.5t75.5 -59t39.5 -82.5t12.5 -98v-22h-357q7 -111 124 -111q93 0 132 64l77 -81q-78 -89 -216 -89q-114 0 -181 60.5t-67 169.5v21q0 107 67.5 178t178.5 71zM159 300h217q-10 95 -105 95q-94 0 -112 -95z" />
    <glyph glyph-name="eacute" unicode="&#xe9;" horiz-adv-x="533" 
d="M488 725l-169 -176h-115l127 176h157zM271 491q66 0 114.5 -21.5t75.5 -59t39.5 -82.5t12.5 -98v-22h-357q7 -111 124 -111q93 0 132 64l77 -81q-78 -89 -216 -89q-114 0 -181 60.5t-67 169.5v21q0 107 67.5 178t178.5 71zM159 300h217q-10 95 -105 95q-94 0 -112 -95z
" />
    <glyph glyph-name="ecircumflex" unicode="&#xea;" horiz-adv-x="533" 
d="M279 657l-68 -108h-131l134 176h132l127 -176h-130zM271 491q66 0 114.5 -21.5t75.5 -59t39.5 -82.5t12.5 -98v-22h-357q7 -111 124 -111q93 0 132 64l77 -81q-78 -89 -216 -89q-114 0 -181 60.5t-67 169.5v21q0 107 67.5 178t178.5 71zM159 300h217q-10 95 -105 95
q-94 0 -112 -95z" />
    <glyph glyph-name="edieresis" unicode="&#xeb;" horiz-adv-x="533" 
d="M241 674v-125h-138v125h138zM456 674v-125h-139v125h139zM271 491q66 0 114.5 -21.5t75.5 -59t39.5 -82.5t12.5 -98v-22h-357q7 -111 124 -111q93 0 132 64l77 -81q-78 -89 -216 -89q-114 0 -181 60.5t-67 169.5v21q0 107 67.5 178t178.5 71zM159 300h217q-10 95 -105 95
q-94 0 -112 -95z" />
    <glyph glyph-name="igrave" unicode="&#xec;" horiz-adv-x="245" 
d="M74 725l111 -175h-112l-154 175h155zM193 482v-482h-140v482h140z" />
    <glyph glyph-name="iacute" unicode="&#xed;" horiz-adv-x="245" 
d="M328 725l-166 -176h-112l124 176h154zM193 482v-482h-140v482h140z" />
    <glyph glyph-name="icircumflex" unicode="&#xee;" horiz-adv-x="245" 
d="M122 657l-66 -108h-127l130 176h128l123 -176h-126zM53 0v482h140v-482h-140z" />
    <glyph glyph-name="idieresis" unicode="&#xef;" horiz-adv-x="245" 
d="M96 674v-125h-130v125h130zM278 674v-125h-130v125h130zM193 482v-482h-140v482h140z" />
    <glyph glyph-name="eth" unicode="&#xf0;" horiz-adv-x="556" 
d="M413 593q117 -140 117 -304v-38q0 -121 -65 -190t-188 -69q-118 0 -185 62t-67 162v28q0 107 60 169.5t165 62.5q67 0 118 -34q-23 56 -70 109l-148 -55l-38 83l113 43q-57 48 -128 97h175q32 -21 69 -53l112 43l38 -87zM282 98q50 0 80.5 32.5t30.5 95.5v37
q-7 109 -113 109q-115 0 -115 -126v-27q0 -59 32 -90t85 -31z" />
    <glyph glyph-name="ntilde" unicode="&#xf1;" horiz-adv-x="579" 
d="M384 556q-27 0 -79 14t-82 13q-54 0 -93 -39v110q32 34 98 34q26 0 77.5 -14t75.5 -14q63 0 88 34v-113q-27 -25 -85 -25zM342 491q86 0 138.5 -55t52.5 -160v-276h-145v271q0 99 -92 99q-65 0 -99 -47v-323h-144v482h125l10 -70q48 79 154 79z" />
    <glyph glyph-name="ograve" unicode="&#xf2;" horiz-adv-x="553" 
d="M227 725l114 -175h-115l-157 175h158zM277 491q116 0 183 -63.5t67 -171.5v-30q0 -107 -67 -170.5t-183 -63.5q-117 0 -184.5 63.5t-67.5 173.5v29q0 105 68 169t184 64zM277 384q-54 0 -83 -33t-29 -91v-35q0 -60 28.5 -93t83.5 -33q54 0 82.5 32.5t28.5 92.5v35
q0 59 -28.5 92t-82.5 33z" />
    <glyph glyph-name="oacute" unicode="&#xf3;" horiz-adv-x="553" 
d="M487 725l-169 -176h-115l127 176h157zM277 491q116 0 183 -63.5t67 -171.5v-30q0 -107 -67 -170.5t-183 -63.5q-117 0 -184.5 63.5t-67.5 173.5v29q0 105 68 169t184 64zM277 384q-54 0 -83 -33t-29 -91v-35q0 -60 28.5 -93t83.5 -33q54 0 82.5 32.5t28.5 92.5v35
q0 59 -28.5 92t-82.5 33z" />
    <glyph glyph-name="ocircumflex" unicode="&#xf4;" horiz-adv-x="553" 
d="M277 657l-68 -108h-131l134 176h132l127 -176h-130zM277 491q116 0 183 -63.5t67 -171.5v-30q0 -107 -67 -170.5t-183 -63.5q-117 0 -184.5 63.5t-67.5 173.5v29q0 105 68 169t184 64zM388 224v35q0 59 -28.5 92t-82.5 33t-83 -33t-29 -91v-35q0 -60 28.5 -93t83.5 -33
q54 0 82.5 32.5t28.5 92.5z" />
    <glyph glyph-name="otilde" unicode="&#xf5;" horiz-adv-x="553" 
d="M449 694v-113q-27 -25 -85 -25q-27 0 -79 14t-82 13q-54 0 -93 -39v110q32 34 98 34q26 0 77.5 -14t75.5 -14q63 0 88 34zM277 491q116 0 183 -63.5t67 -171.5v-30q0 -107 -67 -170.5t-183 -63.5q-117 0 -184.5 63.5t-67.5 173.5v29q0 105 68 169t184 64zM277 384
q-54 0 -83 -33t-29 -91v-35q0 -60 28.5 -93t83.5 -33q54 0 82.5 32.5t28.5 92.5v35q0 59 -28.5 92t-82.5 33z" />
    <glyph glyph-name="odieresis" unicode="&#xf6;" horiz-adv-x="553" 
d="M239 674v-125h-138v125h138zM454 674v-125h-139v125h139zM277 491q116 0 183 -63.5t67 -171.5v-30q0 -107 -67 -170.5t-183 -63.5q-117 0 -184.5 63.5t-67.5 173.5v29q0 105 68 169t184 64zM277 384q-54 0 -83 -33t-29 -91v-35q0 -60 28.5 -93t83.5 -33q54 0 82.5 32.5
t28.5 92.5v35q0 59 -28.5 92t-82.5 33z" />
    <glyph glyph-name="divide" unicode="&#xf7;" horiz-adv-x="565" 
d="M350 569v-134h-138v134h138zM521 370v-119h-476v119h476zM349 187v-134h-137v134h137z" />
    <glyph glyph-name="oslash" unicode="&#xf8;" horiz-adv-x="553" 
d="M456 430q71 -62 71 -174v-30q0 -107 -67 -170.5t-183 -63.5q-44 0 -75 8l-43 -73h-137l75 124q-72 66 -72 178v29q0 105 68 169t184 64q38 0 75 -8l46 77h139zM388 224v35q0 59 -28.5 92t-82.5 33t-83 -33t-29 -91v-35q0 -60 28.5 -93t83.5 -33q54 0 82.5 32.5t28.5 92.5
z" />
    <glyph glyph-name="ugrave" unicode="&#xf9;" horiz-adv-x="568" 
d="M350 550h-115l-157 175h158zM532 0h-135q-7 27 -12 59q-23 -29 -62 -48t-84 -19q-88 0 -141 49.5t-53 156.5v284h144v-278q0 -52 21.5 -75.5t69.5 -23.5q61 0 94 41v336h145v-346q0 -99 13 -136z" />
    <glyph glyph-name="uacute" unicode="&#xfa;" horiz-adv-x="568" 
d="M495 725l-169 -176h-115l127 176h157zM532 0h-135q-7 27 -12 59q-23 -29 -62 -48t-84 -19q-88 0 -141 49.5t-53 156.5v284h144v-278q0 -52 21.5 -75.5t69.5 -23.5q61 0 94 41v336h145v-346q0 -99 13 -136z" />
    <glyph glyph-name="ucircumflex" unicode="&#xfb;" horiz-adv-x="568" 
d="M285 657l-68 -108h-131l134 176h132l127 -176h-130zM532 0h-135q-7 27 -12 59q-23 -29 -62 -48t-84 -19q-88 0 -141 49.5t-53 156.5v284h144v-278q0 -52 21.5 -75.5t69.5 -23.5q61 0 94 41v336h145v-346q0 -99 13 -136z" />
    <glyph glyph-name="udieresis" unicode="&#xfc;" horiz-adv-x="568" 
d="M247 674v-125h-138v125h138zM462 674v-125h-139v125h139zM532 0h-135q-7 27 -12 59q-23 -29 -62 -48t-84 -19q-88 0 -141 49.5t-53 156.5v284h144v-278q0 -52 21.5 -75.5t69.5 -23.5q61 0 94 41v336h145v-346q0 -99 13 -136z" />
    <glyph glyph-name="yacute" unicode="&#xfd;" horiz-adv-x="529" 
d="M481 725l-169 -176h-115l127 176h157zM377 482h150q-162 -444 -279 -673l-139 36q42 77 77 157l-183 480h152l108 -366z" />
    <glyph glyph-name="thorn" unicode="&#xfe;" horiz-adv-x="582" 
d="M344 491q95 0 154 -60.5t59 -175.5v-22q0 -114 -62.5 -177.5t-166.5 -63.5q-84 0 -141 42v-225h-137v673h1v237h140v-293q56 65 153 65zM416 233v24q0 121 -116 121q-71 0 -111 -47v-188q43 -40 107 -40q120 0 120 130z" />
    <glyph glyph-name="ydieresis" unicode="&#xff;" horiz-adv-x="529" 
d="M233 674v-125h-138v125h138zM448 674v-125h-139v125h139zM377 482h150q-162 -444 -279 -673l-139 36q42 77 77 157l-183 480h152l108 -366z" />
    <glyph glyph-name="Amacron" unicode="&#x100;" horiz-adv-x="726" 
d="M565 855v-113h-381v113h381zM566 0l-50 144h-302l-55 -144h-151l272 675h184l254 -675h-152zM259 263h215l-103 295z" />
    <glyph glyph-name="amacron" unicode="&#x101;" horiz-adv-x="531" 
d="M440 676v-108h-338v108h338zM494 0h-120q-9 32 -11 57q-47 -65 -155 -65q-77 0 -130.5 38.5t-53.5 113.5q0 158 195 158q73 0 139 -29v28q1 45 -27.5 63.5t-83.5 18.5q-90 0 -132 -45l-57 91q86 62 204 62q105 0 165 -50.5t58 -153.5q-1 -54 -1 -163q0 -94 10 -124z
M245 95q78 0 112 43v51q-50 19 -108 19q-48 0 -70.5 -13t-22.5 -44q0 -56 89 -56z" />
    <glyph glyph-name="Abreve" unicode="&#x102;" horiz-adv-x="726" 
d="M378 727q-80 0 -132 45.5t-66 107.5h136q3 -27 17.5 -46t43.5 -19t44 19t18 46h137q-14 -62 -65.5 -107.5t-132.5 -45.5zM566 0l-50 144h-302l-55 -144h-151l272 675h184l254 -675h-152zM259 263h215l-103 295z" />
    <glyph glyph-name="abreve" unicode="&#x103;" horiz-adv-x="531" 
d="M272 545q-76 0 -124.5 45t-63.5 121h127q2 -37 17.5 -60.5t43.5 -23.5q54 0 61 84h127q-15 -76 -64 -121t-124 -45zM494 0h-120q-9 32 -11 57q-47 -65 -155 -65q-77 0 -130.5 38.5t-53.5 113.5q0 158 195 158q73 0 139 -29v28q1 45 -27.5 63.5t-83.5 18.5q-90 0 -132 -45
l-57 91q86 62 204 62q105 0 165 -50.5t58 -153.5q-1 -54 -1 -163q0 -94 10 -124zM245 95q78 0 112 43v51q-50 19 -108 19q-48 0 -70.5 -13t-22.5 -44q0 -56 89 -56z" />
    <glyph glyph-name="Aogonek" unicode="&#x104;" horiz-adv-x="726" 
d="M643 -146q34 0 47 24l21 -94q-29 -31 -101 -31q-57 0 -95 32.5t-38 89.5q0 86 88 130l-49 139h-302l-55 -144h-151l272 675h184l253 -672l7 -3q-54 -10 -89 -37t-35 -66q0 -43 43 -43zM259 263h215l-103 295z" />
    <glyph glyph-name="aogonek" unicode="&#x105;" horiz-adv-x="531" 
d="M418 -127q27 0 47 18l22 -86q-41 -31 -102 -31q-51 0 -85.5 32t-34.5 83q0 88 105 126q-3 14 -7 42q-47 -65 -155 -65q-77 0 -130.5 38.5t-53.5 113.5q0 158 195 158q73 0 139 -29v28q1 45 -27.5 63.5t-83.5 18.5q-90 0 -132 -45l-57 91q86 62 204 62q105 0 165 -50.5
t58 -153.5q-1 -54 -1 -163q0 -94 10 -124h1q-122 -26 -122 -86q0 -44 45 -41zM245 95q78 0 112 43v51q-50 19 -108 19q-48 0 -70.5 -13t-22.5 -44q0 -56 89 -56z" />
    <glyph glyph-name="Cacute" unicode="&#x106;" horiz-adv-x="659" 
d="M624 887l-207 -155h-129l150 155h186zM371 683q176 0 269 -100l-78 -105q-65 76 -190 76q-86 0 -136 -54.5t-50 -152.5v-33q0 -95 50.5 -144.5t140.5 -49.5q61 0 111 24t76 66l79 -104q-40 -50 -109.5 -82t-160.5 -32q-156 0 -247 83t-91 236v32q0 151 90 245.5t246 94.5
z" />
    <glyph glyph-name="cacute" unicode="&#x107;" horiz-adv-x="504" 
d="M487 725l-169 -176h-115l127 176h157zM278 491q137 0 210 -83l-72 -87q-42 58 -131 58q-53 0 -86 -32t-33 -91v-30q0 -123 119 -123q42 0 78.5 18.5t55.5 48.5l71 -87q-33 -41 -87.5 -66t-123.5 -25q-120 0 -187 60t-67 170v29q0 109 69.5 174.5t183.5 65.5z" />
    <glyph glyph-name="Ccircumflex" unicode="&#x108;" horiz-adv-x="659" 
d="M365 823l-65 -91h-151l146 156h143l144 -156h-152zM564 210l79 -104q-40 -50 -109.5 -82t-160.5 -32q-156 0 -247 83t-91 236v32q0 151 90 245.5t246 94.5q176 0 269 -100l-78 -105q-65 76 -190 76q-86 0 -136 -54.5t-50 -152.5v-33q0 -95 50.5 -144.5t140.5 -49.5
q61 0 111 24t76 66z" />
    <glyph glyph-name="ccircumflex" unicode="&#x109;" horiz-adv-x="504" 
d="M277 657l-68 -108h-131l134 176h132l127 -176h-130zM419 170l71 -87q-33 -41 -87.5 -66t-123.5 -25q-120 0 -187 60t-67 170v29q0 109 69.5 174.5t183.5 65.5q137 0 210 -83l-72 -87q-42 58 -131 58q-53 0 -86 -32t-33 -91v-30q0 -123 119 -123q42 0 78.5 18.5t55.5 48.5
z" />
    <glyph glyph-name="Cdotaccent" unicode="&#x10a;" horiz-adv-x="659" 
d="M289 875h150v-137h-150v137zM371 683q176 0 269 -100l-78 -105q-65 76 -190 76q-86 0 -136 -54.5t-50 -152.5v-33q0 -95 50.5 -144.5t140.5 -49.5q61 0 111 24t76 66l79 -104q-40 -50 -109.5 -82t-160.5 -32q-156 0 -247 83t-91 236v32q0 151 90 245.5t246 94.5z" />
    <glyph glyph-name="cdotaccent" unicode="&#x10b;" horiz-adv-x="504" 
d="M204 687h147v-128h-147v128zM278 491q137 0 210 -83l-72 -87q-42 58 -131 58q-53 0 -86 -32t-33 -91v-30q0 -123 119 -123q42 0 78.5 18.5t55.5 48.5l71 -87q-33 -41 -87.5 -66t-123.5 -25q-120 0 -187 60t-67 170v29q0 109 69.5 174.5t183.5 65.5z" />
    <glyph glyph-name="Ccaron" unicode="&#x10c;" horiz-adv-x="659" 
d="M434 732h-140l-148 155h152l65 -91l68 91h151zM564 210l79 -104q-40 -50 -109.5 -82t-160.5 -32q-156 0 -247 83t-91 236v32q0 151 90 245.5t246 94.5q176 0 269 -100l-78 -105q-65 76 -190 76q-86 0 -136 -54.5t-50 -152.5v-33q0 -95 50.5 -144.5t140.5 -49.5
q61 0 111 24t76 66z" />
    <glyph glyph-name="ccaron" unicode="&#x10d;" horiz-adv-x="504" 
d="M349 550h-140l-126 175h134l62 -114l62 114h134zM419 170l71 -87q-33 -41 -87.5 -66t-123.5 -25q-120 0 -187 60t-67 170v29q0 109 69.5 174.5t183.5 65.5q137 0 210 -83l-72 -87q-42 58 -131 58q-53 0 -86 -32t-33 -91v-30q0 -123 119 -123q42 0 78.5 18.5t55.5 48.5z
" />
    <glyph glyph-name="Dcaron" unicode="&#x10e;" horiz-adv-x="730" 
d="M422 730h-140l-148 155h152l65 -91l68 91h151zM357 675q160 0 249 -84t89 -239v-26q0 -150 -85.5 -238t-252.5 -88h-292v675h292zM544 321v32q0 101 -46.5 149.5t-141.5 48.5h-142v-427h140q93 0 141.5 50t48.5 147z" />
    <glyph glyph-name="dcaron" unicode="&#x10f;" horiz-adv-x="575" 
d="M600 727h124l-50 -194h-96zM532 719v-580q0 -105 7 -139h-128q-5 15 -12 57q-53 -65 -154 -65q-93 0 -156 60t-63 166v27q0 117 67 181.5t172 64.5q39 0 73.5 -13.5t52.5 -32.5v274h141zM280 105q70 0 111 45v186q-38 41 -109 41q-57 0 -86 -34t-29 -96v-23
q0 -119 113 -119z" />
    <glyph glyph-name="Dcroat" unicode="&#x110;" horiz-adv-x="732" 
d="M357 675q161 0 250.5 -84t89.5 -239v-26q0 -150 -85.5 -238t-253.5 -88h-293v281h-49v116h49v278h292zM545 321v32q0 101 -46.5 149.5t-141.5 48.5h-143v-154h168v-116h-168v-157h140q93 0 142 50t49 147z" />
    <glyph glyph-name="dcroat" unicode="&#x111;" horiz-adv-x="576" 
d="M592 536h-59v-397q0 -97 7 -139h-128q-8 26 -12 57q-53 -65 -155 -65q-93 0 -156 60t-63 166v27q0 118 67 182t173 64q39 0 73.5 -13.5t52.5 -32.5v91h-163v96h163v87h141v-87h59v-96zM281 105q71 0 110 45v187q-39 40 -109 40q-57 0 -86 -34t-29 -96v-23
q0 -119 114 -119z" />
    <glyph glyph-name="Emacron" unicode="&#x112;" horiz-adv-x="638" 
d="M530 855v-113h-381v113h381zM602 551h-390v-149h315v-122h-315v-156h388v-124h-535v675h537v-124z" />
    <glyph glyph-name="emacron" unicode="&#x113;" horiz-adv-x="533" 
d="M448 676v-108h-338v108h338zM271 491q66 0 114.5 -21.5t75.5 -59t39.5 -82.5t12.5 -98v-22h-357q7 -111 124 -111q93 0 132 64l77 -81q-78 -89 -216 -89q-114 0 -181 60.5t-67 169.5v21q0 107 67.5 178t178.5 71zM159 300h217q-10 95 -105 95q-94 0 -112 -95z" />
    <glyph glyph-name="Ebreve" unicode="&#x114;" horiz-adv-x="638" 
d="M342 727q-80 0 -132 45.5t-66 107.5h136q3 -27 17.5 -46t43.5 -19t44 19t18 46h137q-14 -62 -65.5 -107.5t-132.5 -45.5zM602 551h-390v-149h315v-122h-315v-156h388v-124h-535v675h537v-124z" />
    <glyph glyph-name="ebreve" unicode="&#x115;" horiz-adv-x="533" 
d="M280 545q-76 0 -124.5 45t-63.5 121h127q2 -37 17.5 -60.5t43.5 -23.5q54 0 61 84h127q-15 -76 -64 -121t-124 -45zM271 491q66 0 114.5 -21.5t75.5 -59t39.5 -82.5t12.5 -98v-22h-357q7 -111 124 -111q93 0 132 64l77 -81q-78 -89 -216 -89q-114 0 -181 60.5t-67 169.5
v21q0 107 67.5 178t178.5 71zM159 300h217q-10 95 -105 95q-94 0 -112 -95z" />
    <glyph glyph-name="Edotaccent" unicode="&#x116;" horiz-adv-x="638" 
d="M413 873v-137h-150v137h150zM602 551h-390v-149h315v-122h-315v-156h388v-124h-535v675h537v-124z" />
    <glyph glyph-name="edotaccent" unicode="&#x117;" horiz-adv-x="533" 
d="M352 687v-128h-147v128h147zM271 491q66 0 114.5 -21.5t75.5 -59t39.5 -82.5t12.5 -98v-22h-357q7 -111 124 -111q93 0 132 64l77 -81q-78 -89 -216 -89q-114 0 -181 60.5t-67 169.5v21q0 107 67.5 178t178.5 71zM159 300h217q-10 95 -105 95q-94 0 -112 -95z" />
    <glyph glyph-name="Eogonek" unicode="&#x118;" horiz-adv-x="638" 
d="M602 551h-390v-149h315v-122h-315v-156h388v-124q-54 -10 -89 -37t-35 -66q0 -43 43 -43q34 0 47 24l21 -94q-29 -31 -101 -31q-57 0 -95 32.5t-38 89.5q0 82 79 125h-367v675h537v-124z" />
    <glyph glyph-name="eogonek" unicode="&#x119;" horiz-adv-x="533" 
d="M271 491q66 0 114.5 -21.5t75.5 -59t39.5 -82.5t12.5 -98v-22h-357q7 -111 124 -111q93 0 132 64l77 -81q-16 -16 -25 -24q-23 -22 -65.5 -46.5t-65 -45.5t-22.5 -51q0 -44 47 -41q28 0 45 20l22 -87q-39 -31 -100 -31q-55 0 -88.5 31t-33.5 83q0 64 63 103
q-111 2 -176 62.5t-65 167.5v21q0 107 67.5 178t178.5 71zM159 300h217q-10 95 -105 95q-94 0 -112 -95z" />
    <glyph glyph-name="Ecaron" unicode="&#x11a;" horiz-adv-x="638" 
d="M409 730h-140l-148 155h152l65 -91l68 91h151zM602 551h-390v-149h315v-122h-315v-156h388v-124h-535v675h537v-124z" />
    <glyph glyph-name="ecaron" unicode="&#x11b;" horiz-adv-x="533" 
d="M350 550h-140l-126 175h134l62 -114l62 114h134zM271 491q66 0 114.5 -21.5t75.5 -59t39.5 -82.5t12.5 -98v-22h-357q7 -111 124 -111q93 0 132 64l77 -81q-78 -89 -216 -89q-114 0 -181 60.5t-67 169.5v21q0 107 67.5 178t178.5 71zM159 300h217q-10 95 -105 95
q-94 0 -112 -95z" />
    <glyph glyph-name="Gcircumflex" unicode="&#x11c;" horiz-adv-x="723" 
d="M381 822l-65 -91h-151l146 156h143l144 -156h-152zM677 0h-108q-10 18 -19 74q-78 -82 -208 -82q-137 0 -222 83t-85 232v33q0 150 89 246.5t247 96.5q172 0 277 -96l-81 -101q-68 69 -200 69q-83 0 -131.5 -56.5t-48.5 -155.5v-28q0 -99 48 -149.5t134 -50.5
q103 1 163 57v101h-161v109h299v-267q0 -65 7 -115z" />
    <glyph glyph-name="gcircumflex" unicode="&#x11d;" horiz-adv-x="568" 
d="M287 657l-68 -108h-131l134 176h132l127 -176h-130zM400 482h121v-460q0 -115 -71 -168t-179 -53q-140 0 -230 80l67 92q60 -63 159 -63q60 0 90.5 22t30.5 73v60q-15 -25 -53 -44.5t-88 -19.5q-101 1 -161.5 61.5t-60.5 160.5v23q0 106 62 175.5t165 69.5q48 0 87 -18.5
t54 -47.5zM280 113q73 0 108 52v166q-35 45 -110 45q-55 0 -83.5 -34.5t-28.5 -94.5v-19q0 -115 114 -115z" />
    <glyph glyph-name="Gbreve" unicode="&#x11e;" horiz-adv-x="723" 
d="M384 727q-80 0 -132 45.5t-66 107.5h136q3 -27 17.5 -46t43.5 -19t44 19t18 46h137q-14 -62 -65.5 -107.5t-132.5 -45.5zM677 0h-108q-10 18 -19 74q-78 -82 -208 -82q-137 0 -222 83t-85 232v33q0 150 89 246.5t247 96.5q172 0 277 -96l-81 -101q-68 69 -200 69
q-83 0 -131.5 -56.5t-48.5 -155.5v-28q0 -99 48 -149.5t134 -50.5q103 1 163 57v101h-161v109h299v-267q0 -65 7 -115z" />
    <glyph glyph-name="gbreve" unicode="&#x11f;" horiz-adv-x="568" 
d="M288 545q-76 0 -124.5 45t-63.5 121h127q2 -37 17.5 -60.5t43.5 -23.5q54 0 61 84h127q-15 -76 -64 -121t-124 -45zM400 482h121v-460q0 -115 -71 -168t-179 -53q-140 0 -230 80l67 92q60 -63 159 -63q60 0 90.5 22t30.5 73v60q-15 -25 -53 -44.5t-88 -19.5
q-101 1 -161.5 61.5t-60.5 160.5v23q0 106 62 175.5t165 69.5q48 0 87 -18.5t54 -47.5zM280 113q73 0 108 52v166q-35 45 -110 45q-55 0 -83.5 -34.5t-28.5 -94.5v-19q0 -115 114 -115z" />
    <glyph glyph-name="Gdotaccent" unicode="&#x120;" horiz-adv-x="723" 
d="M455 874v-137h-150v137h150zM677 0h-108q-10 18 -19 74q-78 -82 -208 -82q-137 0 -222 83t-85 232v33q0 150 89 246.5t247 96.5q172 0 277 -96l-81 -101q-68 69 -200 69q-83 0 -131.5 -56.5t-48.5 -155.5v-28q0 -99 48 -149.5t134 -50.5q103 1 163 57v101h-161v109h299
v-267q0 -65 7 -115z" />
    <glyph glyph-name="gdotaccent" unicode="&#x121;" horiz-adv-x="568" 
d="M360 687v-128h-147v128h147zM400 482h121v-460q0 -115 -71 -168t-179 -53q-140 0 -230 80l67 92q60 -63 159 -63q60 0 90.5 22t30.5 73v60q-15 -25 -53 -44.5t-88 -19.5q-101 1 -161.5 61.5t-60.5 160.5v23q0 106 62 175.5t165 69.5q48 0 87 -18.5t54 -47.5zM280 113
q73 0 108 52v166q-35 45 -110 45q-55 0 -83.5 -34.5t-28.5 -94.5v-19q0 -115 114 -115z" />
    <glyph glyph-name="Gcommaaccent" unicode="&#x122;" horiz-adv-x="723" 
d="M677 0h-108q-10 18 -19 74q-78 -82 -208 -82q-137 0 -222 83t-85 232v33q0 150 89 246.5t247 96.5q172 0 277 -96l-81 -101q-68 69 -200 69q-83 0 -131.5 -56.5t-48.5 -155.5v-28q0 -99 48 -149.5t134 -50.5q103 1 163 57v101h-161v109h299v-267q0 -65 7 -115zM191 -258
l110 201h149l-146 -201h-113z" />
    <glyph glyph-name="gcommaaccent" unicode="&#x123;" horiz-adv-x="568" 
d="M477 722l-125 -173h-162l160 173h127zM400 482h121v-460q0 -115 -71 -168t-179 -53q-140 0 -230 80l67 92q60 -63 159 -63q60 0 90.5 22t30.5 73v60q-15 -25 -53 -44.5t-88 -19.5q-101 1 -161.5 61.5t-60.5 160.5v23q0 106 62 175.5t165 69.5q48 0 87 -18.5t54 -47.5z
M280 113q73 0 108 52v166q-35 45 -110 45q-55 0 -83.5 -34.5t-28.5 -94.5v-19q0 -115 114 -115z" />
    <glyph glyph-name="Hcircumflex" unicode="&#x124;" horiz-adv-x="741" 
d="M371 821l-65 -91h-151l146 156h143l144 -156h-152zM523 675h153v-675h-153v273h-306v-273h-152v675h152v-270h306v270z" />
    <glyph glyph-name="hcircumflex" unicode="&#x125;" horiz-adv-x="581" 
d="M124 836l-55 -90h-147l129 156h148l126 -156h-147zM345 491q92 0 140.5 -56.5t48.5 -159.5v-275h-145v269q0 52 -22 76.5t-69 24.5q-69 0 -104 -52v-318h-144v719h145v-297q46 69 150 69z" />
    <glyph glyph-name="Hbar" unicode="&#x126;" horiz-adv-x="749" 
d="M740 573v-95h-60v-478h-150v265h-311v-265h-150v478h-60v95h60v102h150v-102h311v102h150v-102h60zM530 397v81h-311v-81h311z" />
    <glyph glyph-name="hbar" unicode="&#x127;" horiz-adv-x="578" 
d="M344 491q91 0 139.5 -56.5t48.5 -159.5v-275h-145v269q0 53 -21.5 77t-69.5 24q-66 0 -103 -52v-318h-144v538h-46v93h46v88h145v-88h146v-93h-146v-117q44 70 150 70z" />
    <glyph glyph-name="Itilde" unicode="&#x128;" horiz-adv-x="283" 
d="M317 884v-116q-32 -26 -91 -26q-28 0 -77.5 10.5t-79.5 10.5q-65 0 -96 -36v111q24 36 92 36q36 0 86.5 -13.5t70.5 -13.5q31 0 57.5 10.5t37.5 26.5zM67 0v675h149v-675h-149z" />
    <glyph glyph-name="itilde" unicode="&#x129;" horiz-adv-x="245" 
d="M288 694v-113q-27 -25 -83 -25q-26 0 -75.5 14t-78.5 13q-52 0 -89 -39l-1 110q30 34 95 34q25 0 74.5 -14t72.5 -14q60 0 85 34zM193 482v-482h-140v482h140z" />
    <glyph glyph-name="Imacron" unicode="&#x12a;" horiz-adv-x="283" 
d="M320 855v-113h-357v113h357zM67 0v675h149v-675h-149z" />
    <glyph glyph-name="imacron" unicode="&#x12b;" horiz-adv-x="245" 
d="M282 676v-108h-318v108h318zM193 482v-482h-140v482h140z" />
    <glyph glyph-name="Ibreve" unicode="&#x12c;" horiz-adv-x="283" 
d="M327 879q-13 -64 -61 -108t-122 -44q-72 0 -120 44t-62 108h130q2 -26 15 -45t37 -19q26 0 39 19t15 45h129zM67 0v675h149v-675h-149z" />
    <glyph glyph-name="ibreve" unicode="&#x12d;" horiz-adv-x="245" 
d="M305 711q-16 -76 -62.5 -121t-119.5 -45t-119.5 45t-61.5 121h123q2 -37 16.5 -60.5t41.5 -23.5q52 0 59 84h123zM193 482v-482h-140v482h140z" />
    <glyph glyph-name="Iogonek" unicode="&#x12e;" horiz-adv-x="283" 
d="M135 -146q34 0 48 24l20 -94q-29 -31 -101 -31q-56 0 -94 32.5t-38 89.5q0 90 97 134v666h149v-675q-54 -10 -88.5 -37t-34.5 -66q0 -43 42 -43z" />
    <glyph glyph-name="iogonek" unicode="&#x12f;" horiz-adv-x="245" 
d="M49 689h147v-135h-147v135zM193 0q-122 -26 -122 -86q0 -44 45 -41q28 0 47 18l22 -86q-41 -31 -102 -31q-51 0 -85.5 32t-34.5 83q0 81 90 120v473h140v-482z" />
    <glyph glyph-name="Idotaccent" unicode="&#x130;" horiz-adv-x="283" 
d="M66 864h151v-135h-151v135zM67 0v675h149v-675h-149z" />
    <glyph glyph-name="dotlessi" unicode="&#x131;" horiz-adv-x="245" 
d="M193 482v-482h-140v482h140z" />
    <glyph glyph-name="IJ" unicode="&#x132;" horiz-adv-x="910" 
d="M67 0v675h149v-675h-149zM857 675v-408q0 -140 -71.5 -207.5t-220.5 -67.5q-88 0 -158 32.5t-110 81.5l82 111q27 -40 77.5 -68.5t108.5 -28.5q75 0 109 34t34 112v284h-353v125h502z" />
    <glyph glyph-name="ij" unicode="&#x133;" horiz-adv-x="492" 
d="M50 675h144v-123h-144v123zM298 675h143v-123h-143v123zM193 482v-482h-141v482h141zM440 482v-498q0 -88 -41 -134t-115 -46q-69 0 -131 29l34 109q34 -28 69 -28q27 0 35.5 15t8.5 54v499h140z" />
    <glyph glyph-name="Jcircumflex" unicode="&#x134;" horiz-adv-x="627" 
d="M322 821l-65 -91h-151l146 156h143l144 -156h-152zM72 675h502v-408q0 -140 -71.5 -207.5t-220.5 -67.5q-88 0 -158 32.5t-110 81.5l82 111q27 -40 77.5 -68.5t108.5 -28.5q75 0 109 34t34 112v284h-353v125z" />
    <glyph glyph-name="jcircumflex" unicode="&#x135;" horiz-adv-x="257" 
d="M131 657l-68 -108h-128l132 176h130l125 -176h-127zM58 -21v503h142v-502q0 -90 -42 -135.5t-122 -45.5q-74 0 -134 30l35 112q32 -28 72 -28q27 0 38 15t11 51z" />
    <glyph glyph-name="Kcommaaccent" unicode="&#x136;" horiz-adv-x="678" 
d="M677 675l-269 -298l267 -377h-170l-187 277l-103 -114v-163h-150v675h150v-331l276 331h186zM166 -258l110 201h149l-146 -201h-113z" />
    <glyph glyph-name="kcommaaccent" unicode="&#x137;" horiz-adv-x="545" 
d="M538 482l-192 -200l190 -282h-149l-121 198l-80 -84v-114h-137v719h136v-450l181 213h172zM110 -239l100 189h139l-129 -189h-110z" />
    <glyph glyph-name="kgreenlandic" unicode="&#x138;" horiz-adv-x="542" 
d="M378 0l-121 189l-69 -74v-115h-139v482h137v-210l172 210h175l-191 -202l193 -280h-157z" />
    <glyph glyph-name="Lacute" unicode="&#x139;" horiz-adv-x="595" 
d="M410 885l-207 -155h-129l150 155h186zM211 675v-548h354v-127h-500v675h146z" />
    <glyph glyph-name="lacute" unicode="&#x13a;" horiz-adv-x="238" 
d="M308 888l-128 -137h-122l88 137h162zM189 719v-719h-140v719h140z" />
    <glyph glyph-name="Lcommaaccent" unicode="&#x13b;" horiz-adv-x="595" 
d="M211 675v-548h354v-127h-500v675h146zM406 -57l-146 -201h-113l110 201h149z" />
    <glyph glyph-name="lcommaaccent" unicode="&#x13c;" horiz-adv-x="238" 
d="M189 719v-719h-140v719h140zM186 -50l-129 -189h-110l100 189h139z" />
    <glyph glyph-name="Lcaron" unicode="&#x13d;" horiz-adv-x="595" 
d="M211 675v-548h354v-127h-500v675h146zM420 675l-50 -194h-96l22 194h124z" />
    <glyph glyph-name="lcaron" unicode="&#x13e;" horiz-adv-x="238" 
d="M380 727l-50 -194h-96l22 194h124zM189 719v-719h-140v719h140z" />
    <glyph glyph-name="Ldot" unicode="&#x13f;" horiz-adv-x="595" 
d="M211 675v-548h354v-127h-500v675h146zM490 442v-157h-155v157h155z" />
    <glyph glyph-name="ldot" unicode="&#x140;" horiz-adv-x="334" 
d="M189 719v-719h-140v719h140zM217 431h134v-135h-134v135z" />
    <glyph glyph-name="Lslash" unicode="&#x141;" horiz-adv-x="597" 
d="M211 127h355v-127h-501v185l-57 -31v112l57 31v378h146v-299l181 99v-115l-181 -97v-136z" />
    <glyph glyph-name="lslash" unicode="&#x142;" horiz-adv-x="239" 
d="M252 468v-124l-63 -46v-298h-140v195l-59 -43v120l59 44v403h140v-298z" />
    <glyph glyph-name="Nacute" unicode="&#x143;" horiz-adv-x="731" 
d="M628 885l-207 -155h-129l150 155h186zM527 675h142v-675h-135l-330 459v-459h-141v675h137l327 -454v454z" />
    <glyph glyph-name="nacute" unicode="&#x144;" horiz-adv-x="579" 
d="M507 725l-169 -176h-115l127 176h157zM342 491q86 0 138.5 -55t52.5 -160v-276h-145v271q0 99 -92 99q-65 0 -99 -47v-323h-144v482h125l10 -70q48 79 154 79z" />
    <glyph glyph-name="Ncommaaccent" unicode="&#x145;" horiz-adv-x="731" 
d="M527 675h142v-675h-135l-330 459v-459h-141v675h137l327 -454v454zM186 -258l110 201h149l-146 -201h-113z" />
    <glyph glyph-name="ncommaaccent" unicode="&#x146;" horiz-adv-x="579" 
d="M342 491q86 0 138.5 -55t52.5 -160v-276h-145v271q0 99 -92 99q-65 0 -99 -47v-323h-144v482h125l10 -70q48 79 154 79zM124 -239l100 189h139l-129 -189h-110z" />
    <glyph glyph-name="Ncaron" unicode="&#x147;" horiz-adv-x="731" 
d="M438 730h-140l-148 155h152l65 -91l68 91h151zM527 675h142v-675h-135l-330 459v-459h-141v675h137l327 -454v454z" />
    <glyph glyph-name="ncaron" unicode="&#x148;" horiz-adv-x="579" 
d="M369 550h-140l-126 175h134l62 -114l62 114h134zM342 491q86 0 138.5 -55t52.5 -160v-276h-145v271q0 99 -92 99q-65 0 -99 -47v-323h-144v482h125l10 -70q48 79 154 79z" />
    <glyph glyph-name="Eng" unicode="&#x14a;" horiz-adv-x="735" 
d="M531 675h142v-685q0 -97 -42 -148t-123 -51q-78 0 -137 30l33 118q35 -29 78 -29q51 0 51 59v32l-328 462v-463h-142v675h141l327 -456v456z" />
    <glyph glyph-name="eng" unicode="&#x14b;" horiz-adv-x="580" 
d="M344 490q89 0 139 -55.5t50 -164.5v-279q0 -89 -42 -137.5t-120 -48.5q-76 0 -129 25l32 116q39 -30 71 -30q46 0 46 67v285q0 55 -22 78.5t-72 23.5q-64 0 -98 -49v-321h-146v482h138l5 -64q47 72 148 72z" />
    <glyph glyph-name="Omacron" unicode="&#x14c;" horiz-adv-x="736" 
d="M563 857v-113h-381v113h381zM367 683q155 0 245 -88t90 -239v-40q0 -146 -91 -235t-243 -89t-242.5 89t-90.5 235v40q0 150 89 238.5t243 88.5zM367 560q-85 0 -132.5 -52.5t-47.5 -149.5v-39q0 -96 47.5 -149.5t133.5 -53.5t133.5 53.5t47.5 149.5v39q0 97 -47.5 149.5
t-134.5 52.5z" />
    <glyph glyph-name="omacron" unicode="&#x14d;" horiz-adv-x="553" 
d="M447 676v-108h-338v108h338zM277 491q116 0 183 -63.5t67 -171.5v-30q0 -107 -67 -170.5t-183 -63.5q-117 0 -184.5 63.5t-67.5 173.5v29q0 105 68 169t184 64zM277 384q-54 0 -83 -33t-29 -91v-35q0 -60 28.5 -93t83.5 -33q54 0 82.5 32.5t28.5 92.5v35q0 59 -28.5 92
t-82.5 33z" />
    <glyph glyph-name="Obreve" unicode="&#x14e;" horiz-adv-x="736" 
d="M574 881q-14 -62 -65.5 -107.5t-132.5 -45.5q-80 0 -132 45.5t-66 107.5h136q3 -27 17.5 -46t43.5 -19t44 19t18 46h137zM367 683q155 0 245 -88t90 -239v-40q0 -146 -91 -235t-243 -89t-242.5 89t-90.5 235v40q0 150 89 238.5t243 88.5zM367 560q-85 0 -132.5 -52.5
t-47.5 -149.5v-39q0 -96 47.5 -149.5t133.5 -53.5t133.5 53.5t47.5 149.5v39q0 97 -47.5 149.5t-134.5 52.5z" />
    <glyph glyph-name="obreve" unicode="&#x14f;" horiz-adv-x="553" 
d="M466 711q-15 -76 -64 -121t-124 -45q-76 0 -124.5 45t-63.5 121h127q2 -37 17.5 -60.5t43.5 -23.5q54 0 61 84h127zM277 491q116 0 183 -63.5t67 -171.5v-30q0 -107 -67 -170.5t-183 -63.5q-117 0 -184.5 63.5t-67.5 173.5v29q0 105 68 169t184 64zM277 384
q-54 0 -83 -33t-29 -91v-35q0 -60 28.5 -93t83.5 -33q54 0 82.5 32.5t28.5 92.5v35q0 59 -28.5 92t-82.5 33z" />
    <glyph glyph-name="Ohungarumlaut" unicode="&#x150;" horiz-adv-x="736" 
d="M460 896l-133 -164h-110l106 164h137zM652 896l-145 -164h-111l119 164h137zM367 683q155 0 245 -88t90 -239v-40q0 -146 -91 -235t-243 -89t-242.5 89t-90.5 235v40q0 150 89 238.5t243 88.5zM367 560q-85 0 -132.5 -52.5t-47.5 -149.5v-39q0 -96 47.5 -149.5
t133.5 -53.5t133.5 53.5t47.5 149.5v39q0 97 -47.5 149.5t-134.5 52.5z" />
    <glyph glyph-name="ohungarumlaut" unicode="&#x151;" horiz-adv-x="553" 
d="M354 725l-115 -175h-99l86 175h128zM531 725l-128 -175h-101l99 175h130zM277 491q116 0 183 -63.5t67 -171.5v-30q0 -107 -67 -170.5t-183 -63.5q-117 0 -184.5 63.5t-67.5 173.5v29q0 105 68 169t184 64zM277 384q-54 0 -83 -33t-29 -91v-35q0 -60 28.5 -93t83.5 -33
q54 0 82.5 32.5t28.5 92.5v35q0 59 -28.5 92t-82.5 33z" />
    <glyph glyph-name="OE" unicode="&#x152;" horiz-adv-x="1054" 
d="M1019 550h-381v-147h305v-123h-305v-155h381v-125h-516q-82 -8 -125 -8q-156 0 -249.5 86t-93.5 231v40q0 150 95 242t252 92q39 0 117 -8h520v-125zM494 138v401q-43 17 -111 17q-90 0 -142 -54.5t-52 -154.5v-25q0 -99 51.5 -151t143.5 -52q68 0 110 19z" />
    <glyph glyph-name="oe" unicode="&#x153;" horiz-adv-x="896" 
d="M635 491q127 0 184.5 -74t56.5 -187v-22h-356v-11q11 -100 123 -100q93 0 132 64l77 -81q-78 -89 -216 -89q-117 0 -183 63q-67 -62 -179 -62q-116 0 -182.5 63.5t-66.5 173.5v29q0 105 67 169t182 64q117 0 185 -68q68 68 176 68zM522 300h217q-8 95 -105 95
q-94 0 -112 -95zM383 224v35q0 59 -28 92t-81 33t-82 -33t-29 -91v-35q0 -60 28 -93t83 -33q53 0 81 32.5t28 92.5z" />
    <glyph glyph-name="Racute" unicode="&#x154;" horiz-adv-x="695" 
d="M599 885l-207 -155h-129l150 155h186zM501 0l-154 229h-138v-229h-144v675h338q115 0 179.5 -56.5t64.5 -157.5v-13q0 -77 -41 -131.5t-114 -75.5l176 -241h-167zM209 553v-203h183q108 0 108 99v10q0 94 -104 94h-187z" />
    <glyph glyph-name="racute" unicode="&#x155;" horiz-adv-x="375" 
d="M424 725l-169 -176h-115l127 176h157zM190 360q27 126 118 126q39 0 63 -12l-23 -140q-27 17 -64 17q-32 0 -56.5 -21t-35.5 -57v-273h-139v482h127z" />
    <glyph glyph-name="Rcommaaccent" unicode="&#x156;" horiz-adv-x="695" 
d="M492 241l176 -241h-167l-154 229h-138v-229h-144v675h338q115 0 179.5 -56.5t64.5 -157.5v-13q0 -77 -41 -131.5t-114 -75.5zM209 553v-203h183q108 0 108 99v10q0 94 -104 94h-187zM167 -258l110 201h149l-146 -201h-113z" />
    <glyph glyph-name="rcommaaccent" unicode="&#x157;" horiz-adv-x="375" 
d="M308 486q39 0 63 -12l-23 -140q-27 17 -64 17q-32 0 -56.5 -21t-35.5 -57v-273h-139v482h127l10 -122q27 126 118 126zM-50 -239l100 189h139l-129 -189h-110z" />
    <glyph glyph-name="Rcaron" unicode="&#x158;" horiz-adv-x="695" 
d="M409 730h-140l-148 155h152l65 -91l68 91h151zM501 0l-154 229h-138v-229h-144v675h338q115 0 179.5 -56.5t64.5 -157.5v-13q0 -77 -41 -131.5t-114 -75.5l176 -241h-167zM209 553v-203h183q108 0 108 99v10q0 94 -104 94h-187z" />
    <glyph glyph-name="rcaron" unicode="&#x159;" horiz-adv-x="375" 
d="M286 550h-140l-126 175h134l62 -114l62 114h134zM190 360q27 126 118 126q39 0 63 -12l-23 -140q-27 17 -64 17q-32 0 -56.5 -21t-35.5 -57v-273h-139v482h127z" />
    <glyph glyph-name="Sacute" unicode="&#x15a;" horiz-adv-x="617" 
d="M577 885l-207 -155h-129l150 155h186zM316 -7q-181 0 -296 92l73 118q27 -35 83.5 -60.5t132.5 -25.5q70 0 104.5 20t34.5 65q0 19 -7.5 30.5t-31.5 21t-45 14t-71 14.5q-20 4 -31 6q-56 12 -88.5 22.5t-65.5 30.5t-48 51.5t-15 77.5q0 94 71 153.5t205 59.5
q149 0 248 -77l-67 -107q-29 27 -79.5 42.5t-105.5 15.5q-133 0 -133 -77q0 -33 28.5 -44.5t135.5 -32.5q35 -7 52 -11t47.5 -13t45.5 -17t36 -22.5t31 -32t17.5 -42t7.5 -54.5q0 -108 -74 -163t-195 -55z" />
    <glyph glyph-name="sacute" unicode="&#x15b;" horiz-adv-x="477" 
d="M454 725l-169 -176h-115l127 176h157zM235 -8q-137 0 -218 69l59 96q23 -28 65 -44t91 -16q102 0 102 50q0 6 -1.5 11t-5 8.5t-7 6.5t-11 5t-14 3.5t-18.5 3.5t-21.5 3.5t-26 3.5t-29.5 4q-87 16 -127 44t-40 90q0 68 51 114t155 46q129 0 201 -56l-55 -88
q-45 41 -142 41q-88 0 -88 -47q0 -5 1.5 -9.5t5 -8t7 -5.5t11 -4.5t13.5 -4t17 -3.5t19.5 -3t24 -3t26.5 -4q41 -7 65.5 -14.5t53 -22.5t42 -40.5t13.5 -63.5q0 -79 -55.5 -120.5t-163.5 -41.5z" />
    <glyph glyph-name="Scircumflex" unicode="&#x15c;" horiz-adv-x="617" 
d="M318 821l-65 -91h-151l146 156h143l144 -156h-152zM348 403q35 -7 52 -11t47.5 -13t45.5 -17t36 -22.5t31 -32t17.5 -42t7.5 -54.5q0 -108 -74 -163t-195 -55q-181 0 -296 92l73 118q27 -35 83.5 -60.5t132.5 -25.5q70 0 104.5 20t34.5 65q0 19 -7.5 30.5t-31.5 21
t-45 14t-71 14.5q-20 4 -31 6q-56 12 -88.5 22.5t-65.5 30.5t-48 51.5t-15 77.5q0 94 71 153.5t205 59.5q149 0 248 -77l-67 -107q-29 27 -79.5 42.5t-105.5 15.5q-133 0 -133 -77q0 -33 28.5 -44.5t135.5 -32.5z" />
    <glyph glyph-name="scircumflex" unicode="&#x15d;" horiz-adv-x="477" 
d="M244 657l-68 -108h-131l134 176h132l127 -176h-130zM280 295q41 -7 65.5 -14.5t53 -22.5t42 -40.5t13.5 -63.5q0 -79 -55.5 -120.5t-163.5 -41.5q-137 0 -218 69l59 96q23 -28 65 -44t91 -16q102 0 102 50q0 6 -1.5 11t-5 8.5t-7 6.5t-11 5t-14 3.5t-18.5 3.5t-21.5 3.5
t-26 3.5t-29.5 4q-87 16 -127 44t-40 90q0 68 51 114t155 46q129 0 201 -56l-55 -88q-45 41 -142 41q-88 0 -88 -47q0 -5 1.5 -9.5t5 -8t7 -5.5t11 -4.5t13.5 -4t17 -3.5t19.5 -3t24 -3t26.5 -4z" />
    <glyph glyph-name="Scedilla" unicode="&#x15e;" horiz-adv-x="617" 
d="M585 211q0 -104 -68 -158.5t-180 -59.5l-12 -42q24 2 47 -2q36 -5 60 -28t23 -66q0 -61 -44 -91t-111 -30q-44 0 -84 10t-58 25l39 93q34 -44 94 -44q54 0 54 34q0 31 -41 31q-19 0 -29 -5l-46 41l13 78q-134 17 -222 88l73 118q27 -35 83.5 -60.5t132.5 -25.5
q70 0 104.5 20t34.5 65q0 19 -7.5 30.5t-31.5 21t-45 14t-71 14.5q-20 4 -31 6q-56 12 -88.5 22.5t-65.5 30.5t-48 51.5t-15 77.5q0 94 71 153.5t205 59.5q149 0 248 -77l-67 -107q-29 27 -79.5 42.5t-105.5 15.5q-133 0 -133 -77q0 -33 28.5 -44.5t135.5 -32.5
q35 -7 52 -11t47.5 -13t45.5 -17t36 -22.5t31 -32t17.5 -42t7.5 -54.5z" />
    <glyph glyph-name="scedilla" unicode="&#x15f;" horiz-adv-x="477" 
d="M454 154q0 -147 -184 -161l-10 -43q48 3 77.5 -17.5t29.5 -64.5q0 -51 -34 -78.5t-97 -27.5q-35 0 -70 9t-53 22l31 84q13 -15 37.5 -28.5t51.5 -13.5q44 0 44 32q0 26 -31 26q-14 0 -23 -6l-48 35l9 73q-103 12 -167 66l59 96q23 -28 65 -44t91 -16q102 0 102 50
q0 6 -1.5 11t-5 8.5t-7 6.5t-11 5t-14 3.5t-18.5 3.5t-21.5 3.5t-26 3.5t-29.5 4q-87 16 -127 44t-40 90q0 68 51 114t155 46q129 0 201 -56l-55 -88q-45 41 -142 41q-88 0 -88 -47q0 -5 1.5 -9.5t5 -8t7 -5.5t11 -4.5t13.5 -4t17 -3.5t19.5 -3t24 -3t26.5 -4
q41 -7 65.5 -14.5t53 -22.5t42 -40.5t13.5 -63.5z" />
    <glyph glyph-name="Scaron" unicode="&#x160;" horiz-adv-x="617" 
d="M387 730h-140l-148 155h152l65 -91l68 91h151zM348 403q35 -7 52 -11t47.5 -13t45.5 -17t36 -22.5t31 -32t17.5 -42t7.5 -54.5q0 -108 -74 -163t-195 -55q-181 0 -296 92l73 118q27 -35 83.5 -60.5t132.5 -25.5q70 0 104.5 20t34.5 65q0 19 -7.5 30.5t-31.5 21t-45 14
t-71 14.5q-20 4 -31 6q-56 12 -88.5 22.5t-65.5 30.5t-48 51.5t-15 77.5q0 94 71 153.5t205 59.5q149 0 248 -77l-67 -107q-29 27 -79.5 42.5t-105.5 15.5q-133 0 -133 -77q0 -33 28.5 -44.5t135.5 -32.5z" />
    <glyph glyph-name="scaron" unicode="&#x161;" horiz-adv-x="477" 
d="M316 550h-140l-126 175h134l62 -114l62 114h134zM280 295q41 -7 65.5 -14.5t53 -22.5t42 -40.5t13.5 -63.5q0 -79 -55.5 -120.5t-163.5 -41.5q-137 0 -218 69l59 96q23 -28 65 -44t91 -16q102 0 102 50q0 6 -1.5 11t-5 8.5t-7 6.5t-11 5t-14 3.5t-18.5 3.5t-21.5 3.5
t-26 3.5t-29.5 4q-87 16 -127 44t-40 90q0 68 51 114t155 46q129 0 201 -56l-55 -88q-45 41 -142 41q-88 0 -88 -47q0 -5 1.5 -9.5t5 -8t7 -5.5t11 -4.5t13.5 -4t17 -3.5t19.5 -3t24 -3t26.5 -4z" />
    <glyph glyph-name="uni0162" unicode="&#x162;" horiz-adv-x="633" 
d="M620 550h-228v-549l4 -1l-54 -52q20 3 47 -3q68 -18 68 -90q0 -59 -42 -88t-105 -29q-84 0 -139 38l40 88q13 -17 37.5 -30t53.5 -13q52 0 52 36q0 24 -38 26q-25 0 -35 -5l-44 59l39 63h-35v550h-228v125h607v-125z" />
    <glyph glyph-name="uni0163" unicode="&#x163;" horiz-adv-x="411" 
d="M261 -50q48 3 77.5 -17.5t29.5 -64.5q0 -51 -34 -78.5t-97 -27.5q-35 0 -70 9t-53 22l31 84q13 -15 37.5 -28.5t51.5 -13.5q44 0 44 32q0 26 -31 26q-14 0 -23 -6l-48 35l10 80q-87 28 -87 145v228h-88v107h88v106l132 28v-134h159v-107h-159v-202q0 -36 12 -51.5
t41 -15.5q46 0 82 32l30 -109q-52 -32 -125 -36z" />
    <glyph glyph-name="Tcaron" unicode="&#x164;" horiz-adv-x="633" 
d="M387 730h-140l-148 155h152l65 -91l68 91h151zM620 675v-125h-228v-550h-151v550h-228v125h607z" />
    <glyph glyph-name="tcaron" unicode="&#x165;" horiz-adv-x="411" 
d="M423 727l-50 -194h-96l22 194h124zM284 106q46 0 82 32l30 -109q-59 -37 -143 -37q-154 0 -154 155v228h-88v107h88v106l132 28v-134h159v-107h-159v-202q0 -36 12 -51.5t41 -15.5z" />
    <glyph glyph-name="Tbar" unicode="&#x166;" horiz-adv-x="633" 
d="M620 550h-228v-169h162v-115h-162v-266h-151v266h-161v115h161v169h-228v125h607v-125z" />
    <glyph glyph-name="tbar" unicode="&#x167;" horiz-adv-x="411" 
d="M366 138l30 -109q-59 -37 -143 -37q-154 0 -154 155v74h-79v79h79v75h-88v107h88v106l132 28v-134h159v-107h-159v-75h134v-79h-134v-48q0 -36 12 -51.5t41 -15.5q46 0 82 32z" />
    <glyph glyph-name="Utilde" unicode="&#x168;" horiz-adv-x="718" 
d="M556 889v-121q-29 -29 -97 -29q-31 0 -92 13t-93 13q-71 0 -103 -40v115q27 40 99 40q37 0 98 -16t87 -16q70 0 101 41zM663 675v-397q0 -134 -76 -210t-227 -76t-228 75t-77 210v398h156v-409q0 -69 37 -108.5t113 -39.5q72 0 109 40.5t37 111.5v405h156z" />
    <glyph glyph-name="utilde" unicode="&#x169;" horiz-adv-x="568" 
d="M372 556q-27 0 -79 14t-82 13q-54 0 -93 -39v110q32 34 98 34q26 0 77.5 -14t75.5 -14q63 0 88 34v-113q-27 -25 -85 -25zM532 0h-135q-7 27 -12 59q-23 -29 -62 -48t-84 -19q-88 0 -141 49.5t-53 156.5v284h144v-278q0 -52 21.5 -75.5t69.5 -23.5q61 0 94 41v336h145
v-346q0 -99 13 -136z" />
    <glyph glyph-name="Umacron" unicode="&#x16a;" horiz-adv-x="718" 
d="M552 855v-113h-381v113h381zM663 675v-397q0 -134 -76 -210t-227 -76t-228 75t-77 210v398h156v-409q0 -69 37 -108.5t113 -39.5q72 0 109 40.5t37 111.5v405h156z" />
    <glyph glyph-name="umacron" unicode="&#x16b;" horiz-adv-x="568" 
d="M455 676v-108h-338v108h338zM532 0h-135q-7 27 -12 59q-23 -29 -62 -48t-84 -19q-88 0 -141 49.5t-53 156.5v284h144v-278q0 -52 21.5 -75.5t69.5 -23.5q61 0 94 41v336h145v-346q0 -99 13 -136z" />
    <glyph glyph-name="Ubreve" unicode="&#x16c;" horiz-adv-x="718" 
d="M563 880q-14 -62 -65.5 -107.5t-132.5 -45.5q-80 0 -132 45.5t-66 107.5h136q7 -65 61 -65q29 0 44 19t18 46h137zM663 675v-397q0 -134 -76 -210t-227 -76t-228 75t-77 210v398h156v-409q0 -69 37 -108.5t113 -39.5q72 0 109 40.5t37 111.5v405h156z" />
    <glyph glyph-name="ubreve" unicode="&#x16d;" horiz-adv-x="568" 
d="M286 545q-76 0 -124.5 45t-63.5 121h127q2 -37 17.5 -60.5t43.5 -23.5q54 0 61 84h127q-15 -76 -64 -121t-124 -45zM532 0h-135q-7 27 -12 59q-23 -29 -62 -48t-84 -19q-88 0 -141 49.5t-53 156.5v284h144v-278q0 -52 21.5 -75.5t69.5 -23.5q61 0 94 41v336h145v-346
q0 -99 13 -136z" />
    <glyph glyph-name="Uring" unicode="&#x16e;" horiz-adv-x="718" 
d="M363 959q69 0 106.5 -35.5t37.5 -91.5q0 -57 -37.5 -93t-106.5 -36q-66 0 -104 36t-38 93q0 56 38 91.5t104 35.5zM364 875q-23 0 -36 -12.5t-13 -31.5q0 -21 13 -33.5t36 -12.5q22 0 34.5 12.5t12.5 33.5q0 19 -13 31.5t-34 12.5zM663 675v-397q0 -134 -76 -210
t-227 -76t-228 75t-77 210v398h156v-409q0 -69 37 -108.5t113 -39.5q72 0 109 40.5t37 111.5v405h156z" />
    <glyph glyph-name="uring" unicode="&#x16f;" horiz-adv-x="568" 
d="M287 530q-59 0 -95 34t-36 87t35.5 85.5t95.5 32.5t95 -32.5t35 -85.5t-35 -87t-95 -34zM287 695q-21 0 -33.5 -12t-12.5 -32q0 -21 12 -34t34 -13q21 0 33.5 13t12.5 34q0 20 -12.5 32t-33.5 12zM532 0h-135q-7 27 -12 59q-23 -29 -62 -48t-84 -19q-88 0 -141 49.5
t-53 156.5v284h144v-278q0 -52 21.5 -75.5t69.5 -23.5q61 0 94 41v336h145v-346q0 -99 13 -136z" />
    <glyph glyph-name="Uhungarumlaut" unicode="&#x170;" horiz-adv-x="718" 
d="M450 894l-133 -164h-110l106 164h137zM642 894l-145 -164h-111l119 164h137zM663 675v-397q0 -134 -76 -210t-227 -76t-228 75t-77 210v398h156v-409q0 -69 37 -108.5t113 -39.5q72 0 109 40.5t37 111.5v405h156z" />
    <glyph glyph-name="uhungarumlaut" unicode="&#x171;" horiz-adv-x="568" 
d="M362 725l-115 -175h-99l86 175h128zM411 550h-101l99 175h130zM519 482v-346q0 -99 13 -136h-135q-7 27 -12 59q-23 -29 -62 -48t-84 -19q-88 0 -141 49.5t-53 156.5v284h144v-278q0 -52 21.5 -75.5t69.5 -23.5q61 0 94 41v336h145z" />
    <glyph glyph-name="Uogonek" unicode="&#x172;" horiz-adv-x="718" 
d="M507 675h156v-397q0 -185 -137 -253l5 -1q-62 -28 -90 -52.5t-28 -66.5q0 -46 46 -44q29 2 43 23l20 -98q-32 -30 -103 -30q-57 0 -94.5 32.5t-37.5 90.5q0 66 53 113q-142 5 -213.5 79.5t-71.5 205.5v398h156v-409q0 -69 37 -108.5t113 -39.5q72 0 109 40.5t37 111.5
v405z" />
    <glyph glyph-name="uogonek" unicode="&#x173;" horiz-adv-x="568" 
d="M456 -127q28 0 47 18l22 -86q-41 -31 -102 -31q-51 0 -85.5 32t-34.5 83q0 82 91 121q-7 32 -9 49q-23 -29 -62 -48t-84 -19q-88 0 -141 49.5t-53 156.5v284h144v-278q0 -52 21.5 -75.5t69.5 -23.5q61 0 94 41v336h145v-346q0 -99 13 -136h1q-122 -26 -122 -86
q0 -44 45 -41z" />
    <glyph glyph-name="Wcircumflex" unicode="&#x174;" horiz-adv-x="973" 
d="M488 821l-65 -91h-151l146 156h143l144 -156h-152zM803 675h156l-168 -675h-196l-107 535l-112 -535h-194l-167 675h155l107 -558l120 558h181l117 -560z" />
    <glyph glyph-name="wcircumflex" unicode="&#x175;" horiz-adv-x="796" 
d="M399 657l-68 -108h-131l134 176h132l127 -176h-130zM645 482h146l-142 -482h-159l-91 354l-92 -354h-158l-144 482h146l77 -361l91 361h157l93 -360z" />
    <glyph glyph-name="Ycircumflex" unicode="&#x176;" horiz-adv-x="689" 
d="M345 821l-65 -91h-151l146 156h143l144 -156h-152zM507 675h174l-257 -454v-221h-156v222l-260 453h174l164 -323z" />
    <glyph glyph-name="ycircumflex" unicode="&#x177;" horiz-adv-x="529" 
d="M271 657l-68 -108h-131l134 176h132l127 -176h-130zM377 482h150q-162 -444 -279 -673l-139 36q42 77 77 157l-183 480h152l108 -366z" />
    <glyph glyph-name="Ydieresis" unicode="&#x178;" horiz-adv-x="689" 
d="M288 873v-138h-150v138h150zM552 873v-138h-150v138h150zM507 675h174l-257 -454v-221h-156v222l-260 453h174l164 -323z" />
    <glyph glyph-name="Zacute" unicode="&#x179;" horiz-adv-x="617" 
d="M568 885l-207 -155h-129l150 155h186zM206 127h378v-127h-547v130l378 420h-378v125h546v-134z" />
    <glyph glyph-name="zacute" unicode="&#x17a;" horiz-adv-x="495" 
d="M457 725l-169 -176h-115l127 176h157zM195 109h268v-109h-428v110l271 264h-269v108h423v-115z" />
    <glyph glyph-name="Zdotaccent" unicode="&#x17b;" horiz-adv-x="617" 
d="M383 873v-137h-150v137h150zM206 127h378v-127h-547v130l378 420h-378v125h546v-134z" />
    <glyph glyph-name="zdotaccent" unicode="&#x17c;" horiz-adv-x="495" 
d="M321 687v-128h-147v128h147zM195 109h268v-109h-428v110l271 264h-269v108h423v-115z" />
    <glyph glyph-name="Zcaron" unicode="&#x17d;" horiz-adv-x="617" 
d="M378 730h-140l-148 155h152l65 -91l68 91h151zM206 127h378v-127h-547v130l378 420h-378v125h546v-134z" />
    <glyph glyph-name="zcaron" unicode="&#x17e;" horiz-adv-x="495" 
d="M319 550h-140l-126 175h134l62 -114l62 114h134zM195 109h268v-109h-428v110l271 264h-269v108h423v-115z" />
    <glyph glyph-name="longs" unicode="&#x17f;" horiz-adv-x="303" 
d="M263 728q76 0 129 -29l-29 -108q-30 24 -76 24q-28 0 -40 -18.5t-12 -58.5v-538h-137v375h-87v107h86v50q-1 196 166 196z" />
    <glyph glyph-name="florin" unicode="&#x192;" horiz-adv-x="472" 
d="M368 573q-30 0 -45.5 -22.5t-23.5 -66.5l-16 -89h133l-22 -117h-131l-46 -259q-22 -115 -65 -163.5t-124 -48.5q-79 0 -128 34l47 120q34 -29 66 -29q30 0 44 22.5t22 65.5l44 258h-90v117h110l18 104q17 100 65.5 147t131.5 47q80 0 128 -25l-44 -121q-29 26 -74 26z
" />
    <glyph glyph-name="Scommaaccent" unicode="&#x218;" horiz-adv-x="617" 
d="M316 -7q-181 0 -296 92l73 118q27 -35 83.5 -60.5t132.5 -25.5q70 0 104.5 20t34.5 65q0 19 -7.5 30.5t-31.5 21t-45 14t-71 14.5q-20 4 -31 6q-56 12 -88.5 22.5t-65.5 30.5t-48 51.5t-15 77.5q0 94 71 153.5t205 59.5q149 0 248 -77l-67 -107q-29 27 -79.5 42.5
t-105.5 15.5q-133 0 -133 -77q0 -33 28.5 -44.5t135.5 -32.5q35 -7 52 -11t47.5 -13t45.5 -17t36 -22.5t31 -32t17.5 -42t7.5 -54.5q0 -108 -74 -163t-195 -55zM383 -57l-146 -201h-113l110 201h149z" />
    <glyph glyph-name="scommaaccent" unicode="&#x219;" horiz-adv-x="477" 
d="M235 -8q-137 0 -218 69l59 96q23 -28 65 -44t91 -16q102 0 102 50q0 6 -1.5 11t-5 8.5t-7 6.5t-11 5t-14 3.5t-18.5 3.5t-21.5 3.5t-26 3.5t-29.5 4q-87 16 -127 44t-40 90q0 68 51 114t155 46q129 0 201 -56l-55 -88q-45 41 -142 41q-88 0 -88 -47q0 -5 1.5 -9.5t5 -8
t7 -5.5t11 -4.5t13.5 -4t17 -3.5t19.5 -3t24 -3t26.5 -4q41 -7 65.5 -14.5t53 -22.5t42 -40.5t13.5 -63.5q0 -79 -55.5 -120.5t-163.5 -41.5zM303 -50l-129 -189h-110l100 189h139z" />
    <glyph glyph-name="uni021A" unicode="&#x21a;" horiz-adv-x="633" 
d="M13 675h607v-125h-228v-550h-151v550h-228v125zM137 -258l110 201h149l-146 -201h-113z" />
    <glyph glyph-name="uni021B" unicode="&#x21b;" horiz-adv-x="411" 
d="M99 147v228h-88v107h88v106l132 28v-134h159v-107h-159v-202q0 -36 12 -51.5t41 -15.5q46 0 82 32l30 -109q-59 -37 -143 -37q-154 0 -154 155zM65 -239l100 189h139l-129 -189h-110z" />
    <glyph glyph-name="uni0237" unicode="&#x237;" horiz-adv-x="257" 
d="M200 482v-502q0 -90 -42 -135.5t-122 -45.5q-74 0 -134 30l35 112q32 -28 72 -28q27 0 38 15t11 51v503h142z" />
    <glyph glyph-name="circumflex" unicode="&#x2c6;" horiz-adv-x="426" 
d="M410 557h-130l-64 109l-69 -109h-131l135 176h132z" />
    <glyph glyph-name="caron" unicode="&#x2c7;" horiz-adv-x="432" 
d="M276 733h134l-126 -175h-140l-126 175h134l62 -113z" />
    <glyph glyph-name="breve" unicode="&#x2d8;" horiz-adv-x="416" 
d="M393 719q-16 -76 -65 -121t-124 -45q-76 0 -124.5 45t-63.5 121h128q2 -37 17 -60.5t44 -23.5q54 0 61 84h127z" />
    <glyph glyph-name="dotaccent" unicode="&#x2d9;" horiz-adv-x="243" 
d="M48 696h147v-128h-147v128z" />
    <glyph glyph-name="ring" unicode="&#x2da;" horiz-adv-x="358" 
d="M180 777q60 0 95 -32.5t35 -85.5q0 -54 -35 -87.5t-95 -33.5q-59 0 -94.5 34t-35.5 87t35.5 85.5t94.5 32.5zM180 703q-21 0 -33.5 -12t-12.5 -32q0 -21 12.5 -34t33.5 -13t33.5 13t12.5 34q0 20 -12.5 32t-33.5 12z" />
    <glyph glyph-name="ogonek" unicode="&#x2db;" horiz-adv-x="265" 
d="M166 27l80 -27q-122 -26 -122 -86q0 -44 45 -41q29 0 47 18l23 -86q-41 -31 -103 -31q-50 0 -85 32t-35 83q0 53 39 88.5t111 49.5z" />
    <glyph glyph-name="tilde" unicode="&#x2dc;" horiz-adv-x="435" 
d="M387 702v-113q-27 -25 -85 -25q-27 0 -79 14t-82 13q-54 0 -93 -39v110q32 34 98 34q26 0 77.5 -14t75.5 -14q63 0 88 34z" />
    <glyph glyph-name="hungarumlaut" unicode="&#x2dd;" horiz-adv-x="424" 
d="M230 733l-115 -175h-99l86 175h128zM407 733l-127 -175h-102l100 175h129z" />
    <glyph glyph-name="gravecomb" unicode="&#x300;" 
d="M-147 733l114 -175h-115l-157 175h158z" />
    <glyph glyph-name="acutecomb" unicode="&#x301;" 
d="M-15 733l-169 -176h-115l127 176h157z" />
    <glyph glyph-name="uni0302" unicode="&#x302;" 
d="M-15 557h-129l-65 109l-68 -109h-131l134 176h132z" />
    <glyph glyph-name="tildecomb" unicode="&#x303;" 
d="M-48 702v-113q-27 -25 -85 -25q-27 0 -79 14t-82 13q-54 0 -93 -39v110q32 34 98 34q26 0 77.5 -14t75.5 -14q63 0 88 34z" />
    <glyph glyph-name="uni0304" unicode="&#x304;" 
d="M-57 677v-108h-338v108h338z" />
    <glyph glyph-name="uni0306" unicode="&#x306;" 
d="M-15 719q-15 -76 -64 -121t-124 -45q-76 0 -124.5 45t-63.5 121h127q2 -37 17.5 -60.5t43.5 -23.5q54 0 61 84h127z" />
    <glyph glyph-name="uni0307" unicode="&#x307;" 
d="M-195 696h147v-128h-147v128z" />
    <glyph glyph-name="uni0308" unicode="&#x308;" 
d="M-272 675v-125h-138v125h138zM-57 675v-125h-139v125h139z" />
    <glyph glyph-name="uni030A" unicode="&#x30a;" 
d="M-178 777q60 0 95 -32.5t35 -85.5t-35 -87t-95 -34q-59 0 -95 34t-36 87t35.5 85.5t95.5 32.5zM-178 703q-21 0 -33.5 -12t-12.5 -32q0 -21 12 -34t34 -13q21 0 33.5 13t12.5 34q0 20 -12.5 32t-33.5 12z" />
    <glyph glyph-name="uni030B" unicode="&#x30b;" 
d="M-192 733l-115 -175h-99l86 175h128zM-15 733l-128 -175h-101l99 175h130z" />
    <glyph glyph-name="uni030C" unicode="&#x30c;" 
d="M-149 733h134l-126 -175h-140l-126 175h134l62 -113z" />
    <glyph glyph-name="uni0312" unicode="&#x312;" 
d="M-15 730l-125 -173h-162l160 173h127z" />
    <glyph glyph-name="uni0326" unicode="&#x326;" 
d="M-16 -50l-129 -189h-110l100 189h139z" />
    <glyph glyph-name="uni0327" unicode="&#x327;" 
d="M-96 9l-14 -59q48 3 77.5 -17.5t29.5 -64.5q0 -51 -34 -78.5t-97 -27.5q-35 0 -70 9t-53 22l31 84q13 -15 37.5 -28.5t51.5 -13.5q44 0 44 32q0 26 -31 26q-14 0 -23 -6l-48 35l11 87h88z" />
    <glyph glyph-name="uni0328" unicode="&#x328;" 
d="M-115 27l81 -27q-122 -26 -122 -86q0 -44 45 -41q27 0 47 18l22 -86q-41 -31 -102 -31q-51 0 -85.5 32t-34.5 83q0 53 39 88t110 50z" />
    <glyph glyph-name="uni1E02" unicode="&#x1e02;" horiz-adv-x="697" 
d="M421 873v-137h-150v137h150zM520 354q54 1 100 -35t46 -106v-14q0 -93 -61 -146t-178 -53h-362v675h356q105 0 159 -47.5t54 -124.5v-11q0 -58 -35 -97t-79 -41zM399 555h-191v-154h193q87 0 87 76v9q0 69 -89 69zM519 202v12q0 76 -92 76h-219v-170h212q99 0 99 82z" />
    <glyph glyph-name="uni1E03" unicode="&#x1e03;" horiz-adv-x="580" 
d="M335 491q102 0 161 -63t59 -171v-20q0 -115 -61 -180.5t-166 -65.5q-82 0 -149 58l-6 -49h-124v719h141v-283q53 55 145 55zM414 687v-128h-147v128h147zM414 233v24q0 123 -117 123q-64 0 -106 -42v-199q48 -37 108 -37q56 0 85.5 33.5t29.5 97.5z" />
    <glyph glyph-name="uni1E0A" unicode="&#x1e0a;" horiz-adv-x="730" 
d="M277 873h150v-137h-150v137zM357 675q160 0 249 -84t89 -239v-26q0 -150 -85.5 -238t-252.5 -88h-292v675h292zM356 551h-142v-427h140q93 0 141.5 50t48.5 147v32q0 101 -46.5 149.5t-141.5 48.5z" />
    <glyph glyph-name="uni1E0B" unicode="&#x1e0b;" horiz-adv-x="575" 
d="M539 0h-128q-5 15 -12 57q-53 -65 -154 -65q-93 0 -156 60t-63 166v27q0 117 67 181.5t172 64.5q39 0 73.5 -13.5t52.5 -32.5v274h141v-580q0 -105 7 -139zM300 687v-128h-147v128h147zM280 105q70 0 111 45v186q-38 41 -109 41q-57 0 -86 -34t-29 -96v-23
q0 -119 113 -119z" />
    <glyph glyph-name="uni1E1E" unicode="&#x1e1e;" horiz-adv-x="622" 
d="M415 873v-137h-150v137h150zM600 551h-387v-174h316v-126h-316v-251h-148v675h535v-124z" />
    <glyph glyph-name="uni1E1F" unicode="&#x1e1f;" horiz-adv-x="389" 
d="M253 887v-128h-147v128h147zM231 536v-54h138v-107h-137v-375h-134v375h-87v107h87l-1 50q-2 194 164 194q77 0 129 -29l-28 -107q-30 24 -76 24q-30 0 -42.5 -18.5t-12.5 -59.5z" />
    <glyph glyph-name="uni1E40" unicode="&#x1e40;" horiz-adv-x="876" 
d="M515 873v-137h-150v137h150zM671 675h142v-675h-141v463l-206 -314h-56l-206 313v-462h-141v675h143l232 -351z" />
    <glyph glyph-name="uni1E41" unicode="&#x1e41;" horiz-adv-x="883" 
d="M527 687v-128h-147v128h147zM643 491q93 0 143 -55t50 -166v-270h-145v272q0 51 -20 74.5t-65 23.5q-57 0 -89 -42v-328h-145v277q0 47 -19 70t-61 23q-63 0 -95 -48v-322h-144v482h128l11 -72q45 81 148 81q51 0 88.5 -22.5t54.5 -62.5q59 85 160 85z" />
    <glyph glyph-name="uni1E6A" unicode="&#x1e6a;" horiz-adv-x="633" 
d="M391 873v-137h-150v137h150zM620 675v-125h-228v-550h-151v550h-228v125h607z" />
    <glyph glyph-name="uni1E6B" unicode="&#x1e6b;" horiz-adv-x="411" 
d="M236 780v-128h-147v128h147zM366 138l30 -109q-59 -37 -143 -37q-154 0 -154 155v228h-88v107h88v106l132 28v-134h159v-107h-159v-202q0 -36 12 -51.5t41 -15.5q46 0 82 32z" />
    <glyph glyph-name="Wgrave" unicode="&#x1e80;" horiz-adv-x="973" 
d="M559 730h-130l-188 155h184zM803 675h156l-168 -675h-196l-107 535l-112 -535h-194l-167 675h155l107 -558l120 558h181l117 -560z" />
    <glyph glyph-name="wgrave" unicode="&#x1e81;" horiz-adv-x="796" 
d="M463 550h-115l-157 175h158zM645 482h146l-142 -482h-159l-91 354l-92 -354h-158l-144 482h146l77 -361l91 361h157l93 -360z" />
    <glyph glyph-name="Wacute" unicode="&#x1e82;" horiz-adv-x="973" 
d="M747 885l-207 -155h-129l150 155h186zM803 675h156l-168 -675h-196l-107 535l-112 -535h-194l-167 675h155l107 -558l120 558h181l117 -560z" />
    <glyph glyph-name="wacute" unicode="&#x1e83;" horiz-adv-x="796" 
d="M609 725l-169 -176h-115l127 176h157zM645 482h146l-142 -482h-159l-91 354l-92 -354h-158l-144 482h146l77 -361l91 361h157l93 -360z" />
    <glyph glyph-name="Wdieresis" unicode="&#x1e84;" horiz-adv-x="973" 
d="M431 873v-138h-150v138h150zM695 873v-138h-150v138h150zM803 675h156l-168 -675h-196l-107 535l-112 -535h-194l-167 675h155l107 -558l120 558h181l117 -560z" />
    <glyph glyph-name="wdieresis" unicode="&#x1e85;" horiz-adv-x="796" 
d="M361 674v-125h-138v125h138zM576 674v-125h-139v125h139zM645 482h146l-142 -482h-159l-91 354l-92 -354h-158l-144 482h146l77 -361l91 361h157l93 -360z" />
    <glyph glyph-name="Ygrave" unicode="&#x1ef2;" horiz-adv-x="689" 
d="M416 730h-130l-188 155h184zM507 675h174l-257 -454v-221h-156v222l-260 453h174l164 -323z" />
    <glyph glyph-name="ygrave" unicode="&#x1ef3;" horiz-adv-x="529" 
d="M335 550h-115l-157 175h158zM377 482h150q-162 -444 -279 -673l-139 36q42 77 77 157l-183 480h152l108 -366z" />
    <glyph glyph-name="endash" unicode="&#x2013;" horiz-adv-x="614" 
d="M554 352v-119h-494v119h494z" />
    <glyph glyph-name="emdash" unicode="&#x2014;" horiz-adv-x="855" 
d="M795 352v-119h-735v119h735z" />
    <glyph glyph-name="quoteleft" unicode="&#x2018;" horiz-adv-x="259" 
d="M33 378q10 186 82 332l114 -27q-56 -141 -63 -305h-133z" />
    <glyph glyph-name="quoteright" unicode="&#x2019;" horiz-adv-x="259" 
d="M226 675q-10 -186 -82 -332l-114 27q56 141 63 305h133z" />
    <glyph glyph-name="quotesinglbase" unicode="&#x201a;" horiz-adv-x="259" 
d="M226 160q-10 -186 -82 -332l-114 27q56 142 63 305h133z" />
    <glyph glyph-name="quotedblleft" unicode="&#x201c;" horiz-adv-x="461" 
d="M33 378q10 186 82 332l114 -27q-56 -141 -63 -305h-133zM234 378q10 186 82 332l114 -27q-56 -141 -63 -305h-133z" />
    <glyph glyph-name="quotedblright" unicode="&#x201d;" horiz-adv-x="460" 
d="M226 675q-10 -186 -82 -332l-114 27q56 141 63 305h133zM427 675q-10 -186 -82 -332l-114 27q56 141 63 305h133z" />
    <glyph glyph-name="quotedblbase" unicode="&#x201e;" horiz-adv-x="460" 
d="M226 160q-10 -186 -82 -332l-114 27q56 142 63 305h133zM427 160q-10 -186 -82 -332l-114 27q56 142 63 305h133z" />
    <glyph glyph-name="dagger" unicode="&#x2020;" horiz-adv-x="597" 
d="M365 674v-186h199v-125h-199v-478h-134v478h-198v125h198v186h134z" />
    <glyph glyph-name="daggerdbl" unicode="&#x2021;" horiz-adv-x="597" 
d="M365 674v-186h199v-125h-199v-166h199v-124h-199v-184h-134v184h-198v124h198v166h-198v125h198v186h134z" />
    <glyph glyph-name="bullet" unicode="&#x2022;" horiz-adv-x="401" 
d="M202 428q62 0 102 -38t40 -100q0 -63 -39.5 -101t-102.5 -38t-104 38t-41 101q0 62 40.5 100t104.5 38z" />
    <glyph glyph-name="ellipsis" unicode="&#x2026;" horiz-adv-x="767" 
d="M206 151v-151h-149v151h149zM457 151v-151h-150v151h150zM708 151v-151h-149v151h149z" />
    <glyph glyph-name="perthousand" unicode="&#x2030;" horiz-adv-x="1213" 
d="M206 682q78 0 124.5 -46.5t46.5 -120.5v-20q0 -70 -47 -115.5t-124 -45.5t-124 46t-47 115v20q0 75 47 121t124 46zM680 675l-426 -675h-92l425 675h93zM207 604q-36 0 -55.5 -23.5t-19.5 -65.5v-17q0 -38 20 -61t55 -23q34 0 53.5 22.5t19.5 61.5v16q0 42 -19.5 66
t-53.5 24zM632 343q78 0 124.5 -46.5t46.5 -120.5v-20q0 -70 -47 -115.5t-124 -45.5t-124 46t-47 115v20q0 75 46.5 121t124.5 46zM999 343q79 0 125.5 -46.5t46.5 -120.5v-20q0 -70 -47 -115.5t-124 -45.5t-124 46t-47 115v20q0 74 47 120.5t123 46.5zM633 265
q-36 0 -55.5 -23.5t-19.5 -65.5v-17q0 -38 20 -61t55 -23q34 0 53.5 22.5t19.5 61.5v17q0 41 -19.5 65t-53.5 24zM1000 265q-35 0 -54.5 -23.5t-19.5 -65.5v-17q0 -38 19.5 -61t54.5 -23t54.5 22.5t19.5 61.5v17q0 42 -19.5 65.5t-54.5 23.5z" />
    <glyph glyph-name="guilsinglleft" unicode="&#x2039;" horiz-adv-x="415" 
d="M366 447l-175 -185l181 -187h-151l-178 187l172 185h151z" />
    <glyph glyph-name="guilsinglright" unicode="&#x203a;" horiz-adv-x="416" 
d="M49 447h152l172 -185l-178 -187h-152l181 187z" />
    <glyph glyph-name="uni203D" unicode="&#x203d;" horiz-adv-x="681" 
d="M266 238l-255 331l126 94l185 -347q7 32 28 52.5t57 39.5q11 6 31 16t28.5 15t19.5 14t15 19t4 24q0 35 -33.5 51.5t-80.5 16.5q-67 0 -108 -27l-63 116q59 37 162 37q119 0 194.5 -46.5t75.5 -137.5q0 -69 -35.5 -105.5t-112.5 -71.5q-79 -38 -92 -91h-146zM412 157
v-157h-155v157h155z" />
    <glyph glyph-name="fraction" unicode="&#x2044;" horiz-adv-x="151" 
d="M334 675l-424 -675h-93l424 675h93z" />
    <glyph glyph-name="Euro" unicode="&#x20ac;" horiz-adv-x="702" 
d="M603 196l79 -101q-60 -51 -119.5 -77t-156.5 -26q-120 0 -201.5 59.5t-109.5 164.5h-78v98h65v8v29v15h-65v97h80q29 104 110 162t203 58q167 0 272 -88l-80 -100q-56 66 -194 66q-122 0 -160 -98h241l-19 -97h-240v-12v-29v-11h230l-18 -98h-193q42 -99 162 -99
q132 0 192 79z" />
    <glyph glyph-name="uni2113" unicode="&#x2113;" horiz-adv-x="494" 
d="M382 173l90 -79q-67 -103 -199 -103q-78 0 -129.5 44.5t-54.5 123.5q-36 -6 -54 -8l-15 103q44 7 69 13v233q0 86 45.5 135t133.5 49q96 0 142.5 -51t46.5 -138v-32q0 -92 -63 -162t-177 -110v-14q0 -82 67 -82q70 0 98 78zM217 489v-180q112 55 112 159v26q0 90 -55 90
q-57 0 -57 -95z" />
    <glyph glyph-name="uni2116" unicode="&#x2116;" horiz-adv-x="1319" 
d="M1014 683q115 0 180.5 -60t65.5 -164v-24q0 -99 -65 -161.5t-177 -62.5q-111 0 -178 61.5t-67 162.5v24q0 102 65.5 163t175.5 61zM528 221v454h142v-675h-135l-331 459v-459h-141v675h137zM1119 431v30q0 54 -27 84t-74 30q-50 0 -76.5 -29.5t-26.5 -84.5v-29
q0 -53 26.5 -83.5t75.5 -30.5q48 0 75 30.5t27 82.5zM943 0v133h147v-133h-147z" />
    <glyph glyph-name="trademark" unicode="&#x2122;" horiz-adv-x="877" 
d="M26 586v89h345v-89h-121v-289h-103v289h-121zM750 675h102v-378h-94v237l-111 -161h-29l-112 160v-236h-94v378h100l121 -179z" />
    <glyph glyph-name="estimated" unicode="&#x212e;" horiz-adv-x="871" 
d="M448 65q206 0 288 115l64 -61q-123 -128 -351 -128q-79 0 -152 21.5t-132 61.5t-94.5 106.5t-35.5 148.5v13q0 159 114.5 250.5t286.5 91.5q100 0 178.5 -28.5t127 -78.5t74.5 -113.5t29 -137.5h-607v-209q90 -52 210 -52zM635 562q-77 50 -201 50q-118 0 -196 -39v-175
h397v164z" />
    <glyph glyph-name="uni2153" unicode="&#x2153;" horiz-adv-x="891" 
d="M578 675h93l-425 -675h-93zM245 278h-97v275q-71 -32 -102 -47l-17 91q16 8 75.5 36t86.5 41h54v-396zM770 231q41 -1 68.5 -25t27.5 -72v-8q0 -67 -49 -100t-129 -33q-53 0 -102 16t-78 44l51 74q47 -51 123 -51q88 0 88 46v8q0 38 -54 38q-34 0 -65 -14l-34 81l118 78
h-206v84h319v-89l-122 -79q23 4 44 2z" />
    <glyph glyph-name="uni2154" unicode="&#x2154;" horiz-adv-x="964" 
d="M368 363v-85h-338q-4 37 -0.5 72t14.5 64t39.5 52.5t73.5 36.5q11 3 28 7.5t25.5 7t20 6t17 6.5t11.5 7.5t8.5 9t2.5 10.5q1 20 -18 29t-50 9q-38 0 -70.5 -12.5t-46.5 -34.5l-54 69q59 66 172 66q77 0 120.5 -31.5t43.5 -93.5q0 -53 -29.5 -76.5t-98.5 -42.5
q-58 -15 -82.5 -32t-25.5 -44h237zM651 675h93l-425 -675h-93zM843 231q41 -1 68.5 -25t27.5 -72v-8q0 -67 -49 -100t-129 -33q-53 0 -102 16t-78 44l51 74q47 -51 123 -51q88 0 88 46v8q0 38 -54 38q-33 0 -65 -14l-34 81l118 78h-206v84h319v-89l-122 -79q23 4 44 2z" />
    <glyph glyph-name="oneeighth" unicode="&#x215b;" horiz-adv-x="881" 
d="M671 675l-425 -675h-93l425 675h93zM245 674v-396h-97v275q-71 -32 -102 -47l-17 91q16 8 75.5 36t86.5 41h54zM676 405q75 0 118 -29t43 -79v-7q0 -32 -16 -53t-43 -26q80 -9 80 -89v-9q0 -55 -49.5 -87.5t-134.5 -32.5q-83 0 -131.5 31t-48.5 85v9q0 43 23.5 66
t60.5 28q-26 3 -44.5 25t-18.5 55v5q0 50 43 79t118 29zM676 328q-66 0 -66 -39v-5q0 -40 68 -40q63 0 63 40v4q0 40 -65 40zM676 175q-81 0 -81 -49v-5q0 -49 81 -49q82 0 82 49v7q0 47 -82 47z" />
    <glyph glyph-name="uni2160" unicode="&#x2160;" horiz-adv-x="330" 
d="M334 570h-101v-465h101v-105h-338v105h102v465h-102v105h338v-105z" />
    <glyph glyph-name="uni2161" unicode="&#x2161;" horiz-adv-x="661" 
d="M665 570h-101v-465h101v-105h-669v105h102v465h-102v105h669v-105zM429 105v465h-196v-465h196z" />
    <glyph glyph-name="uni2162" unicode="&#x2162;" horiz-adv-x="992" 
d="M995 570h-101v-465h101v-105h-999v105h102v465h-102v105h999v-105zM233 105h196v465h-196v-465zM759 105v465h-195v-465h195z" />
    <glyph glyph-name="uni2163" unicode="&#x2163;" horiz-adv-x="1090" 
d="M1094 570h-85l-175 -465h97v-105h-436v105h100l-174 465h-188v-465h101v-105h-338v105h102v465h-102v105h648v-105h-85l156 -457l155 457h-81v105h305v-105z" />
    <glyph glyph-name="uni2164" unicode="&#x2164;" horiz-adv-x="757" 
d="M761 570h-85l-174 -465h97v-105h-436v105h101l-174 465h-94v105h317v-105h-85l154 -458l155 458h-80v105h304v-105z" />
    <glyph glyph-name="uni2165" unicode="&#x2165;" horiz-adv-x="1090" 
d="M1093 570h-101v-465h101v-105h-338v105h102v465h-179l-175 -465h97v-105h-436v105h100l-174 465h-94v105h317v-105h-85l156 -457l155 457h-81v105h635v-105z" />
    <glyph glyph-name="uni2166" unicode="&#x2166;" horiz-adv-x="1420" 
d="M1424 570h-101v-465h101v-105h-669v105h102v465h-179l-175 -465h97v-105h-436v105h100l-174 465h-94v105h317v-105h-85l156 -457l155 457h-81v105h966v-105zM1188 105v465h-196v-465h196z" />
    <glyph glyph-name="uni2167" unicode="&#x2167;" horiz-adv-x="1751" 
d="M1754 570h-101v-465h101v-105h-999v105h102v465h-179l-175 -465h97v-105h-436v105h100l-174 465h-94v105h317v-105h-85l156 -457l155 457h-81v105h1296v-105zM1188 105v465h-196v-465h196zM1518 105v465h-195v-465h195z" />
    <glyph glyph-name="uni2168" unicode="&#x2168;" horiz-adv-x="1049" 
d="M961 570l-156 -230l162 -235h86v-105h-311v105h75l-124 183l-125 -183h88v-105h-660v105h102v465h-102v105h655v-105h-75l119 -178l122 178h-73v105h309v-105h-92zM413 105l170 236l-158 229h-192v-465h180z" />
    <glyph glyph-name="uni2169" unicode="&#x2169;" horiz-adv-x="717" 
d="M628 570l-154 -230l161 -235h86v-105h-311v105h76l-124 183l-125 -183h87v-105h-327v105h85l169 236l-157 229h-97v105h323v-105h-76l119 -178l121 178h-72v105h309v-105h-93z" />
    <glyph glyph-name="uni216A" unicode="&#x216a;" horiz-adv-x="1049" 
d="M1053 570h-101v-465h101v-105h-642v105h75l-124 183l-125 -183h88v-105h-328v105h85l170 236l-158 229h-97v105h323v-105h-75l119 -178l122 178h-73v105h640v-105zM817 105v465h-187l-156 -230l162 -235h181z" />
    <glyph glyph-name="uni216B" unicode="&#x216b;" horiz-adv-x="1380" 
d="M1383 570h-101v-465h101v-105h-972v105h75l-124 183l-125 -183h88v-105h-328v105h85l170 236l-158 229h-97v105h323v-105h-75l119 -178l122 178h-73v105h970v-105zM817 105v465h-187l-156 -230l162 -235h181zM1147 105v465h-195v-465h195z" />
    <glyph glyph-name="uni216C" unicode="&#x216c;" horiz-adv-x="651" 
d="M486 261h127v-261h-617v105h102v465h-102v105h344v-105h-101v-456h247v147z" />
    <glyph glyph-name="uni216D" unicode="&#x216d;" horiz-adv-x="668" 
d="M370 684q175 0 270 -97l-81 -100q-59 79 -192 79q-90 0 -137.5 -54.5t-47.5 -158.5v-32q0 -100 52 -153t145 -53q133 0 186 93l83 -97q-92 -116 -275 -116q-160 0 -252 84.5t-92 240.5v31q0 155 90 244t251 89z" />
    <glyph glyph-name="uni216E" unicode="&#x216e;" horiz-adv-x="742" 
d="M367 675q154 0 247.5 -84.5t93.5 -238.5v-27q0 -153 -85.5 -239t-244.5 -86h-382v105h102v465h-102v105h371zM562 323v29q0 210 -191 210h-129v-449h132q91 0 139.5 52.5t48.5 157.5z" />
    <glyph glyph-name="uni216F" unicode="&#x216f;" horiz-adv-x="925" 
d="M929 570h-101v-465h100v-105h-332v105h97v382l-207 -314h-45l-209 316v-384h98v-105h-334v105h102v465h-102v105h248l219 -340l223 340h243v-105z" />
    <glyph glyph-name="arrowup" unicode="&#x2191;" horiz-adv-x="744" 
d="M615 436l-72 -73l-114 117v-480h-113v481l-116 -118l-72 73l244 242z" />
    <glyph glyph-name="arrowdown" unicode="&#x2193;" horiz-adv-x="744" 
d="M544 297l72 -73l-244 -242l-244 242l72 73l116 -118v481h113v-480z" />
    <glyph glyph-name="arrowupdn" unicode="&#x2195;" horiz-adv-x="744" 
d="M427 154l117 119l72 -73l-244 -242l-244 242l72 73l115 -117v345l-115 -118l-72 74l244 241l244 -241l-72 -74l-117 120v-349z" />
    <glyph glyph-name="minus" unicode="&#x2212;" horiz-adv-x="565" 
d="M520 370v-119h-475v119h475z" />
    <glyph glyph-name="uni2215" unicode="&#x2215;" horiz-adv-x="575" 
d="M557 675l-424 -675h-93l424 675h93z" />
    <glyph glyph-name="infinity" unicode="&#x221e;" horiz-adv-x="786" 
d="M566 483q76 0 123 -43t47 -126q0 -80 -47 -123.5t-123 -43.5q-96 0 -173 92q-75 -92 -173 -92q-73 0 -121.5 42.5t-48.5 124.5q0 81 47.5 125t120.5 44q99 0 175 -93q78 93 173 93zM233 238q28 0 51 19t52 57q-29 38 -52.5 58t-52.5 20q-38 0 -60.5 -19.5t-22.5 -58.5
q0 -76 85 -76zM555 238q83 0 83 76q0 78 -82 78q-30 0 -54.5 -20t-52.5 -58q27 -37 51.5 -56.5t54.5 -19.5z" />
    <glyph glyph-name="approxequal" unicode="&#x2248;" horiz-adv-x="553" 
d="M508 503v-131q-38 -38 -121 -38q-39 0 -113 23.5t-105 23.5q-75 0 -124 -57v126q36 51 129 51q38 0 109.5 -23.5t105.5 -23.5q75 0 119 49zM508 295v-131q-37 -37 -121 -37q-39 0 -113 23t-105 23q-76 0 -124 -56v125q35 51 129 51q38 0 109.5 -23t105.5 -23q74 0 119 48
z" />
    <glyph glyph-name="notequal" unicode="&#x2260;" horiz-adv-x="567" 
d="M521 359h-168l-46 -96h214v-119h-273l-55 -113h-112l56 113h-92v119h150l47 96h-197v119h256l59 120h111l-59 -120h109v-119z" />
    <glyph glyph-name="lessequal" unicode="&#x2264;" horiz-adv-x="565" 
d="M521 626v-127l-353 -100l353 -100v-127l-476 167v120zM45 3v112h476v-112h-476z" />
    <glyph glyph-name="greaterequal" unicode="&#x2265;" horiz-adv-x="573" 
d="M521 459v-120l-476 -167v127l353 100l-353 100v127zM52 115h475v-112h-475v112z" />
    <glyph glyph-name="uniF8FF" unicode="&#xf8ff;" horiz-adv-x="800" 
d="M764 466q0 -58 -24.5 -107.5t-65 -84.5t-80.5 -60.5t-85 -51t-64 -40.5h191v-122h-479v122h189q-18 15 -62 40.5t-82.5 50.5t-78.5 59.5t-63.5 83t-23.5 106.5q0 103 50.5 162.5t148.5 59.5q72 0 116.5 -42t50.5 -100q5 59 47 100.5t114 41.5q94 0 147.5 -57.5
t53.5 -160.5z" />
    <glyph glyph-name="IJ.ss01" horiz-adv-x="900" 
d="M67 0v675h149v-675h-149zM848 675v-405q0 -278 -285 -278q-87 0 -156.5 33.5t-108.5 88.5l89 104q67 -98 176 -98q135 0 135 148v407h150z" />
    <glyph glyph-name="Iacute_J.loclNLD" horiz-adv-x="910" 
d="M420 885l-207 -155h-129l150 155h186zM864 885l-207 -155h-129l150 155h186zM67 0v675h149v-675h-149zM857 675v-408q0 -140 -71.5 -207.5t-220.5 -67.5q-88 0 -158 32.5t-110 81.5l82 111q27 -40 77.5 -68.5t108.5 -28.5q75 0 109 34t34 112v284h-353v125h502z" />
    <glyph glyph-name="Iacute_J.loclNLD.ss01" horiz-adv-x="910" 
d="M420 885l-207 -155h-129l150 155h186zM864 885l-207 -155h-129l150 155h186zM67 0v675h149v-675h-149zM857 675v-408q0 -140 -71.5 -207.5t-220.5 -67.5q-88 0 -158 32.5t-110 81.5l82 111q27 -40 77.5 -68.5t108.5 -28.5q75 0 109 34t34 112v284h-353v125h502z" />
    <glyph glyph-name="J.ss01" horiz-adv-x="617" 
d="M564 675v-405q0 -278 -285 -278q-87 0 -156.5 33.5t-108.5 88.5l89 104q67 -98 176 -98q135 0 135 148v407h150z" />
    <glyph glyph-name="Jcircumflex.ss01" horiz-adv-x="617" 
d="M490 820l-55 -90h-147l129 156h148l126 -156h-147zM414 268v407h150v-405q0 -278 -285 -278q-87 0 -156.5 33.5t-108.5 88.5l89 104q67 -98 176 -98q135 0 135 148z" />
    <glyph glyph-name="Q.ss01" horiz-adv-x="736" 
d="M702 316q0 -181 -134 -269l120 -157h-180l-70 108q-33 -6 -70 -6q-152 0 -242.5 89t-90.5 235v40q0 150 89 238.5t243 88.5q155 0 245 -88t90 -239v-40zM187 319q0 -96 47.5 -149.5t133.5 -53.5t133.5 53.5t47.5 149.5v39q0 97 -47.5 149.5t-134.5 52.5
q-85 0 -132.5 -52.5t-47.5 -149.5v-39z" />
    <glyph glyph-name="W.ss01" horiz-adv-x="973" 
d="M803 675h156l-168 -675h-196l-107 535l-112 -535h-194l-167 675h155l107 -558l120 558h181l117 -560z" />
    <glyph glyph-name="Wacute.ss01" horiz-adv-x="973" 
d="M747 885l-207 -155h-129l150 155h186zM803 675h156l-168 -675h-196l-107 535l-112 -535h-194l-167 675h155l107 -558l120 558h181l117 -560z" />
    <glyph glyph-name="Wcircumflex.ss01" horiz-adv-x="973" 
d="M488 821l-65 -91h-151l146 156h143l144 -156h-152zM803 675h156l-168 -675h-196l-107 535l-112 -535h-194l-167 675h155l107 -558l120 558h181l117 -560z" />
    <glyph glyph-name="Wdieresis.ss01" horiz-adv-x="973" 
d="M431 873v-138h-150v138h150zM695 873v-138h-150v138h150zM803 675h156l-168 -675h-196l-107 535l-112 -535h-194l-167 675h155l107 -558l120 558h181l117 -560z" />
    <glyph glyph-name="Wgrave.ss01" horiz-adv-x="973" 
d="M559 730h-130l-188 155h184zM803 675h156l-168 -675h-196l-107 535l-112 -535h-194l-167 675h155l107 -558l120 558h181l117 -560z" />
    <glyph glyph-name="a.ss02" horiz-adv-x="561" 
d="M525 0h-123q-9 20 -13 61q-53 -70 -152 -70q-89 0 -150.5 60t-61.5 169v24q0 116 63 181.5t165 65.5q43 0 79 -17t55 -41l5 49h125v-343q0 -104 8 -139zM272 104q67 0 110 49v182q-39 42 -109 42q-53 0 -80.5 -35t-27.5 -98v-19q0 -59 28 -90t79 -31z" />
    <glyph glyph-name="aacute.ss02" horiz-adv-x="561" 
d="M498 725l-169 -176h-115l127 176h157zM525 0h-123q-9 20 -13 61q-53 -70 -152 -70q-89 0 -150.5 60t-61.5 169v24q0 116 63 181.5t165 65.5q43 0 79 -17t55 -41l5 49h125v-343q0 -104 8 -139zM272 104q67 0 110 49v182q-39 42 -109 42q-53 0 -80.5 -35t-27.5 -98v-19
q0 -59 28 -90t79 -31z" />
    <glyph glyph-name="abreve.ss02" horiz-adv-x="561" 
d="M289 545q-76 0 -124.5 45t-63.5 121h127q2 -37 17.5 -60.5t43.5 -23.5q54 0 61 84h127q-15 -76 -64 -121t-124 -45zM525 0h-123q-9 20 -13 61q-53 -70 -152 -70q-89 0 -150.5 60t-61.5 169v24q0 116 63 181.5t165 65.5q43 0 79 -17t55 -41l5 49h125v-343q0 -104 8 -139z
M272 104q67 0 110 49v182q-39 42 -109 42q-53 0 -80.5 -35t-27.5 -98v-19q0 -59 28 -90t79 -31z" />
    <glyph glyph-name="acircumflex.ss02" horiz-adv-x="561" 
d="M288 657l-68 -108h-131l134 176h132l127 -176h-130zM525 0h-123q-9 20 -13 61q-53 -70 -152 -70q-89 0 -150.5 60t-61.5 169v24q0 116 63 181.5t165 65.5q43 0 79 -17t55 -41l5 49h125v-343q0 -104 8 -139zM272 104q67 0 110 49v182q-39 42 -109 42q-53 0 -80.5 -35
t-27.5 -98v-19q0 -59 28 -90t79 -31z" />
    <glyph glyph-name="adieresis.ss02" horiz-adv-x="561" 
d="M250 674v-125h-138v125h138zM465 674v-125h-139v125h139zM525 0h-123q-9 20 -13 61q-53 -70 -152 -70q-89 0 -150.5 60t-61.5 169v24q0 116 63 181.5t165 65.5q43 0 79 -17t55 -41l5 49h125v-343q0 -104 8 -139zM272 104q67 0 110 49v182q-39 42 -109 42q-53 0 -80.5 -35
t-27.5 -98v-19q0 -59 28 -90t79 -31z" />
    <glyph glyph-name="agrave.ss02" horiz-adv-x="561" 
d="M352 550h-115l-157 175h158zM525 0h-123q-9 20 -13 61q-53 -70 -152 -70q-89 0 -150.5 60t-61.5 169v24q0 116 63 181.5t165 65.5q43 0 79 -17t55 -41l5 49h125v-343q0 -104 8 -139zM272 104q67 0 110 49v182q-39 42 -109 42q-53 0 -80.5 -35t-27.5 -98v-19q0 -59 28 -90
t79 -31z" />
    <glyph glyph-name="amacron.ss02" horiz-adv-x="561" 
d="M458 676v-108h-338v108h338zM525 0h-123q-9 20 -13 61q-53 -70 -152 -70q-89 0 -150.5 60t-61.5 169v24q0 116 63 181.5t165 65.5q43 0 79 -17t55 -41l5 49h125v-343q0 -104 8 -139zM272 104q67 0 110 49v182q-39 42 -109 42q-53 0 -80.5 -35t-27.5 -98v-19q0 -59 28 -90
t79 -31z" />
    <glyph glyph-name="aogonek.ss02" horiz-adv-x="561" 
d="M449 -127q27 0 47 18l22 -86q-41 -31 -102 -31q-51 0 -85.5 32t-34.5 83q0 87 101 125q-6 24 -8 47q-53 -70 -152 -70q-89 0 -150.5 60t-61.5 169v24q0 116 63 181.5t165 65.5q43 0 79 -17t55 -41l5 49h125v-343q0 -102 8 -139h1q-122 -26 -122 -86q0 -44 45 -41z
M272 104q67 0 110 49v182q-39 42 -109 42q-53 0 -80.5 -35t-27.5 -98v-19q0 -59 28 -90t79 -31z" />
    <glyph glyph-name="aring.ss02" horiz-adv-x="561" 
d="M290 530q-59 0 -95 34t-36 87t35.5 85.5t95.5 32.5t95 -32.5t35 -85.5t-35 -87t-95 -34zM290 695q-21 0 -33.5 -12t-12.5 -32q0 -21 12 -34t34 -13q21 0 33.5 13t12.5 34q0 20 -12.5 32t-33.5 12zM525 0h-123q-9 20 -13 61q-53 -70 -152 -70q-89 0 -150.5 60t-61.5 169
v24q0 116 63 181.5t165 65.5q43 0 79 -17t55 -41l5 49h125v-343q0 -104 8 -139zM272 104q67 0 110 49v182q-39 42 -109 42q-53 0 -80.5 -35t-27.5 -98v-19q0 -59 28 -90t79 -31z" />
    <glyph glyph-name="atilde.ss02" horiz-adv-x="561" 
d="M375 556q-27 0 -79 14t-82 13q-54 0 -93 -39v110q32 34 98 34q26 0 77.5 -14t75.5 -14q63 0 88 34v-113q-27 -25 -85 -25zM525 0h-123q-9 20 -13 61q-53 -70 -152 -70q-89 0 -150.5 60t-61.5 169v24q0 116 63 181.5t165 65.5q43 0 79 -17t55 -41l5 49h125v-343
q0 -104 8 -139zM272 104q67 0 110 49v182q-39 42 -109 42q-53 0 -80.5 -35t-27.5 -98v-19q0 -59 28 -90t79 -31z" />
    <glyph glyph-name="iacute_j.loclNLD" horiz-adv-x="507" 
d="M332 725l-169 -176h-115l127 176h157zM590 725l-169 -176h-115l127 176h157zM193 482v-482h-140v482h140zM449 482v-502q0 -90 -42 -135.5t-122 -45.5q-74 0 -134 30l35 112q32 -28 72 -28q27 0 38 15t11 51v503h142z" />
    <glyph glyph-name="i.loclTRK" horiz-adv-x="245" 
d="M49 689h147v-135h-147v135zM193 482v-482h-140v482h140z" />
    <glyph glyph-name="n_d.ordn" horiz-adv-x="833" 
d="M589 321q-66 0 -111.5 43t-45.5 119v17q0 84 46 128t123 44q52 0 81 -25v157h106v-379q0 -78 6 -97h-99q-6 19 -7 35q-36 -42 -99 -42zM156 544v-216h-108v337h108v-46q37 53 98 53q136 0 136 -152v-192h-107v186q0 39 -15.5 54.5t-47.5 15.5q-40 0 -64 -40zM538 502v-14
q0 -39 20 -60.5t52 -21.5q47 0 72 31v126q-25 25 -70 25q-74 0 -74 -86zM44 247h751v-106h-751v106z" />
    <glyph glyph-name="r_d.ordn" horiz-adv-x="706" 
d="M461 321q-66 0 -111.5 43t-45.5 119v17q0 84 46.5 128t123.5 44q49 0 79 -25v157h105v-379q0 -73 6 -97h-97q-4 9 -8 35q-34 -42 -98 -42zM154 524v-196h-105v337h105v-72q21 78 91 78q31 0 47 -10l-19 -102q-17 14 -49 14q-49 0 -70 -49zM410 502v-14q0 -40 19 -61
t53 -21q46 0 71 31v125q-25 26 -69 26q-74 0 -74 -86zM44 247h623v-106h-623v106z" />
    <glyph glyph-name="s_t.ordn" horiz-adv-x="702" 
d="M438 434v149h-64v82h64v70l99 22v-92h123v-82h-123v-131q0 -25 11.5 -35t34.5 -10q28 0 56 26l23 -86q-43 -26 -105 -26q-56 0 -87.5 28t-31.5 85zM195 398q36 0 52 7t16 24t-16 21.5t-76 11.5q-125 21 -125 99q0 49 39 82t119 33q93 0 142 -46l-45 -62q-36 29 -97 31
q-62 0 -62 -27q0 -5 2 -8.5t6.5 -6t9.5 -4t14 -3.5t17 -3.5t22 -3.5t25 -4q58 -9 89.5 -30.5t31.5 -73.5q0 -116 -160 -116q-107 0 -161 56l47 71q15 -21 45 -34.5t65 -13.5zM34 247h632v-106h-632v106z" />
    <glyph glyph-name="t_h.ordn" horiz-adv-x="731" 
d="M445 546v-218h-107v476h107v-184q35 52 97 52q136 0 136 -155v-189h-107v186q0 39 -15.5 54.5t-48.5 15.5q-38 0 -62 -38zM72 435v148h-58v82h58v70l101 22v-92h119v-82h-119v-130q0 -26 9.5 -36t30.5 -10q28 0 58 26l23 -86q-45 -26 -103 -26q-55 0 -87 28t-32 86z
M47 247h642v-106h-642v106z" />
    <glyph glyph-name="a.sc" horiz-adv-x="639" 
d="M490 0l-38 108h-259l-43 -108h-143l238 551h175l212 -551h-142zM236 215h179l-84 239z" />
    <glyph glyph-name="aacute.sc" horiz-adv-x="639" 
d="M540 784l-169 -168h-115l127 168h157zM490 0l-38 108h-259l-43 -108h-143l238 551h175l212 -551h-142zM236 215h179l-84 239z" />
    <glyph glyph-name="abreve.sc" horiz-adv-x="639" 
d="M331 612q-76 0 -124.5 43t-63.5 115h127q2 -34 17.5 -57t43.5 -23q54 0 61 80h127q-16 -72 -64.5 -115t-123.5 -43zM490 0l-38 108h-259l-43 -108h-143l238 551h175l212 -551h-142zM236 215h179l-84 239z" />
    <glyph glyph-name="acircumflex.sc" horiz-adv-x="639" 
d="M330 719l-68 -103h-131l134 168h132l127 -168h-130zM490 0l-38 108h-259l-43 -108h-143l238 551h175l212 -551h-142zM236 215h179l-84 239z" />
    <glyph glyph-name="adieresis.sc" horiz-adv-x="639" 
d="M292 739v-122h-138v122h138zM507 739v-122h-139v122h139zM490 0l-38 108h-259l-43 -108h-143l238 551h175l212 -551h-142zM236 215h179l-84 239z" />
    <glyph glyph-name="agrave.sc" horiz-adv-x="639" 
d="M394 616h-115l-157 168h158zM490 0l-38 108h-259l-43 -108h-143l238 551h175l212 -551h-142zM236 215h179l-84 239z" />
    <glyph glyph-name="amacron.sc" horiz-adv-x="639" 
d="M500 736v-103h-338v103h338zM490 0l-38 108h-259l-43 -108h-143l238 551h175l212 -551h-142zM236 215h179l-84 239z" />
    <glyph glyph-name="aogonek.sc" horiz-adv-x="639" 
d="M556 -124q28 0 47 18l22 -85q-39 -30 -102 -30q-51 0 -85.5 31t-34.5 81q0 77 85 115l-36 102h-259l-43 -108h-143l238 551h175l212 -551h1q-122 -24 -122 -84q0 -43 45 -40zM236 215h179l-84 239z" />
    <glyph glyph-name="aring.sc" horiz-adv-x="639" 
d="M332 599q-59 0 -95 33t-36 84q0 52 35.5 84t95.5 32t95 -32t35 -84t-35 -84.5t-95 -32.5zM332 760q-21 0 -33.5 -12t-12.5 -32t12 -32.5t34 -12.5q21 0 33.5 12.5t12.5 32.5t-12.5 32t-33.5 12zM490 0l-38 108h-259l-43 -108h-143l238 551h175l212 -551h-142zM236 215
h179l-84 239z" />
    <glyph glyph-name="atilde.sc" horiz-adv-x="639" 
d="M417 622q-27 0 -79 13.5t-82 12.5q-54 0 -93 -37v105q32 32 98 32q26 0 77.5 -13.5t75.5 -13.5q63 1 88 32v-107q-28 -24 -85 -24zM490 0l-38 108h-259l-43 -108h-143l238 551h175l212 -551h-142zM236 215h179l-84 239z" />
    <glyph glyph-name="ae.sc" horiz-adv-x="909" 
d="M883 436h-316v-101h248v-112h-248v-107h315v-116h-444v104h-220l-66 -104h-152l361 551h522v-115zM292 220h146v228z" />
    <glyph glyph-name="b.sc" horiz-adv-x="609" 
d="M454 287q51 2 89 -28t38 -88v-12q0 -76 -54 -117.5t-155 -41.5h-312v551h298q97 0 146 -38.5t49 -104.5v-8q0 -46 -29 -78t-70 -35zM346 441h-154v-110h154q69 0 69 53v5q0 52 -69 52zM439 169v7q0 57 -76 57h-171v-121h164q83 0 83 57z" />
    <glyph glyph-name="uni1E03.sc" horiz-adv-x="609" 
d="M376 750v-124h-147v124h147zM454 287q51 2 89 -28t38 -88v-12q0 -76 -54 -117.5t-155 -41.5h-312v551h298q97 0 146 -38.5t49 -104.5v-8q0 -46 -29 -78t-70 -35zM346 441h-154v-110h154q69 0 69 53v5q0 52 -69 52zM439 169v7q0 57 -76 57h-171v-121h164q83 0 83 57z" />
    <glyph glyph-name="c.sc" horiz-adv-x="570" 
d="M326 560q146 0 226 -83l-73 -97q-48 60 -157 60q-68 0 -106.5 -40.5t-38.5 -112.5v-28q0 -72 39 -110t111 -38q50 0 93 20.5t65 53.5l70 -97q-86 -96 -236 -96q-132 0 -210 68.5t-78 192.5v25q0 127 78 204.5t217 77.5z" />
    <glyph glyph-name="cacute.sc" horiz-adv-x="570" 
d="M529 783l-169 -168h-115l127 168h157zM326 560q146 0 226 -83l-73 -97q-48 60 -157 60q-68 0 -106.5 -40.5t-38.5 -112.5v-28q0 -72 39 -110t111 -38q50 0 93 20.5t65 53.5l70 -97q-86 -96 -236 -96q-132 0 -210 68.5t-78 192.5v25q0 127 78 204.5t217 77.5z" />
    <glyph glyph-name="ccaron.sc" horiz-adv-x="570" 
d="M391 615h-140l-126 167h134l62 -108l62 108h134zM485 185l70 -97q-86 -96 -236 -96q-132 0 -210 68.5t-78 192.5v25q0 127 78 204.5t217 77.5q146 0 226 -83l-73 -97q-48 60 -157 60q-68 0 -106.5 -40.5t-38.5 -112.5v-28q0 -72 39 -110t111 -38q50 0 93 20.5t65 53.5z
" />
    <glyph glyph-name="ccedilla.sc" horiz-adv-x="570" 
d="M555 88q-74 -84 -200 -95l-10 -43q48 3 77.5 -17.5t29.5 -64.5q0 -51 -34 -78.5t-97 -27.5q-35 0 -70 9t-53 22l31 84q13 -15 37.5 -28.5t51.5 -13.5q44 0 44 32q0 26 -31 26q-14 0 -23 -6l-48 35l9 73q-111 12 -174.5 79t-63.5 179v25q0 127 78 204.5t217 77.5
q146 0 226 -83l-73 -97q-48 60 -157 60q-68 0 -106.5 -40.5t-38.5 -112.5v-28q0 -72 39 -110t111 -38q50 0 93 20.5t65 53.5z" />
    <glyph glyph-name="ccircumflex.sc" horiz-adv-x="570" 
d="M320 718l-68 -103h-131l134 168h132l127 -168h-130zM485 185l70 -97q-86 -96 -236 -96q-132 0 -210 68.5t-78 192.5v25q0 127 78 204.5t217 77.5q146 0 226 -83l-73 -97q-48 60 -157 60q-68 0 -106.5 -40.5t-38.5 -112.5v-28q0 -72 39 -110t111 -38q50 0 93 20.5t65 53.5
z" />
    <glyph glyph-name="cdotaccent.sc" horiz-adv-x="570" 
d="M246 750h147v-124h-147v124zM326 560q146 0 226 -83l-73 -97q-48 60 -157 60q-68 0 -106.5 -40.5t-38.5 -112.5v-28q0 -72 39 -110t111 -38q50 0 93 20.5t65 53.5l70 -97q-86 -96 -236 -96q-132 0 -210 68.5t-78 192.5v25q0 127 78 204.5t217 77.5z" />
    <glyph glyph-name="d.sc" horiz-adv-x="634" 
d="M316 551q134 0 210 -68.5t76 -191.5v-24q0 -121 -73 -194t-213 -73h-256v551h256zM311 436h-109v-319h105q154 0 154 145v27q0 147 -150 147z" />
    <glyph glyph-name="eth.sc" horiz-adv-x="634" 
d="M316 551q134 0 210 -68.5t76 -191.5v-24q0 -121 -73 -194t-213 -73h-256v219h-38v113h38v219h256zM461 262v27q0 147 -150 147h-109v-104h145v-113h-145v-102h105q154 0 154 145z" />
    <glyph glyph-name="dcaron.sc" horiz-adv-x="634" 
d="M385 615h-140l-126 167h134l62 -108l62 108h134zM316 551q134 0 210 -68.5t76 -191.5v-24q0 -121 -73 -194t-213 -73h-256v551h256zM461 262v27q0 147 -150 147h-109v-319h105q154 0 154 145z" />
    <glyph glyph-name="dcroat.sc" horiz-adv-x="634" 
d="M316 551q134 0 210 -68.5t76 -191.5v-24q0 -121 -73 -194t-213 -73h-256v219h-38v113h38v219h256zM461 262v27q0 147 -150 147h-109v-104h145v-113h-145v-102h105q154 0 154 145z" />
    <glyph glyph-name="uni1E0B.sc" horiz-adv-x="634" 
d="M240 750h147v-124h-147v124zM316 551q134 0 210 -68.5t76 -191.5v-24q0 -121 -73 -194t-213 -73h-256v551h256zM311 436h-109v-319h105q154 0 154 145v27q0 147 -150 147z" />
    <glyph glyph-name="e.sc" horiz-adv-x="558" 
d="M524 436h-332v-102h265v-110h-265v-109h331v-115h-463v551h464v-115z" />
    <glyph glyph-name="eacute.sc" horiz-adv-x="558" 
d="M507 783l-169 -168h-115l127 168h157zM524 436h-332v-102h265v-110h-265v-109h331v-115h-463v551h464v-115z" />
    <glyph glyph-name="ebreve.sc" horiz-adv-x="558" 
d="M298 611q-76 0 -124.5 43t-63.5 115h127q2 -34 17.5 -57t43.5 -23q54 0 61 80h127q-16 -72 -64.5 -115t-123.5 -43zM524 436h-332v-102h265v-110h-265v-109h331v-115h-463v551h464v-115z" />
    <glyph glyph-name="ecaron.sc" horiz-adv-x="558" 
d="M369 615h-140l-126 167h134l62 -108l62 108h134zM524 436h-332v-102h265v-110h-265v-109h331v-115h-463v551h464v-115z" />
    <glyph glyph-name="ecircumflex.sc" horiz-adv-x="558" 
d="M297 718l-68 -103h-131l134 168h132l127 -168h-130zM524 436h-332v-102h265v-110h-265v-109h331v-115h-463v551h464v-115z" />
    <glyph glyph-name="edieresis.sc" horiz-adv-x="558" 
d="M259 738v-122h-138v122h138zM474 738v-122h-139v122h139zM524 436h-332v-102h265v-110h-265v-109h331v-115h-463v551h464v-115z" />
    <glyph glyph-name="edotaccent.sc" horiz-adv-x="558" 
d="M371 750v-124h-147v124h147zM524 436h-332v-102h265v-110h-265v-109h331v-115h-463v551h464v-115z" />
    <glyph glyph-name="egrave.sc" horiz-adv-x="558" 
d="M362 615h-115l-157 168h158zM524 436h-332v-102h265v-110h-265v-109h331v-115h-463v551h464v-115z" />
    <glyph glyph-name="emacron.sc" horiz-adv-x="558" 
d="M467 736v-103h-338v103h338zM524 436h-332v-102h265v-110h-265v-109h331v-115h-463v551h464v-115z" />
    <glyph glyph-name="eogonek.sc" horiz-adv-x="558" 
d="M451 -122q27 0 47 18l23 -84q-40 -29 -103 -29q-51 0 -85.5 30.5t-34.5 79.5q0 69 72 107h-310v551h464v-115h-332v-102h265v-110h-265v-109h331v-113l5 -2q-122 -24 -122 -82q0 -43 45 -40z" />
    <glyph glyph-name="f.sc" horiz-adv-x="557" 
d="M536 433h-340v-119h276v-119h-276v-195h-136v551h476v-118z" />
    <glyph glyph-name="uni1E1F.sc" horiz-adv-x="557" 
d="M378 750v-124h-147v124h147zM536 433h-340v-119h276v-119h-276v-195h-136v551h476v-118z" />
    <glyph glyph-name="g.sc" horiz-adv-x="624" 
d="M581 0h-97q-8 13 -23 62q-71 -71 -173 -71q-117 0 -187 69.5t-70 188.5v25q0 126 76 206t211 80q81 0 134 -20.5t98 -59.5l-69 -89q-52 55 -159 55q-73 0 -112 -44t-39 -123v-19q0 -156 143 -156q86 0 133 44v73h-131v97h259v-223q0 -50 6 -95z" />
    <glyph glyph-name="gbreve.sc" horiz-adv-x="624" 
d="M311 611q-76 0 -124.5 43t-63.5 115h127q2 -34 17.5 -57t43.5 -23q54 0 61 80h127q-16 -72 -64.5 -115t-123.5 -43zM581 0h-97q-8 13 -23 62q-71 -71 -173 -71q-117 0 -187 69.5t-70 188.5v25q0 126 76 206t211 80q81 0 134 -20.5t98 -59.5l-69 -89q-52 55 -159 55
q-73 0 -112 -44t-39 -123v-19q0 -156 143 -156q86 0 133 44v73h-131v97h259v-223q0 -50 6 -95z" />
    <glyph glyph-name="gcircumflex.sc" horiz-adv-x="624" 
d="M310 718l-68 -103h-131l134 168h132l127 -168h-130zM581 0h-97q-8 13 -23 62q-71 -71 -173 -71q-117 0 -187 69.5t-70 188.5v25q0 126 76 206t211 80q81 0 134 -20.5t98 -59.5l-69 -89q-52 55 -159 55q-73 0 -112 -44t-39 -123v-19q0 -156 143 -156q86 0 133 44v73h-131
v97h259v-223q0 -50 6 -95z" />
    <glyph glyph-name="gcommaaccent.sc" horiz-adv-x="624" 
d="M581 0h-97q-8 13 -23 62q-71 -71 -173 -71q-117 0 -187 69.5t-70 188.5v25q0 126 76 206t211 80q81 0 134 -20.5t98 -59.5l-69 -89q-52 55 -159 55q-73 0 -112 -44t-39 -123v-19q0 -156 143 -156q86 0 133 44v73h-131v97h259v-223q0 -50 6 -95zM143 -233l100 181h139
l-129 -181h-110z" />
    <glyph glyph-name="gdotaccent.sc" horiz-adv-x="624" 
d="M384 750v-124h-147v124h147zM581 0h-97q-8 13 -23 62q-71 -71 -173 -71q-117 0 -187 69.5t-70 188.5v25q0 126 76 206t211 80q81 0 134 -20.5t98 -59.5l-69 -89q-52 55 -159 55q-73 0 -112 -44t-39 -123v-19q0 -156 143 -156q86 0 133 44v73h-131v97h259v-223
q0 -50 6 -95z" />
    <glyph glyph-name="h.sc" horiz-adv-x="657" 
d="M452 551h145v-551h-145v214h-246v-214h-146v551h146v-213h246v213z" />
    <glyph glyph-name="h.sc.hbar" horiz-adv-x="657" 
d="M452 551h145v-551h-145v215h-246v-215h-146v551h146v-218h246v218z" />
    <glyph glyph-name="hbar.sc" horiz-adv-x="657" 
d="M645 486v-88h-48v-398h-145v215h-246v-215h-146v398h-44v88h44v65h146v-65h246v65h145v-65h48zM452 333v65h-246v-65h246z" />
    <glyph glyph-name="hcircumflex.sc" horiz-adv-x="657" 
d="M330 718l-68 -103h-131l134 168h132l127 -168h-130zM452 551h145v-551h-145v214h-246v-214h-146v551h146v-213h246v213z" />
    <glyph glyph-name="i.sc" horiz-adv-x="260" 
d="M201 551v-551h-141v551h141z" />
    <glyph glyph-name="dotlessi.sc" horiz-adv-x="260" 
d="M201 551v-551h-141v551h141z" />
    <glyph glyph-name="iacute.sc" horiz-adv-x="260" 
d="M341 784l-169 -168h-115l127 168h157zM201 551v-551h-141v551h141z" />
    <glyph glyph-name="iacute_j.loclNLD.sc" horiz-adv-x="830" 
d="M339 794l-169 -176h-115l127 176h157zM756 794l-169 -176h-115l127 176h157zM201 551v-551h-141v551h141zM781 551v-323q0 -237 -264 -237q-76 0 -142.5 27t-103.5 73l76 97q22 -33 66 -55t100 -22q67 0 98.5 26t31.5 86v210h-323v118h461z" />
    <glyph glyph-name="ibreve.sc" horiz-adv-x="260" 
d="M320 770q-16 -72 -64.5 -115t-123.5 -43q-76 0 -124.5 43t-63.5 115h127q2 -34 17.5 -57t43.5 -23q54 0 61 80h127zM201 551v-551h-141v551h141z" />
    <glyph glyph-name="icircumflex.sc" horiz-adv-x="260" 
d="M131 719l-68 -103h-131l134 168h132l127 -168h-130zM60 0v551h141v-551h-141z" />
    <glyph glyph-name="idieresis.sc" horiz-adv-x="260" 
d="M94 739v-122h-137v122h137zM305 739v-122h-136v122h136zM201 551v-551h-141v551h141z" />
    <glyph glyph-name="i.sc.loclTRK" horiz-adv-x="260" 
d="M57 756h147v-128h-147v128zM201 551v-551h-141v551h141z" />
    <glyph glyph-name="igrave.sc" horiz-adv-x="260" 
d="M81 784l115 -168h-116l-158 168h159zM201 551v-551h-141v551h141z" />
    <glyph glyph-name="ij.sc" horiz-adv-x="831" 
d="M201 551v-551h-141v551h141zM782 551v-323q0 -237 -264 -237q-76 0 -143.5 27t-103.5 73l76 97q22 -33 66.5 -55t100.5 -22q67 0 98.5 26t31.5 86v210h-324v118h462z" />
    <glyph glyph-name="imacron.sc" horiz-adv-x="260" 
d="M287 730v-100h-311v100h311zM201 551v-551h-141v551h141z" />
    <glyph glyph-name="iogonek.sc" horiz-adv-x="260" 
d="M125 -124q27 0 47 18l22 -85q-39 -30 -102 -30q-51 0 -85.5 31t-34.5 81q0 79 88 117v543h141v-551h1q-122 -24 -122 -84q0 -43 45 -40z" />
    <glyph glyph-name="itilde.sc" horiz-adv-x="260" 
d="M289 746v-103q-23 -23 -79 -23q-24 0 -72 13t-75 12q-51 -1 -85 -37l-1 102q31 31 90 31q24 0 71.5 -13t69.5 -13q57 0 81 31zM201 551v-551h-141v551h141z" />
    <glyph glyph-name="j.sc" horiz-adv-x="572" 
d="M523 551v-323q0 -237 -264 -237q-76 0 -142.5 27t-103.5 73l76 97q22 -33 66 -55t100 -22q67 0 98.5 26t31.5 86v210h-323v118h461z" />
    <glyph glyph-name="j.sc.ss01" horiz-adv-x="549" 
d="M501 551v-313q0 -120 -65 -183.5t-190 -63.5q-69 0 -130.5 27.5t-102.5 75.5l78 97q53 -81 153 -81q115 0 115 120v321h142z" />
    <glyph glyph-name="uni0237.sc" horiz-adv-x="572" 
d="M523 551v-323q0 -237 -264 -237q-76 0 -142.5 27t-103.5 73l76 97q22 -33 66 -55t100 -22q67 0 98.5 26t31.5 86v210h-323v118h461z" />
    <glyph glyph-name="jcircumflex.sc" horiz-adv-x="572" 
d="M290 718l-68 -103h-131l134 168h132l127 -168h-130zM62 551h461v-323q0 -237 -264 -237q-76 0 -142.5 27t-103.5 73l76 97q22 -33 66 -55t100 -22q67 0 98.5 26t31.5 86v210h-323v118z" />
    <glyph glyph-name="k.sc" horiz-adv-x="600" 
d="M600 551l-232 -241l231 -310h-159l-155 222l-86 -89v-133h-139v551h139v-253l226 253h175z" />
    <glyph glyph-name="kcommaaccent.sc" horiz-adv-x="600" 
d="M600 551l-232 -241l231 -310h-159l-155 222l-86 -89v-133h-139v551h139v-253l226 253h175zM140 -228l100 180h139l-129 -180h-110z" />
    <glyph glyph-name="kgreenlandic.sc" horiz-adv-x="600" 
d="M600 551l-232 -241l231 -310h-159l-155 222l-86 -89v-133h-139v551h139v-253l226 253h175z" />
    <glyph glyph-name="l.sc" horiz-adv-x="527" 
d="M202 551v-430h297v-121h-439v551h142z" />
    <glyph glyph-name="lacute.sc" horiz-adv-x="527" 
d="M342 783l-169 -168h-115l127 168h157zM202 551v-430h297v-121h-439v551h142z" />
    <glyph glyph-name="lcaron.sc" horiz-adv-x="527" 
d="M400 563l-51 -194h-96l22 194h125zM202 551v-430h297v-121h-439v551h142z" />
    <glyph glyph-name="lcommaaccent.sc" horiz-adv-x="527" 
d="M202 551v-430h297v-121h-439v551h142zM356 -47l-129 -175h-110l101 175h138z" />
    <glyph glyph-name="ldot.sc" horiz-adv-x="527" 
d="M202 551v-430h297v-121h-439v551h142zM317 267v126h143v-126h-143z" />
    <glyph glyph-name="lslash.sc" horiz-adv-x="527" 
d="M202 121h297v-121h-439v136l-55 -31v107l55 31v308h142v-226l150 86v-110l-150 -85v-95z" />
    <glyph glyph-name="m.sc" horiz-adv-x="748" 
d="M551 551h139v-551h-130l1 362l-164 -240h-45l-163 241v-363h-131v551h138l179 -270z" />
    <glyph glyph-name="uni1E41.sc" horiz-adv-x="748" 
d="M452 750v-124h-147v124h147zM551 551h139v-551h-130l1 362l-164 -240h-45l-163 241v-363h-131v551h138l179 -270z" />
    <glyph glyph-name="n.sc" horiz-adv-x="641" 
d="M450 551h133v-551h-125l-267 355v-355h-134v551h126l267 -349v349z" />
    <glyph glyph-name="nacute.sc" horiz-adv-x="641" 
d="M530 783l-169 -168h-115l127 168h157zM450 551h133v-551h-125l-267 355v-355h-134v551h126l267 -349v349z" />
    <glyph glyph-name="ncaron.sc" horiz-adv-x="641" 
d="M392 615h-140l-126 167h134l62 -108l62 108h134zM450 551h133v-551h-125l-267 355v-355h-134v551h126l267 -349v349z" />
    <glyph glyph-name="ncommaaccent.sc" horiz-adv-x="641" 
d="M450 551h133v-551h-125l-267 355v-355h-134v551h126l267 -349v349zM153 -228l100 180h139l-129 -180h-110z" />
    <glyph glyph-name="eng.sc" horiz-adv-x="651" 
d="M459 551h134v-560q0 -89 -42 -135t-121 -46q-72 0 -129 27l33 121q38 -31 72 -31q53 0 53 65v16l-267 339v-347h-135v551h132l270 -343v343z" />
    <glyph glyph-name="ntilde.sc" horiz-adv-x="641" 
d="M407 621q-27 0 -79 13.5t-82 12.5q-54 0 -93 -37v105q32 32 98 32q26 0 77.5 -13.5t75.5 -13.5q63 1 88 32v-107q-28 -24 -85 -24zM450 551h133v-551h-125l-267 355v-355h-134v551h126l267 -349v349z" />
    <glyph glyph-name="o.sc" horiz-adv-x="638" 
d="M317 560q133 0 211.5 -71.5t78.5 -196.5v-34q0 -120 -79 -193t-210 -73q-128 0 -207 72t-79 192v33q0 123 78.5 197t206.5 74zM319 446q-66 0 -104.5 -40.5t-38.5 -114.5v-33q0 -72 38 -112t104 -40q68 0 106.5 40t38.5 112v33q0 75 -38 115t-106 40z" />
    <glyph glyph-name="oacute.sc" horiz-adv-x="638" 
d="M534 779l-169 -168h-115l127 168h157zM317 560q133 0 211.5 -71.5t78.5 -196.5v-34q0 -120 -79 -193t-210 -73q-128 0 -207 72t-79 192v33q0 123 78.5 197t206.5 74zM319 446q-66 0 -104.5 -40.5t-38.5 -114.5v-33q0 -72 38 -112t104 -40q68 0 106.5 40t38.5 112v33
q0 75 -38 115t-106 40z" />
    <glyph glyph-name="obreve.sc" horiz-adv-x="638" 
d="M513 765q-16 -72 -64.5 -115t-123.5 -43q-76 0 -124.5 43t-63.5 115h127q2 -34 17.5 -57t43.5 -23q54 0 61 80h127zM317 560q133 0 211.5 -71.5t78.5 -196.5v-34q0 -120 -79 -193t-210 -73q-128 0 -207 72t-79 192v33q0 123 78.5 197t206.5 74zM319 446
q-66 0 -104.5 -40.5t-38.5 -114.5v-33q0 -72 38 -112t104 -40q68 0 106.5 40t38.5 112v33q0 75 -38 115t-106 40z" />
    <glyph glyph-name="ocircumflex.sc" horiz-adv-x="638" 
d="M324 714l-68 -103h-131l134 168h132l127 -168h-130zM317 560q133 0 211.5 -71.5t78.5 -196.5v-34q0 -120 -79 -193t-210 -73q-128 0 -207 72t-79 192v33q0 123 78.5 197t206.5 74zM463 258v33q0 75 -38 115t-106 40q-66 0 -104.5 -40.5t-38.5 -114.5v-33q0 -72 38 -112
t104 -40q68 0 106.5 40t38.5 112z" />
    <glyph glyph-name="odieresis.sc" horiz-adv-x="638" 
d="M286 734v-122h-138v122h138zM501 734v-122h-139v122h139zM317 560q133 0 211.5 -71.5t78.5 -196.5v-34q0 -120 -79 -193t-210 -73q-128 0 -207 72t-79 192v33q0 123 78.5 197t206.5 74zM319 446q-66 0 -104.5 -40.5t-38.5 -114.5v-33q0 -72 38 -112t104 -40
q68 0 106.5 40t38.5 112v33q0 75 -38 115t-106 40z" />
    <glyph glyph-name="ograve.sc" horiz-adv-x="638" 
d="M274 779l114 -168h-115l-157 168h158zM317 560q133 0 211.5 -71.5t78.5 -196.5v-34q0 -120 -79 -193t-210 -73q-128 0 -207 72t-79 192v33q0 123 78.5 197t206.5 74zM319 446q-66 0 -104.5 -40.5t-38.5 -114.5v-33q0 -72 38 -112t104 -40q68 0 106.5 40t38.5 112v33
q0 75 -38 115t-106 40z" />
    <glyph glyph-name="ohungarumlaut.sc" horiz-adv-x="638" 
d="M401 779l-115 -168h-99l86 168h128zM578 779l-128 -168h-101l99 168h130zM317 560q133 0 211.5 -71.5t78.5 -196.5v-34q0 -120 -79 -193t-210 -73q-128 0 -207 72t-79 192v33q0 123 78.5 197t206.5 74zM319 446q-66 0 -104.5 -40.5t-38.5 -114.5v-33q0 -72 38 -112
t104 -40q68 0 106.5 40t38.5 112v33q0 75 -38 115t-106 40z" />
    <glyph glyph-name="omacron.sc" horiz-adv-x="638" 
d="M493 732v-103h-338v103h338zM317 560q133 0 211.5 -71.5t78.5 -196.5v-34q0 -120 -79 -193t-210 -73q-128 0 -207 72t-79 192v33q0 123 78.5 197t206.5 74zM319 446q-66 0 -104.5 -40.5t-38.5 -114.5v-33q0 -72 38 -112t104 -40q68 0 106.5 40t38.5 112v33q0 75 -38 115
t-106 40z" />
    <glyph glyph-name="oslash.sc" horiz-adv-x="638" 
d="M512 502q95 -73 95 -210v-34q0 -120 -79 -193t-210 -73q-45 0 -77 8l-42 -77h-140l69 127q-96 72 -96 206v33q0 123 78.5 197t206.5 74q41 0 81 -8l47 87h144zM463 258v33q0 75 -38 115t-106 40q-66 0 -104.5 -40.5t-38.5 -114.5v-33q0 -72 38 -112t104 -40
q68 0 106.5 40t38.5 112z" />
    <glyph glyph-name="otilde.sc" horiz-adv-x="638" 
d="M496 748v-107q-28 -24 -85 -24q-27 0 -79 13.5t-82 12.5q-54 0 -93 -37v105q32 32 98 32q26 0 77.5 -13.5t75.5 -13.5q63 1 88 32zM317 560q133 0 211.5 -71.5t78.5 -196.5v-34q0 -120 -79 -193t-210 -73q-128 0 -207 72t-79 192v33q0 123 78.5 197t206.5 74zM319 446
q-66 0 -104.5 -40.5t-38.5 -114.5v-33q0 -72 38 -112t104 -40q68 0 106.5 40t38.5 112v33q0 75 -38 115t-106 40z" />
    <glyph glyph-name="oe.sc" horiz-adv-x="900" 
d="M868 436h-318v-103h251v-110h-251v-108h317v-115h-441q-54 -8 -100 -8q-134 0 -214 70.5t-80 192.5v31q0 126 80 199.5t215 73.5q49 0 97 -8h444v-115zM421 119v320q-50 8 -92 8q-73 0 -114 -41.5t-41 -120.5v-21q0 -77 41.5 -117t114.5 -40q52 0 91 12z" />
    <glyph glyph-name="p.sc" horiz-adv-x="600" 
d="M340 551q110 0 173.5 -48t63.5 -144v-13q0 -97 -64 -147t-175 -50h-141v-149h-137v551h280zM435 346v11q0 43 -25.5 60.5t-75.5 17.5h-137v-170h133q105 0 105 81z" />
    <glyph glyph-name="thorn.sc" horiz-adv-x="604" 
d="M338 483q112 0 177.5 -48t65.5 -145v-14q0 -98 -64 -148.5t-176 -50.5h-142v-77h-139v551h139v-68h139zM439 276v11q0 44 -25.5 62t-76.5 18h-138v-174h134q106 0 106 83z" />
    <glyph glyph-name="q.sc" horiz-adv-x="638" 
d="M607 258q0 -76 -33 -135t-94 -93l107 -152h-167l-70 115q-10 -1 -32 -1q-128 0 -207 72t-79 192v33q0 123 78.5 197t206.5 74q133 0 211.5 -71.5t78.5 -196.5v-34zM176 258q0 -72 38 -112t104 -40q68 0 106.5 40t38.5 112v33q0 75 -38 115t-106 40q-66 0 -104.5 -40.5
t-38.5 -114.5v-33z" />
    <glyph glyph-name="r.sc" horiz-adv-x="621" 
d="M436 0l-129 177h-110v-177h-137v551h303q100 0 156 -48.5t56 -132.5v-10q0 -61 -34 -106t-96 -65l152 -189h-161zM197 436v-148h150q86 0 86 74v8q0 66 -82 66h-154z" />
    <glyph glyph-name="racute.sc" horiz-adv-x="621" 
d="M514 783l-169 -168h-115l127 168h157zM436 0l-129 177h-110v-177h-137v551h303q100 0 156 -48.5t56 -132.5v-10q0 -61 -34 -106t-96 -65l152 -189h-161zM197 436v-148h150q86 0 86 74v8q0 66 -82 66h-154z" />
    <glyph glyph-name="rcaron.sc" horiz-adv-x="621" 
d="M376 615h-140l-126 167h134l62 -108l62 108h134zM436 0l-129 177h-110v-177h-137v551h303q100 0 156 -48.5t56 -132.5v-10q0 -61 -34 -106t-96 -65l152 -189h-161zM197 436v-148h150q86 0 86 74v8q0 66 -82 66h-154z" />
    <glyph glyph-name="rcommaaccent.sc" horiz-adv-x="621" 
d="M445 189l152 -189h-161l-129 177h-110v-177h-137v551h303q100 0 156 -48.5t56 -132.5v-10q0 -61 -34 -106t-96 -65zM197 436v-148h150q86 0 86 74v8q0 66 -82 66h-154zM136 -239l100 189h139l-129 -189h-110z" />
    <glyph glyph-name="s.sc" horiz-adv-x="549" 
d="M280 -8q-158 0 -260 77l62 102q23 -26 75.5 -45.5t113.5 -19.5q63 0 92.5 13.5t29.5 43.5q0 29 -26 39.5t-107 23.5q-5 1 -7 1q-45 7 -74.5 13t-59 17.5t-45.5 26.5t-26 38t-10 54q0 83 61.5 133.5t181.5 50.5q141 0 225 -64l-62 -96q-22 20 -68 33t-96 13
q-111 0 -111 -57q0 -24 22 -32t89 -18q3 0 5 -0.5t5 -1t5 -0.5q117 -17 172.5 -49.5t55.5 -109.5q0 -94 -63 -140t-180 -46z" />
    <glyph glyph-name="sacute.sc" horiz-adv-x="549" 
d="M492 783l-169 -168h-115l127 168h157zM280 -8q-158 0 -260 77l62 102q23 -26 75.5 -45.5t113.5 -19.5q63 0 92.5 13.5t29.5 43.5q0 29 -26 39.5t-107 23.5q-5 1 -7 1q-45 7 -74.5 13t-59 17.5t-45.5 26.5t-26 38t-10 54q0 83 61.5 133.5t181.5 50.5q141 0 225 -64
l-62 -96q-22 20 -68 33t-96 13q-111 0 -111 -57q0 -24 22 -32t89 -18q3 0 5 -0.5t5 -1t5 -0.5q117 -17 172.5 -49.5t55.5 -109.5q0 -94 -63 -140t-180 -46z" />
    <glyph glyph-name="scaron.sc" horiz-adv-x="549" 
d="M354 615h-140l-126 167h134l62 -108l62 108h134zM295 337q117 -17 172.5 -49.5t55.5 -109.5q0 -94 -63 -140t-180 -46q-158 0 -260 77l62 102q23 -26 75.5 -45.5t113.5 -19.5q63 0 92.5 13.5t29.5 43.5q0 29 -26 39.5t-107 23.5q-5 1 -7 1q-45 7 -74.5 13t-59 17.5
t-45.5 26.5t-26 38t-10 54q0 83 61.5 133.5t181.5 50.5q141 0 225 -64l-62 -96q-22 20 -68 33t-96 13q-111 0 -111 -57q0 -24 22 -32t89 -18q3 0 5 -0.5t5 -1t5 -0.5z" />
    <glyph glyph-name="scedilla.sc" horiz-adv-x="549" 
d="M523 178q0 -175 -217 -186l-11 -44q48 3 77.5 -17.5t29.5 -64.5q0 -51 -34 -78.5t-97 -27.5q-35 0 -70 9t-53 22l31 84q13 -15 37.5 -28.5t51.5 -13.5q44 0 44 32q0 26 -31 26q-14 0 -23 -6l-48 35l10 75q-123 15 -200 74l62 102q23 -26 75.5 -45.5t113.5 -19.5
q63 0 92.5 13.5t29.5 43.5q0 29 -26 39.5t-107 23.5q-5 1 -7 1q-45 7 -74.5 13t-59 17.5t-45.5 26.5t-26 38t-10 54q0 83 61.5 133.5t181.5 50.5q141 0 225 -64l-62 -96q-22 20 -68 33t-96 13q-111 0 -111 -57q0 -24 22 -32t89 -18q3 0 5 -0.5t5 -1t5 -0.5
q117 -17 172.5 -49.5t55.5 -109.5z" />
    <glyph glyph-name="scircumflex.sc" horiz-adv-x="549" 
d="M282 718l-68 -103h-131l134 168h132l127 -168h-130zM295 337q117 -17 172.5 -49.5t55.5 -109.5q0 -94 -63 -140t-180 -46q-158 0 -260 77l62 102q23 -26 75.5 -45.5t113.5 -19.5q63 0 92.5 13.5t29.5 43.5q0 29 -26 39.5t-107 23.5q-5 1 -7 1q-45 7 -74.5 13t-59 17.5
t-45.5 26.5t-26 38t-10 54q0 83 61.5 133.5t181.5 50.5q141 0 225 -64l-62 -96q-22 20 -68 33t-96 13q-111 0 -111 -57q0 -24 22 -32t89 -18q3 0 5 -0.5t5 -1t5 -0.5z" />
    <glyph glyph-name="scommaaccent.sc" horiz-adv-x="549" 
d="M280 -8q-158 0 -260 77l62 102q23 -26 75.5 -45.5t113.5 -19.5q63 0 92.5 13.5t29.5 43.5q0 29 -26 39.5t-107 23.5q-5 1 -7 1q-45 7 -74.5 13t-59 17.5t-45.5 26.5t-26 38t-10 54q0 83 61.5 133.5t181.5 50.5q141 0 225 -64l-62 -96q-22 20 -68 33t-96 13
q-111 0 -111 -57q0 -24 22 -32t89 -18q3 0 5 -0.5t5 -1t5 -0.5q117 -17 172.5 -49.5t55.5 -109.5q0 -94 -63 -140t-180 -46zM338 -50l-129 -180h-110l100 180h139z" />
    <glyph glyph-name="germandbls.sc" horiz-adv-x="1100" 
d="M830 -8q-158 0 -260 77l63 102q22 -26 74.5 -45.5t113.5 -19.5q64 0 93.5 13.5t29.5 43.5q0 29 -26 39.5t-107 23.5q-5 1 -7 1q-45 7 -74.5 13t-59 17.5t-46 26.5t-26.5 38t-10 54q0 83 62 133.5t182 50.5q141 0 225 -64l-62 -96q-23 20 -69 33t-96 13q-111 0 -111 -57
q0 -24 22 -32t89 -18q3 0 5 -0.5t5 -1t5 -0.5q118 -17 173.5 -49.5t55.5 -109.5q0 -94 -63.5 -140t-180.5 -46zM280 -8q-158 0 -260 77l62 102q23 -26 75.5 -45.5t113.5 -19.5q63 0 92.5 13.5t29.5 43.5q0 29 -26 39.5t-107 23.5q-5 1 -7 1q-45 7 -74.5 13t-59 17.5
t-45.5 26.5t-26 38t-10 54q0 83 61.5 133.5t181.5 50.5q141 0 225 -64l-62 -96q-22 20 -68 33t-96 13q-111 0 -111 -57q0 -24 22 -32t89 -18q3 0 5 -0.5t5 -1t5 -0.5q117 -17 172.5 -49.5t55.5 -109.5q0 -94 -63 -140t-180 -46z" />
    <glyph glyph-name="longs.sc" horiz-adv-x="549" 
d="M280 -8q-158 0 -260 77l62 102q23 -26 75.5 -45.5t113.5 -19.5q63 0 92.5 13.5t29.5 43.5q0 29 -26 39.5t-107 23.5q-5 1 -7 1q-45 7 -74.5 13t-59 17.5t-45.5 26.5t-26 38t-10 54q0 83 61.5 133.5t181.5 50.5q141 0 225 -64l-62 -96q-22 20 -68 33t-96 13
q-111 0 -111 -57q0 -24 22 -32t89 -18q3 0 5 -0.5t5 -1t5 -0.5q117 -17 172.5 -49.5t55.5 -109.5q0 -94 -63 -140t-180 -46z" />
    <glyph glyph-name="t.sc" horiz-adv-x="544" 
d="M533 551v-118h-191v-433h-140v433h-190v118h521z" />
    <glyph glyph-name="tbar.sc" horiz-adv-x="544" 
d="M533 433h-191v-116h144v-112h-144v-205h-140v205h-142v112h142v116h-190v118h521v-118z" />
    <glyph glyph-name="tcaron.sc" horiz-adv-x="544" 
d="M344 615h-140l-126 167h134l62 -108l62 108h134zM533 551v-118h-191v-433h-140v433h-190v118h521z" />
    <glyph glyph-name="uni0163.sc" horiz-adv-x="544" 
d="M342 0h-13l-43 -50q53 4 87 -20.5t34 -72.5q0 -58 -42.5 -88t-106.5 -30q-42 0 -81.5 10t-57.5 25l39 93q32 -44 91 -44q50 0 50 33q0 26 -37 26q-7 0 -13.5 -1t-10.5 -2l-4 -1l-47 44l43 78h-28v433h-190v118h521v-118h-191v-433z" />
    <glyph glyph-name="uni021B.sc" horiz-adv-x="544" 
d="M533 551v-118h-191v-433h-140v433h-190v118h521zM98 -223l100 176h139l-129 -176h-110z" />
    <glyph glyph-name="uni1E6B.sc" horiz-adv-x="544" 
d="M345 749v-124h-147v124h147zM533 551v-118h-191v-433h-140v433h-190v118h521z" />
    <glyph glyph-name="u.sc" horiz-adv-x="628" 
d="M579 551v-324q0 -106 -66 -170.5t-197 -64.5t-199 63t-68 173v323h143l1 -329q0 -54 30 -85.5t93 -31.5q120 0 120 120v326h143z" />
    <glyph glyph-name="uacute.sc" horiz-adv-x="628" 
d="M524 778l-169 -164h-115l127 164h157zM579 551v-324q0 -106 -66 -170.5t-197 -64.5t-199 63t-68 173v323h143l1 -329q0 -54 30 -85.5t93 -31.5q120 0 120 120v326h143z" />
    <glyph glyph-name="ubreve.sc" horiz-adv-x="628" 
d="M503 765q-16 -71 -64.5 -113t-123.5 -42q-76 0 -124.5 42.5t-63.5 112.5h127q2 -34 17.5 -56t43.5 -22q54 0 61 78h127zM579 551v-324q0 -106 -66 -170.5t-197 -64.5t-199 63t-68 173v323h143l1 -329q0 -54 30 -85.5t93 -31.5q120 0 120 120v326h143z" />
    <glyph glyph-name="ucircumflex.sc" horiz-adv-x="628" 
d="M314 715l-68 -101h-131l134 164h132l127 -164h-130zM436 551h143v-324q0 -106 -66 -170.5t-197 -64.5t-199 63t-68 173v323h143l1 -329q0 -54 30 -85.5t93 -31.5q120 0 120 120v326z" />
    <glyph glyph-name="udieresis.sc" horiz-adv-x="628" 
d="M276 737v-121h-138v121h138zM491 737v-121h-139v121h139zM579 551v-324q0 -106 -66 -170.5t-197 -64.5t-199 63t-68 173v323h143l1 -329q0 -54 30 -85.5t93 -31.5q120 0 120 120v326h143z" />
    <glyph glyph-name="ugrave.sc" horiz-adv-x="628" 
d="M264 778l114 -164h-115l-157 164h158zM579 551v-324q0 -106 -66 -170.5t-197 -64.5t-199 63t-68 173v323h143l1 -329q0 -54 30 -85.5t93 -31.5q120 0 120 120v326h143z" />
    <glyph glyph-name="uhungarumlaut.sc" horiz-adv-x="628" 
d="M391 778l-115 -164h-99l86 164h128zM568 778l-128 -164h-101l99 164h130zM579 551v-324q0 -106 -66 -170.5t-197 -64.5t-199 63t-68 173v323h143l1 -329q0 -54 30 -85.5t93 -31.5q120 0 120 120v326h143z" />
    <glyph glyph-name="umacron.sc" horiz-adv-x="628" 
d="M483 732v-101h-338v101h338zM579 551v-324q0 -106 -66 -170.5t-197 -64.5t-199 63t-68 173v323h143l1 -329q0 -54 30 -85.5t93 -31.5q120 0 120 120v326h143z" />
    <glyph glyph-name="uogonek.sc" horiz-adv-x="628" 
d="M436 551h143v-324q0 -87 -45 -147t-134 -80q-77 -32 -77 -89q0 -42 44 -42q28 0 41 22l19 -85q-31 -31 -95 -31q-54 0 -86.5 30t-31.5 82q0 65 61 107q-111 10 -168.5 71.5t-57.5 162.5v323h143l1 -329q0 -54 30 -85.5t93 -31.5q120 0 120 120v326z" />
    <glyph glyph-name="uring.sc" horiz-adv-x="628" 
d="M315 828q60 0 95 -31t35 -83q0 -51 -35 -84t-95 -33q-59 0 -95 33t-36 84t35.5 82.5t95.5 31.5zM315 757q-21 0 -33.5 -12t-12.5 -31q0 -20 12 -32.5t34 -12.5q21 0 33.5 12.5t12.5 32.5q0 19 -12.5 31t-33.5 12zM579 551v-324q0 -106 -66 -170.5t-197 -64.5t-199 63
t-68 173v323h143l1 -329q0 -54 30 -85.5t93 -31.5q120 0 120 120v326h143z" />
    <glyph glyph-name="utilde.sc" horiz-adv-x="628" 
d="M486 752v-107q-28 -24 -85 -24q-27 0 -79 13.5t-82 12.5q-54 0 -93 -37v105q32 32 98 32q26 0 77.5 -13.5t75.5 -13.5q63 1 88 32zM579 551v-324q0 -106 -66 -170.5t-197 -64.5t-199 63t-68 173v323h143l1 -329q0 -54 30 -85.5t93 -31.5q120 0 120 120v326h143z" />
    <glyph glyph-name="v.sc" horiz-adv-x="619" 
d="M449 551h160l-201 -551h-194l-204 551h160l141 -443z" />
    <glyph glyph-name="w.sc" horiz-adv-x="842" 
d="M680 551h150l-138 -551h-181l-89 433l-92 -433h-178l-140 551h148l81 -436l99 436h166l96 -439z" />
    <glyph glyph-name="wacute.sc" horiz-adv-x="842" 
d="M634 794l-169 -176h-115l127 176h157zM680 551h150l-138 -551h-181l-89 433l-92 -433h-178l-140 551h148l81 -436l99 436h166l96 -439z" />
    <glyph glyph-name="wcircumflex.sc" horiz-adv-x="842" 
d="M424 715l-68 -101h-131l134 164h132l127 -164h-130zM680 551h150l-138 -551h-181l-89 433l-92 -433h-178l-140 551h148l81 -436l99 436h166l96 -439z" />
    <glyph glyph-name="wdieresis.sc" horiz-adv-x="842" 
d="M386 743v-125h-138v125h138zM601 743v-125h-139v125h139zM680 551h150l-138 -551h-181l-89 433l-92 -433h-178l-140 551h148l81 -436l99 436h166l96 -439z" />
    <glyph glyph-name="wgrave.sc" horiz-adv-x="842" 
d="M489 619h-115l-157 175h158zM680 551h150l-138 -551h-181l-89 433l-92 -433h-178l-140 551h148l81 -436l99 436h166l96 -439z" />
    <glyph glyph-name="x.sc" horiz-adv-x="614" 
d="M598 0h-167l-122 209l-124 -209h-169l185 277l-174 274h169l114 -201l114 201h168l-174 -274z" />
    <glyph glyph-name="y.sc" horiz-adv-x="611" 
d="M439 551h165l-225 -369v-182h-145v182l-227 369h166l132 -253z" />
    <glyph glyph-name="yacute.sc" horiz-adv-x="611" 
d="M515 778l-169 -164h-115l127 164h157zM439 551h165l-225 -369v-182h-145v182l-227 369h166l132 -253z" />
    <glyph glyph-name="ycircumflex.sc" horiz-adv-x="611" 
d="M305 715l-68 -101h-131l134 164h132l127 -164h-130zM439 551h165l-225 -369v-182h-145v182l-227 369h166l132 -253z" />
    <glyph glyph-name="ydieresis.sc" horiz-adv-x="611" 
d="M267 738v-122h-138v122h138zM482 738v-122h-139v122h139zM439 551h165l-225 -369v-182h-145v182l-227 369h166l132 -253z" />
    <glyph glyph-name="ygrave.sc" horiz-adv-x="611" 
d="M370 619h-115l-157 175h158zM439 551h165l-225 -369v-182h-145v182l-227 369h166l132 -253z" />
    <glyph glyph-name="z.sc" horiz-adv-x="552" 
d="M192 118h329v-118h-488v122l320 311h-315v118h479v-125z" />
    <glyph glyph-name="zacute.sc" horiz-adv-x="552" 
d="M486 783l-169 -168h-115l127 168h157zM192 118h329v-118h-488v122l320 311h-315v118h479v-125z" />
    <glyph glyph-name="zcaron.sc" horiz-adv-x="552" 
d="M348 615h-140l-126 167h134l62 -108l62 108h134zM192 118h329v-118h-488v122l320 311h-315v118h479v-125z" />
    <glyph glyph-name="zdotaccent.sc" horiz-adv-x="552" 
d="M350 750v-124h-147v124h147zM192 118h329v-118h-488v122l320 311h-315v118h479v-125z" />
    <glyph glyph-name="zero.c2sc" horiz-adv-x="614" 
d="M307 560q130 0 202.5 -72t72.5 -192v-41q0 -119 -72.5 -191.5t-202.5 -72.5q-126 0 -200.5 73.5t-74.5 190.5v40q0 119 74.5 192t200.5 73zM308 445q-63 0 -99 -40.5t-36 -112.5v-34q0 -72 36 -111.5t99 -39.5t98 39.5t35 111.5v35q0 72 -35 112t-98 40z" />
    <glyph glyph-name="one.c2sc" horiz-adv-x="415" 
d="M327 547v-547h-132v389q-23 -10 -75 -37t-68 -35l-18 118q27 14 61 32.5t77.5 42.5t67.5 37h87z" />
    <glyph glyph-name="two.c2sc" horiz-adv-x="552" 
d="M37 0q-6 51 -1 99t21 86.5t55.5 70.5t101.5 52q25 8 57 16t49 12.5t33.5 11.5t23.5 16.5t7 24.5q0 55 -101 55q-52 0 -101 -17.5t-74 -44.5l-66 94q89 84 243 84q110 0 172.5 -43t62.5 -130q0 -27 -5.5 -47.5t-21.5 -36.5t-27.5 -25.5t-41.5 -20.5t-44 -15.5t-53 -15.5
q-83 -21 -117.5 -44.5t-35.5 -64.5h348v-117h-485z" />
    <glyph glyph-name="three.c2sc" horiz-adv-x="554" 
d="M379 318q147 -8 147 -134v-12q0 -88 -67 -134.5t-185 -46.5q-81 0 -151 23.5t-107 62.5l72 98q67 -70 185 -70q119 0 119 64v8q0 58 -79 58q-49 0 -98 -15l-41 103l175 115h-301v113h452v-120l-177 -115q32 5 56 2z" />
    <glyph glyph-name="four.c2sc" horiz-adv-x="541" 
d="M529 221v-101h-92v-120h-116v120h-308v101l280 330h144v-330h92zM155 221h166v208z" />
    <glyph glyph-name="five.c2sc" horiz-adv-x="554" 
d="M497 551v-113h-317l-6 -122q50 47 148 47q41 0 75 -8t64.5 -26.5t47.5 -52t17 -80.5v-11q0 -93 -63.5 -143.5t-179.5 -50.5q-169 0 -261 86l71 100q63 -75 178 -75q123 0 123 75v10q0 38 -25.5 53.5t-75.5 15.5q-69 0 -110 -41l-130 50l11 286h433z" />
    <glyph glyph-name="six.c2sc" horiz-adv-x="573" 
d="M331 361q92 0 152.5 -40t60.5 -122v-13q0 -90 -63.5 -142.5t-181.5 -52.5q-125 0 -196.5 72.5t-71.5 197.5v24q0 128 73.5 201.5t204.5 73.5q137 0 214 -67l-63 -90q-43 48 -155 48q-70 0 -106.5 -36t-40.5 -114q62 60 173 60zM416 180v13q0 67 -114 67q-85 0 -138 -59
q24 -100 137 -100q51 0 83 20t32 59z" />
    <glyph glyph-name="seven.c2sc" horiz-adv-x="491" 
d="M475 552v-122l-252 -430h-152l258 437h-315v115h461z" />
    <glyph glyph-name="eight.c2sc" horiz-adv-x="576" 
d="M284 -9q-120 0 -189 44t-69 119v12q0 117 124 131q-37 5 -64.5 34t-27.5 74v9q0 68 61 107t165 39q107 0 168 -38.5t61 -107.5v-10q0 -43 -23 -72t-61 -36q120 -12 120 -127v-13q0 -76 -71.5 -120.5t-193.5 -44.5zM287 333q96 0 96 60v8q0 59 -98 59q-50 0 -73.5 -14.5
t-23.5 -45.5v-6q0 -61 99 -61zM285 92q126 0 126 75v11q0 72 -125 72q-123 0 -123 -74v-10q0 -74 122 -74z" />
    <glyph glyph-name="nine.c2sc" horiz-adv-x="554" 
d="M264 560q122 0 190.5 -73.5t68.5 -203.5v-26q0 -127 -69.5 -196.5t-197.5 -69.5q-76 0 -139 24t-96 61l70 92q24 -27 67 -46t92 -19q80 0 114 34t34 120v2q-58 -54 -159 -54t-159 42.5t-58 118.5v9q0 87 64.5 136t177.5 49zM146 370q0 -64 105 -64q97 0 142 40
q-21 107 -134 107t-113 -73v-10z" />
    <glyph glyph-name="zero.osf" horiz-adv-x="604" 
d="M301 541q127 0 199 -70t72 -186v-40q0 -113 -71.5 -183t-198.5 -70q-123 0 -196.5 71t-73.5 183v38q0 114 73.5 185.5t195.5 71.5zM303 431q-62 0 -96.5 -39t-34.5 -110v-34q0 -70 34.5 -108t95.5 -38q62 0 96.5 38t34.5 108v34q0 71 -34 110t-96 39z" />
    <glyph glyph-name="one.osf" horiz-adv-x="406" 
d="M318 534v-534h-131v379q-19 -9 -67 -33.5t-70 -35.5l-16 117q12 6 200 107h84z" />
    <glyph glyph-name="two.osf" horiz-adv-x="542" 
d="M279 543q108 0 169 -42.5t61 -125.5q0 -22 -5.5 -40.5t-12.5 -31t-23.5 -24.5t-27 -18.5t-36.5 -16t-38 -13t-45 -12.5q-82 -20 -115.5 -42.5t-34.5 -63.5h340v-113h-474q-6 52 -0.5 98.5t21 83.5t54 67t98.5 49q24 8 55.5 16t48 12.5t33 11.5t23 16.5t6.5 23.5
q0 52 -97 52q-52 0 -100 -17t-73 -44l-65 92q87 82 238 82z" />
    <glyph glyph-name="three.osf" horiz-adv-x="580" 
d="M385 268q69 -3 117 -41.5t48 -114.5v-13q0 -99 -73.5 -152t-202.5 -53q-76 0 -147.5 26.5t-110.5 69.5l66 97q31 -34 84 -57t118 -23q61 0 96.5 21.5t35.5 64.5v10q0 42 -27.5 59t-84.5 17q-43 0 -79 -9l-41 105l189 146h-325v113h479v-123l-204 -143q38 4 62 0z" />
    <glyph glyph-name="four.osf" horiz-adv-x="578" 
d="M569 154v-107h-103v-144h-119v144h-333v106l306 381h146v-380h103zM157 154h190v239z" />
    <glyph glyph-name="five.osf" horiz-adv-x="585" 
d="M523 534v-113h-337l-10 -156q59 56 162 56q90 0 153 -47.5t63 -146.5v-13q0 -103 -69 -161t-191 -58q-175 0 -270 93l66 97q74 -79 203 -79q62 0 95.5 26t33.5 75v11q0 92 -119 92q-91 0 -137 -55l-112 50l13 329h456z" />
    <glyph glyph-name="six.osf" horiz-adv-x="601" 
d="M343 409q99 0 164.5 -45t65.5 -141v-14q0 -100 -69.5 -159t-190.5 -59q-131 0 -206 83.5t-75 222.5v24q0 148 77 233t215 85q140 0 221 -75l-69 -88q-47 50 -155 50q-160 0 -164 -192q70 75 186 75zM445 200v15q0 85 -129 85q-97 0 -152 -74q14 -61 53.5 -92t95.5 -31
q60 0 96 24.5t36 72.5z" />
    <glyph glyph-name="seven.osf" horiz-adv-x="519" 
d="M504 534v-119l-279 -512h-147l286 518h-351v113h491z" />
    <glyph glyph-name="eight.osf" horiz-adv-x="602" 
d="M298 640q113 0 176.5 -45.5t63.5 -125.5v-11q0 -50 -27 -81.5t-62 -40.5q52 -4 88.5 -39t36.5 -105v-14q0 -82 -76 -134t-197 -52q-127 0 -200 49.5t-73 135.5v14q0 68 35.5 104t87.5 41q-35 7 -62.5 41.5t-27.5 81.5v11q0 78 63 124t174 46zM299 529q-109 0 -109 -70v-8
q0 -71 109 -71q111 0 111 70v11q0 68 -111 68zM301 286q-140 0 -140 -88v-10q0 -43 36.5 -65t102.5 -22q140 0 140 87v11q0 87 -139 87z" />
    <glyph glyph-name="nine.osf" horiz-adv-x="583" 
d="M281 542q129 0 200.5 -84.5t71.5 -229.5v-27q0 -149 -72.5 -227t-205.5 -78q-79 0 -145 25.5t-102 64.5l65 97q67 -75 174 -75q88 0 125.5 42.5t37.5 149.5v3q-64 -64 -177 -64q-106 0 -168.5 50.5t-62.5 138.5v9q0 97 70.5 151t188.5 54zM151 332q0 -41 31.5 -61
t84.5 -20q107 0 158 49q-23 133 -151 133q-123 0 -123 -92v-9z" />
    <glyph glyph-name="zero.sinf" horiz-adv-x="429" 
d="M213 232q90 0 140.5 -54t50.5 -141v-26q0 -83 -50 -135.5t-139 -52.5q-87 0 -138 53t-51 134v27q0 87 50.5 141t136.5 54zM215 146q-41 0 -64 -28t-23 -80v-27q0 -49 24 -75.5t64 -26.5t63 27.5t23 76.5v27q0 51 -23.5 78.5t-63.5 27.5z" />
    <glyph glyph-name="one.sinf" horiz-adv-x="318" 
d="M245 225v-396h-97v275q-71 -32 -102 -47l-17 91q16 8 75.5 36t86.5 41h54z" />
    <glyph glyph-name="two.sinf" horiz-adv-x="392" 
d="M202 234q77 0 120.5 -31.5t43.5 -93.5q0 -53 -29.5 -76.5t-98.5 -42.5q-57 -15 -82 -32.5t-25 -43.5h236v-85h-337q-4 37 -0.5 72t14.5 64t39.5 52.5t73.5 36.5l27.5 7.5t25 7t20 6t17.5 6.5t11.5 7.5t8 9t2.5 10.5q1 20 -17.5 29t-50.5 9q-38 0 -70 -12.5t-46 -34.5
l-54 69q59 66 171 66z" />
    <glyph glyph-name="three.sinf" horiz-adv-x="396" 
d="M276 60q40 -1 67.5 -25t27.5 -72v-8q0 -67 -48.5 -100t-128.5 -33q-53 0 -102 16t-78 44l51 74q45 -51 123 -51q87 0 87 46v8q0 38 -54 38q-33 0 -64 -14l-34 81l118 78h-206v84h318v-89l-122 -79q23 4 45 2z" />
    <glyph glyph-name="four.sinf" horiz-adv-x="392" 
d="M381 -92h-64v-79h-87v79h-219v81l198 237h108v-240h64v-78zM113 -14h117l-1 138z" />
    <glyph glyph-name="five.sinf" horiz-adv-x="398" 
d="M351 226v-84h-220l-5 -85q40 32 103 32q62 0 103.5 -28t41.5 -94v-10q0 -64 -47 -100t-126 -36q-118 0 -181 60l48 73q47 -50 129 -50t82 50v8q0 45 -68 45q-47 0 -80 -28l-90 41l8 206h302z" />
    <glyph glyph-name="six.sinf" horiz-adv-x="409" 
d="M241 90q63 0 103 -29.5t40 -89.5v-8q0 -65 -46 -103t-126 -38q-86 0 -136 51.5t-50 141.5v17q0 95 50.5 148t140.5 53q94 0 149 -50l-51 -64q-30 33 -97 33q-96 0 -100 -109q44 47 123 47zM290 -42v9q0 44 -74 44q-58 0 -93 -41q17 -67 93 -67q32 0 53 14.5t21 40.5z" />
    <glyph glyph-name="seven.sinf" horiz-adv-x="352" 
d="M338 225v-89l-169 -307h-112l173 310h-218v86h326z" />
    <glyph glyph-name="eight.sinf" horiz-adv-x="411" 
d="M206 235q75 0 117.5 -29t42.5 -79v-7q0 -32 -16 -53t-43 -26q80 -9 80 -89v-9q0 -55 -49.5 -87.5t-133.5 -32.5q-83 0 -131.5 31t-48.5 85v9q0 43 23.5 66t60.5 28q-26 3 -44.5 25t-18.5 55v5q0 50 43 79t118 29zM206 158q-66 0 -66 -39v-5q0 -40 67 -40q64 0 64 40v4
q0 40 -65 40zM206 5q-82 0 -82 -49v-5q0 -49 82 -49q38 0 59.5 13t21.5 36v7q0 47 -81 47z" />
    <glyph glyph-name="nine.sinf" horiz-adv-x="390" 
d="M183 233q83 0 132 -53.5t49 -146.5v-19q0 -93 -45.5 -142t-135.5 -49q-104 0 -163 57l49 71q41 -47 107 -47q50 0 72 24.5t23 82.5q-39 -35 -103 -35q-68 0 -108.5 32t-40.5 88v5q0 62 44 97t120 35zM115 98q0 -43 63 -43q58 0 89 28q-15 71 -85 71q-67 0 -67 -50v-6z
" />
    <glyph glyph-name="one.ss03" horiz-adv-x="522" 
d="M354 124h142v-124h-428v124h149v387q-162 -89 -164 -90l-17 125q103 57 221 129h97v-551z" />
    <glyph glyph-name="one.c2sc.ss03" horiz-adv-x="486" 
d="M327 115h133v-115h-400v115h137v278q-25 -14 -79.5 -42t-69.5 -36l-16 119q111 59 202 111h93v-430z" />
    <glyph glyph-name="one.osf.ss03" horiz-adv-x="478" 
d="M322 113h129v-113h-391v113h134v273q-84 -46 -146 -77l-16 115q50 25 197 110h93v-421z" />
    <glyph glyph-name="one.sinf.ss03" horiz-adv-x="350" 
d="M242 -86h88v-85h-284v85h99v196q-55 -25 -104 -46l-16 85q22 9 80 37t83 39h54v-311z" />
    <glyph glyph-name="zero.tf" horiz-adv-x="659" 
d="M329 685q144 0 225 -87t81 -234v-53q0 -144 -81.5 -232t-223.5 -88q-139 0 -223 89t-84 232v52q0 143 84.5 232t221.5 89zM331 564q-77 0 -119 -52t-42 -150v-47q0 -100 43 -151t118 -51q77 0 117.5 51t40.5 151v46q0 97 -41 150t-117 53z" />
    <glyph glyph-name="one.tf" horiz-adv-x="659" 
d="M442 124h145v-124h-447v124h159v387q-6 -3 -69 -36.5t-101 -53.5l-18 125q118 63 230 129h101v-551z" />
    <glyph glyph-name="two.tf" horiz-adv-x="659" 
d="M319 682q126 0 197.5 -49.5t71.5 -146.5q0 -35 -11 -63t-26 -46t-46.5 -35.5t-56 -27.5t-71.5 -27q-95 -33 -137 -67.5t-46 -95.5h392v-124h-541q-6 154 40 240t179 137q23 9 58.5 21t52 18t36 16.5t27 22.5t7.5 28q0 41 -32.5 57.5t-96.5 16.5q-62 0 -113.5 -23
t-77.5 -57l-76 106q97 99 270 99z" />
    <glyph glyph-name="three.tf" horiz-adv-x="659" 
d="M428 385q162 -18 162 -163v-14q0 -105 -75 -160.5t-213 -55.5q-81 0 -158 25.5t-126 66.5l68 116q33 -34 90.5 -58.5t117.5 -24.5q157 0 157 88v11q0 42 -30 59t-87 17q-48 0 -90 -8l-41 111l194 156h-345v124h511v-125l-204 -159q43 0 69 -6z" />
    <glyph glyph-name="four.tf" horiz-adv-x="659" 
d="M635 250v-110h-120v-140h-127v140h-353v106l340 429h140v-425h120zM191 250h197v257z" />
    <glyph glyph-name="five.tf" horiz-adv-x="659" 
d="M574 675v-124h-371l-7 -164q61 58 169 58q101 0 170.5 -50t69.5 -155v-14q0 -110 -72.5 -172t-205.5 -62q-91 0 -168.5 24t-120.5 66l68 116q34 -37 92 -59.5t127 -22.5q142 0 142 103v12q0 52 -32.5 73t-95.5 21q-93 0 -154 -55l-119 45l13 360h495z" />
    <glyph glyph-name="six.tf" horiz-adv-x="659" 
d="M368 436q109 0 178 -47.5t69 -147.5v-14q0 -110 -74.5 -173t-201.5 -63q-133 0 -213.5 87.5t-80.5 235.5v29q0 152 78.5 246t223.5 94q144 0 233 -69l-65 -101q-50 49 -167 49q-163 0 -169 -203q72 77 189 77zM478 215v16q0 93 -126 93q-110 0 -167 -76q25 -139 157 -139
q64 0 100 27t36 79z" />
    <glyph glyph-name="seven.tf" horiz-adv-x="659" 
d="M597 675v-128l-298 -547h-161l301 551h-386v124h544z" />
    <glyph glyph-name="eight.tf" horiz-adv-x="659" 
d="M329 683q119 0 188 -47.5t69 -130.5v-12q0 -52 -28.5 -86.5t-65.5 -42.5q54 -5 90.5 -42.5t36.5 -108.5v-15q0 -96 -77.5 -151t-210.5 -55t-211.5 54t-78.5 147v15q0 72 40 111.5t96 46.5q-38 4 -70.5 39.5t-32.5 87.5v12q0 83 69.5 130.5t185.5 47.5zM330 570
q-61 0 -88.5 -18t-27.5 -59v-9q0 -76 120 -76q112 0 112 75v11q0 41 -28 58.5t-88 17.5zM331 310q-145 0 -145 -94v-13q0 -47 37.5 -72.5t107.5 -25.5t106.5 25.5t36.5 73.5v15q0 91 -143 91z" />
    <glyph glyph-name="nine.tf" horiz-adv-x="659" 
d="M322 683q137 0 210.5 -91t73.5 -242v-31q0 -153 -75 -240t-224 -87q-84 0 -153 27t-112 71l69 105q82 -82 191 -82q89 0 128 47.5t39 156.5v7q-65 -71 -179 -71q-113 0 -178.5 51.5t-65.5 145.5v10q0 104 74.5 163.5t201.5 59.5zM308 366q103 0 156 62q-21 138 -149 138
q-129 0 -129 -98v-12q0 -90 122 -90z" />
    <glyph glyph-name="zero.tosf" horiz-adv-x="562" 
d="M280 543q127 0 199 -71t72 -187v-40q0 -114 -71.5 -185t-198.5 -71q-123 0 -196.5 72.5t-73.5 184.5v38q0 115 73.5 187t195.5 72zM282 432q-62 0 -97 -39.5t-35 -110.5v-34q0 -71 35 -109.5t96 -38.5q62 0 96.5 38.5t34.5 109.5v34q0 71 -34 110.5t-96 39.5z" />
    <glyph glyph-name="one.tosf" horiz-adv-x="562" 
d="M378 113h135v-113h-406v113h139v273q-101 -53 -152 -77l-15 115q44 22 204 110h95v-421z" />
    <glyph glyph-name="two.tosf" horiz-adv-x="562" 
d="M293 543q108 0 169.5 -42.5t61.5 -125.5q0 -22 -6 -40.5t-12.5 -31t-23.5 -24.5t-27 -18.5t-37 -16t-38.5 -13t-44.5 -12.5q-83 -20 -117 -42.5t-35 -63.5h343v-113h-477q-6 52 -0.5 98.5t21.5 83.5t54 67t99 49q24 8 56 16t48 12.5t33 11.5t23.5 16.5t6.5 23.5
q0 52 -97 52q-52 0 -100.5 -17t-73.5 -44l-66 92q89 82 240 82z" />
    <glyph glyph-name="three.tosf" horiz-adv-x="562" 
d="M390 268q69 -3 117 -41.5t48 -114.5v-13q0 -99 -73.5 -152t-202.5 -53q-76 0 -147.5 26.5t-110.5 69.5l66 97q31 -34 84 -57t118 -23q61 0 96.5 21.5t35.5 64.5v10q0 42 -27.5 59t-84.5 17q-43 0 -79 -9l-41 105l189 146h-325v113h479v-123l-204 -143q38 4 62 0z" />
    <glyph glyph-name="four.tosf" horiz-adv-x="562" 
d="M561 154v-107h-103v-144h-119v144h-330v106l304 381h145v-380h103zM151 154h188v239z" />
    <glyph glyph-name="five.tosf" horiz-adv-x="562" 
d="M521 534v-113h-339l-10 -156q59 56 163 56q91 0 154.5 -47.5t63.5 -146.5v-13q0 -103 -70 -161t-192 -58q-177 0 -272 93l67 97q74 -79 204 -79q63 0 96.5 26t33.5 75v11q0 92 -120 92q-92 0 -138 -55l-113 50l14 329h458z" />
    <glyph glyph-name="six.tosf" horiz-adv-x="562" 
d="M330 409q99 0 164.5 -45t65.5 -141v-14q0 -100 -69.5 -159t-190.5 -59q-131 0 -206 83.5t-75 222.5v24q0 147 76 232t212 85q147 0 225 -74l-69 -88q-47 50 -155 50q-160 0 -164 -192q70 75 186 75zM432 200v15q0 85 -129 85q-97 0 -152 -74q15 -61 56 -92t99 -31
q57 0 91.5 25t34.5 72z" />
    <glyph glyph-name="seven.tosf" horiz-adv-x="562" 
d="M541 534v-119l-283 -512h-149l290 518h-356v113h498z" />
    <glyph glyph-name="eight.tosf" horiz-adv-x="562" 
d="M279 640q111 0 174 -45.5t63 -125.5v-11q0 -50 -26.5 -81.5t-61.5 -40.5q51 -4 87.5 -39t36.5 -103v-14q0 -85 -75 -137t-195 -52q-126 0 -198 50t-72 138v14q0 67 35 102.5t87 40.5q-35 7 -62 41t-27 82v11q0 78 62 124t172 46zM280 529q-108 0 -108 -70v-8
q0 -71 108 -71q110 0 110 70v11q0 68 -110 68zM281 286q-138 0 -138 -88v-10q0 -88 138 -88q139 0 139 88v11q0 87 -139 87z" />
    <glyph glyph-name="nine.tosf" horiz-adv-x="562" 
d="M283 542q130 0 201.5 -84.5t71.5 -229.5v-27q0 -149 -72.5 -227t-206.5 -78q-79 0 -145 25.5t-101 64.5l65 97q28 -32 73 -53.5t100 -21.5q88 0 125.5 42.5t37.5 149.5v3q-62 -64 -177 -64q-105 0 -167.5 50.5t-62.5 138.5v9q0 97 70 151t188 54zM154 333q0 -81 116 -81
q106 0 157 49q-23 133 -150 133q-123 0 -123 -91v-10z" />
    <glyph glyph-name="zero.dnom" horiz-adv-x="429" 
d="M214 402q89 0 139.5 -54t50.5 -141v-27q0 -83 -50.5 -135.5t-138.5 -52.5q-87 0 -138 53t-51 135v26q0 88 50.5 142t137.5 54zM215 316q-40 0 -63 -28.5t-23 -81.5v-24q0 -49 23.5 -76t63.5 -27t63 27.5t23 76.5v24q0 51 -23.5 80t-63.5 29z" />
    <glyph glyph-name="one.dnom" horiz-adv-x="317" 
d="M245 396v-396h-97v275q-71 -32 -102 -47l-17 91q11 6 72.5 34t89.5 43h54z" />
    <glyph glyph-name="two.dnom" horiz-adv-x="392" 
d="M202 405q77 0 120.5 -31.5t43.5 -94.5q0 -52 -29.5 -76t-98.5 -43q-57 -15 -82 -31.5t-25 -43.5h236v-85h-337q-4 36 -0.5 71.5t14.5 64.5t39.5 52.5t73.5 36.5q12 3 28 7.5t25 7t20 6t17 6.5t11.5 7t8 9t2.5 11q1 20 -17.5 29t-50.5 9q-38 0 -70 -12.5t-46 -34.5l-54 69
q59 66 171 66z" />
    <glyph glyph-name="three.dnom" horiz-adv-x="396" 
d="M276 231q40 -1 67.5 -25t27.5 -72v-8q0 -67 -48.5 -100t-128.5 -33q-53 0 -102 16t-78 44l51 74q45 -51 123 -51q87 0 87 46v8q0 38 -54 38q-33 0 -64 -14l-34 81l117 78h-205v84h318v-89l-122 -79q23 4 45 2z" />
    <glyph glyph-name="four.dnom" horiz-adv-x="392" 
d="M381 157v-78h-64v-79h-87v79h-219v81l198 237h108v-240h64zM112 157h118l-1 139z" />
    <glyph glyph-name="five.dnom" horiz-adv-x="399" 
d="M351 397v-84h-220l-5 -85q38 32 103 32q62 0 103.5 -28t41.5 -94v-10q0 -64 -47 -100t-126 -36q-116 0 -181 60l48 74q46 -51 129 -51q82 0 82 50v9q0 44 -68 44q-46 0 -80 -27l-90 41l8 205h302z" />
    <glyph glyph-name="six.dnom" horiz-adv-x="409" 
d="M241 257q63 0 103 -29.5t40 -89.5v-8q0 -65 -46 -103t-126 -38q-86 0 -136 51.5t-50 141.5v17q0 95 50.5 148t140.5 53q94 0 149 -50l-51 -64q-30 33 -97 33q-96 0 -100 -109q44 47 123 47zM290 125v9q0 44 -74 44q-60 0 -93 -42q17 -66 93 -66q32 0 53 14.5t21 40.5z
" />
    <glyph glyph-name="seven.dnom" horiz-adv-x="352" 
d="M338 396v-89l-169 -307h-112l173 311h-218v85h326z" />
    <glyph glyph-name="eight.dnom" horiz-adv-x="410" 
d="M206 405q75 0 117.5 -29t42.5 -79v-7q0 -32 -16 -53t-43 -26q80 -9 80 -89v-9q0 -55 -49.5 -87.5t-133.5 -32.5q-83 0 -131.5 31t-48.5 85v9q0 43 23.5 66t60.5 28q-26 3 -44.5 24.5t-18.5 54.5v6q0 50 43 79t118 29zM206 328q-66 0 -66 -39v-5q0 -40 67 -40q64 0 64 40
v4q0 40 -65 40zM206 175q-82 0 -82 -49v-5q0 -49 82 -49q38 0 59.5 13t21.5 36v7q0 47 -81 47z" />
    <glyph glyph-name="nine.dnom" horiz-adv-x="390" 
d="M183 403q83 0 132 -53t49 -146v-19q0 -191 -181 -191q-103 0 -163 56l49 71q43 -47 107 -47q50 0 72 25t23 82q-41 -35 -103 -35q-68 0 -108.5 32t-40.5 88v5q0 62 43.5 97t120.5 35zM115 268q0 -43 63 -43q56 0 89 28q-15 72 -85 72q-67 0 -67 -51v-6z" />
    <glyph glyph-name="zero.numr" horiz-adv-x="429" 
d="M213 681q90 0 140.5 -54t50.5 -141v-26q0 -83 -50 -135.5t-139 -52.5q-87 0 -138 53t-51 135v26q0 87 50.5 141t136.5 54zM215 595q-41 0 -64 -27.5t-23 -80.5v-27q0 -49 23.5 -75t64.5 -26q40 0 63 27.5t23 75.5v27q0 51 -23.5 78.5t-63.5 27.5z" />
    <glyph glyph-name="one.numr" horiz-adv-x="317" 
d="M245 674v-396h-97v275q-71 -32 -102 -47l-17 91q11 6 72.5 34t89.5 43h54z" />
    <glyph glyph-name="two.numr" horiz-adv-x="392" 
d="M202 683q77 0 120.5 -31.5t43.5 -94.5q0 -53 -29 -76t-99 -43q-58 -15 -82.5 -32t-24.5 -43h236v-85h-337q-4 36 -0.5 71t14.5 64t39.5 52.5t73.5 36.5q12 4 27.5 8t25 7t20.5 6.5t17 6.5t11.5 7t8 9t2.5 11q1 20 -18 29t-50 9q-38 0 -70 -12.5t-46 -34.5l-54 69
q59 66 171 66z" />
    <glyph glyph-name="three.numr" horiz-adv-x="396" 
d="M276 510q40 -2 67.5 -26t27.5 -71v-9q0 -66 -48.5 -99.5t-128.5 -33.5q-53 0 -102 16.5t-78 43.5l51 75q44 -52 123 -52q87 0 87 47v7q0 39 -54 39q-34 0 -64 -15l-34 81l119 79h-207v83h318v-89l-122 -79q22 5 45 3z" />
    <glyph glyph-name="four.numr" horiz-adv-x="392" 
d="M381 435v-78h-64v-79h-87v79h-219v81l198 237h108v-240h64zM112 435h118l-1 139z" />
    <glyph glyph-name="five.numr" horiz-adv-x="399" 
d="M351 675v-84h-220l-5 -85q38 32 103 32q62 0 103.5 -28t41.5 -94v-10q0 -64 -47 -100t-126 -36q-116 0 -181 60l48 74q46 -51 129 -51q82 0 82 50v9q0 44 -68 44q-46 0 -80 -27l-90 41l8 205h302z" />
    <glyph glyph-name="six.numr" horiz-adv-x="409" 
d="M241 542q63 0 103 -30t40 -90v-8q0 -65 -46 -103t-126 -38q-86 0 -136 51.5t-50 141.5v17q0 95 50.5 148t140.5 53q94 0 149 -50l-51 -64q-30 33 -97 33q-96 0 -100 -109q45 48 123 48zM290 409v9q0 44 -74 44q-60 0 -93 -42q17 -66 93 -66q32 0 53 14.5t21 40.5z" />
    <glyph glyph-name="seven.numr" horiz-adv-x="352" 
d="M338 675v-90l-169 -307h-112l173 311h-218v86h326z" />
    <glyph glyph-name="eight.numr" horiz-adv-x="410" 
d="M206 682q75 0 117.5 -29t42.5 -79v-7q0 -32 -16 -52.5t-43 -25.5q80 -11 80 -90v-9q0 -55 -49.5 -87t-133.5 -32t-132 30.5t-48 84.5v9q0 43 23.5 66t60.5 28q-26 3 -44.5 25t-18.5 55v6q0 49 43 78t118 29zM206 605q-66 0 -66 -39v-5q0 -40 67 -40q64 0 64 40v5
q0 39 -65 39zM206 452q-82 0 -82 -49v-5q0 -49 82 -49q38 0 59.5 13t21.5 36v7q0 47 -81 47z" />
    <glyph glyph-name="nine.numr" horiz-adv-x="390" 
d="M183 681q83 0 132 -53t49 -146v-19q0 -191 -181 -191q-103 0 -163 56l49 71q43 -47 107 -47q50 0 72 25t23 82q-41 -35 -103 -35q-68 0 -108.5 32t-40.5 88v5q0 62 43.5 97t120.5 35zM115 546q0 -43 63 -43q56 0 89 28q-15 72 -85 72q-67 0 -67 -51v-6z" />
    <glyph glyph-name="one.dnom.ss03" horiz-adv-x="350" 
d="M242 84h88v-84h-284v84h99v197q-94 -43 -104 -47l-16 86q22 9 80 37t83 39h54v-312z" />
    <glyph glyph-name="one.numr.ss03" horiz-adv-x="407" 
d="M246 362h88v-85h-284v85h99v196q-55 -25 -104 -46l-16 85q22 9 80 37t83 39h54v-311z" />
    <glyph glyph-name="one.sups.ss03" horiz-adv-x="350" 
d="M242 489h88v-84h-284v84h99v196q-55 -25 -104 -46l-16 85q22 9 80 37t83 39h54v-311z" />
    <glyph glyph-name="zero.sups" horiz-adv-x="429" 
d="M213 805q90 0 140.5 -53.5t50.5 -140.5v-27q0 -83 -50.5 -135.5t-138.5 -52.5q-87 0 -138 53t-51 135v26q0 87 50.5 141t136.5 54zM215 719q-41 0 -64 -27.5t-23 -79.5v-27q0 -49 23.5 -75.5t64.5 -26.5q40 0 63 27.5t23 76.5v26q0 51 -23.5 78.5t-63.5 27.5z" />
    <glyph glyph-name="one.sups" horiz-adv-x="317" 
d="M245 800v-396h-97v275q-71 -32 -102 -47l-17 91q16 8 75.5 36t86.5 41h54z" />
    <glyph glyph-name="two.sups" horiz-adv-x="392" 
d="M202 809q77 0 120.5 -31.5t43.5 -93.5q0 -53 -29.5 -76.5t-98.5 -42.5q-57 -15 -82 -32t-25 -43h236v-86h-337q-4 37 -0.5 72t14.5 64t39.5 52.5t73.5 36.5l27.5 7.5t25 7t20 6.5t17.5 7t11.5 7t8 9t2.5 11q1 20 -18 29t-50 9q-37 0 -69 -12.5t-47 -35.5l-54 69
q59 66 171 66z" />
    <glyph glyph-name="three.sups" horiz-adv-x="396" 
d="M276 635q40 -2 67.5 -26t27.5 -71v-9q0 -66 -48.5 -99.5t-128.5 -33.5q-53 0 -102 16.5t-78 43.5l51 74q45 -51 123 -51q87 0 87 47v7q0 39 -54 39q-34 0 -64 -15l-34 81l119 79h-207v83h318v-89l-122 -79q22 5 45 3z" />
    <glyph glyph-name="four.sups" horiz-adv-x="392" 
d="M381 561v-78h-64v-79h-87v79h-219v80l198 237h108v-239h64zM113 561h117l-1 138z" />
    <glyph glyph-name="five.sups" horiz-adv-x="399" 
d="M351 800v-84h-220l-5 -86q39 33 103 33q62 0 103.5 -28t41.5 -94v-10q0 -64 -47 -100t-126 -36q-118 0 -181 60l48 73q21 -22 56 -36.5t73 -14.5q82 0 82 50v9q0 45 -68 45q-47 0 -80 -28l-90 41l8 206h302z" />
    <glyph glyph-name="six.sups" horiz-adv-x="409" 
d="M241 666q63 0 103 -30t40 -90v-8q0 -65 -46 -103t-126 -38q-86 0 -136 51.5t-50 141.5v17q0 95 50.5 148t140.5 53q94 0 149 -50l-51 -64q-28 33 -97 33q-96 0 -100 -109q45 48 123 48zM290 533v9q0 44 -74 44q-60 0 -93 -41q17 -67 93 -67q32 0 53 14.5t21 40.5z" />
    <glyph glyph-name="seven.sups" horiz-adv-x="352" 
d="M338 800v-89l-169 -307h-112l173 311h-218v85h326z" />
    <glyph glyph-name="eight.sups" horiz-adv-x="410" 
d="M206 808q75 0 117.5 -29t42.5 -79v-6q0 -32 -16 -53t-43 -26q80 -9 80 -89v-10q0 -55 -49.5 -87t-133.5 -32q-83 0 -131.5 31t-48.5 85v8q0 43 23.5 66t60.5 28q-26 4 -44.5 25.5t-18.5 54.5v6q0 49 43 78t118 29zM206 731q-66 0 -66 -39v-5q0 -40 67 -40q64 0 64 40v5
q0 39 -65 39zM206 578q-82 0 -82 -48v-6q0 -23 22 -36t60 -13t59.5 13t21.5 36v7q0 47 -81 47z" />
    <glyph glyph-name="nine.sups" horiz-adv-x="390" 
d="M183 805q83 0 132 -53t49 -146v-19q0 -191 -181 -191q-103 0 -163 56l49 71q43 -47 107 -47q50 0 72 25t23 82q-41 -35 -103 -35q-68 0 -108.5 32t-40.5 88v5q0 62 43.5 97t120.5 35zM115 670q0 -43 63 -43q56 0 89 28q-15 72 -85 72q-67 0 -67 -51v-6z" />
    <glyph glyph-name="uni21692169" horiz-adv-x="1437" 
d="M1349 570l-156 -230l162 -235h86v-105h-311v105h75l-124 183l-125 -183h88v-105h-633v105h75l-124 183l-125 -183h88v-105h-328v105h85l170 236l-158 229h-97v105h323v-105h-75l119 -178l122 178h-73v105h626v-105h-75l119 -178l122 178h-73v105h309v-105h-92zM801 105
l170 236l-158 229h-183l-156 -230l162 -235h165z" />
    <glyph glyph-name="uni216921692169" horiz-adv-x="2156" 
d="M2067 570l-156 -230l162 -235h86v-105h-311v105h75l-124 183l-125 -183h88v-105h-632v105h75l-124 183l-125 -183h88v-105h-633v105h75l-124 183l-125 -183h88v-105h-328v105h85l170 236l-158 229h-97v105h323v-105h-75l119 -178l122 178h-73v105h626v-105h-75l119 -178
l122 178h-73v105h625v-105h-75l119 -178l122 178h-73v105h309v-105h-92zM801 105l170 236l-158 229h-183l-156 -230l162 -235h165zM1519 105l170 236l-158 229h-182l-156 -230l162 -235h164z" />
    <glyph glyph-name="uni2169216C" horiz-adv-x="1371" 
d="M1206 261h127v-261h-922v105h75l-124 183l-125 -183h88v-105h-328v105h85l170 236l-158 229h-97v105h323v-105h-75l119 -178l122 178h-73v105h646v-105h-101v-456h248v147zM818 105v465h-188l-156 -230l162 -235h182z" />
    <glyph glyph-name="uni2169216D" horiz-adv-x="1387" 
d="M1285 208l83 -97q-92 -116 -276 -116q-160 0 -252 85t-92 240v31q0 155 90 244t252 89q175 0 270 -97l-82 -100q-59 79 -192 79q-89 0 -137 -54.5t-48 -158.5v-32q0 -100 52 -153t146 -53q133 0 186 93zM413 570v105h309v-105h-92l-156 -230l162 -235h86v-105h-311v105
h75l-124 183l-125 -183h88v-105h-328v105h85l170 236l-158 229h-97v105h323v-105h-75l119 -178l122 178h-73z" />
    <glyph glyph-name="uni216C2169" horiz-adv-x="1371" 
d="M487 114v147h127v-261h-618v105h103v465h-103v105h344v-105h-101v-456h248zM1282 570l-156 -230l162 -235h86v-105h-311v105h75l-124 183l-125 -183h88v-105h-328v105h85l170 236l-158 229h-97v105h323v-105h-75l119 -178l122 178h-73v105h309v-105h-92z" />
    <glyph glyph-name="uni216C21692169" horiz-adv-x="2089" 
d="M487 114v147h127v-261h-618v105h103v465h-103v105h344v-105h-101v-456h248zM2001 570l-156 -230l162 -235h86v-105h-311v105h75l-124 183l-125 -183h88v-105h-633v105h75l-124 183l-125 -183h88v-105h-328v105h85l170 236l-158 229h-97v105h323v-105h-75l119 -178
l122 178h-73v105h626v-105h-75l119 -178l122 178h-73v105h309v-105h-92zM1453 105l170 236l-158 229h-183l-156 -230l162 -235h165z" />
    <glyph glyph-name="uni216C216921692169" horiz-adv-x="2808" 
d="M487 114v147h127v-261h-618v105h103v465h-103v105h344v-105h-101v-456h248zM2719 570l-156 -230l162 -235h86v-105h-311v105h75l-124 183l-125 -183h88v-105h-632v105h75l-124 183l-125 -183h88v-105h-633v105h75l-124 183l-125 -183h88v-105h-328v105h85l170 236
l-158 229h-97v105h323v-105h-75l119 -178l122 178h-73v105h626v-105h-75l119 -178l122 178h-73v105h625v-105h-75l119 -178l122 178h-73v105h309v-105h-92zM1453 105l170 236l-158 229h-183l-156 -230l162 -235h165zM2171 105l170 236l-158 229h-182l-156 -230l162 -235h164
z" />
    <glyph glyph-name="uni216D216D" horiz-adv-x="1319" 
d="M371 684q175 0 270 -97l-82 -100q-59 79 -192 79q-89 0 -137 -54.5t-48 -158.5v-32q0 -100 52 -153t146 -53q133 0 186 93l83 -97q-92 -116 -276 -116q-160 0 -252 85t-92 240v31q0 155 90 244t252 89zM1022 684q175 0 270 -97l-82 -100q-59 79 -192 79q-89 0 -137 -54.5
t-48 -158.5v-32q0 -100 52 -153t146 -53q133 0 186 93l83 -97q-92 -116 -276 -116q-160 0 -252 85t-92 240v31q0 155 90 244t252 89z" />
    <glyph glyph-name="uni216D216D216D" horiz-adv-x="1970" 
d="M371 684q175 0 270 -97l-82 -100q-59 79 -192 79q-89 0 -137 -54.5t-48 -158.5v-32q0 -100 52 -153t146 -53q133 0 186 93l83 -97q-92 -116 -276 -116q-160 0 -252 85t-92 240v31q0 155 90 244t252 89zM1022 684q175 0 270 -97l-82 -100q-59 79 -192 79q-89 0 -137 -54.5
t-48 -158.5v-32q0 -100 52 -153t146 -53q133 0 186 93l83 -97q-92 -116 -276 -116q-160 0 -252 85t-92 240v31q0 155 90 244t252 89zM1672 684q175 0 270 -97l-82 -100q-59 79 -192 79q-89 0 -137 -54.5t-48 -158.5v-32q0 -100 52 -153t146 -53q133 0 186 93l83 -97
q-92 -116 -276 -116q-160 0 -252 85t-92 240v31q0 155 90 244t252 89z" />
    <glyph glyph-name="uni216D216E" horiz-adv-x="1412" 
d="M380 115q133 0 186 93l83 -97q-92 -116 -276 -116q-160 0 -252 85t-92 240v31q0 155 90 244t252 89q175 0 270 -97l-82 -100q-59 79 -192 79q-89 0 -137 -54.5t-48 -158.5v-32q0 -100 52 -153t146 -53zM1037 675q154 0 248 -84.5t94 -238.5v-27q0 -153 -86 -239t-246 -86
h-382v105h102v465h-102v105h372zM1232 323v29q0 210 -192 210h-128v-449h132q91 0 139.5 52.5t48.5 157.5z" />
    <glyph glyph-name="uni216D216F" horiz-adv-x="1595" 
d="M380 115q133 0 186 93l83 -97q-92 -116 -276 -116q-160 0 -252 85t-92 240v31q0 155 90 244t252 89q175 0 270 -97l-82 -100q-59 79 -192 79q-89 0 -137 -54.5t-48 -158.5v-32q0 -100 52 -153t146 -53zM1599 570h-101v-465h101v-105h-332v105h97v382l-208 -314h-46
l-208 315v-383h97v-105h-334v105h102v465h-102v105h248l220 -340l223 340h243v-105z" />
    <glyph glyph-name="uni216E216D" horiz-adv-x="1412" 
d="M1309 208l83 -97q-92 -116 -276 -116q-160 0 -252 85t-92 240v31q0 155 90 244t252 89q175 0 270 -97l-82 -100q-59 79 -192 79q-89 0 -137 -54.5t-48 -158.5v-32q0 -100 52 -153t146 -53q133 0 186 93zM368 675q154 0 248 -84.5t94 -238.5v-27q0 -153 -86 -239t-246 -86
h-382v105h102v465h-102v105h372zM563 323v29q0 210 -192 210h-128v-449h132q91 0 139.5 52.5t48.5 157.5z" />
    <glyph glyph-name="uni216E216D216D" horiz-adv-x="2063" 
d="M1123 115q133 0 186 93l83 -97q-92 -116 -276 -116q-160 0 -252 85t-92 240v31q0 155 90 244t252 89q175 0 270 -97l-82 -100q-59 79 -192 79q-89 0 -137 -54.5t-48 -158.5v-32q0 -100 52 -153t146 -53zM1960 208l83 -97q-92 -116 -276 -116q-160 0 -252 85t-92 240v31
q0 155 90 244t252 89q175 0 270 -97l-82 -100q-59 79 -192 79q-89 0 -137 -54.5t-48 -158.5v-32q0 -100 52 -153t146 -53q133 0 186 93zM368 675q154 0 248 -84.5t94 -238.5v-27q0 -153 -86 -239t-246 -86h-382v105h102v465h-102v105h372zM563 323v29q0 210 -192 210h-128
v-449h132q91 0 139.5 52.5t48.5 157.5z" />
    <glyph glyph-name="uni216E216D216D216D" horiz-adv-x="2713" 
d="M1123 115q133 0 186 93l83 -97q-92 -116 -276 -116q-160 0 -252 85t-92 240v31q0 155 90 244t252 89q175 0 270 -97l-82 -100q-59 79 -192 79q-89 0 -137 -54.5t-48 -158.5v-32q0 -100 52 -153t146 -53zM1774 115q133 0 186 93l83 -97q-92 -116 -276 -116q-160 0 -252 85
t-92 240v31q0 155 90 244t252 89q175 0 270 -97l-82 -100q-59 79 -192 79q-89 0 -137 -54.5t-48 -158.5v-32q0 -100 52 -153t146 -53zM2611 208l83 -97q-92 -116 -276 -116q-160 0 -252 85t-92 240v31q0 155 90 244t252 89q175 0 270 -97l-82 -100q-59 79 -192 79
q-89 0 -137 -54.5t-48 -158.5v-32q0 -100 52 -153t146 -53q133 0 186 93zM368 675q154 0 248 -84.5t94 -238.5v-27q0 -153 -86 -239t-246 -86h-382v105h102v465h-102v105h372zM563 323v29q0 210 -192 210h-128v-449h132q91 0 139.5 52.5t48.5 157.5z" />
    <glyph glyph-name="uni216F216F" horiz-adv-x="1854" 
d="M1857 570h-101v-465h101v-105h-332v105h97v382l-208 -314h-46l-208 315v-383h97v-105h-659v105h97v382l-208 -314h-46l-208 315v-383h97v-105h-334v105h102v465h-102v105h248l220 -340l223 340h484l220 -340l223 340h243v-105zM1025 105v465h-196v-465h196z" />
    <glyph glyph-name="uni216F216F216F" horiz-adv-x="2775" 
d="M2779 570h-101v-465h100v-105h-332v105h97v382l-207 -314h-45l-209 315v-383h98v-105h-659v105h97v382l-207 -314h-45l-209 315v-383h98v-105h-659v105h97v382l-207 -314h-45l-209 316v-384h98v-105h-334v105h102v465h-102v105h248l219 -340l223 340h483l219 -340
l223 340h483l219 -340l223 340h243v-105zM1023 105v465h-94h-101v-465h195zM1948 105v465h-195v-465h195z" />
    <glyph glyph-name="exclam.c2sc" horiz-adv-x="330" 
d="M260 551l-55 -326h-79l-56 326h190zM237 146v-146h-144v146h144z" />
    <glyph glyph-name="exclamdown.c2sc" horiz-adv-x="314" 
d="M78 406v145h144v-145h-144zM55 0l55 327h78l56 -327h-189z" />
    <glyph glyph-name="uni203D.c2sc" horiz-adv-x="558" 
d="M210 208l-199 256l105 79l149 -272q7 41 65 69q6 3 24 11.5t23 12t14.5 10.5t12 14.5t2.5 17.5q0 23 -25.5 36t-61.5 13q-53 0 -83 -27l-52 104q52 27 129 27q91 0 153.5 -39.5t62.5 -107.5q0 -54 -28 -82.5t-88 -54.5q-61 -27 -72 -67h-131zM202 0v146h144v-146h-144z
" />
    <glyph glyph-name="question.c2sc" horiz-adv-x="493" 
d="M240 561q108 0 166 -39.5t58 -110.5q0 -49 -23 -77t-79 -50q-35 -18 -47.5 -35.5t-13.5 -41.5h-133q-22 88 68 130q14 6 34.5 14t28.5 12t18 10.5t13 13.5t3 18q0 48 -98 48q-44 -1 -81 -17.5t-56 -43.5l-71 83q82 86 213 86zM304 146v-146h-144v146h144z" />
    <glyph glyph-name="questiondown.c2sc" horiz-adv-x="478" 
d="M180 405v146h144v-146h-144zM244 -10q-108 0 -165.5 39.5t-57.5 110.5q0 49 23 77t79 50q35 19 47 35.5t13 41.5h133q22 -88 -68 -130q-15 -7 -35 -15t-28.5 -11.5t-18 -10t-12.5 -13.5t-3 -18q0 -50 98 -48q44 1 81 17.5t56 43.5l71 -83q-80 -86 -213 -86z" />
    <glyph glyph-name="slash.c2sc" horiz-adv-x="490" 
d="M465 660l-319 -771h-121l319 771h121z" />
    <glyph glyph-name="periodcentered.loclCAT.case" horiz-adv-x="10" 
d="M-75 453v-157h-155v157h155z" />
    <glyph glyph-name="periodcentered.loclCAT" horiz-adv-x="120" 
d="M-7 431h134v-135h-134v135z" />
    <glyph glyph-name="braceleft.c2sc" horiz-adv-x="308" 
d="M287 565l10 -72q-45 0 -65 -12.5t-20 -40.5q0 -14 5 -43.5t5 -50.5q0 -26 -23 -46.5t-60 -25.5q39 -2 60 -22t21 -53q0 -17 -4 -42.5t-4 -42.5q0 -29 19.5 -41.5t63.5 -12.5l-15 -74q-76 -1 -119.5 24t-43.5 74q0 22 3 51t3 47q0 60 -87 59v65q88 1 88 58q0 14 -4.5 43.5
t-4.5 50.5q0 54 48.5 82t123.5 25z" />
    <glyph glyph-name="braceright.c2sc" horiz-adv-x="282" 
d="M21 565q75 3 123.5 -25t48.5 -82q0 -21 -4.5 -50.5t-4.5 -43.5q0 -57 87 -58v-65q-87 1 -87 -59q0 -18 3.5 -47.5t3.5 -50.5q0 -49 -43.5 -74t-119.5 -24l-15 74q43 0 62.5 12.5t19.5 41.5q0 17 -4 42.5t-4 42.5q0 33 21.5 53t60.5 22q-37 5 -60 25.5t-23 46.5
q0 21 4.5 50.5t4.5 43.5q0 28 -19.5 40.5t-64.5 12.5z" />
    <glyph glyph-name="bracketleft.c2sc" horiz-adv-x="277" 
d="M254 551v-78h-103v-395h103v-79h-193v552h193z" />
    <glyph glyph-name="bracketright.c2sc" horiz-adv-x="277" 
d="M23 551h193v-552h-193v79h103v395h-103v78z" />
    <glyph glyph-name="parenleft.c2sc" horiz-adv-x="285" 
d="M226 567l48 -65q-120 -73 -120 -220v-19q0 -132 116 -216l-52 -64q-167 94 -167 279v21q0 93 43.5 166.5t131.5 117.5z" />
    <glyph glyph-name="parenright.c2sc" horiz-adv-x="285" 
d="M59 567q87 -44 131 -118t44 -166v-21q0 -185 -167 -279l-52 64q116 84 116 216v19q0 147 -120 220z" />
    <glyph glyph-name="quoteleft.c2sc" horiz-adv-x="259" 
d="M30 257q10 187 82 333l114 -27q-56 -146 -63 -306h-133z" />
    <glyph glyph-name="quoteright.c2sc" horiz-adv-x="259" 
d="M226 553q-10 -186 -82 -332l-114 27q56 141 63 305h133z" />
    <glyph glyph-name="periodcentered.loclCAT.case.sc" horiz-adv-x="171" 
d="M-49 405v-157h-155v157h155z" />
    <glyph glyph-name="periodcentered.loclCAT.sc" horiz-adv-x="6" 
d="M-49 405v-157h-155v157h155z" />
    <glyph glyph-name="cent.c2sc" horiz-adv-x="428" 
d="M414 141q-40 -50 -111 -69v-72h-132v71q-70 15 -108 63.5t-38 123.5v24q0 76 40.5 127t111.5 67v75h131v-76q63 -15 105 -62l-61 -73q-35 49 -111 49q-44 0 -71 -26.5t-27 -76.5v-25q0 -103 102 -103q74 0 111 57z" />
    <glyph glyph-name="currency.c2sc" horiz-adv-x="576" 
d="M489 268q0 -49 -26 -92l80 -79l-76 -71l-77 81q-46 -26 -104 -26q-60 0 -105 25l-77 -81l-78 72l81 79q-27 44 -27 93v11q0 52 27 98l-81 80l79 72l78 -82q43 24 103 24q56 0 101 -25l80 83l77 -72l-82 -81q27 -44 27 -96v-13zM285 169q43 0 67.5 28t24.5 71v12
q0 48 -24 75.5t-68 27.5q-45 0 -69 -27.5t-24 -76.5v-10q0 -45 24.5 -72.5t68.5 -27.5z" />
    <glyph glyph-name="dollar.c2sc" horiz-adv-x="556" 
d="M527 179q0 -160 -181 -184v-93h-138v94q-114 16 -186 72l63 104q22 -26 74.5 -46t113.5 -20q123 0 123 59q0 28 -23.5 37.5t-98.5 21.5q-12 2 -19 3q-114 17 -165.5 47t-51.5 104q0 70 44 116.5t131 60.5v87l137 11v-97q97 -12 158 -60l-62 -97q-22 21 -68 33.5t-96 12.5
q-60 0 -85.5 -13.5t-25.5 -42.5q0 -24 22 -32t89 -18q3 0 5 -0.5t5 -1t5 -0.5q118 -17 174 -49.5t56 -108.5z" />
    <glyph glyph-name="Euro.c2sc" horiz-adv-x="596" 
d="M500 167l79 -75q-51 -49 -102.5 -74t-138.5 -25q-106 0 -176 51t-90 143h-56v74h48v24v12h-48v74h58q22 90 91.5 138t176.5 48q80 0 134.5 -20t98.5 -63l-79 -81q-40 51 -155 51q-92 0 -119 -73h189l-18 -74h-182v-7v-26v-3h175l-17 -74h-147q27 -80 120 -80
q113 0 158 60z" />
    <glyph glyph-name="florin.c2sc" horiz-adv-x="473" 
d="M354 456q-28 0 -42 -19.5t-22 -57.5l-15 -77h123l-21 -101h-121l-42 -223q-19 -100 -59 -141.5t-115 -41.5q-71 0 -117 29l43 104q32 -25 61 -25q27 0 40.5 19.5t20.5 56.5l40 222h-83v101h102l16 90q16 86 60.5 126.5t120.5 40.5q74 0 119 -21l-41 -104q-28 22 -68 22z
" />
    <glyph glyph-name="dollar.light.c2sc" horiz-adv-x="560" 
d="M529 179q0 -160 -181 -184v-93h-138v94q-114 16 -186 72l63 104q22 -26 74.5 -46t113.5 -20q123 0 123 59q0 28 -23.5 37.5t-98.5 21.5q-12 2 -19 3q-114 17 -165.5 47t-51.5 104q0 70 44 116.5t131 60.5v87l137 11v-97q96 -12 158 -60l-62 -97q-22 21 -68 33.5t-96 12.5
q-60 0 -85.5 -13.5t-25.5 -42.5q0 -24 22 -32t89 -18q3 0 5 -0.5t5 -1t5 -0.5q118 -17 174 -49.5t56 -108.5z" />
    <glyph glyph-name="sterling.c2sc" horiz-adv-x="538" 
d="M175 108h326v-108h-474v117q91 38 112 103h-88v101h64q-1 2 -7 9t-8 9t-7 9t-6.5 10t-5 9.5t-5 11.5t-2.5 12t-1 14q0 71 57 112t154 41q137 0 210 -70l-67 -88q-45 52 -131 52q-92 0 -92 -60q0 -9 2 -16.5t7.5 -16t8.5 -12.5t12 -14t11 -12h185v-101h-161
q-8 -40 -33 -69.5t-61 -42.5z" />
    <glyph glyph-name="yen.c2sc" horiz-adv-x="619" 
d="M435 266l-35 -57h171v-86h-188v-123h-144v123h-185v86h168l-36 57h-131v86h77l-124 199h169l133 -253l132 253h169l-123 -199h82v-86h-135z" />
    <glyph glyph-name="ampersand.sc" horiz-adv-x="651" 
d="M640 0h-155l-33 35q-70 -47 -168 -47q-115 0 -185.5 47t-70.5 139v8q0 125 125 170l-87 92l38 108h434v-110h-311l230 -246q18 40 18 98q1 31 -5 66h140q-2 -70 -27 -126q-17 -69 -51 -119zM288 95q52 0 91 18l-162 171q-52 -31 -52 -89v-9q0 -42 33 -66.5t90 -24.5z" />
    <glyph glyph-name="copyright.sc" horiz-adv-x="664" 
d="M329 565q141 0 222.5 -78.5t81.5 -196.5v-28q0 -118 -80.5 -197t-223.5 -79q-136 0 -217 79.5t-81 195.5v29q0 117 80.5 196t217.5 79zM330 491q-101 0 -156 -55t-55 -151v-21q0 -93 55 -148.5t156 -55.5q102 0 159 55t57 150v21q0 95 -57 150t-159 55zM337 435
q70 0 119 -52l-39 -53q-30 37 -81 37q-71 0 -71 -81v-16q0 -37 20.5 -57t55.5 -20q53 0 77 44l45 -52q-50 -60 -126 -60q-69 0 -110 37.5t-41 105.5v18q0 70 39.5 109.5t111.5 39.5z" />
    <glyph glyph-name="registered.sc" horiz-adv-x="664" 
d="M329 565q141 0 222.5 -78.5t81.5 -196.5v-28q0 -118 -80.5 -197t-223.5 -79q-136 0 -217 79.5t-81 195.5v29q0 117 80.5 196t217.5 79zM546 265v21q0 95 -57 150t-159 55q-101 0 -156 -55t-55 -151v-21q0 -93 55 -148.5t156 -55.5q102 0 159 55t57 150zM467 325
q0 -64 -62 -86l74 -103h-84l-62 95h-44v-95h-72v293h141q54 0 81.5 -26t27.5 -69v-9zM289 368v-77h61q44 0 44 37v5q0 35 -40 35h-65z" />
    <glyph glyph-name="uni2116.sc" horiz-adv-x="1127" 
d="M884 559q93 0 149.5 -48.5t56.5 -133.5v-23q0 -81 -57 -129t-149 -48q-90 0 -148 48t-58 131v21q0 85 56.5 133.5t149.5 48.5zM454 203v348h135v-551h-127l-270 354v-354h-135v551h128zM965 361v17q0 40 -22 63.5t-60 23.5q-37 0 -59 -23t-22 -64v-17q0 -40 22.5 -65
t59.5 -25q38 0 59.5 24.5t21.5 65.5zM818 0v113h123v-113h-123z" />
    <glyph glyph-name="caroncomb.alt" 
d="M-15 727l-50 -194h-96l22 194h124z" />
    <glyph glyph-name="acutecomb.case" 
d="M-15 885l-207 -155h-129l150 155h186z" />
    <glyph glyph-name="uni0306.case" 
d="M-23 880q-14 -62 -65.5 -107.5t-132.5 -45.5q-80 0 -132 45.5t-66 107.5h136q7 -65 61 -65q29 0 44 19t18 46h137z" />
    <glyph glyph-name="uni030C.case" 
d="M-174 885h151l-148 -155h-140l-148 155h152l65 -91z" />
    <glyph glyph-name="uni0327.case" 
d="M-132 22l-21 -71q24 2 47 -2q36 -5 60 -28t23 -66q0 -61 -44 -91t-111 -30q-44 0 -84 10t-58 25l39 93q34 -44 94 -44q54 0 54 34q0 31 -41 31q-19 0 -29 -5l-46 41l17 103h100z" />
    <glyph glyph-name="uni0302.case" 
d="M-16 730h-152l-65 91l-65 -91h-151l146 156h143z" />
    <glyph glyph-name="uni0326.case" 
d="M-38 -57l-146 -201h-113l110 201h149z" />
    <glyph glyph-name="uni0308.case" 
d="M-312 873v-138h-150v138h150zM-48 873v-138h-150v138h150z" />
    <glyph glyph-name="uni0307.case" 
d="M-198 873h150v-137h-150v137z" />
    <glyph glyph-name="gravecomb.case" 
d="M-150 885l134 -155h-130l-188 155h184z" />
    <glyph glyph-name="uni030B.case" 
d="M-209 894l-133 -164h-110l106 164h137zM-17 894l-145 -164h-111l119 164h137z" />
    <glyph glyph-name="uni0304.case" 
d="M-56 855v-113h-381v113h381z" />
    <glyph glyph-name="uni0328.case" 
d="M-93 32l75 -32q-54 -10 -89 -37t-35 -66q0 -43 43 -43q34 0 47 24l21 -94q-29 -31 -101 -31q-57 0 -95 32.5t-38 89.5q0 61 45.5 101.5t126.5 55.5z" />
    <glyph glyph-name="uni030A.case" 
d="M-192 959q69 0 106.5 -35.5t37.5 -91.5q0 -57 -37.5 -93t-106.5 -36q-66 0 -104 36t-38 93q0 56 38 91.5t104 35.5zM-191 875q-23 0 -36 -12.5t-13 -31.5q0 -21 13 -33.5t36 -12.5q21 0 34 12.5t13 33.5q0 19 -13 31.5t-34 12.5z" />
    <glyph glyph-name="tildecomb.case" 
d="M-48 889v-121q-29 -29 -97 -29q-31 0 -92 13t-93 13q-71 0 -103 -40v115q27 40 99 40q37 0 98 -16t87 -16q70 0 101 41z" />
    <glyph glyph-name="uni0308.i" 
d="M-239 675v-125h-130v125h130zM-57 675v-125h-130v125h130z" />
    <glyph glyph-name="uni0307.narrow" 
d="M-195 696h147v-135h-147v135z" />
    <glyph glyph-name="soundrecordingcopyright" horiz-adv-x="812" 
d="M404 690q171 0 271 -96.5t100 -239.5v-34q0 -143 -98.5 -239.5t-272.5 -96.5q-168 0 -267.5 97.5t-99.5 237.5v34q0 143 100 240t267 97zM671 324v25q0 116 -70 183.5t-197 67.5q-125 0 -194 -67.5t-69 -184.5v-26q0 -112 69.5 -181t194.5 -69q126 0 196 68.5t70 183.5z
M452 522q66 0 102 -35t36 -86v-14q0 -53 -36 -85.5t-102 -32.5h-88v-100h-91v353h179zM499 391v9q0 46 -49 46h-86v-103h80q55 0 55 48z" />
    <glyph glyph-name="Nothingroman" horiz-adv-x="7" 
 />
    <glyph glyph-name="soundrecordingcopyright.sc" horiz-adv-x="664" 
d="M329 565q141 0 222.5 -78.5t81.5 -196.5v-28q0 -118 -80.5 -197t-223.5 -79q-136 0 -217 79.5t-81 195.5v29q0 117 80.5 196t217.5 79zM546 265v21q0 95 -57 150t-159 55q-101 0 -156 -55t-55 -151v-21q0 -93 55 -148.5t156 -55.5q102 0 159 55t57 150zM366 429
q54 0 82 -27.5t28 -71.5v-12q0 -45 -28.5 -71.5t-81.5 -26.5h-72v-85h-73v294h145zM402 321v7q0 39 -39 39h-69v-87h65q43 0 43 41z" />
    </font>
</defs>
</svg>
